<svg xmlns="http://www.w3.org/2000/svg" xmlns:xlink="http://www.w3.org/1999/xlink" width="321.561" height="320.942" viewBox="0 0 321.561 320.942"><defs><style>.a,.al{opacity:0.3;}.a{fill:url(#a);}.b{fill:url(#b);}.ah,.as,.c,.j,.k,.n,.q{fill:#fff;}.c{mix-blend-mode:soft-light;isolation:isolate;}.d{fill:url(#c);}.e{fill:url(#d);}.f{fill:url(#e);}.g{fill:url(#f);}.h{fill:url(#g);}.i{fill:url(#h);}.j{opacity:0.32;}.k{opacity:0.35;}.l{fill:url(#i);}.m{fill:url(#j);}.n{opacity:0.6;}.o{fill:url(#k);}.p{fill:url(#l);}.q{opacity:0.67;}.r{fill:url(#m);}.s{fill:url(#n);}.t{fill:url(#o);}.u{fill:url(#p);}.v{fill:url(#q);}.w{fill:url(#r);}.x{fill:url(#s);}.y{fill:url(#t);}.z{fill:url(#u);}.aa{fill:url(#v);}.ab{fill:url(#w);}.ac{fill:url(#x);}.ad{fill:url(#y);}.ae{fill:url(#z);}.af{fill:url(#aa);}.ag{fill:url(#ab);}.ai{fill:url(#ac);}.aj{fill:url(#ad);}.ak{fill:#5436df;}.am{fill:url(#ae);}.an{fill:url(#af);}.ao{fill:url(#ag);}.ap{fill:url(#ah);}.aq{fill:url(#ai);}.ar{fill:url(#aj);}.as{opacity:0.56;}.at{fill:url(#ak);}.au{fill:url(#al);}.av{fill:url(#am);}.aw{fill:url(#an);}.ax{fill:url(#ao);}</style><linearGradient id="a" x1="1.125" y1="1.299" x2="0.238" y2="0.189" gradientUnits="objectBoundingBox"><stop offset="0" stop-color="#b37cff"/><stop offset="1" stop-color="#f895e7"/></linearGradient><linearGradient id="b" x1="-10.699" y1="0.838" x2="-8.08" y2="0.838" gradientUnits="objectBoundingBox"><stop offset="0" stop-color="#a737d5"/><stop offset="1" stop-color="#ef497a"/></linearGradient><linearGradient id="c" x1="1.858" y1="0.657" x2="3.837" y2="0.657" gradientUnits="objectBoundingBox"><stop offset="0" stop-color="#ce1567"/><stop offset="1" stop-color="#7a1dbc"/></linearGradient><linearGradient id="d" x1="0.476" y1="-0.63" x2="0.496" y2="0.112" gradientUnits="objectBoundingBox"><stop offset="0" stop-color="#2b3582"/><stop offset="1" stop-color="#150e42"/></linearGradient><linearGradient id="e" x1="0.5" y1="-0.805" x2="0.495" y2="-19.001" xlink:href="#d"/><linearGradient id="f" x1="0.562" y1="0.132" x2="0.32" y2="1.53" xlink:href="#b"/><linearGradient id="g" x1="0.574" y1="-0.241" x2="0.378" y2="1.721" xlink:href="#a"/><linearGradient id="h" x1="0.55" y1="-5.19" x2="0.497" y2="1.229" xlink:href="#a"/><linearGradient id="i" x1="0.505" y1="-0.142" x2="0.49" y2="1.845" gradientUnits="objectBoundingBox"><stop offset="0" stop-color="#fdf53f"/><stop offset="1" stop-color="#d93c65"/></linearGradient><linearGradient id="j" x1="0.553" y1="-7.302" x2="0.451" y2="8.352" xlink:href="#i"/><linearGradient id="k" x1="0.467" y1="1.167" x2="0.633" y2="-2.186" gradientUnits="objectBoundingBox"><stop offset="0" stop-color="#53d8ff"/><stop offset="1" stop-color="#3840f7"/></linearGradient><linearGradient id="l" x1="0.553" y1="-7.256" x2="0.45" y2="8.306" xlink:href="#k"/><linearGradient id="m" x1="1.13" y1="-3.816" x2="0.671" y2="-2.381" xlink:href="#d"/><linearGradient id="n" x1="0.487" y1="-0.027" x2="0.584" y2="2.425" xlink:href="#i"/><linearGradient id="o" x1="-0.16" y1="-0.191" x2="1.984" y2="2.225" gradientUnits="objectBoundingBox"><stop offset="0" stop-color="#f9b776"/><stop offset="1" stop-color="#f47960"/></linearGradient><linearGradient id="p" x1="-58.187" y1="-0.196" x2="-55.916" y2="2.22" xlink:href="#o"/><linearGradient id="q" x1="0.512" y1="-0.191" x2="0.466" y2="2.513" xlink:href="#d"/><linearGradient id="r" x1="0.532" y1="-0.192" x2="0.925" y2="-8.689" xlink:href="#k"/><linearGradient id="s" x1="0.075" y1="0.098" x2="1.117" y2="0.098" xlink:href="#d"/><linearGradient id="t" x1="1.045" y1="-0.55" x2="3.018" y2="-6.379" gradientUnits="objectBoundingBox"><stop offset="0" stop-color="#7c27dd"/><stop offset="1" stop-color="#2b41d9"/></linearGradient><linearGradient id="u" x1="2.58" y1="-4.058" x2="-0.86" y2="3.366" xlink:href="#o"/><linearGradient id="v" x1="-46.759" y1="-0.432" x2="-45.713" y2="-0.432" xlink:href="#d"/><linearGradient id="w" x1="-243.809" y1="-37.679" x2="-241.893" y2="-43.514" xlink:href="#t"/><linearGradient id="x" x1="3.788" y1="-6.36" x2="0.301" y2="1.144" xlink:href="#o"/><linearGradient id="y" x1="1.041" y1="-0.294" x2="0.227" y2="1.012" xlink:href="#t"/><linearGradient id="z" x1="0.572" y1="0.897" x2="0.346" y2="-0.262" xlink:href="#t"/><linearGradient id="aa" x1="0.511" y1="1.753" x2="0.489" y2="-0.794" xlink:href="#o"/><linearGradient id="ab" x1="1.283" y1="-2.047" x2="1.36" y2="-3.435" xlink:href="#o"/><linearGradient id="ac" x1="1.093" y1="-4.013" x2="0.638" y2="-2.438" xlink:href="#d"/><linearGradient id="ad" x1="1.423" y1="1.105" x2="2.174" y2="-7.368" xlink:href="#o"/><linearGradient id="ae" x1="-1.175" y1="9.425" x2="0.041" y2="9.425" xlink:href="#a"/><linearGradient id="af" x1="-12.936" y1="181.469" x2="-11.99" y2="181.469" xlink:href="#a"/><linearGradient id="ag" x1="-19.145" y1="145.176" x2="-18.297" y2="145.176" xlink:href="#a"/><linearGradient id="ah" x1="-1.329" y1="11.126" x2="-0.127" y2="11.126" xlink:href="#a"/><linearGradient id="ai" x1="-18.359" y1="230.03" x2="-17.418" y2="230.03" xlink:href="#a"/><linearGradient id="aj" x1="0.676" y1="0.01" x2="-0.086" y2="2.127" xlink:href="#i"/><linearGradient id="ak" x1="-32.606" y1="234" x2="-31.797" y2="234" xlink:href="#a"/><linearGradient id="al" x1="-2.536" y1="15.793" x2="-1.254" y2="15.793" xlink:href="#a"/><linearGradient id="am" x1="-2.176" y1="28.185" x2="-1.04" y2="28.185" xlink:href="#a"/><linearGradient id="an" x1="-25.775" y1="354.247" x2="-24.848" y2="354.247" xlink:href="#a"/><linearGradient id="ao" x1="0.867" y1="-0.284" x2="-0.303" y2="2.215" xlink:href="#i"/></defs><g transform="translate(-428.124 -441.527)"><path class="a" d="M720.19,722.3a115.6,115.6,0,0,1-17.733,14.75c-57.848,41-126.3,29.052-140.846,26.133-21.482-4.31-63.007-12.642-93.028-47.519-45.42-52.766-38.347-135.9-3.117-190.774,6.444-10.038,40.485-65.75,109.672-74.684,41.871-5.407,90.68,5.5,126.026,34.752C775.358,546.365,770.077,670.418,720.19,722.3Z" transform="translate(-7.666 -6.516)"/><g transform="translate(679.914 441.527)"><g transform="translate(0 0)"><path class="b" d="M2704.377,607.514a3.61,3.61,0,0,0,5.908-1.006c5.836-12.884,19.042-50.8-2.769-94.489-18.418-36.89-24.9-58.644-27.157-68.723a2.263,2.263,0,0,0-4.28-.416C2666.352,464.926,2640.668,539.919,2704.377,607.514Z" transform="translate(-2662.681 -441.527)"/><path class="c" d="M2862.158,978.863a1,1,0,0,0,1.178-1c-.009-.627-1.229-63.251-24.521-115.7a1,1,0,1,0-1.83.813c23.122,52.069,24.339,114.3,24.349,114.919A1,1,0,0,0,2862.158,978.863Z" transform="translate(-2817.269 -814.237)"/></g></g><g transform="translate(670.739 442.805)"><path class="d" d="M2655.364,454.927c.385-1.639-1.921-2.729-3.333-1.584-14.339,11.628-48.792,46.447-40.206,107.3,10.773,76.345-7.644,104.2-30.57,121.2,0,0,31.484-7.991,51.292-36.259C2681.181,576.173,2648.516,484.074,2655.364,454.927Z" transform="translate(-2581.255 -452.869)"/><path class="c" d="M2724.468,678.59c-1.794,8.5-3.393,17.024-4.628,25.588q-1.931,12.835-2.949,25.743c-.637,8.6-1.086,17.213-1.112,25.827-.07,8.614.288,17.221.682,25.861.338,8.637.736,17.337.1,26.1a77.37,77.37,0,0,1-6.115,25.831c-.913,2.061-1.873,4.115-2.964,6.1-1.048,2-2.2,3.967-3.392,5.912a93.3,93.3,0,0,1-8.134,11.189,102.61,102.61,0,0,1-21.417,18.743,2.144,2.144,0,0,1-2.711-.308,1.519,1.519,0,0,1,.312-2.311l.006,0c1.916-1.345,3.811-2.708,5.629-4.139.923-.7,1.807-1.44,2.708-2.162.867-.751,1.769-1.473,2.609-2.246a93.072,93.072,0,0,0,23.369-32.06,75.469,75.469,0,0,0,4.055-12.174,83.154,83.154,0,0,0,1.956-12.609c.689-8.5.378-17.117.111-25.756s-.439-17.326-.212-26q.151-6.508.572-13.007c.126-2.166.3-4.33.47-6.494q.291-3.243.63-6.483,1.4-12.954,3.715-25.805c1.6-8.555,3.455-17.071,5.69-25.51a.526.526,0,0,1,.621-.337A.455.455,0,0,1,2724.468,678.59Z" transform="translate(-2661.271 -652.687)"/></g><g transform="translate(428.124 557.977)"><path class="e" d="M556.33,1649.07a5.135,5.135,0,0,0,5.122,5.117h277a5.135,5.135,0,0,0,5.123-5.117l2.3-159.183c0-2.814-3.316-8.309-9.393-7.9l-270.712-7a12.908,12.908,0,0,0-13.245,13.2Z" transform="translate(-538.506 -1474.982)"/><rect class="f" width="318.254" height="14.773" rx="5.654" transform="translate(318.254 193.207) rotate(180)"/><path class="g" d="M600.786,1691.959a4.86,4.86,0,0,0,4.846,4.846H871.169a4.86,4.86,0,0,0,4.846-4.846l2.175-144.507c-.256-8.7-7.88-11.822-12.5-11.637l-259.453-6.961a9.072,9.072,0,0,0-9.307,9.284Z" transform="translate(-577.904 -1522.781)"/></g><g transform="translate(459.159 478.839)"><rect class="h" width="237.525" height="138.338" rx="41" transform="translate(0 0)"/><path class="i" d="M941.133,794.384v-6.211a13.128,13.128,0,0,0-13.222-13.1h-211.2a13.075,13.075,0,0,0-13.16,13.1v6.211Z" transform="translate(-703.547 -774.796)"/><g transform="translate(7.444 25.979)"><rect class="j" width="67.483" height="48.972" rx="7.832" transform="translate(0.147 0.467)"/><rect class="j" width="76.076" height="32.702" rx="9.33" transform="translate(143.131)"/><rect class="j" width="76.076" height="32.702" rx="9.495" transform="translate(143.432 36.06)"/><rect class="j" width="76.076" height="32.702" rx="11.327" transform="translate(143.733 72.12)"/><rect class="j" width="67.483" height="48.972" rx="9" transform="translate(0 55.308)"/><rect class="j" width="67.483" height="48.972" rx="7.832" transform="translate(71.31 0.467)"/><rect class="j" width="67.483" height="48.972" rx="9" transform="translate(71.163 55.308)"/></g><g transform="translate(7.85 3.806)"><circle class="k" cx="4.853" cy="4.853" r="4.853" transform="translate(0 1.488)"/><circle class="k" cx="4.853" cy="4.853" r="4.853" transform="translate(28.035 3.714) rotate(-22.5)"/><circle class="k" cx="4.853" cy="4.853" r="4.853" transform="translate(14.559 1.488)"/></g></g><g transform="translate(492.382 528.305)"><rect class="l" width="230.853" height="134.453" rx="41" transform="translate(0.21)"/><path class="m" d="M1229.414,1232.841v-6.182a12.679,12.679,0,0,0-12.746-12.747H1011.4a12.9,12.9,0,0,0-13,12.747v6.182Z" transform="translate(-998.395 -1213.657)"/><rect class="n" width="64.982" height="65.367" rx="7.832" transform="translate(8.124 24.919)"/><rect class="n" width="64.982" height="65.367" rx="7.832" transform="translate(78.344 24.92)"/><rect class="n" width="73.939" height="47.951" rx="9.33" transform="translate(148.102 25.25)"/><rect class="n" width="73.939" height="47.951" rx="9.495" transform="translate(148.395 78.898)"/><rect class="n" width="133.851" height="30.916" rx="9" transform="translate(8.605 96.061)"/><g transform="translate(5.886 3.191)"><circle class="k" cx="4.717" cy="4.717" r="4.717" transform="translate(0 6.671) rotate(-45)"/><circle class="k" cx="4.717" cy="4.717" r="4.717" transform="translate(29.689 10.177) rotate(-76.717)"/><circle class="k" cx="4.717" cy="4.717" r="4.717" transform="translate(14.15 6.671) rotate(-45)"/></g></g><g transform="translate(511.312 597.288)"><path class="o" d="M41,0H196.525a41,41,0,0,1,41,41v66.838a30.5,30.5,0,0,1-30.5,30.5H41a41,41,0,0,1-41-41V41A41,41,0,0,1,41,0Z" transform="translate(0.062)"/><path class="p" d="M1403.975,1843.877v-6.361a13.278,13.278,0,0,0-13.16-13.341h-211.2a13.33,13.33,0,0,0-13.222,13.341v6.361Z" transform="translate(-1166.389 -1824.139)"/><rect class="n" width="137.719" height="48.972" rx="7.832" transform="translate(9.352 26.833)"/><rect class="n" width="76.076" height="32.702" rx="9.33" transform="translate(152.183 25.979)"/><rect class="n" width="76.076" height="32.702" rx="9.495" transform="translate(152.484 62.039)"/><rect class="n" width="76.076" height="32.702" rx="11.327" transform="translate(152.784 98.099)"/><rect class="n" width="137.719" height="48.972" rx="9" transform="translate(9.051 81.674)"/><g transform="translate(7.911 5.294)"><circle class="q" cx="4.853" cy="4.853" r="4.853" transform="translate(0 0)"/><circle class="q" cx="4.853" cy="4.853" r="4.853" transform="translate(29.522)"/><circle class="q" cx="4.853" cy="4.853" r="4.853" transform="translate(14.559 0)"/></g></g><g transform="translate(568.973 619.302)"><g transform="translate(0 0)"><path class="r" d="M2025.95,2061.305c-.092.175-2.879,2.138-2.879,2.138s-1.937,10.666,1.615,15.917,15.657-4.1,15.657-4.1,6.809-1.065,10.229-14.452c.785-3.072-4.123-.738-9.589-.172C2033.935,2061.367,2025.95,2061.305,2025.95,2061.305Z" transform="translate(-1983.733 -2054.744)"/><path class="s" d="M1867,2344.141a25.018,25.018,0,0,1,7.6-3.536c1.021-.278,6.534,1.324,9.942,1.246,4.678-.108,9.44-2.237,13.3-1.275a27.815,27.815,0,0,1,8.775,3.489c5.418,3.854,8.6,11.039,10.538,18.156a24.809,24.809,0,0,1-8.29,5.443l-.854,34.6-20.458,10.467L1864.2,2401l.836-33.809s-7.415-3.453-7.959-4.709S1860.46,2348.639,1867,2344.141Z" transform="translate(-1836.869 -2304.144)"/><path class="t" d="M1843.458,2535.638s-9.936,27.547,12.722,38.868c4.7-.625,2.9-8.438,2.9-8.438s-9.845-2.179-6.888-25.158A63.637,63.637,0,0,0,1843.458,2535.638Z" transform="translate(-1822.901 -2477.447)"/><path class="u" d="M2260.692,2535.638s6.837,28.755-12.722,38.868c-4.7-.625-2.9-8.438-2.9-8.438s7.934-3.907,6.888-25.158A63.63,63.63,0,0,1,2260.692,2535.638Z" transform="translate(-2180.886 -2477.447)"/><rect class="v" width="44.861" height="30.296" rx="5.051" transform="translate(27.064 68.698)"/><path class="w" d="M2096.619,2680.859a2.737,2.737,0,0,1-2.231,3.3,2.942,2.942,0,0,1-3.341-2.479c-.238-1.607.5-3.2,2.105-3.442A3.169,3.169,0,0,1,2096.619,2680.859Z" transform="translate(-2044.478 -2603.957)"/><g transform="translate(70.547 107.065)"><path class="x" d="M2347.077,2971.832c-5.134-1.179-17-.545-17-.545l-.483,1.307-.8,6.5s11.3,2.037,16.87,2.032a5.236,5.236,0,0,0,1.563-.234,6.785,6.785,0,0,0,.493-.482C2350.085,2977.826,2349.4,2974.035,2347.077,2971.832Z" transform="translate(-2326.023 -2970.921)"/><path class="y" d="M2491.548,2977.591c-.161-.045-.331-.088-.509-.129,2.325,2.2,3.007,5.994.644,8.575-.157.172-.323.33-.493.482C2495.369,2985.218,2495.864,2978.8,2491.548,2977.591Z" transform="translate(-2469.985 -2976.551)"/><path class="z" d="M2304.835,2969.38l2.009.086a3.869,3.869,0,0,1,2.823,1.459,4.764,4.764,0,0,1,1.036,3.258,3.75,3.75,0,0,1-1.087,2.478,3.043,3.043,0,0,1-2.351.893l-3.074-.219Z" transform="translate(-2304.19 -2969.38)"/></g><g transform="translate(0 106.891)"><path class="aa" d="M1692.725,2968.3c5.161-1.021,17.007-.023,17.007-.023l.45,1.321.637,6.519s-11.347,1.689-16.914,1.513a5.25,5.25,0,0,1-1.556-.281c-.166-.157-.328-.321-.481-.5A6.115,6.115,0,0,1,1692.725,2968.3Z" transform="translate(-1689.094 -2967.837)"/><path class="ab" d="M1681.228,2972.029c.162-.04.333-.078.512-.113a6.115,6.115,0,0,0-.858,8.552c.153.176.315.339.481.5C1677.218,2979.537,1676.883,2973.11,1681.228,2972.029Z" transform="translate(-1678.109 -2971.457)"/><path class="ac" d="M1844.438,2969.4l-2.01.024a3.845,3.845,0,0,0-2.858,1.372,4.74,4.74,0,0,0-1.116,3.225,3.771,3.771,0,0,0,1.025,2.51,3.061,3.061,0,0,0,2.328.965l3.079-.125Z" transform="translate(-1820.384 -2969.219)"/></g><path class="ad" d="M1946.906,2756.833c-2.328-5.358-8.023-6.228-12.87-3.723-.084.111-30.779,15.842-57.848,22.737a29.422,29.422,0,0,1,1.26,7.726q.023.868-.028,1.713c20.758-1.066,43.286-7.989,62.645-14.073A10.7,10.7,0,0,0,1946.906,2756.833Z" transform="translate(-1853.869 -2669.224)"/><path class="ae" d="M1792.18,2778.218a17.848,17.848,0,0,1,1.747-8.364c.036-.118.078-.232.116-.348-1.546-.479-3.543-1.127-6.166-2.017a295.9,295.9,0,0,1-47.88-20.866c-5.437-2.971-11.619-.98-13.359,5.454-1.554,5.743,1.972,10.335,7.036,12.369,17.409,6.993,42.982,13.381,58.539,14.426C1792.2,2778.652,1792.187,2778.434,1792.18,2778.218Z" transform="translate(-1720.841 -2663.461)"/><path class="af" d="M2012.981,2272.719a11.856,11.856,0,0,0,12.1,8.772c10.223-.186,11.134-8.8,11.134-8.8l-6.678-1.429-.558-7.44-10.045.744-.186,7.068Z" transform="translate(-1975.248 -2236.258)"/><path class="ag" d="M2041.226,2069.192s-10.7,20.718,1.992,25.744c8.949,3.545,14.56-13.759,12.886-18.445-2.588-7.247-4.292-6.387-4.292-6.387Z" transform="translate(-1996.571 -2063.561)"/><path class="ah" d="M2205.82,2132.164c-.03-.085-.056-.159-.08-.229.041.382.063.78.067,1.191q.025-.438.04-.877C2205.838,2132.22,2205.83,2132.19,2205.82,2132.164Z" transform="translate(-2146.286 -2119.233)"/><path class="ah" d="M2204.407,2126.893c-.015-.142-.032-.282-.052-.419C2204.9,2127.39,2203.846,2125.254,2204.407,2126.893Z" transform="translate(-2144.953 -2114.192)"/><path class="ai" d="M2050.441,2019.285c5.731-1.3,1.753,16.424-6.779,13.518s-12.507-4.691-13.836-2.349-3.545,11.926-4.281,6.957c-.688-4.644-1.354-13.155,3.129-15.013,2.546-1.055,4.784,1.231,6.538.659,2.7-.881,5.3-.91,6.908.015C2045.156,2024.823,2046.8,2020.114,2050.441,2019.285Z" transform="translate(-1985.956 -2019.217)"/><path class="aj" d="M2034.669,2139.909s-1.85-2.794-2.693.065-.308,6.809,1.388,4.973S2034.669,2139.909,2034.669,2139.909Z" transform="translate(-1991.754 -2125.225)"/></g><path class="ak" d="M2020.138,2347.5a12.324,12.324,0,0,1-12.381-9.2.591.591,0,0,1,1.134-.336,11.13,11.13,0,0,0,11.224,8.352c.1,0,.2,0,.3,0a12.213,12.213,0,0,0,6.023-1.52.591.591,0,1,1,.6,1.02,13.376,13.376,0,0,1-6.6,1.682Z" transform="translate(-1970.591 -2301.675)"/></g><g transform="translate(429.458 638.929)"><g transform="translate(32.323 26.815)"><g class="al" transform="translate(0 29.889)"><path class="am" d="M731.665,2696.723a1.212,1.212,0,0,1,.685,1.572c-.476,1.21-.906,2.46-1.278,3.713a1.212,1.212,0,0,1-1.485.823l-.023-.006a1.212,1.212,0,0,1-.816-1.508c.392-1.319.845-2.635,1.346-3.909a1.212,1.212,0,0,1,1.45-.725A1.186,1.186,0,0,1,731.665,2696.723Zm-1.988,11.509c-.2,1.292-.343,2.6-.43,3.9a1.212,1.212,0,1,1-2.418-.163c.092-1.365.244-2.747.452-4.106a1.212,1.212,0,0,1,1.382-1.014,1.256,1.256,0,0,1,.141.03A1.212,1.212,0,0,1,729.677,2708.232Zm-.415,10.278c.094,1.3.246,2.611.451,3.9a1.212,1.212,0,1,1-2.394.382c-.216-1.356-.376-2.737-.475-4.106a1.212,1.212,0,1,1,2.418-.175Zm1.894,10.112c.383,1.247.824,2.493,1.312,3.7a1.212,1.212,0,0,1-2.248.907c-.513-1.273-.978-2.584-1.381-3.9a1.212,1.212,0,0,1,2.318-.712Zm4.1,9.438c.649,1.128,1.355,2.246,2.1,3.319a1.212,1.212,0,1,1-1.992,1.381c-.783-1.129-1.526-2.3-2.209-3.492a1.212,1.212,0,0,1,2.1-1.208Zm6.086,8.3c.883.959,1.819,1.891,2.781,2.772a1.212,1.212,0,0,1-1.637,1.788c-1.012-.926-2-1.908-2.927-2.917a1.212,1.212,0,0,1,1.783-1.643Zm42.346,15.258a1.212,1.212,0,0,1-1.008,1.386c-1.355.214-2.737.371-4.108.468a1.212,1.212,0,0,1-.171-2.418c1.3-.092,2.615-.241,3.9-.445a1.211,1.211,0,0,1,1.386,1.009Zm-34.578-8.522c1.074.738,2.193,1.438,3.326,2.081a1.212,1.212,0,1,1-1.2,2.109c-1.193-.677-2.372-1.414-3.5-2.191a1.212,1.212,0,1,1,1.373-2Zm24.039,9.254a1.212,1.212,0,0,1-1.293,1.125c-1.368-.095-2.75-.25-4.107-.461a1.212,1.212,0,1,1,.372-2.4c1.29.2,2.6.348,3.9.438a1.25,1.25,0,0,1,.24.041A1.213,1.213,0,0,1,773.149,2762.346Zm-14.961-4.424c1.211.479,2.459.911,3.709,1.286a1.212,1.212,0,0,1-.67,2.329l-.025-.008c-1.316-.394-2.63-.849-3.9-1.352a1.212,1.212,0,0,1,.767-2.3A1.29,1.29,0,0,1,758.187,2757.922Z" transform="translate(-726.825 -2696.639)"/><path class="an" d="M1270.354,3245.743a1.206,1.206,0,0,0-.723.025c-.59.207-1.194.406-1.795.59a1.212,1.212,0,1,0,.71,2.318c.633-.193,1.267-.4,1.888-.62a1.212,1.212,0,0,0-.08-2.312Z" transform="translate(-1206.114 -3183.831)"/></g><g class="al" transform="translate(29.454)"><path class="ao" d="M1520.653,3024.87a1.213,1.213,0,0,0-1.424.665c-.26.568-.536,1.141-.821,1.7a1.212,1.212,0,1,0,2.161,1.1c.3-.59.59-1.193.864-1.791a1.213,1.213,0,0,0-.6-1.606A1.26,1.26,0,0,0,1520.653,3024.87Z" transform="translate(-1458.549 -2957.957)"/><path class="ap" d="M1085.641,2433.838a1.212,1.212,0,0,1-.76,2.3c-1.21-.4-2.456-.754-3.718-1.058a1.212,1.212,0,0,1,.568-2.357q.82.2,1.626.421C1084.124,2433.358,1084.893,2433.591,1085.641,2433.838Zm-9.338-.892a1.212,1.212,0,0,1-1.328,1.084c-1.279-.129-2.577-.205-3.858-.227a1.212,1.212,0,1,1,.04-2.423c1.349.022,2.715.1,4.061.239a1.249,1.249,0,0,1,.2.038A1.213,1.213,0,0,1,1076.3,2432.946Zm15.454,3.388c1.211.594,2.413,1.248,3.572,1.944a1.212,1.212,0,0,1-1.248,2.079c-1.1-.661-2.242-1.282-3.392-1.846a1.212,1.212,0,0,1,.856-2.257A1.193,1.193,0,0,1,1091.757,2436.334Zm-25.848-3.554a1.212,1.212,0,0,1-1.057,1.349c-1.274.155-2.556.366-3.812.627a1.212,1.212,0,0,1-.495-2.373c1.322-.276,2.673-.5,4.014-.661a1.21,1.21,0,0,1,1.349,1.057Zm34.833,9.275c1.05.845,2.078,1.747,3.057,2.681a1.212,1.212,0,1,1-1.674,1.753c-.93-.887-1.906-1.744-2.9-2.546a1.212,1.212,0,1,1,1.52-1.889Zm7.512,7.553c.842,1.057,1.649,2.161,2.4,3.283a1.212,1.212,0,1,1-2.015,1.347c-.713-1.066-1.479-2.115-2.279-3.12a1.212,1.212,0,0,1,1.9-1.51Zm5.688,9.011c.592,1.216,1.139,2.47,1.626,3.727a1.212,1.212,0,0,1-2.26.876c-.463-1.2-.983-2.386-1.545-3.542a1.212,1.212,0,0,1,2.18-1.061Zm3.586,10.037c.312,1.315.571,2.66.77,4a1.212,1.212,0,1,1-2.4.357c-.189-1.268-.435-2.544-.732-3.793a1.212,1.212,0,1,1,2.359-.559Zm1.294,10.586c.014,1.348-.029,2.715-.129,4.063a1.212,1.212,0,0,1-2.418-.178c.095-1.281.136-2.579.123-3.86a1.212,1.212,0,1,1,2.424-.025Zm-1.061,10.6c-.206.972-.445,1.95-.709,2.906q-.144.52-.3,1.033a1.2,1.2,0,0,1-1.509.812,1.212,1.212,0,0,1-.812-1.509q.146-.488.283-.982c.252-.909.478-1.838.674-2.762a1.212,1.212,0,0,1,1.437-.934l.073.018A1.212,1.212,0,0,1,1117.76,2489.843Z" transform="translate(-1051.539 -2431.379)"/><path class="aq" d="M991.563,2455.666a1.205,1.205,0,0,0-.729.027c-.618.22-1.243.458-1.858.707a1.212,1.212,0,0,0,.908,2.248c.584-.236,1.178-.462,1.765-.671a1.212,1.212,0,0,0-.085-2.31Z" transform="translate(-988.217 -2452.891)"/></g><g transform="translate(11.747 12.283)"><path class="ar" d="M843.208,2549.644a.566.566,0,0,0-.216.621l1.935,6.618a30.038,30.038,0,0,0-5.186,8.234l-6.8,1.119a.567.567,0,0,0-.467.464l-1.391,8.153a.567.567,0,0,0,.286.592l6.044,3.31a30.03,30.03,0,0,0,2.162,9.488l-4.019,5.6a.567.567,0,0,0,0,.658l4.781,6.748a.566.566,0,0,0,.621.216l6.618-1.935a30.026,30.026,0,0,0,8.234,5.186l1.119,6.8a.566.566,0,0,0,.464.466l8.153,1.391a.567.567,0,0,0,.592-.287l3.31-6.044a30.027,30.027,0,0,0,9.488-2.162l5.6,4.02a.566.566,0,0,0,.658,0l6.748-4.781a.567.567,0,0,0,.216-.621l-1.935-6.618a30.024,30.024,0,0,0,5.185-8.234l6.8-1.119a.567.567,0,0,0,.467-.464l1.391-8.153a.566.566,0,0,0-.286-.592l-6.044-3.31a30.037,30.037,0,0,0-2.162-9.488l4.019-5.6a.566.566,0,0,0,0-.658l-4.781-6.748a.566.566,0,0,0-.621-.216l-6.618,1.934a30.03,30.03,0,0,0-8.234-5.185l-1.119-6.8a.568.568,0,0,0-.464-.467l-8.153-1.391a.566.566,0,0,0-.592.287l-3.31,6.043a30.041,30.041,0,0,0-9.488,2.163l-5.6-4.02a.566.566,0,0,0-.658,0Z" transform="translate(-831.077 -2540.383)"/><path class="as" d="M1092.9,2791.24a8.309,8.309,0,1,1-1.15-.411A8.322,8.322,0,0,1,1092.9,2791.24Zm-1.061,13.548a6.374,6.374,0,1,0-4.877-.115,6.455,6.455,0,0,0,.89.318A6.325,6.325,0,0,0,1091.838,2804.788Z" transform="translate(-1053.038 -2762.344)"/><path class="as" d="M1000.3,2684.963a20.822,20.822,0,0,0-2.05-.457h0q-.328-.056-.659-.1a20.592,20.592,0,0,0-3.268-.187h-.044l-.126,0-.246.009a.485.485,0,1,0,.042.969,19.494,19.494,0,0,1,18.816,11.931,19.353,19.353,0,0,1,1.242,10.8,19.731,19.731,0,0,1-.436,1.956,19.473,19.473,0,0,1-37.953-8.5,19.473,19.473,0,0,1,4.4-9.392.48.48,0,0,0,.1-.186.485.485,0,0,0-.835-.445,20.443,20.443,0,1,0,35.222,18.789,20.907,20.907,0,0,0,.458-2.053,20.445,20.445,0,0,0-14.663-23.131Z" transform="translate(-958.221 -2668.005)"/></g></g><g class="al" transform="translate(0 14.906)"><path class="at" d="M475.635,2325.715a.748.748,0,0,0-.835.327c-.335.54-.659,1.1-.961,1.657a.749.749,0,0,0,1.317.712c.288-.533.6-1.065.916-1.58a.749.749,0,0,0-.241-1.031A.758.758,0,0,0,475.635,2325.715Z" transform="translate(-469.942 -2325.688)"/><path class="au" d="M443.157,2371.454a.749.749,0,0,1,.425.97,31.157,31.157,0,0,0-.99,2.981q-.088.319-.169.641a.749.749,0,0,1-.91.541.775.775,0,0,1-.541-.91q.086-.337.178-.67a32.55,32.55,0,0,1,1.039-3.125.749.749,0,0,1,.9-.45C443.109,2371.437,443.133,2371.445,443.157,2371.454Zm-1.445,8.326a31.047,31.047,0,0,0-.249,3.792.749.749,0,1,1-1.5-.006,32.452,32.452,0,0,1,.262-3.976.75.75,0,0,1,.838-.648.833.833,0,0,1,.105.022A.749.749,0,0,1,441.713,2379.78Zm-.027,7.589a30.761,30.761,0,0,0,.691,3.739.749.749,0,0,1-1.453.362,32.278,32.278,0,0,1-.724-3.921.749.749,0,0,1,1.487-.18Zm1.838,7.363a30.911,30.911,0,0,0,1.584,3.455.749.749,0,0,1-1.32.708,32.536,32.536,0,0,1-1.661-3.624.749.749,0,1,1,1.4-.539Zm3.58,6.692a31.173,31.173,0,0,0,2.376,2.967.749.749,0,1,1-1.11,1.005,32.742,32.742,0,0,1-2.49-3.109.749.749,0,0,1,1.224-.863Zm5.1,5.62a30.613,30.613,0,0,0,3.025,2.3.749.749,0,1,1-.83,1.247,32.159,32.159,0,0,1-3.173-2.408.749.749,0,0,1,.978-1.134Zm6.313,4.2a30.672,30.672,0,0,0,3.5,1.484.749.749,0,0,1-.5,1.413,32.405,32.405,0,0,1-3.669-1.557.749.749,0,0,1,.533-1.392A.763.763,0,0,1,458.511,2411.245Zm11.586,3.931a.748.748,0,0,1-.816.675,32.546,32.546,0,0,1-3.424-.51c-.172-.034-.343-.071-.514-.108a.741.741,0,0,1-.569-.893.749.749,0,0,1,.893-.569c.16.036.321.07.485.1a31.063,31.063,0,0,0,3.27.487.8.8,0,0,1,.13.024A.749.749,0,0,1,470.1,2415.176Z" transform="translate(-439.966 -2366.252)"/></g><g class="al" transform="translate(19.78)"><path class="av" d="M680.327,2194.674a32.622,32.622,0,0,1,3.69,1.319.749.749,0,0,1-.589,1.377,30.929,30.929,0,0,0-3.52-1.258.749.749,0,0,1,.408-1.441Zm-3.207-.006a.748.748,0,0,1-.86.617,31.249,31.249,0,0,0-3.721-.384.749.749,0,0,1,.064-1.5,32.756,32.756,0,0,1,3.9.4.715.715,0,0,1,.079.017A.748.748,0,0,1,677.12,2194.668Zm10.4,3.085a32.516,32.516,0,0,1,3.263,2.172.749.749,0,0,1-.9,1.194,31.06,31.06,0,0,0-3.112-2.073.748.748,0,0,1,.576-1.368A.729.729,0,0,1,687.523,2197.753Zm-18.036-3.588a.749.749,0,0,1-.686.806,30.749,30.749,0,0,0-3.7.525.748.748,0,1,1-.3-1.467,32.1,32.1,0,0,1,3.884-.552.749.749,0,0,1,.806.687Zm24.272,8.313a32.607,32.607,0,0,1,2.644,2.893.749.749,0,1,1-1.165.942,30.806,30.806,0,0,0-2.522-2.759.749.749,0,0,1,1.042-1.076Zm4.921,6.084a32.726,32.726,0,0,1,1.876,3.442.749.749,0,0,1-1.355.635,31.236,31.236,0,0,0-1.79-3.284.749.749,0,1,1,1.27-.794Zm3.323,7.087a32.337,32.337,0,0,1,1,3.793.749.749,0,0,1-1.469.292,30.623,30.623,0,0,0-.95-3.617.748.748,0,0,1,.478-.945.738.738,0,0,1,.433-.01A.748.748,0,0,1,702,2215.648Z" transform="translate(-658.713 -2193.404)"/><path class="aw" d="M618.212,2207.773a.747.747,0,0,0-.438.012c-.607.2-1.211.428-1.8.664a.749.749,0,0,0,.561,1.389c.557-.225,1.133-.438,1.713-.634a.749.749,0,0,0-.04-1.431Z" transform="translate(-615.51 -2206.13)"/></g><g transform="translate(7.869 8.133)"><path class="ax" d="M517.923,2271.776a.38.38,0,0,0-.145.416l1.294,4.429a20.094,20.094,0,0,0-3.47,5.51l-4.55.749a.379.379,0,0,0-.312.311l-.931,5.456a.379.379,0,0,0,.191.4l4.044,2.215a20.092,20.092,0,0,0,1.447,6.349l-2.689,3.749a.379.379,0,0,0,0,.44l3.2,4.516a.379.379,0,0,0,.416.145l4.429-1.294a20.09,20.09,0,0,0,5.51,3.47l.749,4.55a.379.379,0,0,0,.31.312l5.456.931a.379.379,0,0,0,.4-.191l2.215-4.044a20.089,20.089,0,0,0,6.349-1.447l3.749,2.689a.379.379,0,0,0,.44,0l4.516-3.2a.379.379,0,0,0,.145-.416l-1.294-4.429a20.09,20.09,0,0,0,3.47-5.509l4.55-.749a.378.378,0,0,0,.312-.31l.931-5.456a.38.38,0,0,0-.192-.4l-4.044-2.214a20.1,20.1,0,0,0-1.447-6.349l2.69-3.749a.38.38,0,0,0,0-.44l-3.2-4.516a.379.379,0,0,0-.416-.145l-4.428,1.294a20.092,20.092,0,0,0-5.51-3.47l-.749-4.55a.378.378,0,0,0-.31-.312l-5.456-.931a.379.379,0,0,0-.4.192l-2.215,4.044a20.1,20.1,0,0,0-6.349,1.447l-3.749-2.689a.379.379,0,0,0-.44,0Z" transform="translate(-509.805 -2265.58)"/><path class="as" d="M684.258,2432.541a5.644,5.644,0,1,1-.79-.282A5.749,5.749,0,0,1,684.258,2432.541Zm1.521,6.864a4.166,4.166,0,0,0-2.126-5.495h0a4.166,4.166,0,0,0-3.369,7.62,4.233,4.233,0,0,0,.576.206A4.172,4.172,0,0,0,685.778,2439.4Z" transform="translate(-657.544 -2413.296)"/><path class="as" d="M619.779,2358.575q-.685-.189-1.4-.312a14.181,14.181,0,0,0-2.867-.195l-.129.005a.749.749,0,1,0,.065,1.5,12.666,12.666,0,0,1,2.678.17h0l.145.026a12.482,12.482,0,0,1,5.619,2.557,12.683,12.683,0,0,1,2.336,2.463l.016.023.05.07a12.523,12.523,0,0,1,2.14,9.407,12.752,12.752,0,0,1-.282,1.266,12.606,12.606,0,1,1-21.721-11.585.749.749,0,1,0-1.137-.975,14.1,14.1,0,1,0,24.3,12.962,14.351,14.351,0,0,0,.316-1.416A14.124,14.124,0,0,0,619.779,2358.575Z" transform="translate(-591.524 -2347.639)"/></g></g></g></svg>