<svg xmlns="http://www.w3.org/2000/svg" width="367.656" height="371.272" viewBox="0 0 367.656 371.272"><defs><style>.a{fill:#3c8f7c;}.b{fill:#50bfa5;}.c{fill:#96d9c9;}.d{fill:#256653;}.e{fill:#327f6b;}.f{fill:#b75742;}.g{fill:#f47458;}.h{fill:#fcf5eb;}.i{fill:#184655;}.j{fill:#12353d;}.k{fill:#f7a491;}.l{fill:#f7cc7f;}.m{fill:#e25a44;}.n{fill:#355389;}.o{fill:#466eb6;}.p{fill:#fff;}.q{fill:#f79c8d;}.r{fill:#f48c7f;}.s{fill:#3cb4c5;}.t{fill:#f8a492;}.u{fill:#fe875e;}.v{fill:#13375b;}.w{fill:#0e2e35;}.x{fill:#eab765;}</style></defs><g transform="translate(-96.594 -98.707)"><g transform="translate(113.636 249.915)"><g transform="translate(0 0)"><path class="a" d="M267.255,1061.875s-51.18-25.236-59.982-38.4,4.137-13.907,4.137-13.907-22.839-22.213-19.626-31.564,15.045-.775,15.045-.775-14.686-32.691-7.761-35.977c12.9-6.121,30.991,29.053,30.991,29.053s-3.888-15.28,4.993-14.784c13.394.749,12.841,35.313,12.841,35.313s1.513-13.253,9.586-8.948C271.963,989.612,267.255,1061.875,267.255,1061.875Z" transform="translate(-191.474 -940.538)"/></g><path class="b" d="M295.074,976.542c-6.3-3.5-12.583,6.727-12.583,6.727s.636-27-12.758-27.746c-8.881-.5-4.993,14.784-4.993,14.784s-18.094-35.174-30.991-29.053L302,1061.313C302.478,1052.929,307.562,983.472,295.074,976.542Z" transform="translate(-226.156 -940.538)"/></g><g transform="translate(96.594 313.782)"><g transform="translate(0 3.936)"><path class="a" d="M188.1,1371.869s-41.859,5.2-52.7.565-3.071-10.355-3.071-10.355-23.272-4.574-25.067-11.713,8.94-6.569,8.94-6.569-22.315-14.451-19.331-19.314c5.557-9.059,31.135,5.528,31.135,5.528s-8.634-7.951-2.893-11.25c8.659-4.976,22.359,16.808,22.359,16.808s-.851-5.369,5.934-5.965C165.577,1328.537,188.1,1371.869,188.1,1371.869Z" transform="translate(-96.594 -1318.022)"/></g><path class="b" d="M154.933,1307.726c-6.785.6-6.208,9.866-6.208,9.866s-13.948-25.822-22.606-20.847c-5.741,3.3,1.051,14.135,1.051,14.135s-23.489-13.434-29.046-4.375l91.353,47.154C186.37,1348.234,166.3,1306.729,154.933,1307.726Z" transform="translate(-97.848 -1296.109)"/></g><path class="b" d="M1833.744,1230.484l2.249-5.434a7.674,7.674,0,0,1,9.97-4.262h0c9.48,4.138,13.6,15.657,9.206,25.728l-3.214,7.363a9.245,9.245,0,0,0,.981,9.276,8.165,8.165,0,0,1,.81,8.171l-1.695,3.882a15.432,15.432,0,0,1-9.637,8.6,9.361,9.361,0,0,0-5.818,5.258l-2.4,5.5c-2.653,6.076-9.44,8.978-15.16,6.481l-3.263-1.425c-5.72-2.5-8.206-9.447-5.554-15.523h0c4.289-7.265,3.947-12.688,2.427-16.366a22,22,0,0,1,.209-17.168l.339-.777a21.846,21.846,0,0,1,13.347-12.079C1829.132,1236.878,1831.832,1234.863,1833.744,1230.484Z" transform="translate(-1404.955 -920.051)"/><path class="c" d="M380.273,1525.014c-6.076-7.877-39.393-50.08-61.117-57.113-23.98-7.763-1.379,23.07-1.379,23.07s-42.539-46.515-58.15-42.322c-14.31,3.844,0,32.676,0,32.676s-16.117-15.966-35.662-15.966c-19.022,0,13.289,56.624,15.032,59.655Z" transform="translate(-99.59 -1107.248)"/><g transform="translate(390.804 232.962)"><path class="d" d="M1852.458,934.4s-6.133,7.917-9.743,11.025-7.053,6.081-11.656,15.965-4.471,11.016-5.693,13.561-7.645,12.515-8.132,14.5-10.974,11.517-14.219,16.363-8.571,11.608-9.27,15.519l.947-.019a42.683,42.683,0,0,1,11.146-16.5c8.321-7.663,7.834-9.589,15.966-12.629s15.687-14.9,15.687-14.9,10.43-12.369,11.793-19.743S1854.079,944.022,1852.458,934.4Z" transform="translate(-1783.114 -918.546)"/><path class="d" d="M1838.943,846.151s-1.591,5.768-4.273,8.79-4.789,4.747-6,8.41-4.634,13.037-10.967,16.53-10.283,17.451-15.263,20.793-6.214,6.29-7.181,13.784-.825,18.223-9.689,30.125l-.541-3.6s6.672-9.935,7.154-16.549-.761-17.065,1.59-21.393-2.182-6.334,2.3-12.663,3.875-9.032,9.169-14.175c0,0,.465-.19,2.677-5.069s12.635-12.339,17.177-14.656S1836.3,850.306,1838.943,846.151Z" transform="translate(-1775.964 -846.151)"/><path class="a" d="M1816.28,986.628s-6.36,6.729-7.59,11.727-1.635,9.2-5.532,15.529-.339,11.73-2.536,15.213-3.343,7.946-4.094,11.357-8.62,13.451-10.745,18.967-1.108,5.772-1.108,5.772,2.621-7.325,4.407-9.533,7.455-9.935,9.085-13.055,4.452-4.71,7.766-9.867,7.267-9.229,8.9-17.258S1821.645,999.776,1816.28,986.628Z" transform="translate(-1775.474 -961.396)"/><path class="a" d="M1806.177,1268.357s4.42-9.389,13.593-8.3,14.016,4.083,22.013-1.668,14.333-16.355,16.809-17.859c0,0-2.795-2.371-9.22,1.335s-11,6.588-14.726,8.75-5.77-.288-9.436.856c-3.073.959-7.635,4.733-9.734,6.778a11.128,11.128,0,0,1-2.268,1.713c-.753.428-1.654.957-2.247,1.363-1.187.812-5.483,6.9-5.483,6.9Z" transform="translate(-1792.74 -1169.083)"/><path class="a" d="M1745.255,1135.13s5.962-11.353,5.226-17.759-6.328-12.319-5.2-15.973,7.708-12.708,5.987-20.989c0,0-2.865,6.363-4.506,7.545s-11.934,5.094-12.193,13.362,7.964,12.126,9.554,14.948,4.467,3.487,4.126,5.038a61.33,61.33,0,0,1-3.334,12.631Z" transform="translate(-1734.565 -1038.333)"/><path class="e" d="M1791.495,1050.907l7.394-11.726s4.987-9.655,8.485-17.86,8.909-34.693,8.909-34.693-6.36,6.73-7.59,11.727-1.635,9.2-5.532,15.529-.339,11.73-2.536,15.213-3.343,7.946-4.094,11.357-8.62,13.451-10.745,18.967c-1.164,3.022-1.385,4.463-1.346,5.15C1784.888,1059.419,1791.495,1050.907,1791.495,1050.907Z" transform="translate(-1775.478 -961.396)"/><path class="e" d="M1832.337,1259.479c-4.134-.13-7.6-1.221-13.1,1.18a40.294,40.294,0,0,0-9.126,5.486s-2.984,3.277-4.317,5.061c-.2.274-.312.438-.312.438l.7.126s4.42-9.39,13.593-8.3,14.016,4.083,22.013-1.668,14.333-16.355,16.809-17.859a103.878,103.878,0,0,0-13.164,7.327C1840.2,1254.934,1836.47,1259.609,1832.337,1259.479Z" transform="translate(-1792.74 -1172.495)"/><path class="e" d="M1746.763,1087.955c-1.642,1.182-11.934,5.094-12.193,13.362s7.964,12.126,9.554,14.948,4.467,3.487,4.126,5.038a61.351,61.351,0,0,1-3.333,12.631l.148.522a72.779,72.779,0,0,0,3.179-7.659c1.289-3.987,1.022-5.823.481-9.422s-7.1-12.2-8.317-16.2,6.116-8.512,8.1-11.052,2.762-9.716,2.762-9.716S1748.405,1086.773,1746.763,1087.955Z" transform="translate(-1734.565 -1038.333)"/></g><path class="c" d="M1189.887,1525.014c6.076-7.877,39.393-50.08,61.117-57.113,23.979-7.763,1.379,23.07,1.379,23.07s42.539-46.515,58.15-42.322c14.309,3.844,0,32.676,0,32.676s16.117-15.966,35.661-15.966c19.022,0-13.289,56.624-15.032,59.655Z" transform="translate(-896.917 -1107.248)"/><g transform="translate(107.67 305.509)"><g transform="translate(6.816 39.912)"><path class="d" d="M267.794,1544.36a350.283,350.283,0,0,0-71.11-72.051c-.28-.212-.658.277-.376.494a349.908,349.908,0,0,1,70.01,71.953Z" transform="translate(-196.207 -1472.257)"/></g><path class="d" d="M260.879,1577.535c.649-.461,2.331-2.207,4.575-2.754a9.536,9.536,0,0,1,4.72-.178,10.3,10.3,0,0,0-4.621-2.551c-2.739-.8-6.5-.128-7.733.958-2.792,1.89-3.015,5.1-1.632,5.694C257.563,1579.338,259.4,1578.464,260.879,1577.535Z" transform="translate(-237.919 -1513.927)"/><path class="d" d="M197.216,1521.449c.649-.461,2.331-2.207,4.575-2.755a9.533,9.533,0,0,1,4.72-.178,10.293,10.293,0,0,0-4.621-2.551c-2.739-.8-6.5-.128-7.733.959-2.792,1.889-3.015,5.1-1.632,5.693C193.9,1523.252,195.737,1522.378,197.216,1521.449Z" transform="translate(-185.691 -1467.915)"/><path class="d" d="M362.471,1555.04c-.608.379-2.772,1.141-3.767,2.87a6.714,6.714,0,0,0-1.057,4.025,11.128,11.128,0,0,1-1.859-5.03c-.346-2.7,1.06-5.7,2.44-6.328,2.52-1.667,5.97-.579,6.348.86C365,1552.883,363.73,1554.127,362.471,1555.04Z" transform="translate(-320.264 -1495.906)"/><g transform="translate(24.308)"><g transform="translate(6.114 7.323)"><path class="d" d="M342.374,1306.631a280.316,280.316,0,0,1,37.318,89.333l1.191-.319a282.107,282.107,0,0,0-37.174-88.58c-4.033-6.3-8.387-13.778-15.938-16.236-.146-.047-.2.174-.062.226C334.607,1293.654,338.6,1300.738,342.374,1306.631Z" transform="translate(-327.63 -1290.822)"/></g><path class="d" d="M374.4,1259.95c-.448.658-2.16,2.374-2.663,4.629a9.532,9.532,0,0,0-.085,4.723,10.292,10.292,0,0,1-2.641-4.57c-.854-2.722-.256-6.5.806-7.75,1.834-2.829,5.038-3.115,5.66-1.744C376.138,1256.6,375.3,1258.453,374.4,1259.95Z" transform="translate(-355.13 -1253.652)"/><path class="d" d="M352.516,1393.363c.649-.46,2.331-2.206,4.575-2.754a9.533,9.533,0,0,1,4.72-.178,10.286,10.286,0,0,0-4.621-2.551c-2.739-.8-6.5-.128-7.733.958-2.792,1.889-3.015,5.1-1.632,5.694C349.2,1395.166,351.038,1394.292,352.516,1393.363Z" transform="translate(-337.404 -1362.836)"/><path class="d" d="M387.451,1452.485c.649-.46,2.331-2.207,4.575-2.754a9.536,9.536,0,0,1,4.72-.178,10.3,10.3,0,0,0-4.621-2.551c-2.739-.8-6.5-.128-7.733.958-2.792,1.89-3.015,5.1-1.632,5.694C384.135,1454.288,385.972,1453.414,387.451,1452.485Z" transform="translate(-366.064 -1411.338)"/><path class="d" d="M421.619,1326.61c-.546.579-2.507,2-3.36,4.151a9.535,9.535,0,0,0-.828,4.65,10.29,10.29,0,0,1-1.888-4.929c-.414-2.823.772-6.458,2.018-7.526,2.257-2.5,5.467-2.282,5.865-.829C423.862,1323.575,422.743,1325.274,421.619,1326.61Z" transform="translate(-393.569 -1308.296)"/><path class="d" d="M462.992,1388.813c-.776.412-3.489,1.159-4.854,3.189a8.236,8.236,0,0,0-1.638,4.834,13.652,13.652,0,0,1-1.844-6.313c-.192-3.329,1.784-6.876,3.527-7.533,3.226-1.824,7.353-.2,7.692,1.6C466.266,1386.391,464.61,1387.8,462.992,1388.813Z" transform="translate(-425.715 -1358.456)"/><path class="d" d="M515.611,1489.06c-.835.276-3.634.555-5.321,2.327a8.238,8.238,0,0,0-2.427,4.49,13.648,13.648,0,0,1-.756-6.533c.37-3.313,2.915-6.478,4.744-6.833,3.487-1.256,7.282,1.042,7.315,2.866C519.246,1487.222,517.376,1488.338,515.611,1489.06Z" transform="translate(-468.623 -1440.462)"/><path class="d" d="M296.879,1292.646a7.331,7.331,0,0,1,2.586-1.829,5.658,5.658,0,0,1,2.784-.312,6.107,6.107,0,0,0-2.846-1.307,5.986,5.986,0,0,0-4.533.905c-1.569,1.24-1.561,3.148-.716,3.44C295,1293.858,296.045,1293.26,296.879,1292.646Z" transform="translate(-293.588 -1282.077)"/><path class="d" d="M316.448,1252.868a7.33,7.33,0,0,0,.13,3.165,5.652,5.652,0,0,0,1.453,2.4,6.1,6.1,0,0,1-2.772-1.456,5.984,5.984,0,0,1-2.05-4.143c.024-2,1.541-3.158,2.287-2.667C316.258,1250.638,316.425,1251.833,316.448,1252.868Z" transform="translate(-309.673 -1250.051)"/></g><path class="d" d="M161.549,1474.721a7.33,7.33,0,0,1,2.586-1.83,5.652,5.652,0,0,1,2.784-.312,6.108,6.108,0,0,0-2.845-1.307,5.985,5.985,0,0,0-4.533.905c-1.569,1.24-1.56,3.148-.716,3.44C159.667,1475.933,160.715,1475.335,161.549,1474.721Z" transform="translate(-158.259 -1431.449)"/><path class="d" d="M185.076,1434.1a7.332,7.332,0,0,0-.13,3.165,5.658,5.658,0,0,0,1.252,2.507,6.1,6.1,0,0,1-2.643-1.678,5.984,5.984,0,0,1-1.7-4.3c.188-1.991,1.794-3.021,2.5-2.471C185.07,1431.86,185.139,1433.064,185.076,1434.1Z" transform="translate(-177.583 -1398.644)"/></g><g transform="translate(118.839 392.967)"><path class="d" d="M220.505,1737.106c17.747,1.945,34.276,9.78,50.188,17.419,10.73,5.151,10.189,6.619,12.375,7.386a.44.44,0,0,0,.536-.6c-.841-1.665-3.045-2.792-4.579-3.75a59.466,59.466,0,0,0-5.544-3.02c-4.05-1.966-8.206-3.736-12.334-5.53a178.794,178.794,0,0,0-25.806-9.4,90.64,90.64,0,0,0-14.824-2.644.072.072,0,0,0-.012.144Z" transform="translate(-220.441 -1736.961)"/></g><path class="d" d="M278.1,1684.682a11.444,11.444,0,0,0-.406,4.93,8.831,8.831,0,0,0,1.792,3.992,9.536,9.536,0,0,1-4.017-2.788c-1.79-1.946-2.779-5.347-2.383-6.814.421-3.094,2.994-4.6,4.057-3.695C278.232,1681.188,278.261,1683.072,278.1,1684.682Z" transform="translate(-144.718 -1297.302)"/><path class="d" d="M365.142,1715.848a11.453,11.453,0,0,0-.406,4.93,8.833,8.833,0,0,0,1.792,3.992,9.529,9.529,0,0,1-4.017-2.789c-1.79-1.945-2.779-5.346-2.382-6.814.421-3.094,2.994-4.6,4.057-3.695C365.277,1712.354,365.306,1714.238,365.142,1715.848Z" transform="translate(-216.128 -1322.87)"/><path class="d" d="M453.588,1755.271a11.446,11.446,0,0,0-.406,4.93,8.83,8.83,0,0,0,1.792,3.992,9.534,9.534,0,0,1-4.017-2.788c-1.79-1.945-2.779-5.346-2.382-6.814.421-3.094,2.994-4.6,4.057-3.695C453.723,1751.778,453.752,1753.662,453.588,1755.271Z" transform="translate(-288.687 -1355.213)"/><path class="d" d="M253.714,1758.8a10.589,10.589,0,0,1,2.453-3.86,8.164,8.164,0,0,1,3.548-1.942,8.818,8.818,0,0,0-4.516-.187c-2.4.434-5.031,2.389-5.558,3.692-1.416,2.515-.36,5.06.928,4.986C251.864,1761.446,252.937,1760.074,253.714,1758.8Z" transform="translate(-125.002 -1356.81)"/><path class="d" d="M344.255,1790.844a10.581,10.581,0,0,1,2.453-3.86,8.163,8.163,0,0,1,3.548-1.941,8.813,8.813,0,0,0-4.516-.187c-2.4.435-5.031,2.389-5.559,3.692-1.416,2.515-.36,5.06.927,4.986C342.4,1793.493,343.477,1792.122,344.255,1790.844Z" transform="translate(-199.28 -1383.1)"/><path class="d" d="M192.473,1737.888a6.792,6.792,0,0,1,2.05-2.1,5.24,5.24,0,0,1,2.485-.75,5.661,5.661,0,0,0-2.811-.714,5.543,5.543,0,0,0-3.978,1.584c-1.222,1.392-.895,3.129-.076,3.254C190.96,1739.307,191.815,1738.587,192.473,1737.888Z" transform="translate(-76.146 -1341.826)"/><path class="d" d="M203.158,1700.871a6.8,6.8,0,0,0,.648,2.862,5.241,5.241,0,0,0,1.725,1.94,5.669,5.669,0,0,1-2.769-.863,5.544,5.544,0,0,1-2.562-3.431c-.313-1.826.875-3.135,1.637-2.813C202.612,1698.87,202.964,1699.931,203.158,1700.871Z" transform="translate(-84.955 -1312.455)"/><circle class="f" cx="125.658" cy="125.658" r="125.658" transform="translate(108.835 292.271) rotate(-45)"/><circle class="g" cx="114.59" cy="114.59" r="114.59" transform="translate(124.488 292.271) rotate(-45)"/><circle class="h" cx="96.36" cy="96.36" r="96.36" transform="translate(150.269 292.271) rotate(-45)"/><circle class="g" cx="72.433" cy="72.433" r="72.433" transform="translate(184.107 292.271) rotate(-45)"/><circle class="h" cx="51.435" cy="51.435" r="51.435" transform="translate(213.802 292.271) rotate(-45)"/><path class="f" d="M1107.314,1116.441a13.116,13.116,0,1,1-13.116-13.117A13.116,13.116,0,0,1,1107.314,1116.441Z" transform="translate(-807.656 -824.17)"/><g transform="translate(285.149 196.082)"><path class="i" d="M1596.062,671.915l-.466-8.521,28.847-22.563-1.508,12.339-28.27,22.112Z" transform="translate(-1514.139 -640.83)"/><path class="j" d="M1597.858,731.362l8.158,2.5,28.847-22.563-12.339-1.508-28.27,22.112Z" transform="translate(-1513.802 -697.408)"/><path class="i" d="M1146.756,879.7h0a1.927,1.927,0,0,0,2.706.33l81.273-63.568-2.375-3.037-81.273,63.569A1.928,1.928,0,0,0,1146.756,879.7Z" transform="translate(-1146.346 -782.425)"/></g><path class="k" d="M1823.754,1307.065c0,.815.3,1.475.68,1.475s.68-.66.68-1.475-.3-1.475-.68-1.475S1823.754,1306.25,1823.754,1307.065Z" transform="translate(-1416.93 -990.105)"/><path class="k" d="M1761.684,1821.242a42.011,42.011,0,0,0,.214-5.471h4.447c-.462,3.188-.824,5.668-.824,5.668l.11,1.008,0,2.975H1755.9a43.855,43.855,0,0,0,4.954-2.753A1.993,1.993,0,0,0,1761.684,1821.242Z" transform="translate(-1361.268 -1408.648)"/><path class="k" d="M1887.771,1825.149l-1.293-3.706h3.385c.176,2.379.242,3.984.242,3.984l.861,2.437.874,2.895s-2.879.742-4.39-.092l.168-2.882Z" transform="translate(-1468.388 -1413.302)"/><path class="l" d="M1789.091,1365.214c1.174-1.6,6.019-6.254,6.556-6.244,1.569.028,6.718.03,7.725.541l-.048,8.851c-.164.743-3.719,12.315-3.512,14.848l-.025.024a7.124,7.124,0,0,1-10.4-.5h0a58.43,58.43,0,0,0-.407-6.712C1788.318,1371,1786.174,1369.2,1789.091,1365.214Z" transform="translate(-1387.269 -1033.896)"/><path class="k" d="M1824.669,1325.879a26,26,0,0,0,.157,4.5c.293,1.238.684,1.332-1.834,1.708-.989.148-1.942.368-1.942.368s.258-1.818.3-2.585c.065-1.264-.291-5.167-.291-5.167Z" transform="translate(-1414.713 -1005.788)"/><path class="g" d="M1822.781,1327.5a4.5,4.5,0,0,1-1.448.514c-.086-1.542-.247-3.311-.247-3.311l3.446,1.118A4.522,4.522,0,0,1,1822.781,1327.5Z" transform="translate(-1414.741 -1005.788)"/><path class="m" d="M1892.058,1856.678a4.826,4.826,0,0,0,3.335.047l.19.515.733,2.442s-2.916.724-4.427-.11Z" transform="translate(-1472.828 -1442.207)"/><path class="m" d="M1762.648,1856.625h-10.115c-.374-.033-.465-.339-.335-.528.267-.388,1.447-.673,2.773-1.291,2.326.245,7.208-1.361,7.575-1.9C1762.759,1853.987,1762.856,1856.579,1762.648,1856.625Z" transform="translate(-1358.181 -1439.113)"/><path class="n" d="M1814.9,1494.086l5.928,42.168,5.4,19.443h5.873s-1.363-15.665-4.285-21.213c0,0-1.276-14.87-2.552-23.964-.191-1.36.754-4.888.508-5.8a84.044,84.044,0,0,0-3.561-10.8Z" transform="translate(-1409.664 -1144.605)"/><path class="o" d="M1784.381,1510.141l-1.372,16.2s1.4,9.257.44,15.4-2.238,11.781-2.238,11.781h-5.4l-1.073-30.591s-2.075-16.622-1.356-21.129,4.214-10.538,4.214-10.538l8.491.388s2.3,8.251,1.914,11.021C1787.713,1504.727,1784.381,1510.141,1784.381,1510.141Z" transform="translate(-1375.483 -1142.427)"/><path class="i" d="M1825.247,1305.092c6.418-1.927,4.7-7.584,4.663-7.369.019-.174.623-.887.922-1.5,1.246-2.537-.4-5.592-2.281-6.648a6,6,0,0,0-2.343-7.61,9.445,9.445,0,0,1-2.988-2.647c-1.781-2.376-5.019-4.768-8.912-3.987-3.853.986,1.305,3.217.794,6.924-.259,1.879.485,1.609,1.646,3.12-1.671,2.936-.7,7.866,1.857,10.1C1817.35,1300.771,1818.7,1307.058,1825.247,1305.092Z" transform="translate(-1408 -965.16)"/><path class="i" d="M1808.944,1279.652c.758,3.127-3.345,5.4-6.594,5.48-2.111.054-3.082-.163-3.424-2.388-.553-3.61.933-5.81,3.017-6.721C1804.631,1274.848,1808.318,1277.072,1808.944,1279.652Z" transform="translate(-1396.466 -965.584)"/><path class="k" d="M1805.77,1285.34a4.27,4.27,0,0,1,2.19,1.923c.762,1.442.383,6.061-2.785,7.584s-4.624-1.936-4.394-4.488S1801.928,1284.467,1805.77,1285.34Z" transform="translate(-1398.064 -973.376)"/><path class="p" d="M1807.38,1325.414l-2.248-.034a.993.993,0,0,0,1.027.914C1807.364,1326.348,1807.38,1325.414,1807.38,1325.414Z" transform="translate(-1401.653 -1006.34)"/><path class="i" d="M1817.819,1288.25c.469-2.387.285-4.2-1.41-5.069s-3.146-1.74-4.663-.169l-.343.193s2.864.791,3.023,2.313,1.682,3.329,1.448,4.076-.505,2.237-.505,2.237l.627-.516A4.219,4.219,0,0,0,1817.819,1288.25Z" transform="translate(-1406.797 -970.868)"/><path class="k" d="M1830.215,1306.762c-.236.659-.057,1.321.4,1.478s1.019-.25,1.256-.909.057-1.321-.4-1.478S1830.452,1306.1,1830.215,1306.762Z" transform="translate(-1422.145 -990.293)"/><path class="l" d="M443.878,688.981h29.17l-6.962,44.29H469.1l39.265-249.8h-3.009l-.592,3.764H475.529l.59-3.764h-3.009l-39.3,249.8h3.009Zm50.043-132.787-4.816,30.636H459.9l4.806-30.636Zm-28.808-2.561L469.919,523h29.22l-4.816,30.636Zm23.59,35.757-4.816,30.636H454.7l4.807-30.636Zm-5.218,33.2-4.816,30.636H449.489l4.806-30.636ZM504.358,489.8l-4.816,30.636H470.321l4.806-30.636ZM444.28,686.421l4.807-30.636h29.18l-4.816,30.636Z" transform="translate(-276.644 -315.657)"/><g transform="translate(249.261 98.707)"><path class="q" d="M1167.339,202.492c-.032.112-.274.88-.646,2.026l3.9.787c.041-.638.08-1.172.126-1.559.321-2.706,1.593-3.441,2.247-4.944s3.193-2.456,2.879-2.965-2.678,1.554-3.245,1.333,2.023-3.326,1.711-3.74c-.574-.762-3.036,3.256-3.325,2.924s2.051-4.573,1.114-4.627-1.975,4.59-2.467,4.386,1.362-4.279.42-4.887c-.5-.325-2.292,7.251-3.089,7.688s-1.92-2.549-2.681-2.3S1167.471,202.024,1167.339,202.492Z" transform="translate(-1125.093 -174.6)"/><path class="q" d="M956.284,110.494c-.018.115-.113.915-.247,2.112l-3.879-.892c.226-.6.411-1.1.528-1.472.823-2.6-.032-3.791-.008-5.43s-1.9-3.554-1.4-3.889,1.8,2.52,2.406,2.553-.471-3.865-.016-4.113c.837-.458,1.423,4.219,1.823,4.036s.018-5.012.894-4.675-.094,5,.439,5.013.524-4.46,1.633-4.625c.593-.088-.9,7.551-.357,8.278s2.8-1.531,3.39-.986S956.356,110.012,956.284,110.494Z" transform="translate(-950.362 -98.707)"/><path class="l" d="M1113.021,259.494s-4.648-1.112-4.693-.739c-.976,8.177-1.415,11.134-1.58,11.219-.563.29-8.031-6.538-9.362-7a5.551,5.551,0,0,0-1.994-.165c-1.584.047-1.9.053-1.9.053l-.058,0,.009,1.49c1.784,1.605,5.869,25.923,6.213,25.907.384-.018,8.459,2.014,8.316,1.334-.023-.111-5.474-4.571-7.02-11.008-.519-2.161-.775-4.488-1.056-6.524,1.794.9,8.8,4.348,9.911,3.892C1113.265,276.537,1113.021,259.494,1113.021,259.494Z" transform="translate(-1067.054 -229.945)"/><path class="k" d="M1279.874,491.6s7.512,5.884,7.762,6.927c.361,1.5,7.24-.473,5.581-.779-.381-.07-1.6-.38-1.7-.434-.537-.287-7.221-8.342-7.221-8.342Z" transform="translate(-1220.003 -418.877)"/><path class="l" d="M1330.663,536.05l-4.8-.391a6.8,6.8,0,0,1-4.005,1.188,6.139,6.139,0,0,0-.221,2.61c.034.243.075.976.32.959.886-.06,3.247-.648,5.937-1.186a23.18,23.18,0,0,0,5.7-2.015C1335.688,535.967,1330.663,536.05,1330.663,536.05Z" transform="translate(-1254.222 -457.174)"/><path class="n" d="M1083.809,408.422a32.838,32.838,0,0,0,11.585-.5c7.04-1.647,14.824-3.17,17.1-1.843,1.836,1.067,13.3,18.39,13.3,18.39l-4.427,3.23-12.623-14.135s-16.105,5.942-19.722,5.284C1080.789,417.349,1080.672,410.77,1083.809,408.422Z" transform="translate(-1057.596 -350.455)"/><path class="k" d="M1185.731,568.3s-.335,9.085-.542,10.624,3.856,6.146,3.337,4.541c-.119-.369-.427-1.591-.427-1.705,0-.609,1.506-10.973,1.506-10.973Z" transform="translate(-1142.319 -483.956)"/><path class="l" d="M1173.492,635.363l-3-4.877a6.8,6.8,0,0,1-2.948-2.96,6.148,6.148,0,0,0-2.4,1.046c-.2.146-1.541,1.128-1.447,1.355.344.834,2.174,2.622,4.175,4.573a53.82,53.82,0,0,0,4.927,3.531C1174.887,639.274,1173.492,635.363,1173.492,635.363Z" transform="translate(-1124.687 -532.54)"/><path class="o" d="M1094.7,407.736c-1.924-2.565-17.448-5-17.448-5l-4.329-8.32-9.572,5.9s.957,7.617,1.675,9.652c.957,2.712,7.39,2.85,11.319,2.81,3.615-.037,10.218.7,10.218.7l-2.233,19.7s4.39,1,5.624.838C1090.092,434,1097.092,410.927,1094.7,407.736Z" transform="translate(-1042.37 -341.3)"/><path class="i" d="M1067.452,282.058l-5.4.3s-.124.038-.162.045c-.44.081-.04,15.82.352,21.7a39.317,39.317,0,0,0,1.188,8.348,87.943,87.943,0,0,0,9.573-2.173c.933-.362,3.191-3.185,3.191-3.185a23.678,23.678,0,0,1-3.468-8.138c-.9-3.885-2-10.772-2.634-12.21A20.507,20.507,0,0,0,1067.452,282.058Z" transform="translate(-1041.014 -249.125)"/><path class="k" d="M1063.822,253.818l-.153,4.768s3.5,6.024,5.291,5.184c1.506-.7.169-5.287.169-5.287s-.261-1.051-.623-2.258a8.739,8.739,0,0,1-.447-2.427C1068.1,252.169,1063.822,253.818,1063.822,253.818Z" transform="translate(-1042.632 -225.351)"/><path class="g" d="M1068.691,253.8c.038-1.63-4.237.019-4.237.019l-.015.466a2.413,2.413,0,0,0,.477.543,5.884,5.884,0,0,0,4.163,1.2A8.22,8.22,0,0,1,1068.691,253.8Z" transform="translate(-1043.263 -225.351)"/><g transform="translate(15.414 15.024)"><path class="l" d="M1068.83,196.643a12.448,12.448,0,0,1,1.915,4.945,11.732,11.732,0,0,1-.346,3.8l-5.717-6.833Z" transform="translate(-1058.877 -194.076)"/><path class="r" d="M1094.062,215.433c.081.791-.227,1.471-.687,1.518s-.9-.556-.979-1.348.227-1.471.687-1.518S1093.981,214.642,1094.062,215.433Z" transform="translate(-1081.603 -208.383)"/><path class="k" d="M1054.167,203c-.131-.028-.118,6.551,1.788,8.1s5.226,1.684,6.2.125c1.072-1.725.052-8.657-2.784-10.129S1054.167,203,1054.167,203Z" transform="translate(-1050.212 -197.419)"/><path class="l" d="M1035.835,183.849a10.561,10.561,0,0,0-3.146,4.478c-1.211,2.79,1.191,5.681,3.206,6.83a3.88,3.88,0,0,1,2.182,2.538l.083-.856a2.144,2.144,0,0,0-.026-.787,3.7,3.7,0,0,0-.286-.695c-.172-.367-.722-1.623-.937-1.954-.567-.874-.679-1.064-.4-1.894.215-.64-.035-2.05.3-3.1l2.712-.585a5.676,5.676,0,0,0,2.554-1.4C1044.539,183.581,1039.674,180.416,1035.835,183.849Z" transform="translate(-1032.363 -182.352)"/><path class="k" d="M1051.153,232.747c.334.722.265,1.465-.155,1.659s-1.03-.233-1.364-.955-.265-1.465.155-1.659S1050.819,232.025,1051.153,232.747Z" transform="translate(-1046.358 -222.873)"/></g><path class="l" d="M967.584,183.22s-5.354-.25-6.735-.874c-.838-.379-7.718-5.923-7.718-5.923l.077-14.843-4.839-.368s-2.509,16.406-1.64,18.2c.9,1.855,10.968,9.489,12.982,12.8,1.16,1.909,3.58,27.866,3.946,28.1,2.606,1.356,10.653,2.71,10.463,1.888A298.358,298.358,0,0,1,967.584,183.22Z" transform="translate(-946.547 -149.985)"/><path class="p" d="M1076.386,242.343l3.117-.99a1.429,1.429,0,0,1-1.054,1.681C1076.792,243.614,1076.386,242.343,1076.386,242.343Z" transform="translate(-1053.065 -215.732)"/></g><path class="l" d="M1793.588,491.888a.641.641,0,0,0,.4-.932c-.329-.537-.65-1.079-.974-1.62-.714-1.194-.78-1.218-.721-1.355.138-.325.75-.177.971-.1a7.576,7.576,0,0,0,1.458.526c1.013.129,1.75-.646,1.3-1.627-.413-.9-.879-1.78-1.35-2.655,1.086.222,2.167.476,3.255.682a.438.438,0,0,0,.5-.628l-1.706-3.923c-.087-.2-.6-1.087-.426-1.257.161-.153.905.054,1.076.079.945.138,1.28.173,4.363.549a.513.513,0,0,0,.456-.763c-2.153-3.008-1.778-3.282-2.544-3.7a.243.243,0,0,0-.362.2c-.069.453-.053.565.758,2q.315.557.656,1.1c-3.735-.528-4.664-.751-5.169.087-.351.582-.181.74,1.768,5.188-1.127-.292-2.265-.514-3.406-.759a.5.5,0,0,0-.566.716c1.494,3.21,1.663,3.233,1.718,3.551,0,.009.2.054-.1.028-.5-.044-1.41-.766-2.36-.656a1.5,1.5,0,0,0-1.442,1.691,10.6,10.6,0,0,0,1.3,2.484,12.932,12.932,0,0,0-2.91.952,2.009,2.009,0,0,0-.942.764.535.535,0,0,0,.442.805C1790.135,493.246,1790.616,492.389,1793.588,491.888Z" transform="translate(-1388.016 -308.809)"/><path class="g" d="M1877.468,584.654a15.981,15.981,0,0,1-.181-2.831c0-.186-.028-.533.161-.65.453-.281,1.132.5,2.874.879.756.165,2.305.573,2.637-.443a5.745,5.745,0,0,0,.058-1.718c0-.41.013-.82.019-1.229,2.829.8,2.667.964,3.309.684a.36.36,0,0,0,.154-.484c-.367-.582-.293-.416-3.85-1.458a.559.559,0,0,0-.722.5c0,.555.149,3.068.117,3.379-.029-.02-.164.006-.194,0a9.191,9.191,0,0,1-3.246-.911c-.879-.362-2.072-.369-2.346.755a11.159,11.159,0,0,0,0,2.838c-1.723-.551-3.442-1.115-5.167-1.655a.614.614,0,0,0-.8.549c.076,1.124.115,2.247.144,3.372a10.4,10.4,0,0,1-2.837-1.45c-.64-.462-1.453.434.24,1.488a10.057,10.057,0,0,0,3.043,1.361.618.618,0,0,0,.8-.551c0-1.114-.044-2.23-.113-3.343,1.723.528,3.452,1.038,5.174,1.566A.57.57,0,0,0,1877.468,584.654Z" transform="translate(-1452.275 -392.697)"/><path class="s" d="M1892.894,691.94a.616.616,0,0,0,.549.62,13.565,13.565,0,0,0,4.737.161c.827-.141.531-1.371-.277-1.284a16.477,16.477,0,0,1-3.854.045,13.162,13.162,0,0,1,.387-2.81.634.634,0,0,0-.552-.808c-1.022.028-4.885.252-4.919.294a.207.207,0,0,0,0-.1c-.075-.411.226-1.807.2-2.445-.036-.716-.987-.976-1.564-1.032-1.169-.112-2.466.731-3.605.277-1.1-.437.137-2.155-.747-3.5-.68-1.035-1.852-.724-3.7-.368a1.381,1.381,0,0,0-1.124.624.316.316,0,0,0,.036.368c.556.517,1.223.284,2.912,0,.216-.036.579-.163.77,0,.637.529-.3,1.984.459,3.211a2.722,2.722,0,0,0,2.764,1.011c.783-.094,1.749-.55,2.544-.268-.044.68-.106,1.366-.1,2.044a1.2,1.2,0,0,0,1.135,1.319,19.909,19.909,0,0,0,2.508-.083c.554-.025,1.109-.049,1.663-.079A14.834,14.834,0,0,0,1892.894,691.94Z" transform="translate(-1461.742 -477.416)"/><path class="s" d="M1666.947,479.409c-4.419-3.624-6.671-.363-5.4,1.141a1.229,1.229,0,0,0,2-.033c.223-.334-.106-.886-.522-.756-.344.108-.425-.283-.06-.435.492-.2,1.091.158,1.515.382.99.524,2.281,1.19,2.449,2.431.251,1.852-1.633,3.812-4.423,2.732-4.026-1.558-3.834-8.144.436-9.238a6.046,6.046,0,0,1,6.244,2.3c.279.373.776-.064.626-.438-1.139-2.837-4.76-3.918-7.506-2.956a6.133,6.133,0,0,0-3.8,6.825,5.845,5.845,0,0,0,6.154,5.192C1668.1,486.206,1670.036,481.942,1666.947,479.409Z" transform="translate(-1281.305 -308.046)"/><path class="a" d="M1910.324,783.921c-.721-.5-2.208-.814-2.693.168a.816.816,0,0,0,.431,1.193c.519.17,1-.109,1.4.371a1.094,1.094,0,0,1-.177,1.372c-.956,1.125-2.994.78-4.136.155a2.769,2.769,0,0,1-.173-4.83,6.224,6.224,0,0,1,2.014-.635c.382-.089.566-.694.163-.9-1.554-.785-3.47.222-4.391,1.543a4.432,4.432,0,0,0-.032,4.775,5.7,5.7,0,0,0,4.835,2.345C1911.342,789.438,1912.659,785.553,1910.324,783.921Z" transform="translate(-1481.164 -559.364)"/><g transform="translate(325.09 305.975)"><g transform="translate(0 0)"><path class="t" d="M1509.487,1439.561a3.139,3.139,0,0,1-.329.8,30.315,30.315,0,0,1-3.149,4.19l-1.7-3.835s.277-1.2.759-2.926C1506.71,1438.217,1508.276,1438.466,1509.487,1439.561Z" transform="translate(-1479.952 -1404.532)"/><path class="o" d="M1478.814,1367.894s9.494,4.089,9.8,4.01c.2-.05,3.894-6.238,3.934-12.057.018-2.688-2.773-5.92-5.887-5.281-1.568.322-1.543.758-3.863,4.129S1478.814,1367.894,1478.814,1367.894Z" transform="translate(-1459.037 -1336.192)"/><path class="k" d="M1408.239,1837.243s.225,3.729.226,3.737a20.364,20.364,0,0,1,.409,2.073c0,1.617-7.677-1.372-5.957-2.089.156-.064.972-.555,1.023-1.105.079-.848.279-2.563.279-2.563Z" transform="translate(-1396.568 -1732.238)"/><path class="a" d="M1375.08,1857.57s1.8.494,2.726.618,2.141-.918,2.793-.636c.719.31.691,3.1.691,3.1s-9.666.793-12.384-.028C1367.829,1860.3,1371.4,1858.722,1375.08,1857.57Z" transform="translate(-1368.711 -1748.859)"/><path class="k" d="M1495.675,1837.243s.225,3.729.227,3.737a20.43,20.43,0,0,1,.409,2.073c0,1.617-7.677-1.372-5.957-2.089.156-.064,1.214-.921,1.265-1.471.079-.848.037-2.2.037-2.2Z" transform="translate(-1468.298 -1732.238)"/><path class="a" d="M1462.537,1857.57s1.8.494,2.726.618,2.14-.918,2.793-.636c.719.31.747,3.1.747,3.1s-9.71.924-12.441-.028C1455.3,1860.251,1458.853,1858.722,1462.537,1857.57Z" transform="translate(-1440.463 -1748.859)"/><g transform="translate(20.973)"><path class="k" d="M1493.129,1319.6l.87,5.5s-3.317,2.663-5.25,2.1c-1.622-.471-.51-2.592-.51-2.592a13.775,13.775,0,0,0,.6-4.479C1488.574,1318.592,1493.129,1319.6,1493.129,1319.6Z" transform="translate(-1487.438 -1307.307)"/><path class="u" d="M1496.536,1321.264a13.544,13.544,0,0,1-3.754,1.058,7.3,7.3,0,0,0,.088-2.187c-.122-.711.782-.879,1.792-.854,1.321.113,2.5.32,2.5.32l.167,1.058A2.732,2.732,0,0,1,1496.536,1321.264Z" transform="translate(-1491.47 -1307.309)"/><path class="k" d="M1495.352,1272.2c.137,0-1.311,6.15-3.552,7.208s-5.583.506-6.21-1.15c-.693-1.832,1.837-8.106,4.988-8.9S1495.352,1272.2,1495.352,1272.2Z" transform="translate(-1485.475 -1266.264)"/><path class="v" d="M1509.588,1252.934a7.059,7.059,0,0,1,2.888,3.19c.84.4,1.857,1.261,2.344,3.584a5.039,5.039,0,0,1-3.795,5.721c-2.261.662-2.611,2.159-2.611,2.159l-.257-1.61a6.38,6.38,0,0,1,1.26-2.1c.756-.7-.358-1.724-.456-2.558-.076-.642.4-1.89.3-2.943a7.277,7.277,0,0,0-2.5-2.375C1504.65,1255.195,1507.292,1251.609,1509.588,1252.934Z" transform="translate(-1502.304 -1252.643)"/><path class="k" d="M1519.993,1302.183c-.293.71-.173,1.415.267,1.575s1.035-.287,1.328-1,.173-1.415-.268-1.575S1520.285,1301.473,1519.993,1302.183Z" transform="translate(-1513.661 -1292.44)"/></g><path class="t" d="M1414.685,1433.234l-13.043-2.127s1.484-3.736,2.014-3.736,9.862,4.074,9.862,4.074l.742,1.491Z" transform="translate(-1395.727 -1395.987)"/><path class="i" d="M1465.437,1507.073a42.947,42.947,0,0,1,.771,11.06c-.53,4.769-.572,21.712-.572,21.712l2.023,27.108-4.8.1s-5.693-27.095-5.587-26.4-1.909-19.078-1.909-19.078l6.787-15.1Z" transform="translate(-1439.798 -1460.884)"/><path class="v" d="M1417.667,1498.607s.849,5.664-.212,8.148-9.1,26.857-9.2,28.844-2.778,23.952-2.778,23.952l-5.582-.157-1.208-24.421,2.529-30.693,2.455-7.76Z" transform="translate(-1393.301 -1452.715)"/><path class="k" d="M1495.7,1343.581a5.012,5.012,0,0,1-2.661.8,8.847,8.847,0,0,1-3.1-1.29l.252-.855s3.322-.484,3.405-.431S1495.7,1343.581,1495.7,1343.581Z" transform="translate(-1468.165 -1325.785)"/><path class="t" d="M1399.61,1405.263s-4.934,4.656-7.161,3.861-3.148-3.512,2.285-7.488C1399.6,1398.079,1399.61,1405.263,1399.61,1405.263Z" transform="translate(-1386.747 -1374.063)"/><path class="b" d="M1413.962,1368.219c.733-3.987,6.044-16.395,6.469-18.68.206-1.111,3.071-1.136,5.8-.991,2.882.153,5.746.518,5.746.518a8.768,8.768,0,0,1,3.674,1.471c1.123,1.052,1.421,3.962-.193,9.484-1.274,4.36-2.853,6.754-3.635,9.929-.158,1.065-.293,2.117-.473,3.344-.287,4.749,0,11.022,0,11.022s-13.892,2.881-19.088-1.491C1412.265,1382.825,1413.211,1372.3,1413.962,1368.219Z" transform="translate(-1404.442 -1331.27)"/><path class="o" d="M1401.991,1360.373s5.451,4.5,5.769,4.5c.2,0,7.779-5.572,9.527-10.149.967-2.531-1.061-5.361-3.376-5.352-1.6.006-2.318.42-5.5,3.1S1401.991,1360.373,1401.991,1360.373Z" transform="translate(-1396.013 -1331.998)"/></g><path class="p" d="M1487.724,1304.639l2.046,1.121a1.106,1.106,0,0,1-1.452.4A1.081,1.081,0,0,1,1487.724,1304.639Z" transform="translate(-1466.247 -1295.3)"/></g><g transform="translate(216.225 295.432)"><path class="k" d="M763.408,1407.523c-.16-.459,2.072-.83,2.19-1.294s-2.818-.5-2.923-.908c-.194-.751,3.219-.158,3.152-.51s-3.556-1.136-3.179-1.739,3.533,1.192,3.628.783-3.085-1.4-3.028-2.3c.03-.479,5.22,2.391,5.822,2.13s-.647-2.514-.168-2.848,1.855,4.579,2.185,4.743,7.341,4.165,9.836,4.8c.3-.835,3.876-6.008,4.143-6.8,1.4,1,2.835,1.133,4.28,2.041-1.046,2.623-5.85,9.9-6.58,10.233-2.22,1-10.807-6.118-12.52-7.337s-2.7-.824-3.857-1.21S763.568,1407.982,763.408,1407.523Z" transform="translate(-762.619 -1363.661)"/><path class="i" d="M927.672,1293.51a7.342,7.342,0,0,0-8.139-4.856,7.671,7.671,0,0,0-4.807-3.434c-3.839-.822-9.03.694-8.89,4.759-1.489,2.731-1.547,6.635.732,8.712-.793,3.672,2.646,7.222,7.117,7.093a7.9,7.9,0,0,0,7.472,3.866,17.942,17.942,0,0,1,1.966-.217c-.225-.041,4.738,3.763,8.943-2.088C936.357,1301.374,933.342,1294.146,927.672,1293.51Z" transform="translate(-879.243 -1268.648)"/><g transform="translate(14.839 57.881)"><path class="k" d="M879.774,1516.19a20.782,20.782,0,0,1-3.454,4.045,15.1,15.1,0,0,0-3.222,6.214c-.7,3.51-.118,20.851-.727,22.085-5.23,5.113-9.018,17.946-10.081,21.861a4.188,4.188,0,0,1-1.209,1.986h0l.233,4.424,2.6,2.394a13.26,13.26,0,0,1,.577-6.279s13.168-19.943,13.95-21.467c1.494-4.341,6.932-26.583,6.932-26.583l1.262-5.112S879.785,1516.194,879.774,1516.19Z" transform="translate(-858.235 -1516.19)"/><path class="n" d="M845.233,1830.117a15.711,15.711,0,0,1,1.785,3.522c.141.988,1.017,3.229,1.986,3.37.22.032,3.988.308,3.961-.163-.021-.36-1.385-.874-2.018-1.311-1.1-.756-2.794-6.915-2.794-6.915S845.3,1829.327,845.233,1830.117Z" transform="translate(-845.233 -1772.503)"/></g><path class="q" d="M968.213,1224.743s5.511-9.911,6.852-12.018,4.833-10.479,4.958-10.809-2.405-4.292-1.84-4.427,1.19,2.089,1.792,1.823,2.363-5.621,2.706-5.355c.642.5-.949,3.322-.606,3.5s1.38-3.108,2.052-3.011-1.279,3.012-1.091,3.269,2.214-2.489,2.581-1.9c.2.318-1.863,2.4-1.467,2.592s2.23-1.148,2.425-.761-1.7.917-2.262,1.961-1.528,1.495-1.928,3.427-1,8.926-3.045,12.415-6.552,11.211-6.552,11.211Z" transform="translate(-931.285 -1193.947)"/><path class="k" d="M991.37,1541.411s8.482,18.135,8.536,21.323c.046,2.733-1.483,18.067-1.056,30.837.015.461.6,1.074,1.449,1.463.478.219,2.788,1.25,2.788,1.25l.317.827-7.954-.567-.113-2.171s-3.166-19.1-2.843-24.505c.051-.849.463-5.93.463-5.93l-9.566-18.468,6.016-7.906Z" transform="translate(-943.737 -1475.845)"/><g transform="translate(21.256 27.471)"><path class="g" d="M919.573,1680.256s0,0,0,0Z" transform="translate(-912.637 -1620.377)"/><path class="a" d="M900.028,1355.578c.228-1.395,2.386-4.884,2.726-5.739,0,0-2.5-3.179-4.532-2.938,0,0-2.729,4.524-4.281,4.676s-7.009.389-7.965.969-5.016,6.813-5.016,6.813,3.648,3.725,5.115,3.718a15.389,15.389,0,0,1,1.091-1.871c.221.713,3.62,11.725,3.615,14.219l.026.021a7.137,7.137,0,0,0,10.263-1.319h0a56.708,56.708,0,0,1-.125-6.6C901.2,1362.568,902.2,1359.932,900.028,1355.578Z" transform="translate(-880.96 -1346.887)"/><path class="l" d="M945.206,1522.582l-16.647-24.051a16.366,16.366,0,0,1-3.095.99,32.1,32.1,0,0,1-7.194.308,1.748,1.748,0,0,1-.014.236c-.278,1.983-2.907,5.053-3.45,11.069a147.176,147.176,0,0,0-.035,19.472C925.839,1529.261,942.066,1525.877,945.206,1522.582Z" transform="translate(-908.449 -1471.293)"/></g><path class="k" d="M937.6,1343.16a25.179,25.179,0,0,1,.468,4.4c-.117,1.244.447,5.252,2.975,5.266s.48-5.1.242-6.315a48.527,48.527,0,0,1-.295-4.992Z" transform="translate(-906.172 -1315.01)"/><path class="g" d="M941.045,1343.409c-.039-1.032-.052-1.893-.052-1.893l-3.39,1.644s.12.645.24,1.466A2.9,2.9,0,0,0,941.045,1343.409Z" transform="translate(-906.172 -1315.01)"/><path class="k" d="M921.871,1300.319a4.33,4.33,0,0,0-1.784,2.391c-.478,1.636.066,5.857,3.441,6.875s4.837-2.324,4.142-4.937S925.463,1298.726,921.871,1300.319Z" transform="translate(-891.68 -1280.871)"/><path class="k" d="M958.8,1314.538c-.066.7-.438,1.238-.83,1.2s-.657-.641-.591-1.343.438-1.239.831-1.2S958.862,1313.836,958.8,1314.538Z" transform="translate(-922.384 -1291.773)"/><path class="k" d="M918.239,1332.475c.4.614.4,1.337,0,1.616s-1.042.008-1.439-.606-.395-1.337,0-1.616S917.843,1331.861,918.239,1332.475Z" transform="translate(-888.861 -1307.006)"/><path class="n" d="M1049.447,1857.674H1059.5c.372-.033.462-.333.333-.518-.266-.381-1.438-.66-2.755-1.267-2.311.241-7.344-1.339-7.709-1.868A9.777,9.777,0,0,0,1049.447,1857.674Z" transform="translate(-997.76 -1735.46)"/><path class="p" d="M940.282,1336.728l2.157-.635a.993.993,0,0,1-.745,1.156C940.548,1337.624,940.282,1336.728,940.282,1336.728Z" transform="translate(-908.37 -1310.561)"/></g><g transform="translate(170.895 253.405)"><path class="a" d="M623.3,1062.442c.281.011,1.05.269,2.176,2.4,1.437,2.716,3.538,10.922,3.538,10.922l-6.27,2.335-.806-1.712-1.327-13.185S623.223,1062.439,623.3,1062.442Z" transform="translate(-600.79 -1044.036)"/><path class="c" d="M538.643,1055.857a38.315,38.315,0,0,1,8.289,1.183s1.512,13-1.362,22.88c-.644,2.212.532,9.167.532,9.167l-18.58-.245s2.2-16.816,1.372-19.532-.849-12.182-.849-12.182.127-.02,4.174-.72A42.052,42.052,0,0,1,538.643,1055.857Z" transform="translate(-524.42 -1038.633)"/><path class="k" d="M553.263,1375.212s.411,4.744,1.167,6.058-.04,3.547-.079,3.854-1.591.744-4.057.481-2.427-.832-2.227-1.751,1.511-2.1,1.591-2.978a22.853,22.853,0,0,0-.756-4.029Z" transform="translate(-541.206 -1300.626)"/><path class="n" d="M542.558,1217.738s12.826-.712,15.69,1.023-2.035,10.247-2.035,10.247-8.924-.411-26.4.6c-4.139.239-4.5-10.793-3.722-11.706S542.558,1217.738,542.558,1217.738Z" transform="translate(-522.973 -1171.198)"/><path class="v" d="M549.3,1414.944c-2.539-.271-2.225-1.519-2.021-2.465a8.4,8.4,0,0,1,1.291-1.954,4.23,4.23,0,0,0,1.7.826c1.145.339,2.715-.331,3.715-.75a12.262,12.262,0,0,1,.339,3.276C554.278,1414.193,551.835,1415.215,549.3,1414.944Z" transform="translate(-540.515 -1329.597)"/><path class="o" d="M522.548,1227.495c.512,3.877,3.05,23.18,3.05,23.18l-5.887.73s-7.239-25.195-6.868-29.048,3.081-4.178,3.081-4.178S521.192,1217.231,522.548,1227.495Z" transform="translate(-512.367 -1171.78)"/><path class="k" d="M516.075,1070.888c1.737-.651,2.587,15,2.821,21.443a75.622,75.622,0,0,0,9.773-.1c.628-.047,2.076-.578,2.7-.659a6.248,6.248,0,0,1,1.535-.073,28.942,28.942,0,0,1,3.6,1.619c.34.357,1.26,1.256,1.1,1.645s-1.769-1.084-1.769-1.084l-.789-.442c.982.959,2.854,2.222,2.584,2.682s-1.952-.833-3.156-1.707c1.032.932,2.315,2.6,2.02,2.861-.266.234-1.725-1.7-3.284-2.254-.578-.206-1.154.365-1.608.434a3.27,3.27,0,0,1-1.178.066l-1.688-.479c-.575.052-.59.392-1.171.516-.674.143-1.78.294-2.639.5-4.944,1.208-6.594,1.769-8.108,1.768C512.236,1097.627,511.97,1072.428,516.075,1070.888Z" transform="translate(-512.653 -1050.949)"/><path class="a" d="M510.38,1078.9c-.325-6.6-.278-14.733,3.421-16.12,1.46-.548,4.033,2.745,3.57,16.254A27.8,27.8,0,0,1,510.38,1078.9Z" transform="translate(-510.254 -1044.269)"/><path class="k" d="M652.147,1397.8a3.206,3.206,0,0,0,.406,2.736c.92,1.089,4.741,2.158,5.243,2.747a1.653,1.653,0,0,1,.464,1.092l-10.727-.3.117-3.24.494-2.328Z" transform="translate(-622.875 -1319.161)"/><path class="v" d="M650.478,1414.932s-2.756,1.115-4.088.455-1.291-.843-1.677-.6-.523,3.283-.523,3.283l12.062.354c.839-.02,1.264-.638.582-1.167a9.841,9.841,0,0,0-1.315-.782A37.716,37.716,0,0,0,650.478,1414.932Z" transform="translate(-620.133 -1333.01)"/><path class="o" d="M652.685,1221.983c.829-1.745,2.715-4.016,6.032-2.648,3.164,1.305,4.014,4.512,3.015,7.8s-7.571,22.589-7.8,25.243l-5.248.034s.954-15.286,1.188-18.981A35.78,35.78,0,0,1,652.685,1221.983Z" transform="translate(-623.82 -1172.404)"/><path class="j" d="M562.354,1137H544.812a1.144,1.144,0,0,0-1.058.713l-5.4,13.218h-9.671a.49.49,0,0,0-.49.491h0a.49.49,0,0,0,.49.491h27.524a1.921,1.921,0,0,0,1.753-1.138l5.439-12.156A1.148,1.148,0,0,0,562.354,1137Z" transform="translate(-524.97 -1105.204)"/><path class="p" d="M657.121,1174.01a.966.966,0,1,1-.724-1.263A1.032,1.032,0,0,1,657.121,1174.01Z" transform="translate(-629.181 -1134.514)"/><g transform="translate(8.627)"><path class="w" d="M568.048,961.313a13.426,13.426,0,0,1-1.552-.622,7.8,7.8,0,0,0-1.769-.667,4.266,4.266,0,0,0-3.59.957c-1.157,1.255-3.213.227-2.8,6.8.469,7.441,4.606,6.624,4.707,6.5s3.69-4.76,3.69-4.76,1.255,2.746,1.255,2.645S574.4,963.451,568.048,961.313Z" transform="translate(-558.284 -959.968)"/><path class="k" d="M575.748,1023.584l.357,2.659s.8,3.831-.229,4.569-4.377-4.678-4.377-4.678l.354-6.737Z" transform="translate(-569.125 -1008.723)"/><path class="g" d="M572.832,1021.581a7.628,7.628,0,0,0,4.313,4.258l-.3-2.254-3.9-4.187Z" transform="translate(-570.219 -1008.723)"/><path class="k" d="M573.448,978.373a3.545,3.545,0,0,1,4.083,3.585,26.949,26.949,0,0,1-.3,3.411c-.474,3.069-2.568,5.772-3.953,5.53s-4.868-2.889-4.255-7.257C569.4,980.946,571.159,978.742,573.448,978.373Z" transform="translate(-567.036 -975.03)"/><path class="k" d="M565.5,1004.388a1.032,1.032,0,1,1-.785-1.4A1.142,1.142,0,0,1,565.5,1004.388Z" transform="translate(-562.552 -995.254)"/><path class="w" d="M567.92,978.116s1.674.416,2.3-.661,2.843-3.4,5.667-2.437-2.485-2.343-2.711-2.343-2.937-.019-2.937-.019-2.09,1.719-2.165,1.908-.678,2.248-.678,2.248Z" transform="translate(-565.755 -970.378)"/></g><path class="p" d="M587.333,1028.06l3.046.583a1.356,1.356,0,0,1-1.638.93C587.1,1029.308,587.333,1028.06,587.333,1028.06Z" transform="translate(-573.479 -1015.829)"/></g><path class="k" d="M1691.362,1387.111c-.16-.459,2.072-.829,2.191-1.294s-2.818-.5-2.923-.908c-.194-.751,3.219-.158,3.152-.51s-3.556-1.136-3.179-1.739,3.533,1.191,3.628.782-3.085-1.4-3.028-2.3c.03-.479,5.22,2.391,5.822,2.13s-.647-2.514-.168-2.848,1.854,4.579,2.185,4.743,7.342,4.165,9.836,4.8c.3-.836.958-1.963,1.225-2.753,1.4,1,2.439,1.5,3.884,2.4-1.047,2.623-2.536,5.495-3.266,5.824-2.22,1-10.807-6.118-12.521-7.337s-2.7-.824-3.857-1.209S1691.522,1387.57,1691.362,1387.111Z" transform="translate(-1307.671 -1051.483)"/><path class="x" d="M1798.974,1378.878c.664,2.731-2.875,8.82-2.875,8.82s-5.04-2.378-5.926-3.4c0,0,3.424-5.909,3.649-6.268a3.1,3.1,0,0,1,3.294-1.522C1797.84,1376.59,1798.974,1378.878,1798.974,1378.878Z" transform="translate(-1389.382 -1048.25)"/></g></svg>