<svg xmlns="http://www.w3.org/2000/svg" xmlns:xlink="http://www.w3.org/1999/xlink" width="134.846" height="39.49" viewBox="0 0 134.846 39.49"><defs><style>.a{fill:#a6a6a6;}.b,.c{fill:#fff;}.b{stroke:#fff;stroke-miterlimit:10;stroke-width:0.038px;}.d{fill:url(#a);}.e{fill:url(#b);}.f{fill:url(#c);}.g{fill:url(#d);}</style><linearGradient id="a" x1="1.388" y1="-11.678" x2="0.093" y2="-11.002" gradientUnits="objectBoundingBox"><stop offset="0" stop-color="#00a0ff"/><stop offset="0.007" stop-color="#00a1ff"/><stop offset="0.26" stop-color="#00beff"/><stop offset="0.512" stop-color="#00d2ff"/><stop offset="0.76" stop-color="#00dfff"/><stop offset="1" stop-color="#00e3ff"/></linearGradient><linearGradient id="b" x1="1.674" y1="-33.851" x2="-0.701" y2="-33.851" gradientUnits="objectBoundingBox"><stop offset="0" stop-color="#ffe000"/><stop offset="0.409" stop-color="#ffbd00"/><stop offset="0.775" stop-color="orange"/><stop offset="1" stop-color="#ff9c00"/></linearGradient><linearGradient id="c" x1="0.729" y1="-23.322" x2="-0.631" y2="-21.536" gradientUnits="objectBoundingBox"><stop offset="0" stop-color="#ff3a44"/><stop offset="1" stop-color="#c31162"/></linearGradient><linearGradient id="d" x1="-0.318" y1="-22.756" x2="0.289" y2="-21.958" gradientUnits="objectBoundingBox"><stop offset="0" stop-color="#32a071"/><stop offset="0.068" stop-color="#2da771"/><stop offset="0.476" stop-color="#15cf74"/><stop offset="0.801" stop-color="#06e775"/><stop offset="1" stop-color="#00f076"/></linearGradient></defs><g transform="translate(0 0)"><path d="M460.266,418.321H335.409a4.982,4.982,0,0,1-4.994-4.937V383.768a4.982,4.982,0,0,1,4.994-4.937H460.266a4.982,4.982,0,0,1,4.995,4.937v29.617A4.982,4.982,0,0,1,460.266,418.321Z" transform="translate(-330.415 -378.831)"/><path class="a" d="M460.266,379.622a4.175,4.175,0,0,1,4.195,4.145v29.617a4.175,4.175,0,0,1-4.195,4.145H335.409a4.174,4.174,0,0,1-4.194-4.145V383.768a4.174,4.174,0,0,1,4.194-4.145H460.266m0-.791H335.409a4.982,4.982,0,0,0-4.994,4.937v29.617a4.982,4.982,0,0,0,4.994,4.937H460.266a4.982,4.982,0,0,0,4.995-4.937V383.768A4.982,4.982,0,0,0,460.266,378.831Z" transform="translate(-330.415 -378.831)"/><g transform="translate(41.305 6.777)"><path class="b" d="M396.808,392.067a2.675,2.675,0,0,1-.741,1.976,2.936,2.936,0,0,1-2.205.878,3.048,3.048,0,0,1-2.2-.887,3.133,3.133,0,0,1,0-4.411,3.033,3.033,0,0,1,2.2-.892,3.17,3.17,0,0,1,1.23.251,2.441,2.441,0,0,1,.936.66l-.522.521a2.046,2.046,0,0,0-1.644-.7,2.3,2.3,0,0,0-1.638.655,2.467,2.467,0,0,0,0,3.418,2.324,2.324,0,0,0,1.638.655,2.291,2.291,0,0,0,1.673-.66,1.845,1.845,0,0,0,.5-1.2h-2.175v-.713h2.9A2.012,2.012,0,0,1,396.808,392.067Z" transform="translate(-390.75 -388.731)"/></g><g transform="translate(48.469 6.913)"><path class="b" d="M404.713,389.656h-2.725v1.876h2.457v.713h-2.457v1.876h2.725v.727h-3.5v-5.919h3.5Z" transform="translate(-401.215 -388.929)"/></g><g transform="translate(52.772 6.913)"><path class="b" d="M409.943,394.848h-.772v-5.192H407.5v-.727h4.116v.727h-1.673Z" transform="translate(-407.5 -388.929)"/></g><g transform="translate(59.867 6.913)"><path class="b" d="M417.865,394.848v-5.919h.77v5.919Z" transform="translate(-417.865 -388.929)"/></g><g transform="translate(61.609 6.913)"><path class="b" d="M422.853,394.848h-.765v-5.192h-1.679v-.727h4.122v.727h-1.678Z" transform="translate(-420.409 -388.929)"/></g><g transform="translate(68.247 6.777)"><path class="b" d="M435.382,394.024a3.139,3.139,0,0,1-4.4,0,3.178,3.178,0,0,1,0-4.4,3.127,3.127,0,0,1,4.39,0,3.164,3.164,0,0,1,0,4.39Zm-3.824-.5a2.323,2.323,0,0,0,3.254,0,2.5,2.5,0,0,0,0-3.4,2.323,2.323,0,0,0-3.254,0,2.5,2.5,0,0,0,0,3.4Z" transform="translate(-430.105 -388.731)"/></g><g transform="translate(75.49 6.913)"><path class="b" d="M440.685,394.848v-5.919h.937l2.912,4.6h.034l-.034-1.138v-3.465h.77v5.919h-.8l-3.049-4.831h-.034l.034,1.143v3.687Z" transform="translate(-440.685 -388.929)"/></g><path class="c" d="M417.359,408.059a4.2,4.2,0,1,0,4.267,4.2A4.164,4.164,0,0,0,417.359,408.059Zm0,6.744a2.549,2.549,0,1,1,2.4-2.545A2.44,2.44,0,0,1,417.359,414.8Zm-9.3-6.744a4.2,4.2,0,1,0,4.262,4.2A4.161,4.161,0,0,0,408.058,408.059Zm0,6.744a2.55,2.55,0,1,1,2.395-2.545A2.443,2.443,0,0,1,408.058,414.8Zm-11.068-5.457v1.785H401.3a3.68,3.68,0,0,1-.98,2.241,4.453,4.453,0,0,1-3.331,1.3,4.739,4.739,0,0,1,0-9.478,4.6,4.6,0,0,1,3.249,1.273l1.273-1.258a6.328,6.328,0,0,0-4.522-1.8,6.524,6.524,0,1,0,0,13.044,6.068,6.068,0,0,0,4.605-1.831,5.846,5.846,0,0,0,1.561-4.165,5.908,5.908,0,0,0-.1-1.115Zm45.256,1.384a3.937,3.937,0,0,0-3.639-2.671,4.012,4.012,0,0,0-4,4.2,4.132,4.132,0,0,0,4.214,4.2,4.225,4.225,0,0,0,3.541-1.861l-1.449-.954a2.435,2.435,0,0,1-2.092,1.161,2.162,2.162,0,0,1-2.058-1.272l5.682-2.323Zm-5.794,1.4a2.316,2.316,0,0,1,2.219-2.448,1.653,1.653,0,0,1,1.581.891Zm-4.618,4.074H433.7v-12.34h-1.868ZM428.776,409h-.063a2.956,2.956,0,0,0-2.233-.936,4.2,4.2,0,0,0,0,8.4,2.912,2.912,0,0,0,2.233-.954h.063v.6a2.163,2.163,0,0,1-2.267,2.468,2.355,2.355,0,0,1-2.141-1.5l-1.625.67a4.053,4.053,0,0,0,3.766,2.483c2.19,0,4.038-1.273,4.038-4.372v-7.54h-1.77Zm-2.137,5.808a2.552,2.552,0,0,1,0-5.09,2.562,2.562,0,0,1,0,5.09Zm24.352-10.942h-4.468V416.2h1.863v-4.676h2.6a3.841,3.841,0,1,0,0-7.665Zm.049,5.948h-2.653v-4.231h2.653a2.117,2.117,0,1,1,0,4.231Zm11.515-1.773a3.5,3.5,0,0,0-3.321,1.889l1.653.685a1.768,1.768,0,0,1,1.7-.907,1.79,1.79,0,0,1,1.962,1.587v.13a4.127,4.127,0,0,0-1.947-.478c-1.78,0-3.594.969-3.594,2.777a2.871,2.871,0,0,0,3.1,2.719,2.645,2.645,0,0,0,2.38-1.21h.064v.954h1.8v-4.734C466.35,409.26,464.7,408.036,462.555,408.036Zm-.224,6.762c-.609,0-1.458-.3-1.458-1.045,0-.955,1.058-1.321,1.975-1.321a3.378,3.378,0,0,1,1.7.414A2.252,2.252,0,0,1,462.331,414.8Zm10.574-6.492-2.141,5.349H470.7l-2.214-5.349h-2.009l3.326,7.476-1.9,4.16h1.947l5.125-11.635Zm-16.792,7.9h1.868v-12.34h-1.868Z" transform="translate(-349.301 -386.584)"/><g transform="translate(9.959 7.371)"><path class="d" d="M345.426,389.67a1.95,1.95,0,0,0-.463,1.388v21.832a1.949,1.949,0,0,0,.463,1.388l.073.067,12.378-12.23v-.289L345.5,389.6Z" transform="translate(-344.963 -389.598)"/></g><g transform="translate(22.874 15.522)"><path class="e" d="M367.948,409.95l-4.121-4.078v-.289l4.127-4.079.092.053,4.887,2.748c1.395.78,1.395,2.063,0,2.849l-4.887,2.743Z" transform="translate(-363.827 -401.504)"/></g><g transform="translate(10.423 19.745)"><path class="f" d="M362.31,411.843l-4.219-4.17L345.64,419.98a1.642,1.642,0,0,0,2.078.058l14.592-8.2" transform="translate(-345.64 -407.673)"/></g><g transform="translate(10.423 7.051)"><path class="g" d="M362.31,397.655l-14.592-8.2a1.647,1.647,0,0,0-2.078.063l12.451,12.3Z" transform="translate(-345.64 -389.13)"/></g></g></svg>