<svg xmlns="http://www.w3.org/2000/svg" width="133.777" height="39.649" viewBox="0 0 133.777 39.649"><defs><style>.a{fill:#fff;}.b{fill:#a6a6a6;}</style></defs><g transform="translate(0 -0.068)"><path class="a" d="M151.544,55.982a3.8,3.8,0,0,1-3.8,3.8H23.342a3.8,3.8,0,0,1-3.806-3.8V25.7a3.807,3.807,0,0,1,3.806-3.8h124.4a3.8,3.8,0,0,1,3.8,3.8V55.982Z" transform="translate(-18.654 -20.946)"/><path class="b" d="M143.152,56.073H18.752a4.69,4.69,0,0,1-4.689-4.681V21.11a4.693,4.693,0,0,1,4.689-4.686h124.4a4.7,4.7,0,0,1,4.689,4.686V51.392a4.689,4.689,0,0,1-4.688,4.681Z" transform="translate(-14.063 -16.356)"/><path d="M151.544,55.982a3.8,3.8,0,0,1-3.8,3.8H23.342a3.8,3.8,0,0,1-3.806-3.8V25.7a3.807,3.807,0,0,1,3.806-3.8h124.4a3.8,3.8,0,0,1,3.8,3.8V55.982Z" transform="translate(-18.654 -20.946)"/><path class="a" d="M109.91,99.843a5.748,5.748,0,0,1,2.738-4.823,5.887,5.887,0,0,0-4.636-2.506c-1.95-.205-3.842,1.167-4.835,1.167-1.013,0-2.543-1.147-4.192-1.114a6.173,6.173,0,0,0-5.2,3.169c-2.247,3.889-.571,9.605,1.581,12.75,1.077,1.541,2.335,3.259,3.982,3.2,1.611-.065,2.213-1.026,4.157-1.026,1.927,0,2.492,1.026,4.171.988,1.729-.027,2.818-1.547,3.857-3.1a12.709,12.709,0,0,0,1.764-3.592A5.56,5.56,0,0,1,109.91,99.843Z" transform="translate(-80.039 -80.159)"/><path class="a" d="M159.935,58.707a5.656,5.656,0,0,0,1.295-4.054A5.763,5.763,0,0,0,157.5,56.58a5.384,5.384,0,0,0-1.329,3.9A4.76,4.76,0,0,0,159.935,58.707Z" transform="translate(-133.236 -48.421)"/><g transform="translate(42.069 17.914)"><path class="a" d="M286.107,141.507h-2.252l-1.233-3.876h-4.287l-1.175,3.876h-2.192l4.249-13.195h2.623Zm-3.857-5.5-1.115-3.445q-.177-.528-.665-2.486h-.04q-.2.842-.627,2.486l-1.1,3.445Z" transform="translate(-274.968 -128.117)"/><path class="a" d="M364.029,154.756a5.388,5.388,0,0,1-1.319,3.836,3.866,3.866,0,0,1-2.933,1.253,2.936,2.936,0,0,1-2.717-1.349v4.992h-2.114V153.244q0-1.524-.078-3.127h1.859l.118,1.508h.039a3.761,3.761,0,0,1,6.019-.374A5.261,5.261,0,0,1,364.029,154.756Zm-2.153.077a3.922,3.922,0,0,0-.627-2.291,2.165,2.165,0,0,0-1.84-.939,2.2,2.2,0,0,0-1.419.519,2.406,2.406,0,0,0-.832,1.361,2.767,2.767,0,0,0-.1.644v1.587a2.546,2.546,0,0,0,.636,1.753,2.114,2.114,0,0,0,1.654.715,2.167,2.167,0,0,0,1.859-.92A4.05,4.05,0,0,0,361.876,154.834Z" transform="translate(-341.986 -146.241)"/><path class="a" d="M431.891,154.756a5.387,5.387,0,0,1-1.319,3.836,3.868,3.868,0,0,1-2.934,1.253,2.936,2.936,0,0,1-2.717-1.349v4.992h-2.114V153.244q0-1.524-.078-3.127h1.859l.118,1.508h.04a3.761,3.761,0,0,1,6.02-.374A5.267,5.267,0,0,1,431.891,154.756Zm-2.155.077a3.922,3.922,0,0,0-.628-2.291,2.162,2.162,0,0,0-1.838-.939,2.207,2.207,0,0,0-1.421.519,2.4,2.4,0,0,0-.831,1.361,2.821,2.821,0,0,0-.1.644v1.587a2.554,2.554,0,0,0,.635,1.753,2.118,2.118,0,0,0,1.656.715,2.164,2.164,0,0,0,1.859-.92A4.05,4.05,0,0,0,429.737,154.834Z" transform="translate(-398.905 -146.241)"/><path class="a" d="M512.857,136.79a3.525,3.525,0,0,1-1.173,2.741,5.2,5.2,0,0,1-3.594,1.155,6.274,6.274,0,0,1-3.417-.822l.489-1.762a5.881,5.881,0,0,0,3.054.823,2.881,2.881,0,0,0,1.859-.538,1.759,1.759,0,0,0,.667-1.438,1.843,1.843,0,0,0-.549-1.351,5.092,5.092,0,0,0-1.82-1.017q-3.465-1.293-3.466-3.78a3.337,3.337,0,0,1,1.223-2.662,4.838,4.838,0,0,1,3.24-1.038,6.4,6.4,0,0,1,3,.627l-.53,1.723a5.238,5.238,0,0,0-2.535-.607,2.578,2.578,0,0,0-1.749.548,1.569,1.569,0,0,0-.53,1.2,1.616,1.616,0,0,0,.608,1.292,6.849,6.849,0,0,0,1.917,1.017,6.5,6.5,0,0,1,2.506,1.6A3.344,3.344,0,0,1,512.857,136.79Z" transform="translate(-467.635 -127.101)"/><path class="a" d="M568.742,140.382h-2.33V145q0,1.762,1.233,1.761a3.713,3.713,0,0,0,.939-.1l.059,1.605A4.787,4.787,0,0,1,567,148.5a2.533,2.533,0,0,1-1.958-.764,3.749,3.749,0,0,1-.7-2.565v-4.8h-1.388v-1.586h1.388V137.05l2.076-.627v2.369h2.33Z" transform="translate(-516.514 -134.92)"/><path class="a" d="M615.476,154.811a5.219,5.219,0,0,1-1.253,3.6,4.467,4.467,0,0,1-3.484,1.449,4.258,4.258,0,0,1-3.338-1.388,5.061,5.061,0,0,1-1.243-3.5,5.177,5.177,0,0,1,1.282-3.621,4.444,4.444,0,0,1,3.456-1.41,4.347,4.347,0,0,1,3.366,1.39A4.994,4.994,0,0,1,615.476,154.811Zm-2.191.049a4.261,4.261,0,0,0-.566-2.245,2.092,2.092,0,0,0-1.9-1.133,2.122,2.122,0,0,0-1.938,1.133,4.33,4.33,0,0,0-.567,2.284,4.247,4.247,0,0,0,.567,2.246,2.168,2.168,0,0,0,3.82-.019A4.277,4.277,0,0,0,613.285,154.86Z" transform="translate(-552.756 -146.257)"/><path class="a" d="M680.094,151.975a3.677,3.677,0,0,0-.666-.059,2,2,0,0,0-1.723.843,3.174,3.174,0,0,0-.528,1.879v4.992h-2.114v-6.518q0-1.643-.061-3h1.841l.077,1.82h.058a3.266,3.266,0,0,1,1.057-1.508,2.557,2.557,0,0,1,1.528-.51,3.392,3.392,0,0,1,.529.039l0,2.017Z" transform="translate(-610.5 -146.241)"/><path class="a" d="M721.231,154.346a4.957,4.957,0,0,1-.077.959h-6.341a2.76,2.76,0,0,0,.92,2.156,3.147,3.147,0,0,0,2.074.664,7.015,7.015,0,0,0,2.566-.449l.331,1.466a7.933,7.933,0,0,1-3.19.588,4.623,4.623,0,0,1-3.476-1.3,4.809,4.809,0,0,1-1.262-3.494,5.45,5.45,0,0,1,1.176-3.581,4.051,4.051,0,0,1,3.326-1.526,3.545,3.545,0,0,1,3.114,1.526A5.136,5.136,0,0,1,721.231,154.346Zm-2.016-.548a2.861,2.861,0,0,0-.41-1.625,1.846,1.846,0,0,0-1.684-.882,2,2,0,0,0-1.683.861,3.159,3.159,0,0,0-.626,1.644l4.4,0Z" transform="translate(-642.183 -146.163)"/></g><g transform="translate(42.856 6.566)"><path class="a" d="M285.327,65.288h-1.108l-.606-1.9h-2.107l-.578,1.9h-1.078l2.088-6.485h1.289Zm-1.9-2.7-.548-1.694c-.057-.174-.163-.577-.327-1.221h-.02c-.067.278-.163.683-.308,1.221l-.538,1.694Z" transform="translate(-279.851 -58.467)"/><path class="a" d="M322.813,70.025,321.043,74.7h-1.01l-1.713-4.676h1.116l.8,2.473c.135.413.25.808.336,1.183h.029c.077-.336.192-.731.336-1.183l.789-2.473Z" transform="translate(-312.116 -67.88)"/><path class="a" d="M354.455,74.2l-.077-.538h-.029a1.594,1.594,0,0,1-1.366.644,1.361,1.361,0,0,1-1.434-1.376c0-1.154,1-1.751,2.733-1.751v-.086c0-.616-.327-.924-.972-.924a2.184,2.184,0,0,0-1.222.347l-.211-.683a2.993,2.993,0,0,1,1.607-.4c1.221,0,1.838.644,1.838,1.934v1.722a6.948,6.948,0,0,0,.067,1.116Zm-.145-2.329c-1.155,0-1.732.28-1.732.943a.662.662,0,0,0,.712.731.994.994,0,0,0,1.02-.952Z" transform="translate(-339.988 -67.38)"/><path class="a" d="M386.1,58.79a.621.621,0,1,1,.654-.626A.611.611,0,0,1,386.1,58.79Zm.539,5.446H385.6V59.561h1.039Z" transform="translate(-368.452 -57.415)"/><path class="a" d="M405.138,63.54H404.1V56.719h1.039Z" transform="translate(-384.065 -56.719)"/><path class="a" d="M422.814,74.2l-.077-.538h-.029a1.594,1.594,0,0,1-1.366.644,1.361,1.361,0,0,1-1.434-1.376c0-1.154,1-1.751,2.733-1.751v-.086c0-.616-.327-.924-.972-.924a2.184,2.184,0,0,0-1.222.347l-.212-.684a2.993,2.993,0,0,1,1.607-.4c1.221,0,1.838.644,1.838,1.934V73.08a7.2,7.2,0,0,0,.066,1.116Zm-.145-2.329c-1.155,0-1.732.28-1.732.943a.662.662,0,0,0,.712.731.994.994,0,0,0,1.02-.952Z" transform="translate(-397.325 -67.375)"/><path class="a" d="M456.742,63.646a1.587,1.587,0,0,1-1.47-.828h-.021l-.06.722h-.885c.029-.375.039-.8.039-1.26V56.719h1.04v2.83h.02a1.6,1.6,0,0,1,1.491-.779c1.126,0,1.916.963,1.916,2.367A2.25,2.25,0,0,1,456.742,63.646Zm-.211-4.061a1.2,1.2,0,0,0-1.145,1.241v.818a1.146,1.146,0,0,0,1.127,1.174c.778,0,1.241-.635,1.241-1.645C457.753,60.231,457.272,59.585,456.531,59.585Z" transform="translate(-426.177 -56.719)"/><path class="a" d="M492.816,63.54h-1.038V56.719h1.038Z" transform="translate(-457.607 -56.719)"/><path class="a" d="M511.857,72.061h-3.119a1.342,1.342,0,0,0,1.472,1.385,3.507,3.507,0,0,0,1.26-.221l.162.722a3.9,3.9,0,0,1-1.568.288,2.171,2.171,0,0,1-2.329-2.357,2.284,2.284,0,0,1,2.212-2.512,2.319,2.319,0,0,1,1.91,2.694Zm-.953-.741c0-.722-.366-1.231-1.03-1.231a1.234,1.234,0,0,0-1.136,1.231Z" transform="translate(-470.991 -67.328)"/><path class="a" d="M560.643,74.307a2.225,2.225,0,0,1-2.252-2.405,2.278,2.278,0,0,1,2.33-2.473,2.208,2.208,0,0,1,2.252,2.4A2.292,2.292,0,0,1,560.643,74.307Zm.04-4.119c-.751,0-1.231.7-1.231,1.684,0,.963.491,1.665,1.221,1.665s1.221-.75,1.221-1.684C561.894,70.9,561.413,70.188,560.682,70.188Z" transform="translate(-513.479 -67.38)"/><path class="a" d="M600.134,74.2H599.1V71.511c0-.827-.317-1.241-.943-1.241a1.08,1.08,0,0,0-1.04,1.145V74.2h-1.038V70.857c0-.413-.011-.857-.039-1.337h.914l.049.722h.029a1.678,1.678,0,0,1,1.481-.818c.981,0,1.625.751,1.625,1.972v2.8Z" transform="translate(-545.054 -67.375)"/><path class="a" d="M648.817,64.744h-1.143v2.27q0,.867.6.867a2.06,2.06,0,0,0,.462-.049l.029.789a2.318,2.318,0,0,1-.807.116c-.819,0-1.308-.452-1.308-1.636V64.744h-.682v-.779h.682v-.857l1.019-.308v1.164h1.143Z" transform="translate(-586.938 -61.819)"/><path class="a" d="M676.616,63.54h-1.04V60.875c0-.837-.317-1.26-.943-1.26a1.018,1.018,0,0,0-1.038,1.107V63.54h-1.04V56.719h1.04v2.809h.02a1.573,1.573,0,0,1,1.4-.76c.991,0,1.6.769,1.6,1.992Z" transform="translate(-609.235 -56.719)"/><path class="a" d="M709.23,72.061h-3.118a1.341,1.341,0,0,0,1.471,1.385,3.5,3.5,0,0,0,1.26-.221l.163.722a3.9,3.9,0,0,1-1.569.288,2.171,2.171,0,0,1-2.329-2.357,2.284,2.284,0,0,1,2.212-2.512,1.965,1.965,0,0,1,1.944,2.223A2,2,0,0,1,709.23,72.061Zm-.953-.741c0-.722-.365-1.231-1.029-1.231a1.232,1.232,0,0,0-1.136,1.231Z" transform="translate(-636.539 -67.328)"/></g></g></svg>