<svg xmlns="http://www.w3.org/2000/svg" width="9.743" height="16.708" viewBox="0 0 9.743 16.708"><defs><style>.a{fill:#3225a7;}</style></defs><path class="a" d="M4.972-16.992a.529.529,0,0,1,.167.385.529.529,0,0,1-.167.385L-1.607-9.643,4.972-3.064a.529.529,0,0,1,.167.385.529.529,0,0,1-.167.385l-.837.837a.529.529,0,0,1-.385.167.529.529,0,0,1-.385-.167l-7.8-7.8A.529.529,0,0,1-4.6-9.643a.529.529,0,0,1,.167-.385l7.8-7.8A.529.529,0,0,1,3.75-18a.529.529,0,0,1,.385.167Z" transform="translate(4.604 17.997)"/></svg>