<svg xmlns="http://www.w3.org/2000/svg" width="24" height="24" viewBox="0 0 24 24"><defs><style>.a{fill:#fff;opacity:0;}.b{fill:#464646;}</style></defs><g transform="translate(-16 -54)"><rect class="a" width="24" height="24" transform="translate(16 54)"/><g transform="translate(20.786 59.718)"><path class="b" d="M13.77,37.1a1.047,1.047,0,0,0-.181-.013H3.253l.225-.1a2.1,2.1,0,0,0,.592-.419l2.9-2.9a1.085,1.085,0,0,0,.152-1.389,1.048,1.048,0,0,0-1.572-.136L.307,37.376a1.048,1.048,0,0,0,0,1.482h0L5.548,44.1A1.048,1.048,0,0,0,7.121,44a1.085,1.085,0,0,0-.152-1.389L4.076,39.7a2.1,2.1,0,0,0-.524-.383l-.314-.142H13.531a1.085,1.085,0,0,0,1.106-.881A1.048,1.048,0,0,0,13.77,37.1Z" transform="translate(0 -31.842)"/></g></g></svg>