<svg xmlns="http://www.w3.org/2000/svg" width="17" height="18.252" viewBox="0 0 17 18.252"><defs><style>.a{fill:#3225a7;}.b{fill:#ff8c00;}</style></defs><g transform="translate(-329 -22)"><g transform="translate(265 22)"><path class="a" d="M77.119,12.549a1.142,1.142,0,0,1-1.141-1.141V7.415a5.141,5.141,0,0,0-3.62-4.908,1.711,1.711,0,1,0-3.026,0,5.191,5.191,0,0,0-3.622,4.953v3.943a1.142,1.142,0,0,1-1.141,1.141.57.57,0,0,0-.57.57V15.4a.57.57,0,0,0,.57.57h4.3a2.024,2.024,0,0,0-.02.285,2,2,0,1,0,3.972-.285h4.3a.57.57,0,0,0,.57-.57V13.119A.57.57,0,0,0,77.119,12.549ZM70.845,1.141a.57.57,0,1,1-.57.57A.571.571,0,0,1,70.845,1.141ZM71.7,16.256a.856.856,0,1,1-1.663-.285h1.614A.853.853,0,0,1,71.7,16.256Zm4.848-1.426H65.141V13.617a2.286,2.286,0,0,0,1.711-2.209V7.465A4.025,4.025,0,0,1,70.83,3.422h.014a3.993,3.993,0,0,1,3.993,3.993v3.993a2.286,2.286,0,0,0,1.711,2.209Z" transform="translate(0 0)"/><path class="a" d="M176.57,131.422a.57.57,0,0,1-.57-.57A2.855,2.855,0,0,1,178.852,128a.57.57,0,0,1,0,1.141,1.713,1.713,0,0,0-1.711,1.711A.57.57,0,0,1,176.57,131.422Z" transform="translate(-108.007 -123.437)"/></g><circle class="b" cx="4.5" cy="4.5" r="4.5" transform="translate(337 22)"/></g></svg>