<svg xmlns="http://www.w3.org/2000/svg" width="18" height="15.655" viewBox="0 0 18 15.655"><defs><style>.a{fill:#adb7ba;}</style></defs><g transform="translate(0 -33.345)"><g transform="translate(8.216 42.163)"><g transform="translate(0 0)"><rect class="a" width="1.567" height="1.041"/></g></g><g transform="translate(0.637 41.788)"><path class="a" d="M32.442,274.156a23.149,23.149,0,0,1-4.116.706v1.122H24.65v-1.122a23.149,23.149,0,0,1-4.116-.706l-2.408-.642v7.212H34.851v-7.212Z" transform="translate(-18.125 -273.514)"/></g><g transform="translate(0 33.345)"><g transform="translate(0 0)"><path class="a" d="M12.047,36.1V33.345H5.953V36.1H0v4.424l3.317.885a22.088,22.088,0,0,0,3.845.667v-.97h3.677v.97a22.091,22.091,0,0,0,3.845-.667L18,40.527V36.1Zm-1.055,0H7.008V34.4h3.985Z" transform="translate(0 -33.345)"/></g></g></g></svg>