<svg xmlns="http://www.w3.org/2000/svg" width="18.309" height="19" viewBox="0 0 18.309 19"><defs><style>.a{fill:#707070;}</style></defs><path class="a" d="M414.9,362.273a2.764,2.764,0,0,0-.055-.569,2.515,2.515,0,0,0-2.692-2c-.238.011-.531.083-.7-.028-.188-.122-.044-.437-.072-.669v-.033a.718.718,0,0,0-.708-.68.71.71,0,0,0-.708.68,2.021,2.021,0,0,0,0,.409c.039.276-.072.332-.337.332-2.454-.011-4.909-.006-7.363-.006-.708,0-.708,0-.741-.7a.71.71,0,0,0-.708-.713.727.727,0,0,0-.708.686c-.028.238.127.569-.077.7-.182.111-.481.028-.73.033h-.066a2.506,2.506,0,0,0-2.637,2.642v12.316a2.513,2.513,0,0,0,2.626,2.626h13.068a2.517,2.517,0,0,0,2.615-2.6Q414.9,368.484,414.9,362.273Zm-2.714,13.621c-1.426-.05-2.847-.017-4.273-.017H399.3a1.131,1.131,0,0,1-1.288-1.288c0-2.836.005-5.677-.006-8.513,0-.343.111-.4.42-.4,2.454.011,4.909.006,7.363.006s4.887.006,7.33-.006c.276,0,.387.039.387.359-.017,2.847-.022,5.7,0,8.552A1.256,1.256,0,0,1,412.184,375.894Zm1.31-13.157a8.927,8.927,0,0,0,0,1.216c.017.3-.133.321-.365.321q-3.632-.008-7.258-.005h-.138v.005c-2.117,0-4.234-.005-6.352.006h-1.006c-.3,0-.387-.088-.376-.381.006-.149.011-.293.011-.437h0a.726.726,0,0,1-.011-.155v-1.122a1.035,1.035,0,0,1,1-1.034.5.5,0,0,1,.21-.033h.1c.249.006.553-.077.73.039.2.127.05.459.077.7a.723.723,0,0,0,.724.669.7.7,0,0,0,.691-.658.27.27,0,0,1,.006-.066c.028-.674.028-.669.691-.669q3.7,0,7.4-.011c.276,0,.4.055.354.348a1.644,1.644,0,0,0,0,.4.7.7,0,0,0,1.4.011,2.217,2.217,0,0,0,.006-.271c0-.492,0-.464.509-.492C413.046,361.041,413.582,361.472,413.494,362.738Zm-14.8,1.537a.98.98,0,0,0,.337.055,1.048,1.048,0,0,0,.348-.061C399.154,364.274,398.922,364.274,398.7,364.274Z" transform="translate(-396.6 -358.299)"/></svg>