<svg xmlns="http://www.w3.org/2000/svg" width="12.28" height="12.28" viewBox="0 0 17.276 17.276"><g transform="translate(0)"><g transform="translate(0 0)"><g transform="translate(0 0)"><path d="M16.94,13.737,15.025,12.46l-1.7-1.135a.754.754,0,0,0-1.013.164l-1.053,1.354a.75.75,0,0,1-.958.2A12.266,12.266,0,0,1,6.873,10.4a12.354,12.354,0,0,1-2.64-3.425.75.75,0,0,1,.2-.958L5.786,4.966a.754.754,0,0,0,.164-1.013L4.851,2.3,3.539.336A.754.754,0,0,0,2.524.107l-1.513.908A1.848,1.848,0,0,0,.172,2.1c-.414,1.508-.5,4.836,4.835,10.168s8.659,5.249,10.168,4.835a1.848,1.848,0,0,0,1.086-.839l.908-1.513A.754.754,0,0,0,16.94,13.737Z" transform="translate(0 0)"></path><path d="M282.78,62.388a5.069,5.069,0,0,1,5.064,5.063.3.3,0,1,0,.6,0,5.665,5.665,0,0,0-5.659-5.659.3.3,0,1,0,0,.6Z" transform="translate(-272.951 -59.707)"></path><path d="M282.779,115.352a3.28,3.28,0,0,1,3.276,3.276.3.3,0,0,0,.6,0,3.877,3.877,0,0,0-3.872-3.872.3.3,0,1,0,0,.6Z" transform="translate(-272.95 -110.884)"></path><path d="M282.78,168.319a1.491,1.491,0,0,1,1.489,1.489.3.3,0,1,0,.6,0,2.087,2.087,0,0,0-2.085-2.085.3.3,0,1,0,0,.6Z" transform="translate(-272.951 -162.064)"></path></g></g></g></svg>