<svg xmlns="http://www.w3.org/2000/svg" width="14.004" height="14.004" viewBox="0 0 14.004 14.004"><defs><style>.a{fill:#fff;}</style></defs><g transform="translate(0 0)"><path class="a" d="M13.732,11.135,12.18,10.1,10.8,9.18a.611.611,0,0,0-.821.133l-.854,1.1a.608.608,0,0,1-.776.161,9.943,9.943,0,0,1-2.777-2.14,10.014,10.014,0,0,1-2.14-2.777.608.608,0,0,1,.161-.776l1.1-.854A.611.611,0,0,0,4.824,3.2L3.932,1.867,2.869.272A.611.611,0,0,0,2.046.087L.82.823a1.5,1.5,0,0,0-.68.881c-.335,1.223-.4,3.92,3.92,8.242S11.078,14.2,12.3,13.865a1.5,1.5,0,0,0,.881-.68l.736-1.226A.611.611,0,0,0,13.732,11.135Z" transform="translate(0 0)"/><path class="a" d="M282.723,62.275a4.109,4.109,0,0,1,4.1,4.1.241.241,0,1,0,.483,0,4.592,4.592,0,0,0-4.587-4.587.241.241,0,0,0,0,.483Z" transform="translate(-274.756 -60.102)"/><path class="a" d="M282.722,115.239a2.659,2.659,0,0,1,2.656,2.656.241.241,0,0,0,.483,0,3.142,3.142,0,0,0-3.139-3.139.241.241,0,1,0,0,.483Z" transform="translate(-274.755 -111.617)"/><path class="a" d="M282.723,168.206a1.209,1.209,0,0,1,1.207,1.207.241.241,0,1,0,.483,0,1.692,1.692,0,0,0-1.69-1.69.241.241,0,0,0,0,.483Z" transform="translate(-274.756 -163.136)"/></g></svg>