<svg xmlns="http://www.w3.org/2000/svg" xmlns:xlink="http://www.w3.org/1999/xlink" width="91" height="91" viewBox="0 0 91 91"><defs><style>.a{fill:#3405b5;}.b{fill:#fff;}.c{filter:url(#a);}</style><filter id="a" x="0" y="0" width="91" height="91" filterUnits="userSpaceOnUse"><feOffset input="SourceAlpha"/><feGaussianBlur stdDeviation="4" result="b"/><feFlood flood-color="#3405b5" flood-opacity="0.18"/><feComposite operator="in" in2="b"/><feComposite in="SourceGraphic"/></filter></defs><g transform="translate(-1320 -677)"><g class="c" transform="matrix(1, 0, 0, 1, 1320, 677)"><circle class="a" cx="33.5" cy="33.5" r="33.5" transform="translate(12 12)"/></g><path class="b" d="M5463.234-18816.873l1.778-4.873a13.386,13.386,0,0,1-1.654-6.471,13.177,13.177,0,0,1,13.068-13.283,13.181,13.181,0,0,1,13.074,13.283,13.177,13.177,0,0,1-13.074,13.277,12.882,12.882,0,0,1-7.579-2.459l-6.849,2.674Z" transform="translate(-4110.998 19550.43)"/><path class="b" d="M14.6,0A14.6,14.6,0,0,0,1.936,21.872L.055,27.714A1.141,1.141,0,0,0,1.491,29.15l5.843-1.881A14.6,14.6,0,1,0,14.6,0Zm0,26.923a12.285,12.285,0,0,1-6.522-1.867,1.142,1.142,0,0,0-.955-.119L2.909,26.3l1.358-4.218a1.142,1.142,0,0,0-.119-.955,12.322,12.322,0,1,1,10.454,5.8ZM16.029,14.6A1.426,1.426,0,1,1,14.6,13.176,1.426,1.426,0,0,1,16.029,14.6Zm5.7,0a1.426,1.426,0,1,1-1.426-1.426A1.426,1.426,0,0,1,21.733,14.6Zm-11.408,0A1.426,1.426,0,1,1,8.9,13.176,1.426,1.426,0,0,1,10.324,14.6Zm0,0" transform="translate(1351 708)"/><g transform="translate(-1)"><circle class="a" cx="2" cy="2" r="2" transform="translate(1358 721)"/><circle class="a" cx="2" cy="2" r="2" transform="translate(1365 721)"/><circle class="a" cx="2" cy="2" r="2" transform="translate(1372 721)"/></g></g></svg>