<svg xmlns="http://www.w3.org/2000/svg" width="11.583" height="18.029" viewBox="0 0 11.583 18.029"><defs><style>.a{fill:#1d3528;stroke:#2b2c33;stroke-width:1.1px;}.b{fill:#fff;}</style></defs><g transform="translate(358.044 -381.25) rotate(90)"><path class="a" d="M393.769,349.5c-2.019,0-4.033,0-6.052,0a.375.375,0,0,0-.417.263,1.842,1.842,0,0,1-3.392,0,.363.363,0,0,0-.413-.263c-.329.018-.663.009-.992,0-.386,0-.6-.167-.606-.456s.211-.465.588-.47c.351,0,.707-.013,1.058,0a.3.3,0,0,0,.342-.215,1.849,1.849,0,0,1,3.423-.026c.1.233.228.246.426.246,3.915,0,6.117,0,10.032,0a4.206,4.206,0,0,1,.527.013.429.429,0,0,1,.421.465.436.436,0,0,1-.434.452,2.738,2.738,0,0,1-.329,0l-4.182-.009Zm-7.241-.435a.924.924,0,1,0-.917.9A.934.934,0,0,0,386.528,349.069Z" transform="translate(-0.099 -0.189)"/><path class="a" d="M388.807,453.979c1.992,0,3.989,0,5.981,0a.41.41,0,0,0,.461-.285,1.725,1.725,0,0,1,1.659-1.1,1.747,1.747,0,0,1,1.72,1.11.384.384,0,0,0,.439.276c.351-.018.707-.009,1.058,0,.329.009.522.2.513.474a.46.46,0,0,1-.513.443c-.373.009-.75.013-1.123,0a.323.323,0,0,0-.36.241,1.847,1.847,0,0,1-3.423-.022c-.083-.2-.2-.219-.373-.219q-5.055.007-10.115,0c-.693,0,.321,0-.377,0-.434,0-.632-.3-.478-.68.1-.237.307-.246.514-.246h1.83C387.086,453.979,387.947,453.979,388.807,453.979Zm8.136,1.382c.575,0,.878-.386.882-1.123a.9.9,0,0,0-.9-.72.927.927,0,0,0-.913.93A.918.918,0,0,0,396.943,455.361Z" transform="translate(-1.91 -98.789)"/><circle class="b" cx="1" cy="1" r="1" transform="translate(384.262 349.782) rotate(-90)"/><circle class="b" cx="1" cy="1" r="1" transform="translate(394.262 356.782) rotate(-90)"/></g></svg>