<svg xmlns="http://www.w3.org/2000/svg" width="67.785" height="66.031" viewBox="0 0 67.785 66.031"><defs><style>.a{fill:#fff;stroke:#525252;stroke-width:3.8px;}.b{fill:#525252;}</style></defs><g transform="translate(-5.437 -16.221)"><g transform="translate(8.751 18.244)"><path class="a" d="M13.849,56.114,0,60.863,1.171,57.7,5.343,46.289A31.361,31.361,0,0,1,1.461,31.116,30.874,30.874,0,0,1,32.088,0,30.874,30.874,0,0,1,62.713,31.116,30.873,30.873,0,0,1,32.088,62.231,30.174,30.174,0,0,1,13.849,56.114Z" transform="translate(-0.142 -0.122)"/><g transform="translate(14.118 27.105)"><circle class="b" cx="4" cy="4" r="4" transform="translate(0.24 0.273)"/><circle class="b" cx="4" cy="4" r="4" transform="translate(14.24 0.273)"/><circle class="b" cx="4" cy="4" r="4" transform="translate(28.24 0.273)"/></g></g></g></svg>