<svg xmlns="http://www.w3.org/2000/svg" width="21.248" height="29.746" viewBox="0 0 21.248 29.746"><defs><style>.a{fill:#4086f4;}.b{fill:#4175df;}.c{fill:#80aef8;}.d{fill:#fff5f5;}.e{fill:#e3e7ea;}</style></defs><path class="a" d="M82.248,7.843,76.527,6.1,74.893,0H63.452A2.537,2.537,0,0,0,61,2.614V27.131a2.537,2.537,0,0,0,2.452,2.614H79.8a2.537,2.537,0,0,0,2.452-2.614Z" transform="translate(-61)"/><path class="b" d="M266.624,7.843V27.131a2.537,2.537,0,0,1-2.452,2.614H256V0h3.269L260.9,6.1Z" transform="translate(-245.376)"/><path class="c" d="M323.355,7.843h-5.721A1.7,1.7,0,0,1,316,6.1V0a.744.744,0,0,1,.572.261l6.538,6.972A.844.844,0,0,1,323.355,7.843Z" transform="translate(-302.107)"/><g transform="translate(4.903 12.258)"><path class="d" d="M161.624,212.743h-9.807a.873.873,0,0,1,0-1.743h9.807a.873.873,0,0,1,0,1.743Z" transform="translate(-151 -211)"/></g><g transform="translate(4.903 15.744)"><path class="d" d="M161.624,272.743h-9.807a.873.873,0,0,1,0-1.743h9.807a.873.873,0,0,1,0,1.743Z" transform="translate(-151 -271)"/></g><g transform="translate(4.903 19.23)"><path class="d" d="M161.624,332.743h-9.807a.873.873,0,0,1,0-1.743h9.807a.873.873,0,0,1,0,1.743Z" transform="translate(-151 -331)"/></g><g transform="translate(4.903 22.716)"><path class="d" d="M158.355,392.743h-6.538a.873.873,0,0,1,0-1.743h6.538a.873.873,0,0,1,0,1.743Z" transform="translate(-151 -391)"/></g><g transform="translate(10.624 12.258)"><g transform="translate(0 10.457)"><path class="e" d="M256,392.743h1.634a.873.873,0,0,0,0-1.743H256Z" transform="translate(-256 -391)"/></g><g transform="translate(0 6.972)"><path class="e" d="M256,332.743h4.9a.873.873,0,0,0,0-1.743H256Z" transform="translate(-256 -331)"/></g><g transform="translate(0 3.486)"><path class="e" d="M256,272.743h4.9a.873.873,0,0,0,0-1.743H256Z" transform="translate(-256 -271)"/></g><path class="e" d="M256,212.743h4.9a.873.873,0,0,0,0-1.743H256Z" transform="translate(-256 -211)"/></g></svg>