<svg xmlns="http://www.w3.org/2000/svg" width="8.354" height="4.872" viewBox="0 0 8.354 4.872"><defs><style>.a{fill:#fff;}</style></defs><path class="a" d="M8.915-6.889A.265.265,0,0,1,9-6.7a.265.265,0,0,1-.084.193l-3.9,3.9a.265.265,0,0,1-.193.084A.265.265,0,0,1,4.629-2.6L.728-6.5A.265.265,0,0,1,.645-6.7a.265.265,0,0,1,.084-.193l.419-.419a.265.265,0,0,1,.193-.084.265.265,0,0,1,.193.084l3.29,3.29,3.29-3.29A.265.265,0,0,1,8.3-7.391a.265.265,0,0,1,.193.084Z" transform="translate(-0.645 7.391)"/></svg>