<svg xmlns="http://www.w3.org/2000/svg" width="91.758" height="66.394" viewBox="0 0 91.758 66.394"><defs><style>.a,.c{fill:#525252;}.a,.b{stroke:#525252;}.b{fill:none;stroke-width:3.5px;}</style></defs><g transform="translate(-423.124 -613.99)"><path class="a" d="M53.218,56.478a1.081,1.081,0,0,1-.768-.318l-4.74-4.739-1.535,1.535a1.086,1.086,0,0,1-1.068.276,1.088,1.088,0,0,1-.759-.8l-.033-.146L32.954,56.412H32.93a1.024,1.024,0,0,1-.695,0h-.024L8.318,47.723A1.088,1.088,0,0,1,7.6,46.7V29.282L.758,27.1a1.085,1.085,0,0,1-.489-1.75l6.977-7.973L.269,9.406A1.085,1.085,0,0,1,.758,7.655L24.651.053A1.085,1.085,0,0,1,25.8.373l6.785,7.754L39.367.373A1.086,1.086,0,0,1,40.514.053l2.931.932c-.472.59-.922,1.213-1.338,1.853l-1.574-.5L34.492,9.245l4.407,1.4c-.147.711-.261,1.441-.34,2.171l-4.89-1.556v5.03a1.086,1.086,0,1,1-2.173,0v-5.03L12.273,17.379l20.309,6.463L39.328,21.7c.2.69.436,1.381.7,2.055l-5.539,1.763,6.042,6.907,4.188-1.333a23.152,23.152,0,0,0,1.8,1.707L40.511,34.7a1.08,1.08,0,0,1-.326.051,1.092,1.092,0,0,1-.818-.367l-5.7-6.517v9.056a1.086,1.086,0,0,1-2.173,0V27.869l-5.7,6.516a1.085,1.085,0,0,1-.817.371h-.017a1.078,1.078,0,0,1-.309-.046L9.775,29.977V45.942L31.5,53.84V45.617a1.086,1.086,0,1,1,2.173,0v8.225l10.157-3.688-1.766-7.719a1.086,1.086,0,0,1,1.3-1.3l9.968,2.32a1.086,1.086,0,0,1,.523,1.825l-1.536,1.537.177.177,2.894-1.048V37.451c.709.191,1.44.35,2.173.472V46.7a1.09,1.09,0,0,1-.713,1.021l-2.654.962,2.861,2.867a1.084,1.084,0,0,1,0,1.535L53.986,56.16A1.078,1.078,0,0,1,53.218,56.478ZM47.71,48.8a1.076,1.076,0,0,1,.768.319l4.74,4.739,1.537-1.536L50.017,47.58a1.088,1.088,0,0,1,0-1.536l.921-.922L44.564,43.64l1.463,6.39.915-.914A1.079,1.079,0,0,1,47.71,48.8ZM9.038,18.629h0L3,25.536,24.631,32.42l6.042-6.907L9.038,18.629ZM24.631,2.338,3,9.222l6.042,6.907L30.673,9.245Zm7.911,39.926c-.5,0-.9-.608-.9-1.356s.405-1.356.9-1.356.9.608.9,1.356S33.04,42.264,32.542,42.264Zm0-20.791a.9.9,0,1,1,.9-.9A.905.905,0,0,1,32.542,21.473Z" transform="translate(423.633 623.406)"/><circle class="b" cx="19.867" cy="19.867" r="19.867" transform="translate(473.398 615.74)"/><g transform="translate(469.633 612.885)"><path class="c" d="M180.5,271h3.108v3.108H180.5Zm0,0" transform="translate(-158.635 -240.821)"/><path class="c" d="M144.825,96.217a3.076,3.076,0,0,1-1.012,2.294l-3.651,3.341v3.793h3.108v-2.424l2.641-2.417A6.216,6.216,0,1,0,135.5,96.217h3.108a3.108,3.108,0,1,1,6.216,0Zm0,0" transform="translate(-118.298 -78.574)"/></g></g></svg>