<svg xmlns="http://www.w3.org/2000/svg" width="14.499" height="20" viewBox="0 0 14.499 20"><defs><style>.a{fill:#adb7ba;}</style></defs><path class="a" d="M190.688,1949H179.813a1.847,1.847,0,0,1-1.813-1.876v-13.749a1.846,1.846,0,0,1,1.813-1.875h3.02a2.418,2.418,0,1,1,4.833,0h3.021a1.846,1.846,0,0,1,1.812,1.875v13.749A1.847,1.847,0,0,1,190.688,1949Zm-9.288-4a.5.5,0,0,0,0,1h7.7a.5.5,0,0,0,0-1Zm0-2a.5.5,0,0,0,0,1h7.7a.5.5,0,0,0,0-1Zm0-2a.5.5,0,0,0,0,1h7.7a.5.5,0,0,0,0-1Zm0-2a.5.5,0,0,0,0,1h7.7a.5.5,0,0,0,0-1Zm.527-5a.308.308,0,0,0-.3.312v.625a.308.308,0,0,0,.3.312h6.646a.308.308,0,0,0,.3-.312v-.625a.308.308,0,0,0-.3-.312Zm3.323-3.438a.938.938,0,1,0,.906.938A.924.924,0,0,0,185.25,1930.562Z" transform="translate(-178 -1929)"/></svg>