<svg xmlns="http://www.w3.org/2000/svg" width="24.769" height="19.819" viewBox="0 0 24.769 19.819"><defs><style>.a{fill:#3800b9;}</style></defs><g transform="translate(0 0)"><path class="a" d="M259.791,46.172c0,1.937,0,3.875,0,5.808,0,.829-.7,1.3-1.341.921a1.075,1.075,0,0,1-.468-1.045c0-3.771,0-7.545.012-11.316a.77.77,0,0,0-.552-.881,3.352,3.352,0,0,1-1.781-4.095,3.444,3.444,0,0,1,3.662-2.314,3.37,3.37,0,0,1,2.934,3.474,3.218,3.218,0,0,1-2.085,3.006.527.527,0,0,0-.392.58c.02,1.953.012,3.907.016,5.86Zm.709-9.551a1.617,1.617,0,0,0-3.234.02,1.617,1.617,0,0,0,3.234-.02Z" transform="translate(-246.502 -33.215)"/><path class="a" d="M35.075,37.737c0,.861.012,1.717-.008,2.578a.484.484,0,0,0,.36.548,3.362,3.362,0,0,1,.016,6.236.518.518,0,0,0-.372.592q.018,2.576,0,5.152c0,.8-.684,1.265-1.313.917a1,1,0,0,1-.476-.989c0-1.7-.008-3.4.012-5.1a.513.513,0,0,0-.388-.576,3.348,3.348,0,0,1-.012-6.212.539.539,0,0,0,.4-.62c-.016-1.685,0-3.366-.012-5.052a1.036,1.036,0,0,1,.38-.937.828.828,0,0,1,.9-.076.909.909,0,0,1,.5.869C35.079,35.951,35.075,36.844,35.075,37.737Zm.729,6.22A1.613,1.613,0,1,0,34.194,45.6,1.623,1.623,0,0,0,35.8,43.957Z" transform="translate(-30.8 -34.059)"/><path class="a" d="M485.355,39.039c0,1.361.008,2.726,0,4.087a.442.442,0,0,0,.336.5,3.352,3.352,0,0,1,.028,6.252.475.475,0,0,0-.364.544c.016.725.012,1.445,0,2.17-.008.64-.376,1.065-.9,1.057s-.881-.424-.889-1.073c-.008-.725-.012-1.449,0-2.17a.448.448,0,0,0-.336-.512,3.355,3.355,0,0,1,0-6.244.475.475,0,0,0,.344-.552q-.012-4.089,0-8.178c0-.8.593-1.253,1.245-.969a.948.948,0,0,1,.544.989C485.351,36.313,485.355,37.678,485.355,39.039Zm.716,7.725a1.569,1.569,0,0,0-1.589-1.593,1.6,1.6,0,0,0-1.641,1.6,1.615,1.615,0,1,0,3.23-.008Z" transform="translate(-463.075 -33.844)"/></g></svg>