<svg xmlns="http://www.w3.org/2000/svg" width="65" height="65" viewBox="0 0 65 65"><defs><style>.a{fill:#525252;}</style></defs><path class="a" d="M65,43.989A21.059,21.059,0,0,0,49.614,23.743,24.819,24.819,0,1,0,3.442,37.435L.091,49.547,12.2,46.2a24.727,24.727,0,0,0,11.538,3.416A21.017,21.017,0,0,0,54.68,62.079l10.228,2.829L62.079,54.68A20.935,20.935,0,0,0,65,43.989Zm-52.2-1.91L5.554,44.085,7.56,36.834,7.1,36.119a21,21,0,1,1,6.418,6.418ZM59.446,59.446l-5.381-1.489-.719.468a17.209,17.209,0,0,1-25.666-8.953A24.866,24.866,0,0,0,49.473,27.68a17.209,17.209,0,0,1,8.952,25.667l-.468.719Zm0,0"/><path class="a" d="M180.5,271h3.809v3.809H180.5Zm0,0" transform="translate(-157.585 -236.596)"/><path class="a" d="M146.926,97.617a3.769,3.769,0,0,1-1.24,2.811l-4.473,4.094v4.647h3.809V106.2l3.236-2.962A7.617,7.617,0,1,0,135.5,97.617h3.809a3.809,3.809,0,0,1,7.617,0Zm0,0" transform="translate(-118.298 -78.574)"/></svg>