<svg xmlns="http://www.w3.org/2000/svg" width="75.227" height="55.229" viewBox="0 0 75.227 55.229"><defs><style>.a{stroke:#fff;stroke-width:1.5px;}.b{fill:none;stroke:#2b2c33;stroke-width:2px;}.c{fill:#3405b5;font-size:13px;font-family:Axiforma-ExtraBold, Axiforma;font-weight:800;letter-spacing:0.01em;}</style></defs><g transform="translate(-198.846 -526.314)"><path class="a" d="M44.536,43H5.362a5.3,5.3,0,0,1-2.08-.422A5.376,5.376,0,0,1,0,37.625V5.375A5.392,5.392,0,0,1,3.274.424,5.3,5.3,0,0,1,5.362,0H55.638a5.334,5.334,0,0,1,3.8,1.581A5.372,5.372,0,0,1,61,5.375V24.43c-.117,0-.237,0-.357,0a16.347,16.347,0,0,0-3.217.319V6.107L41.98,21.509l7.445,7.417a16.4,16.4,0,0,0-2.309,2.751l-7.669-7.64-2.632,2.625a8.92,8.92,0,0,1-12.633,0l-2.628-2.621L6.114,39.416H44.432c-.035.436-.052.878-.052,1.314A16.583,16.583,0,0,0,44.536,43ZM3.574,6.107h0V36.9L19.019,21.509,3.574,6.107ZM6.112,3.584,9.888,7.349l7.494,7.474,9.323,9.3a5.351,5.351,0,0,0,7.585,0l4.218-4.206,9.751-9.725,6.628-6.61H6.112Z" transform="translate(199.596 527.064)"/><g transform="translate(247.39 554.461)"><circle class="b" cx="12.989" cy="12.989" r="12.989" transform="translate(-0.295 0.103)"/><text class="c" transform="translate(12.206 17.603)"><tspan x="-3.666" y="0">?</tspan></text></g></g></svg>