<svg xmlns="http://www.w3.org/2000/svg" width="14.537" height="14.526" viewBox="0 0 14.537 14.526"><defs><style>.a{fill:#3405b5;}</style></defs><g transform="translate(-153.198 -186.995)"><path class="a" d="M167.735,194.272a7.268,7.268,0,1,1-7.248-7.278A7.261,7.261,0,0,1,167.735,194.272Zm-1.187,0a6.078,6.078,0,1,0-6.087,6.059A6.073,6.073,0,0,0,166.548,194.272Z"/><path class="a" d="M456.308,464.32v1.128H452.8c0-.332-.007-.66.007-.984,0-.046.111-.116.175-.122.2-.017.393-.006.6-.006v-4.223h-.756c0-.376-.005-.728.007-1.078,0-.041.1-.112.157-.112.822-.013,1.642-.015,2.465-.026.216,0,.173.144.175.265q.011,2.386.022,4.771v.387Z" transform="translate(-294.079 -266.889)"/><path class="a" d="M492.658,306.834a1.011,1.011,0,0,1-1.058-1.006,1.038,1.038,0,0,1,1.1-1.029,1.02,1.02,0,1,1-.041,2.035Z" transform="translate(-332.163 -115.632)"/></g></svg>