<svg xmlns="http://www.w3.org/2000/svg" width="11.515" height="11.506" viewBox="0 0 11.515 11.506"><defs><style>.a,.b{fill:#fff;stroke:#fff;}.a{stroke-width:0.6px;}.b{stroke-width:0.4px;}</style></defs><g transform="translate(-152.898 -186.695)"><path class="a" d="M164.113,192.459a5.457,5.457,0,1,1-5.442-5.464A5.452,5.452,0,0,1,164.113,192.459Zm-.891,0a4.564,4.564,0,1,0-4.57,4.549A4.56,4.56,0,0,0,163.222,192.459Z" transform="translate(0 0)"/><path class="b" d="M455.434,462.968v.847H452.8c0-.249-.006-.5.005-.739,0-.035.083-.087.132-.091.147-.013.295,0,.448,0V459.81h-.567c0-.282,0-.547.006-.81,0-.03.076-.084.118-.084.617-.01,1.233-.011,1.85-.019.162,0,.13.108.131.2q.008,1.792.017,3.582v.291Z" transform="translate(-295.455 -268.138)"/><path class="b" d="M492.394,306.327a.759.759,0,0,1-.794-.756.78.78,0,0,1,.825-.772.766.766,0,1,1-.03,1.528Z" transform="translate(-333.718 -116.173)"/></g></svg>