<svg xmlns="http://www.w3.org/2000/svg" width="80.465" height="67.936" viewBox="0 0 80.465 67.936"><defs><style>.a{fill:#525252;}</style></defs><g transform="translate(0 -39.861)"><g transform="translate(0 39.861)"><path class="a" d="M80.465,88.333a19.458,19.458,0,0,0-35.3-11.3H20.618V72.315a2.74,2.74,0,0,0-2.737-2.737H12.306a2.74,2.74,0,0,0-2.737,2.737v4.717H8.228a5.887,5.887,0,0,1-5.88-5.88V62.374a5.887,5.887,0,0,1,5.88-5.88H63.909a5.887,5.887,0,0,1,5.881,5.88v5.313a1.174,1.174,0,0,0,2.348,0V62.374a8.238,8.238,0,0,0-8.228-8.228H51.724V49.054a9.2,9.2,0,0,0-9.193-9.193H29.606a9.2,9.2,0,0,0-9.193,9.193v5.092H8.228A8.238,8.238,0,0,0,0,62.374V97.189a8.238,8.238,0,0,0,8.228,8.228H45.75a1.174,1.174,0,1,0,0-2.348H8.228a5.887,5.887,0,0,1-5.88-5.881V76.9a8.2,8.2,0,0,0,5.88,2.481H9.569v1.193a5.524,5.524,0,0,0,11.049,0V79.38h23.1a19.462,19.462,0,1,0,36.742,8.953ZM44.654,54.146H27.484V49.054a2.125,2.125,0,0,1,2.123-2.123H42.531a2.125,2.125,0,0,1,2.123,2.123ZM22.761,49.054a6.853,6.853,0,0,1,6.845-6.845H42.531a6.853,6.853,0,0,1,6.845,6.845v5.092H47V49.054a4.476,4.476,0,0,0-4.471-4.471H29.606a4.476,4.476,0,0,0-4.471,4.471v5.092H22.761ZM12.306,71.926h5.575a.389.389,0,0,1,.389.389v1.8H11.917v-1.8a.389.389,0,0,1,.389-.389Zm5.964,8.647a3.176,3.176,0,0,1-6.353,0V76.462H18.27v4.111ZM76.33,95.94a37.59,37.59,0,0,0-5.5-1.036,37.005,37.005,0,0,0,0-13.142,37.59,37.59,0,0,0,5.5-1.036,17.089,17.089,0,0,1,0,15.214Zm-8.4-16.247c-1.808.148-3.752.239-5.759.264v-8.54C65.179,72.432,67.064,76.643,67.934,79.693ZM59.827,71.41v8.547c-2.006-.026-3.949-.116-5.756-.264,1.238-4.354,3.361-7.5,5.756-8.283Zm-5.76,25.563c1.809-.148,3.753-.239,5.761-.264v8.545C57.433,104.47,55.3,101.345,54.066,96.973Zm8.108,8.276v-8.54c2.007.026,3.951.116,5.759.264C67.064,100.022,65.179,104.233,62.175,105.249Zm0-10.888V82.306c2.216-.027,4.342-.13,6.309-.3a34.31,34.31,0,0,1,0,12.654c-1.967-.17-4.093-.273-6.309-.3ZM75.09,78.627a39.009,39.009,0,0,1-4.779.83,20.336,20.336,0,0,0-3.334-7.162A17.206,17.206,0,0,1,75.09,78.627ZM55.009,72.3a20.256,20.256,0,0,0-3.32,7.156,39.037,39.037,0,0,1-4.777-.83A17.207,17.207,0,0,1,55.009,72.3Zm-9.338,8.426a37.59,37.59,0,0,0,5.5,1.036,35.334,35.334,0,0,0-.515,4.224A1.174,1.174,0,1,0,53,86.133a32.281,32.281,0,0,1,.522-4.126c1.966.17,4.091.273,6.306.3V94.36c-2.215.027-4.341.129-6.307.3a31.977,31.977,0,0,1-.452-3.213,1.174,1.174,0,0,0-2.339.21c.1,1.11.251,2.2.448,3.246a37.574,37.574,0,0,0-5.506,1.037,17.088,17.088,0,0,1,0-15.214Zm1.24,17.313a39.053,39.053,0,0,1,4.79-.831,20.55,20.55,0,0,0,3.321,7.163A17.2,17.2,0,0,1,46.911,98.039Zm20.066,6.332a20.336,20.336,0,0,0,3.334-7.162,39.04,39.04,0,0,1,4.779.83A17.2,17.2,0,0,1,66.977,104.371Z" transform="translate(0 -39.861)"/></g></g></svg>