<svg xmlns="http://www.w3.org/2000/svg" width="18.74" height="18.74" viewBox="0 0 18.74 18.74"><defs><style>.a{fill:#fff;}</style></defs><g transform="translate(4.403 5.014)"><path class="a" d="M120.967,137h-.235l-.439,2.2h1.113Z" transform="translate(-120.293 -137)"/></g><g transform="translate(13.959 9.407)"><path class="a" d="M381.374,257a5.737,5.737,0,0,0,.9,1.591,5.8,5.8,0,0,0,.938-1.591Z" transform="translate(-381.374 -257)"/></g><g transform="translate(8.882 3.331)"><path class="a" d="M250.874,91h-6.818l1.422,11.408a1.7,1.7,0,0,1-.407,1.25l-2.408,2.752h8.211a1.649,1.649,0,0,0,1.647-1.647V92.684A1.681,1.681,0,0,0,250.874,91Zm0,6.076h-.147a6.967,6.967,0,0,1-1.323,2.4c.4.369.835.671,1.263,1.01a.549.549,0,0,1-.686.857c-.466-.368-.9-.676-1.341-1.077-.437.4-.838.709-1.3,1.077a.549.549,0,1,1-.686-.857c.429-.339.823-.641,1.227-1.01a6.93,6.93,0,0,1-1.286-2.4h-.147a.549.549,0,0,1,0-1.1h1.647v-.549a.549.549,0,0,1,1.1,0v.549h1.684a.549.549,0,0,1,0,1.1Z" transform="translate(-242.663 -91)"/></g><path class="a" d="M8.937,1.443A1.649,1.649,0,0,0,7.3,0H1.647A1.649,1.649,0,0,0,0,1.647V13.8a1.649,1.649,0,0,0,1.647,1.647h8.658c.16-.183.294-.3.3-.537C10.607,14.849,8.944,1.5,8.937,1.443Zm-2.2,9.051a.549.549,0,0,1-.646-.431L5.736,8.309H4.183l-.351,1.755a.549.549,0,1,1-1.077-.216l1.1-5.49a.549.549,0,0,1,.538-.441H5.527a.549.549,0,0,1,.538.441l1.1,5.49A.549.549,0,0,1,6.733,10.494Z"/><g transform="translate(6.415 16.544)"><path class="a" d="M175.261,452l.094.753a1.66,1.66,0,0,0,.949,1.276L178.148,452Z" transform="translate(-175.261 -452)"/></g></svg>