<svg xmlns="http://www.w3.org/2000/svg" width="15.137" height="15.137" viewBox="0 0 15.137 15.137"><defs><style>.a{fill:#3225a7;}</style></defs><g transform="translate(3.556 4.05)"><path class="a" d="M120.837,137h-.19l-.355,1.774h.9Z" transform="translate(-120.293 -137)"/></g><g transform="translate(11.275 7.598)"><path class="a" d="M381.374,257a4.631,4.631,0,0,0,.728,1.285A4.68,4.68,0,0,0,382.86,257Z" transform="translate(-381.374 -257)"/></g><g transform="translate(7.174 2.69)"><path class="a" d="M249.3,91h-5.507l1.148,9.214a1.377,1.377,0,0,1-.329,1.009l-1.945,2.222H249.3a1.332,1.332,0,0,0,1.33-1.33V92.36A1.357,1.357,0,0,0,249.3,91Zm0,4.908h-.118a5.628,5.628,0,0,1-1.068,1.942c.326.3.674.542,1.02.816a.443.443,0,1,1-.554.692c-.376-.3-.73-.546-1.083-.87-.353.324-.677.573-1.053.87a.443.443,0,0,1-.554-.692c.346-.274.665-.518.991-.816a5.6,5.6,0,0,1-1.039-1.942h-.118a.443.443,0,0,1,0-.887h1.33v-.443a.443.443,0,1,1,.887,0v.443h1.36a.443.443,0,1,1,0,.887Z" transform="translate(-242.663 -91)"/></g><g transform="translate(0)"><path class="a" d="M7.218,1.165A1.332,1.332,0,0,0,5.9,0H1.33A1.332,1.332,0,0,0,0,1.33v9.815a1.332,1.332,0,0,0,1.33,1.33H8.324c.129-.148.238-.24.242-.433C8.567,11.994,7.224,1.213,7.218,1.165ZM5.438,8.476a.443.443,0,0,1-.522-.348L4.633,6.711H3.379L3.1,8.128a.443.443,0,0,1-.87-.174L3.113,3.52a.444.444,0,0,1,.435-.356h.916A.444.444,0,0,1,4.9,3.52l.887,4.435A.443.443,0,0,1,5.438,8.476Z"/></g><g transform="translate(5.181 13.363)"><path class="a" d="M175.261,452l.076.609a1.341,1.341,0,0,0,.767,1.03L177.593,452Z" transform="translate(-175.261 -452)"/></g></svg>