<svg xmlns="http://www.w3.org/2000/svg" width="35" height="35" viewBox="0 0 35 35"><defs><style>.a{fill:#007ab9;}.b{fill:#f1f2f2;}</style></defs><g transform="translate(0 0.001)"><circle class="a" cx="17.5" cy="17.5" r="17.5" transform="translate(0 -0.001)"/><g transform="translate(8.333 7.387)"><path class="b" d="M46.784,35.519v7.29H42.557v-6.8c0-1.708-.61-2.874-2.141-2.874a2.312,2.312,0,0,0-2.168,1.545,2.893,2.893,0,0,0-.14,1.03v7.1H33.882s.057-11.52,0-12.712h4.227v1.8c-.009.014-.02.028-.028.042h.028V31.9a4.2,4.2,0,0,1,3.809-2.1c2.781,0,4.866,1.817,4.866,5.721ZM29.46,23.969a2.2,2.2,0,1,0-.055,4.393h.027a2.2,2.2,0,1,0,.028-4.393Zm-2.141,18.84h4.225V30.1H27.319Z" transform="translate(-27.068 -23.969)"/></g></g></svg>