<svg xmlns="http://www.w3.org/2000/svg" width="201.414" height="40.578" viewBox="0 0 201.414 40.578"><defs><style>.a{fill:#ff0202;}.b,.d{fill:#3225a7;}.c{fill:#3124a8;}.d{font-size:9px;font-family:Axiforma-Bold, Axiforma;font-weight:700;}</style></defs><g transform="translate(-268.586 -83)"><g transform="translate(268.586 83)"><path class="a" d="M9.231,19.51V0H2.442L0,3.532H4.824V19.51H0v3.532H13.7V19.51Z"/><path class="b" d="M80.267,7.124v2.882H77.2V13.2h3.067v2.882h3.35V7.124ZM77.2,0V3.532h9.693V8h3.931V0Zm9.708,15.046V19.51H81.756v3.532h9.068v-8Z" transform="translate(-65.706)"/><path class="b" d="M210.219,18.815a3.1,3.1,0,0,1-2.293,1.049,2.276,2.276,0,0,1-1.668-.8,4.538,4.538,0,0,1-1.072-2.232,6.932,6.932,0,0,0,3.142-1.848,4.363,4.363,0,0,0,1.221-3.163,4.332,4.332,0,0,0-1.7-3.7,6.774,6.774,0,0,0-4.2-1.271,9.946,9.946,0,0,0-6.8,3.119V0H189.3V3.532h3.38V19.51H189.3v3.532h10.452V19.51h-2.9V15.918a12.88,12.88,0,0,0,4.735,1.271,8.949,8.949,0,0,0,2.2,4.641,5.32,5.32,0,0,0,3.961,1.685,5.424,5.424,0,0,0,2.635-.591,6.657,6.657,0,0,0,2-1.7Zm-6.164-5.144a5.824,5.824,0,0,1-2.695.576,11.755,11.755,0,0,1-4.5-.975V12.8a13.566,13.566,0,0,1,3.023-1.877,6.694,6.694,0,0,1,2.62-.636,3.62,3.62,0,0,1,1.965.429,1.527,1.527,0,0,1,.685,1.345,1.793,1.793,0,0,1-1.1,1.611" transform="translate(-161.115)"/><path class="b" d="M431.72,11.056a6.112,6.112,0,0,0,2.248-2.01,5.232,5.232,0,0,0,.834-2.926,5.454,5.454,0,0,0-2.04-4.434A8.96,8.96,0,0,0,426.926,0H413.6V3.532h4.065V19.51H413.6v3.532h13.936c2.933,0,5.181-.562,6.73-1.685a5.523,5.523,0,0,0,2.338-4.73q0-4.3-4.884-5.572m-9.663-7.523h4.6a4.466,4.466,0,0,1,2.62.739,2.712,2.712,0,0,1,1.072,2.38c0,2.173-1.5,3.252-4.5,3.252h-3.8Zm5.137,15.977h-5.137V13.1h5.3a6.91,6.91,0,0,1,3.529.783,2.635,2.635,0,0,1,1.206,2.394c.015,2.173-1.623,3.237-4.9,3.237" transform="translate(-352.018 0)"/><path class="b" d="M601.079,58.814a2.624,2.624,0,0,1-.953.207c-.655,0-.983-.443-.983-1.315V52.4a5.987,5.987,0,0,0-1.906-4.685,8.016,8.016,0,0,0-5.464-1.7,19.678,19.678,0,0,0-7.578,1.714l.849,3.193a17.968,17.968,0,0,1,6.164-1.375,5.278,5.278,0,0,1,2.829.68,2.2,2.2,0,0,1,1.1,2.01v1.242a16.517,16.517,0,0,0-2.5-.828,11.969,11.969,0,0,0-2.71-.281,8.757,8.757,0,0,0-3.261.621,5.872,5.872,0,0,0-2.486,1.833,5.008,5.008,0,0,0,.64,6.592,6,6,0,0,0,3.931,1.3q3.283,0,6.626-2.956a3.725,3.725,0,0,0,1.34,2.04,3.648,3.648,0,0,0,2.248.724,6.82,6.82,0,0,0,1.727-.207,4.186,4.186,0,0,0,1.251-.5Zm-5.956-1.744a12.03,12.03,0,0,1-2.873,1.641,6.5,6.5,0,0,1-2.367.532,3.16,3.16,0,0,1-1.757-.458,1.5,1.5,0,0,1-.715-1.33,1.639,1.639,0,0,1,.968-1.522,5,5,0,0,1,2.353-.547,12.327,12.327,0,0,1,4.392.769Z" transform="translate(-496.393 -39.201)"/><path class="b" d="M730.611,55.421a4.083,4.083,0,0,1-1.266,2.335,3.209,3.209,0,0,1-2.278.916,5.288,5.288,0,0,1-1.966-.384,9.706,9.706,0,0,1-2.129-1.2,19.364,19.364,0,0,1,3.588-2.01A21.943,21.943,0,0,0,730,53.115a9.106,9.106,0,0,0,2.353-2.527,12.9,12.9,0,0,0,1.563-3.843L730.357,45.4a8.363,8.363,0,0,1-1.593,3.621,20.294,20.294,0,0,0-2.635-2.01,9.385,9.385,0,0,0-2.829-1.138,16.891,16.891,0,0,0-4.05-.4h-2.606v7.08H720.2V49.036a11.593,11.593,0,0,1,3.633.488,9.681,9.681,0,0,1,2.65,1.33l-2.1,1.212c-1.444.783-2.62,1.478-3.514,2.084a13.273,13.273,0,0,0-4.973,6.681l3.439,1.36a11.937,11.937,0,0,1,1.7-3.222,14.466,14.466,0,0,0,3.231,2.439,7.12,7.12,0,0,0,3.439.783,6.365,6.365,0,0,0,2.9-.695,6.564,6.564,0,0,0,2.412-2,6.283,6.283,0,0,0,1.206-3.089Z" transform="translate(-609.308 -38.69)"/><path class="b" d="M869.879,58.814a2.351,2.351,0,0,1-.953.207c-.655,0-.983-.443-.983-1.315V52.4a5.987,5.987,0,0,0-1.906-4.685,8.016,8.016,0,0,0-5.464-1.7,19.678,19.678,0,0,0-7.579,1.714l.849,3.193a17.968,17.968,0,0,1,6.164-1.375,5.277,5.277,0,0,1,2.829.68,2.2,2.2,0,0,1,1.1,2.01v1.242a16.516,16.516,0,0,0-2.5-.828,11.97,11.97,0,0,0-2.71-.281,8.756,8.756,0,0,0-3.261.621,5.871,5.871,0,0,0-2.486,1.833,5.008,5.008,0,0,0,.64,6.592,6,6,0,0,0,3.931,1.3q3.283,0,6.626-2.956a3.726,3.726,0,0,0,1.34,2.04,3.648,3.648,0,0,0,2.248.724,6.82,6.82,0,0,0,1.727-.207,4.186,4.186,0,0,0,1.251-.5Zm-5.956-1.744a12.028,12.028,0,0,1-2.874,1.641,6.5,6.5,0,0,1-2.367.532,3.16,3.16,0,0,1-1.757-.458,1.5,1.5,0,0,1-.715-1.33,1.639,1.639,0,0,1,.968-1.522,5,5,0,0,1,2.352-.547,12.328,12.328,0,0,1,4.392.769Z" transform="translate(-725.171 -39.201)"/><path class="b" d="M1008,58.814a2.352,2.352,0,0,1-.953.207c-.655,0-.983-.443-.983-1.315V52.4a5.988,5.988,0,0,0-1.906-4.685,8.016,8.016,0,0,0-5.464-1.7,19.678,19.678,0,0,0-7.579,1.714l.849,3.193a17.968,17.968,0,0,1,6.164-1.375,5.278,5.278,0,0,1,2.829.68,2.2,2.2,0,0,1,1.1,2.01v1.242a16.512,16.512,0,0,0-2.5-.828,11.97,11.97,0,0,0-2.71-.281,8.755,8.755,0,0,0-3.261.621,5.873,5.873,0,0,0-2.487,1.833,4.6,4.6,0,0,0-.953,2.882,4.489,4.489,0,0,0,1.593,3.71,6,6,0,0,0,3.931,1.3q3.283,0,6.626-2.956a3.726,3.726,0,0,0,1.34,2.04,3.648,3.648,0,0,0,2.248.724,6.819,6.819,0,0,0,1.727-.207,4.187,4.187,0,0,0,1.251-.5Zm-5.956-1.744a12.029,12.029,0,0,1-2.874,1.641,6.5,6.5,0,0,1-2.367.532,3.16,3.16,0,0,1-1.757-.458,1.5,1.5,0,0,1-.715-1.33,1.639,1.639,0,0,1,.968-1.522,5,5,0,0,1,2.353-.547,12.328,12.328,0,0,1,4.392.769Z" transform="translate(-842.717 -39.201)"/><path class="b" d="M1139.055,46.1a7.148,7.148,0,0,0-3.573,1.109,15.38,15.38,0,0,0-3.573,2.986V46.5H1124.3v3.326h3.38v9.164h-3.38v3.326h11.033V58.988h-3.424V53.52a13.836,13.836,0,0,1,2.784-2.394,4.781,4.781,0,0,1,2.353-.857V53.15h3.693V46.1Z" transform="translate(-956.901 -39.286)"/><g transform="translate(-255.649 -536.676)"><path class="c" d="M262.077,571.543a5.764,5.764,0,0,1-.444,2.324,3.513,3.513,0,0,1-1.223,1.55,3.131,3.131,0,0,1-1.808.531,2.462,2.462,0,0,1-1.875-.7,2.694,2.694,0,0,1-.664-1.934,5.527,5.527,0,0,1,.461-2.28,3.664,3.664,0,0,1,1.26-1.578,3.138,3.138,0,0,1,1.815-.547,2.379,2.379,0,0,1,1.826.7,2.722,2.722,0,0,1,.652,1.936m-2.567-1.674a1.752,1.752,0,0,0-1.169.449,2.962,2.962,0,0,0-.821,1.246,4.952,4.952,0,0,0-.3,1.742,1.848,1.848,0,0,0,.381,1.249,1.334,1.334,0,0,0,1.064.44,1.732,1.732,0,0,0,1.162-.447,2.908,2.908,0,0,0,.8-1.239,5.118,5.118,0,0,0,.287-1.756,1.885,1.885,0,0,0-.369-1.239,1.281,1.281,0,0,0-1.043-.444" transform="translate(0 -0.902)"/><path class="c" d="M283.4,580.414l.664-3.143a3.52,3.52,0,0,0,.084-.613.537.537,0,0,0-.6-.613,1.049,1.049,0,0,0-.664.267,2.411,2.411,0,0,0-.589.769,4.359,4.359,0,0,0-.393,1.139l-.458,2.193h-1.1l1.1-5.172h.86l-.1.959h.042a2.806,2.806,0,0,1,.8-.8,1.69,1.69,0,0,1,.893-.25,1.288,1.288,0,0,1,.971.355,1.394,1.394,0,0,1,.344,1.01,4.428,4.428,0,0,1-.108.846l-.641,3.054Z" transform="translate(-17.74 -5.461)"/><path class="c" d="M304.1,580.507a1.938,1.938,0,0,1-1.438-.519,1.965,1.965,0,0,1-.517-1.45,4.114,4.114,0,0,1,.363-1.723,2.955,2.955,0,0,1,.982-1.232,2.357,2.357,0,0,1,1.386-.435,1.815,1.815,0,0,1,1.172.339,1.167,1.167,0,0,1,.419.961,1.488,1.488,0,0,1-.779,1.33,4.255,4.255,0,0,1-2.219.479h-.2l-.009.145v.136a1.176,1.176,0,0,0,.264.814,1,1,0,0,0,.788.294,2.566,2.566,0,0,0,.669-.089,4.746,4.746,0,0,0,.786-.3v.874a4.334,4.334,0,0,1-.825.292,3.759,3.759,0,0,1-.839.087m.711-4.518a1.176,1.176,0,0,0-.844.4,2.318,2.318,0,0,0-.568,1.061h.136a3.1,3.1,0,0,0,1.375-.25.774.774,0,0,0,.5-.709.473.473,0,0,0-.15-.372.65.65,0,0,0-.444-.133" transform="translate(-33.677 -5.461)"/><path class="c" d="M334.869,576.146h-1.216l-1.917-5.439h-.028l-.047.323q-.113.7-.166.994t-.858,4.122h-1.024l1.445-6.837h1.253l1.866,5.373h.033q.028-.253.145-.9t.187-.952l.748-3.521h1.024Z" transform="translate(-53.754 -1.193)"/><path class="c" d="M357.4,580.506a1.27,1.27,0,0,1-1.043-.474,2.073,2.073,0,0,1-.384-1.335,4.77,4.77,0,0,1,.325-1.768,3.188,3.188,0,0,1,.9-1.3,1.906,1.906,0,0,1,1.253-.479,1.328,1.328,0,0,1,1.291.832h.047l.29-.739h.842l-1.1,5.172h-.851l.1-.823h-.028a2.1,2.1,0,0,1-1.632.916m.4-.888a1.083,1.083,0,0,0,.753-.363,2.732,2.732,0,0,0,.608-.97,3.605,3.605,0,0,0,.238-1.328.966.966,0,0,0-.22-.661.729.729,0,0,0-.575-.25,1.039,1.039,0,0,0-.748.36,2.563,2.563,0,0,0-.561.98,3.961,3.961,0,0,0-.21,1.284,1.127,1.127,0,0,0,.189.713.637.637,0,0,0,.526.236" transform="translate(-73.018 -5.46)"/><path class="c" d="M378.242,576.748a2.039,2.039,0,0,0,.706-.145v.833a2.023,2.023,0,0,1-.444.14,2.64,2.64,0,0,1-.561.061q-1.281,0-1.281-1.155a2.949,2.949,0,0,1,.075-.613l.566-2.666h-.758l.1-.514.888-.384.6-1.085h.683l-.243,1.15h1.3l-.182.832h-1.3l-.571,2.675a1.926,1.926,0,0,0-.061.43.439.439,0,0,0,.117.32.479.479,0,0,0,.356.119" transform="translate(-88.054 -2.59)"/><path class="c" d="M389.931,575.282h-1.1l1.1-5.172h1.1Zm.22-6.444a.726.726,0,0,1,.182-.514.668.668,0,0,1,.515-.2.624.624,0,0,1,.4.124.454.454,0,0,1,.154.377.718.718,0,0,1-.187.524.655.655,0,0,1-.491.192.672.672,0,0,1-.412-.122.446.446,0,0,1-.164-.384" transform="translate(-97.032 -0.33)"/><path class="c" d="M404.032,577.2a4.21,4.21,0,0,1-.342,1.719,2.752,2.752,0,0,1-.937,1.188,2.347,2.347,0,0,1-1.373.414,1.912,1.912,0,0,1-1.426-.536,1.982,1.982,0,0,1-.529-1.457,4.266,4.266,0,0,1,.335-1.707,2.814,2.814,0,0,1,.937-1.209,2.331,2.331,0,0,1,1.394-.432,1.872,1.872,0,0,1,1.426.543,2.06,2.06,0,0,1,.514,1.478m-1.108-.047a1.212,1.212,0,0,0-.229-.784.794.794,0,0,0-.655-.283,1.089,1.089,0,0,0-.779.335,2.2,2.2,0,0,0-.533.907,3.872,3.872,0,0,0-.19,1.223,1.205,1.205,0,0,0,.232.8.843.843,0,0,0,.685.276,1.076,1.076,0,0,0,.758-.318,2.091,2.091,0,0,0,.524-.891,4.045,4.045,0,0,0,.187-1.26" transform="translate(-104.778 -5.486)"/><path class="c" d="M422.071,580.414l.664-3.143a3.52,3.52,0,0,0,.084-.613.537.537,0,0,0-.6-.613,1.049,1.049,0,0,0-.664.267,2.411,2.411,0,0,0-.589.769,4.36,4.36,0,0,0-.393,1.139l-.458,2.193h-1.1l1.1-5.172h.86l-.1.959h.042a2.806,2.806,0,0,1,.8-.8,1.69,1.69,0,0,1,.893-.25,1.288,1.288,0,0,1,.971.355,1.394,1.394,0,0,1,.344,1.01,4.426,4.426,0,0,1-.108.846l-.641,3.054Z" transform="translate(-119.089 -5.461)"/><path class="c" d="M439.755,590.767a.862.862,0,0,1,.22-.62.8.8,0,0,1,.613-.231.586.586,0,0,1,.419.147.566.566,0,0,1,.157.432.858.858,0,0,1-.222.606.755.755,0,0,1-.582.241.58.58,0,0,1-.456-.166.594.594,0,0,1-.147-.409" transform="translate(-134.252 -16.254)"/><path class="c" d="M466.358,571.543a5.764,5.764,0,0,1-.444,2.324,3.513,3.513,0,0,1-1.223,1.55,3.131,3.131,0,0,1-1.808.531,2.462,2.462,0,0,1-1.875-.7,2.694,2.694,0,0,1-.664-1.934,5.527,5.527,0,0,1,.461-2.28,3.664,3.664,0,0,1,1.26-1.578,3.138,3.138,0,0,1,1.815-.547,2.379,2.379,0,0,1,1.826.7,2.722,2.722,0,0,1,.652,1.936m-2.567-1.674a1.752,1.752,0,0,0-1.169.449,2.962,2.962,0,0,0-.821,1.246,4.953,4.953,0,0,0-.3,1.742,1.849,1.849,0,0,0,.381,1.249,1.334,1.334,0,0,0,1.064.44,1.732,1.732,0,0,0,1.162-.447,2.908,2.908,0,0,0,.8-1.239,5.119,5.119,0,0,0,.287-1.756,1.885,1.885,0,0,0-.369-1.239,1.281,1.281,0,0,0-1.043-.444" transform="translate(-149.3 -0.902)"/><path class="c" d="M487.681,580.414l.664-3.143a3.52,3.52,0,0,0,.084-.613.537.537,0,0,0-.6-.613,1.049,1.049,0,0,0-.664.267,2.41,2.41,0,0,0-.589.769,4.36,4.36,0,0,0-.393,1.139l-.458,2.193h-1.1l1.1-5.172h.86l-.1.959h.042a2.806,2.806,0,0,1,.8-.8,1.69,1.69,0,0,1,.893-.25,1.288,1.288,0,0,1,.971.355,1.394,1.394,0,0,1,.344,1.01,4.426,4.426,0,0,1-.108.846l-.641,3.054Z" transform="translate(-167.041 -5.461)"/><path class="c" d="M508.379,580.507a1.939,1.939,0,0,1-1.438-.519,1.965,1.965,0,0,1-.517-1.45,4.114,4.114,0,0,1,.363-1.723,2.955,2.955,0,0,1,.982-1.232,2.357,2.357,0,0,1,1.386-.435,1.815,1.815,0,0,1,1.172.339,1.167,1.167,0,0,1,.419.961,1.488,1.488,0,0,1-.779,1.33,4.255,4.255,0,0,1-2.219.479h-.2l-.009.145v.136a1.176,1.176,0,0,0,.264.814,1,1,0,0,0,.788.294,2.567,2.567,0,0,0,.669-.089,4.746,4.746,0,0,0,.786-.3v.874a4.332,4.332,0,0,1-.825.292,3.759,3.759,0,0,1-.839.087m.711-4.518a1.176,1.176,0,0,0-.844.4,2.318,2.318,0,0,0-.568,1.061h.136a3.1,3.1,0,0,0,1.375-.25.774.774,0,0,0,.5-.709.473.473,0,0,0-.15-.372.65.65,0,0,0-.444-.133" transform="translate(-182.978 -5.461)"/><path class="c" d="M536.6,576.146l-.538-5.677h-.028a13.558,13.558,0,0,1-.257,1.59l-.86,4.087H533.9l1.445-6.837h1.51l.51,5.373h.028l2.834-5.373h1.609l-1.426,6.837h-1.062l.851-4.078q.182-.87.4-1.6h-.028l-3.007,5.677Z" transform="translate(-203.055 -1.193)"/><path class="c" d="M566.3,580.506a1.27,1.27,0,0,1-1.043-.474,2.073,2.073,0,0,1-.384-1.335,4.77,4.77,0,0,1,.325-1.768,3.188,3.188,0,0,1,.9-1.3,1.906,1.906,0,0,1,1.253-.479,1.328,1.328,0,0,1,1.291.832h.047l.29-.739h.842l-1.1,5.172h-.851l.1-.823h-.028a2.1,2.1,0,0,1-1.632.916m.4-.888a1.083,1.083,0,0,0,.753-.363,2.732,2.732,0,0,0,.608-.97,3.6,3.6,0,0,0,.238-1.328.966.966,0,0,0-.22-.661.729.729,0,0,0-.575-.25,1.039,1.039,0,0,0-.748.36,2.563,2.563,0,0,0-.561.98,3.961,3.961,0,0,0-.21,1.284,1.127,1.127,0,0,0,.189.713.637.637,0,0,0,.526.236" transform="translate(-225.697 -5.46)"/><path class="c" d="M588.172,575.147a2.014,2.014,0,0,1,.5.056l-.238,1.024a1.9,1.9,0,0,0-.477-.065,1.373,1.373,0,0,0-1.052.528,3.009,3.009,0,0,0-.645,1.384l-.5,2.338h-1.1l1.1-5.172h.86l-.1.959h.042a2.857,2.857,0,0,1,.776-.807,1.514,1.514,0,0,1,.823-.245" transform="translate(-240.161 -5.46)"/><path class="c" d="M603.119,569.78h1.272l-2.259,2.268,1.361,2.9h-1.225l-.978-2.2-.636.449-.36,1.753h-1.1l1.543-7.277h1.1q-.631,2.932-.746,3.411t-.278,1.059h.019Z" transform="translate(-250.777)"/><path class="c" d="M620.745,580.507a1.938,1.938,0,0,1-1.438-.519,1.965,1.965,0,0,1-.517-1.45,4.114,4.114,0,0,1,.363-1.723,2.955,2.955,0,0,1,.982-1.232,2.357,2.357,0,0,1,1.386-.435,1.815,1.815,0,0,1,1.172.339,1.167,1.167,0,0,1,.419.961,1.488,1.488,0,0,1-.779,1.33,4.255,4.255,0,0,1-2.219.479h-.2l-.009.145v.136a1.176,1.176,0,0,0,.264.814,1,1,0,0,0,.788.294,2.566,2.566,0,0,0,.669-.089,4.744,4.744,0,0,0,.786-.3v.874a4.332,4.332,0,0,1-.825.292,3.759,3.759,0,0,1-.839.087m.711-4.518a1.176,1.176,0,0,0-.844.4,2.318,2.318,0,0,0-.568,1.061h.136a3.1,3.1,0,0,0,1.375-.25.774.774,0,0,0,.5-.709.473.473,0,0,0-.15-.372.65.65,0,0,0-.444-.133" transform="translate(-265.101 -5.461)"/><path class="c" d="M639.132,576.748a2.038,2.038,0,0,0,.706-.145v.833a2.021,2.021,0,0,1-.444.14,2.639,2.639,0,0,1-.561.061q-1.281,0-1.281-1.155a2.943,2.943,0,0,1,.075-.613l.566-2.666h-.758l.1-.514.888-.384.6-1.085h.683l-.243,1.15h1.3l-.182.832h-1.3l-.571,2.675a1.926,1.926,0,0,0-.061.43.439.439,0,0,0,.117.32.479.479,0,0,0,.356.119" transform="translate(-278.727 -2.59)"/><path class="c" d="M649.475,590.767a.862.862,0,0,1,.22-.62.8.8,0,0,1,.613-.231.586.586,0,0,1,.419.147.566.566,0,0,1,.157.432.859.859,0,0,1-.222.606.755.755,0,0,1-.582.241.58.58,0,0,1-.456-.166.594.594,0,0,1-.147-.409" transform="translate(-287.528 -16.254)"/><path class="c" d="M671.609,576.146l-.538-5.677h-.028a13.545,13.545,0,0,1-.257,1.59l-.86,4.087H668.9l1.445-6.837h1.51l.51,5.373h.028l2.834-5.373h1.609l-1.426,6.837h-1.062l.851-4.078q.183-.87.4-1.6h-.028l-3.007,5.677Z" transform="translate(-301.725 -1.193)"/><path class="c" d="M701.306,580.506a1.27,1.27,0,0,1-1.043-.474,2.073,2.073,0,0,1-.384-1.335,4.77,4.77,0,0,1,.325-1.768,3.188,3.188,0,0,1,.9-1.3,1.906,1.906,0,0,1,1.253-.479,1.328,1.328,0,0,1,1.291.832h.047l.29-.739h.842l-1.1,5.172h-.851l.1-.823h-.028a2.1,2.1,0,0,1-1.632.916m.4-.888a1.083,1.083,0,0,0,.753-.363,2.732,2.732,0,0,0,.608-.97,3.605,3.605,0,0,0,.238-1.328.966.966,0,0,0-.22-.661.729.729,0,0,0-.575-.25,1.039,1.039,0,0,0-.748.36,2.562,2.562,0,0,0-.561.98,3.961,3.961,0,0,0-.21,1.284,1.127,1.127,0,0,0,.189.713.637.637,0,0,0,.526.236" transform="translate(-324.366 -5.46)"/><path class="c" d="M722.734,580.414l.664-3.143a3.522,3.522,0,0,0,.084-.613.538.538,0,0,0-.6-.613,1.049,1.049,0,0,0-.664.267,2.412,2.412,0,0,0-.589.769,4.36,4.36,0,0,0-.393,1.139l-.458,2.193h-1.1l1.1-5.172h.86l-.1.959h.042a2.806,2.806,0,0,1,.8-.8,1.69,1.69,0,0,1,.893-.25,1.288,1.288,0,0,1,.971.355,1.394,1.394,0,0,1,.344,1.01,4.425,4.425,0,0,1-.108.846l-.641,3.054Z" transform="translate(-338.831 -5.461)"/><path class="c" d="M738.153,575.495h1.085l.295,2.483q.042.29.075.816t.033.849h.028q.4-1.005.631-1.464l1.37-2.684h1.188l-3.217,5.986a3.329,3.329,0,0,1-.916,1.129,1.937,1.937,0,0,1-1.165.358,2.441,2.441,0,0,1-.669-.089V582a2.9,2.9,0,0,0,.584.075,1.043,1.043,0,0,0,.627-.2,2.315,2.315,0,0,0,.58-.727l.239-.43Z" transform="translate(-351.415 -5.715)"/><path class="c" d="M767.748,576.146l1.445-6.837H770.3l-1.244,5.878h2.521l-.2.959Z" transform="translate(-373.969 -1.193)"/><path class="c" d="M787.244,580.506a1.27,1.27,0,0,1-1.043-.474,2.073,2.073,0,0,1-.384-1.335,4.77,4.77,0,0,1,.325-1.768,3.188,3.188,0,0,1,.9-1.3,1.906,1.906,0,0,1,1.253-.479,1.328,1.328,0,0,1,1.291.832h.047l.29-.739h.842l-1.1,5.172h-.851l.1-.823h-.028a2.1,2.1,0,0,1-1.632.916m.4-.888a1.083,1.083,0,0,0,.753-.363,2.732,2.732,0,0,0,.608-.97,3.605,3.605,0,0,0,.238-1.328.966.966,0,0,0-.22-.661.729.729,0,0,0-.575-.25,1.039,1.039,0,0,0-.748.36,2.562,2.562,0,0,0-.561.98,3.96,3.96,0,0,0-.211,1.284,1.127,1.127,0,0,0,.189.713.637.637,0,0,0,.526.236" transform="translate(-387.175 -5.46)"/><path class="c" d="M808.672,580.414l.664-3.143a3.522,3.522,0,0,0,.084-.613.538.538,0,0,0-.6-.613,1.049,1.049,0,0,0-.664.267,2.411,2.411,0,0,0-.589.769,4.357,4.357,0,0,0-.393,1.139l-.458,2.193h-1.1l1.1-5.172h.86l-.1.959h.042a2.806,2.806,0,0,1,.8-.8,1.69,1.69,0,0,1,.893-.25,1.288,1.288,0,0,1,.971.355,1.394,1.394,0,0,1,.344,1.01,4.429,4.429,0,0,1-.108.846l-.641,3.054Z" transform="translate(-401.639 -5.461)"/><path class="c" d="M829.591,575.241l-.145.641-.9.155a1.457,1.457,0,0,1,.131.641,1.888,1.888,0,0,1-.557,1.433,2.072,2.072,0,0,1-1.492.53,2.2,2.2,0,0,1-.43-.037q-.519.187-.519.486a.242.242,0,0,0,.148.243,1.633,1.633,0,0,0,.428.1l.594.075a2.247,2.247,0,0,1,1.179.409,1.1,1.1,0,0,1,.355.877,1.634,1.634,0,0,1-.706,1.417,3.435,3.435,0,0,1-2.006.5,2.621,2.621,0,0,1-1.471-.351,1.1,1.1,0,0,1-.521-.964,1.183,1.183,0,0,1,.325-.832,2.5,2.5,0,0,1,1.045-.594.657.657,0,0,1-.355-.594.8.8,0,0,1,.217-.559,2.216,2.216,0,0,1,.685-.456,1.278,1.278,0,0,1-.631-1.179,1.977,1.977,0,0,1,.573-1.478,2.069,2.069,0,0,1,1.513-.561,3.07,3.07,0,0,1,.748.094Zm-3.83,5.088a1.567,1.567,0,0,0-.8.332.785.785,0,0,0-.28.613.561.561,0,0,0,.259.484,1.4,1.4,0,0,0,.793.18,2.365,2.365,0,0,0,1.193-.252.8.8,0,0,0,.43-.725.422.422,0,0,0-.21-.374,1.809,1.809,0,0,0-.739-.192Zm1.263-4.447a.839.839,0,0,0-.533.18,1.164,1.164,0,0,0-.356.491,1.8,1.8,0,0,0-.126.68.728.728,0,0,0,.166.512.614.614,0,0,0,.475.18.805.805,0,0,0,.526-.182,1.191,1.191,0,0,0,.346-.5,1.9,1.9,0,0,0,.124-.7q0-.664-.622-.664" transform="translate(-414.846 -5.46)"/><path class="c" d="M848.1,575.495l-.6,2.853a5.1,5.1,0,0,0-.145.9q0,.622.594.622a1.065,1.065,0,0,0,.669-.267,2.348,2.348,0,0,0,.589-.76,4.527,4.527,0,0,0,.4-1.158l.463-2.193h1.089l-1.089,5.172H849.2l.1-.959h-.037a2.82,2.82,0,0,1-.8.8,1.689,1.689,0,0,1-.9.255,1.279,1.279,0,0,1-.968-.356,1.413,1.413,0,0,1-.341-1.019,3.038,3.038,0,0,1,.056-.582q.056-.287.112-.578l.575-2.731Z" transform="translate(-431.342 -5.715)"/><path class="c" d="M868.37,580.506a1.27,1.27,0,0,1-1.043-.474,2.073,2.073,0,0,1-.383-1.335,4.77,4.77,0,0,1,.325-1.768,3.188,3.188,0,0,1,.9-1.3,1.906,1.906,0,0,1,1.253-.479,1.328,1.328,0,0,1,1.291.832h.047l.29-.739h.842l-1.1,5.172h-.851l.1-.823H870a2.1,2.1,0,0,1-1.632.916m.4-.888a1.083,1.083,0,0,0,.753-.363,2.731,2.731,0,0,0,.608-.97,3.605,3.605,0,0,0,.238-1.328.966.966,0,0,0-.22-.661.729.729,0,0,0-.575-.25,1.039,1.039,0,0,0-.748.36,2.563,2.563,0,0,0-.561.98,3.961,3.961,0,0,0-.21,1.284,1.127,1.127,0,0,0,.189.713.637.637,0,0,0,.526.236" transform="translate(-446.466 -5.46)"/><path class="c" d="M889.727,575.241l-.145.641-.9.155a1.456,1.456,0,0,1,.131.641,1.888,1.888,0,0,1-.557,1.433,2.072,2.072,0,0,1-1.492.53,2.2,2.2,0,0,1-.43-.037q-.519.187-.519.486a.242.242,0,0,0,.147.243,1.632,1.632,0,0,0,.428.1l.594.075a2.246,2.246,0,0,1,1.179.409,1.1,1.1,0,0,1,.355.877,1.634,1.634,0,0,1-.706,1.417,3.435,3.435,0,0,1-2.006.5,2.622,2.622,0,0,1-1.471-.351,1.1,1.1,0,0,1-.521-.964,1.183,1.183,0,0,1,.325-.832,2.5,2.5,0,0,1,1.045-.594.657.657,0,0,1-.355-.594.8.8,0,0,1,.218-.559,2.215,2.215,0,0,1,.685-.456,1.278,1.278,0,0,1-.631-1.179,1.976,1.976,0,0,1,.573-1.478,2.069,2.069,0,0,1,1.513-.561,3.07,3.07,0,0,1,.748.094Zm-3.83,5.088a1.567,1.567,0,0,0-.8.332.784.784,0,0,0-.28.613.561.561,0,0,0,.259.484,1.4,1.4,0,0,0,.793.18,2.365,2.365,0,0,0,1.193-.252.8.8,0,0,0,.43-.725.422.422,0,0,0-.21-.374,1.809,1.809,0,0,0-.739-.192Zm1.263-4.447a.84.84,0,0,0-.533.18,1.165,1.165,0,0,0-.355.491,1.792,1.792,0,0,0-.126.68.728.728,0,0,0,.166.512.613.613,0,0,0,.475.18.805.805,0,0,0,.526-.182,1.192,1.192,0,0,0,.346-.5,1.9,1.9,0,0,0,.124-.7q0-.664-.622-.664" transform="translate(-458.797 -5.46)"/><path class="c" d="M908.045,580.507a1.938,1.938,0,0,1-1.438-.519,1.965,1.965,0,0,1-.517-1.45,4.112,4.112,0,0,1,.363-1.723,2.955,2.955,0,0,1,.982-1.232,2.357,2.357,0,0,1,1.386-.435,1.815,1.815,0,0,1,1.172.339,1.167,1.167,0,0,1,.418.961,1.489,1.489,0,0,1-.778,1.33,4.256,4.256,0,0,1-2.219.479h-.2l-.009.145v.136a1.176,1.176,0,0,0,.264.814,1,1,0,0,0,.788.294,2.566,2.566,0,0,0,.669-.089,4.736,4.736,0,0,0,.786-.3v.874a4.331,4.331,0,0,1-.825.292,3.759,3.759,0,0,1-.839.087m.711-4.518a1.176,1.176,0,0,0-.844.4,2.318,2.318,0,0,0-.568,1.061h.136a3.1,3.1,0,0,0,1.375-.25.774.774,0,0,0,.5-.709.472.472,0,0,0-.15-.372.65.65,0,0,0-.444-.133" transform="translate(-475.076 -5.461)"/><path class="c" d="M926.97,578.823a1.5,1.5,0,0,1-.552,1.246,2.411,2.411,0,0,1-1.534.437,3.3,3.3,0,0,1-1.506-.313v-.949a2.847,2.847,0,0,0,1.459.421,1.3,1.3,0,0,0,.734-.187.583.583,0,0,0,.281-.51.575.575,0,0,0-.161-.409,3.159,3.159,0,0,0-.662-.456,2.464,2.464,0,0,1-.825-.638,1.256,1.256,0,0,1-.241-.769,1.391,1.391,0,0,1,.5-1.136,2.064,2.064,0,0,1,1.351-.412,3.255,3.255,0,0,1,1.618.393l-.355.823a2.615,2.615,0,0,0-1.244-.356.92.92,0,0,0-.554.154.5.5,0,0,0-.213.43.53.53,0,0,0,.155.374,2.723,2.723,0,0,0,.631.421,3.656,3.656,0,0,1,.7.472,1.412,1.412,0,0,1,.313.428,1.254,1.254,0,0,1,.108.535" transform="translate(-487.712 -5.46)"/><path class="c" d="M939.729,590.767a.862.862,0,0,1,.22-.62.8.8,0,0,1,.613-.231.586.586,0,0,1,.419.147.566.566,0,0,1,.157.432.858.858,0,0,1-.222.606.756.756,0,0,1-.583.241.58.58,0,0,1-.456-.166.594.594,0,0,1-.147-.409" transform="translate(-499.662 -16.254)"/></g></g><text class="d" transform="translate(463 90)"><tspan x="-6.925" y="0">TM</tspan></text></g></svg>