<svg xmlns="http://www.w3.org/2000/svg" width="21.018" height="21.031" viewBox="0 0 21.018 21.031"><defs><style>.a{fill:#ff7474;}</style></defs><g transform="translate(-171.961 -125.004)"><path class="a" d="M191.938,136.47c-.9,0-.9,0-1.074.876a8.513,8.513,0,0,1-7.058,6.644c-.319.045-.388.15-.375.438.021.422-.005.847.011,1.27.008.219-.066.317-.288.29a.316.316,0,0,0-.05,0c-.5-.011-1.146.158-1.476-.087s-.092-.916-.09-1.4c0-.354-.071-.465-.457-.52a8.488,8.488,0,0,1-7.071-7.158c-.04-.282-.121-.4-.4-.356a.87.87,0,0,1-.2,0c-.449-.032-1.1.2-1.3-.09-.277-.409-.063-1.045-.087-1.584-.011-.224.127-.232.3-.23.441.005.882-.011,1.32.008.259.011.335-.082.37-.338a8.486,8.486,0,0,1,7.153-7.187c.314-.042.393-.145.377-.436-.021-.422.005-.847-.011-1.27-.008-.216.061-.319.282-.293a.318.318,0,0,0,.05,0c.5.011,1.143-.158,1.478.084s.1.913.092,1.4c0,.348.063.467.454.523a8.492,8.492,0,0,1,7.066,7.106c.048.325.137.459.459.406a.6.6,0,0,1,.153,0c.449.034,1.14-.2,1.293.087a3.9,3.9,0,0,1,.1,1.586c.005.174-.074.238-.245.23C192.448,136.462,192.194,136.47,191.938,136.47Zm-9.473,5.7a6.652,6.652,0,1,0-6.649-6.789A6.569,6.569,0,0,0,182.465,142.168Z" transform="translate(0 0)"/><path class="a" d="M425.8,382.768a3.808,3.808,0,1,1,3.814,3.846A3.834,3.834,0,0,1,425.8,382.768Z" transform="translate(-247.138 -247.291)"/></g></svg>