<svg xmlns="http://www.w3.org/2000/svg" width="165" height="101" viewBox="0 0 165 101"><defs><style>.a{fill:#dae8fe;}.b{fill:#eef4ff;}.c{fill:#fff;}.d{fill:#3225a7;}.e,.g{fill:none;}.e{stroke:#eef4ff;stroke-width:2px;}.f{stroke:none;}</style></defs><g transform="translate(46)"><path class="a" d="M80.137,45.068a34.879,34.879,0,0,1-6.678,20.563,35.307,35.307,0,0,1-7.828,7.828A35.058,35.058,0,1,1,80.137,45.068Z" transform="translate(-8.154 -8.154)"/><rect class="b" width="111" height="19" rx="9.5" transform="translate(-31 2)"/><rect class="b" width="81" height="11" rx="5.5" transform="translate(30 55)"/><rect class="b" width="111" height="12" rx="6" transform="translate(-24 31)"/><rect class="b" width="95" height="11" rx="5.5" transform="translate(7 79)"/><rect class="b" width="32" height="6" rx="3" transform="translate(-28 59)"/><rect class="b" width="32" height="5" rx="2.5" transform="translate(4 96)"/><rect class="b" width="23" height="5" rx="2.5" transform="translate(51 92)"/><path class="a" d="M387.549,377.377a7.193,7.193,0,1,1-10.172,10.172L354.22,364.392a60.569,60.569,0,0,0,10.172-10.172Z" transform="translate(-297.003 -297.003)"/><path class="c" d="M77.686,50A27.686,27.686,0,1,1,50,77.686,27.717,27.717,0,0,1,77.686,50Z" transform="translate(-40.771 -40.771)"/><path class="d" d="M92.337,81.9,67.7,57.261a36.583,36.583,0,0,0,6.128-20.347A36.914,36.914,0,1,0,36.914,73.828,36.584,36.584,0,0,0,57.261,67.7l6.81,6.81,0,0L81.9,92.337A7.382,7.382,0,1,0,92.337,81.9ZM60.265,65.484a37.039,37.039,0,0,0,5.219-5.219L70.721,65.5c-1.592,1.879-5.219,5.219-5.219,5.219ZM3.691,36.914a33.217,33.217,0,1,1,52.7,26.9h0a33.206,33.206,0,0,1-52.7-26.9ZM89.727,89.727a3.689,3.689,0,0,1-5.219,0L68.119,73.338a48.5,48.5,0,0,0,5.219-5.219L89.727,84.508a3.688,3.688,0,0,1,0,5.219Z"/><path class="d" d="M99.063,69.531A29.531,29.531,0,1,0,69.531,99.063,29.565,29.565,0,0,0,99.063,69.531ZM69.531,95.371a25.84,25.84,0,1,1,25.84-25.84A25.869,25.869,0,0,1,69.531,95.371Z" transform="translate(-32.617 -32.617)"/><path class="d" d="M211.469,96.61a1.846,1.846,0,0,0,1.061-2.385A22.183,22.183,0,0,0,191.846,80a1.846,1.846,0,0,0,0,3.691,18.583,18.583,0,0,1,17.238,11.858,1.844,1.844,0,0,0,2.385,1.061Z" transform="translate(-154.932 -65.234)"/><path class="d" d="M301.846,190a1.846,1.846,0,1,0,1.846,1.846A1.846,1.846,0,0,0,301.846,190Z" transform="translate(-244.629 -154.932)"/><circle class="b" cx="2.5" cy="2.5" r="2.5" transform="translate(96 26)"/><circle class="b" cx="2.5" cy="2.5" r="2.5" transform="translate(114 86)"/><circle class="b" cx="2.5" cy="2.5" r="2.5" transform="translate(-45 16)"/><g class="e" transform="translate(-46 55)"><circle class="f" cx="4.5" cy="4.5" r="4.5"/><circle class="g" cx="4.5" cy="4.5" r="3.5"/></g></g></svg>