<svg xmlns="http://www.w3.org/2000/svg" width="15.005" height="16.691" viewBox="0 0 15.005 16.691"><defs><style>.a{fill:#3225a7;stroke:#3225a7;stroke-width:0.1px;}</style></defs><g transform="translate(-18.578 -11.749)"><path class="a" d="M33.21,24.251a3.432,3.432,0,0,1-.622-2.033c0-.766.012-1.531,0-2.3a6.432,6.432,0,0,0-4.127-5.885.435.435,0,0,1-.323-.395,2.063,2.063,0,0,0-4.1,0,.435.435,0,0,1-.323.395,6.444,6.444,0,0,0-4.127,6.052c0,.67-.012,1.328,0,2a3.607,3.607,0,0,1-.658,2.225,1.354,1.354,0,0,0-.108,1.531,1.4,1.4,0,0,0,1.328.766c1.974-.012,3.947,0,5.921,0h2.943c.981,0,1.962-.012,2.943,0a1.456,1.456,0,0,0,1.256-2.356Zm-7.2-11.268a.8.8,0,0,1,.873.61H25.291A.764.764,0,0,1,26.009,12.983Zm6.28,12.32c-.084.144-.239.144-.395.144h-11.6c-.155,0-.323.024-.419-.144s.012-.287.108-.431a4.356,4.356,0,0,0,.766-2.476,26.19,26.19,0,0,1,.048-2.907,5.32,5.32,0,0,1,10.454-.658,5.766,5.766,0,0,1,.179,1.579c-.012.658.012,1.3,0,1.962a4.148,4.148,0,0,0,.766,2.5C32.289,25,32.384,25.136,32.289,25.3Z" transform="translate(0 0)"/><path class="a" d="M65.5,141.527l-.191.156h-.754c-.048-.024-.132,0-.191,0h-2.7a.65.65,0,0,1-.634-.311.581.581,0,0,1,.466-.873c1.22-.024,2.428-.012,3.648,0a.536.536,0,0,1,.514.419A.471.471,0,0,1,65.5,141.527Z" transform="translate(-37.25 -113.293)"/></g></svg>