<svg xmlns="http://www.w3.org/2000/svg" width="18.344" height="24.458" viewBox="0 0 18.344 24.458"><defs><style>.a{fill:#4b4b4b;}</style></defs><g transform="translate(-64)"><path class="a" d="M81.579,16.815a1.53,1.53,0,0,1-1.529-1.529V9.936A6.889,6.889,0,0,0,75.2,3.36a2.293,2.293,0,1,0-4.054.006A6.956,6.956,0,0,0,66.293,10v5.284a1.53,1.53,0,0,1-1.529,1.529.764.764,0,0,0-.764.764v3.057a.764.764,0,0,0,.764.764h5.76a2.713,2.713,0,0,0-.027.382,2.675,2.675,0,0,0,5.35,0,2.706,2.706,0,0,0-.027-.382h5.76a.764.764,0,0,0,.764-.764V17.579A.764.764,0,0,0,81.579,16.815ZM73.172,1.529a.764.764,0,1,1-.764.764A.765.765,0,0,1,73.172,1.529Zm1.146,20.255A1.146,1.146,0,1,1,72.09,21.4h2.163A1.143,1.143,0,0,1,74.318,21.783Zm6.5-1.911H65.529V18.247a3.063,3.063,0,0,0,2.293-2.961V10a5.394,5.394,0,0,1,5.331-5.417h.019a5.35,5.35,0,0,1,5.35,5.35v5.35a3.063,3.063,0,0,0,2.293,2.961Z"/><path class="a" d="M176.764,132.586a.764.764,0,0,1-.764-.764A3.826,3.826,0,0,1,179.822,128a.764.764,0,0,1,0,1.529,2.3,2.3,0,0,0-2.293,2.293A.764.764,0,0,1,176.764,132.586Z" transform="translate(-106.65 -121.885)"/></g></svg>