<svg xmlns="http://www.w3.org/2000/svg" width="21.63" height="15.208" viewBox="0 0 21.63 15.208"><defs><style>.a{fill:#3225a7;}</style></defs><g transform="translate(0 -76)"><g transform="translate(0 82.759)"><path class="a" d="M20.785,236H.845a.845.845,0,0,0,0,1.69h19.94a.845.845,0,0,0,0-1.69Z" transform="translate(0 -236)"/></g><g transform="translate(0 76)"><path class="a" d="M20.785,76H.845a.845.845,0,0,0,0,1.69h19.94a.845.845,0,0,0,0-1.69Z" transform="translate(0 -76)"/></g><g transform="translate(0 89.519)"><path class="a" d="M20.785,396H.845a.845.845,0,0,0,0,1.69h19.94a.845.845,0,1,0,0-1.69Z" transform="translate(0 -396)"/></g></g></svg>