<svg xmlns="http://www.w3.org/2000/svg" width="50" height="50" viewBox="0 0 50 50"><defs><style>.a{fill:#fff;}.b{fill:#3405b5;}</style></defs><g transform="translate(-580 -2496)"><rect class="a" width="50" height="50" transform="translate(580 2496)"/><path class="b" d="M1.583,2.78a.827.827,0,0,0-.645.826V33.074A6.71,6.71,0,0,0,4.55,39.448a8.475,8.475,0,0,0,3.561.852H33.5v-.077c.4.045.826.077.826.077a6.964,6.964,0,0,0,3.174-.9c1.548-.89,3.074-2.774,3.148-6.038a.386.386,0,0,0,.026-.052v-.052a.863.863,0,0,0,0-.129V12.379a4.681,4.681,0,0,0-.49-1.961,3.851,3.851,0,0,0-3.509-2.064V8.328H28.857V9.98h4.593a3.608,3.608,0,0,0-.258.413,4.938,4.938,0,0,0-.516,1.961V32.378a.826.826,0,1,0,1.651,0V12.354a3.271,3.271,0,0,1,.335-1.213,1.93,1.93,0,0,1,2.013-1.135,1.933,1.933,0,0,1,2.013,1.161,3.681,3.681,0,0,1,.361,1.239h-.026V33.126c0,2.938-1.174,4.177-2.348,4.851a5.2,5.2,0,0,1-2.348.671,7.1,7.1,0,0,1-2.787-.723c-1.39-.7-2.735-1.939-2.735-4.851V3.606a.827.827,0,0,0-.826-.826H1.763A.846.846,0,0,0,1.583,2.78ZM2.589,4.432H27.154V33.074a6.819,6.819,0,0,0,2.5,5.574H8.085a6.007,6.007,0,0,1-.877-.077,7,7,0,0,1-.877-.206A6.473,6.473,0,0,1,5.3,37.977a5.776,5.776,0,0,1-.516-.284c-1.181-.742-2.193-2.022-2.193-4.619Zm3.3,5.135a.834.834,0,0,0,.232,1.651H22.406a.826.826,0,1,0,0-1.651H5.892Zm0,3.3a.834.834,0,0,0,.232,1.651H22.406a.826.826,0,1,0,0-1.651H5.892Zm.387,6.606a.834.834,0,0,0,.232,1.651h5.6a.826.826,0,1,0,0-1.651H6.279Zm9.522,0a.834.834,0,1,0,.232,1.651h6.374a.826.826,0,1,0,0-1.651H15.8Zm-9.522,3.3a.834.834,0,0,0,.232,1.651h5.6a.826.826,0,1,0,0-1.651H6.279Zm9.522,0a.834.834,0,1,0,.232,1.651h6.374a.826.826,0,1,0,0-1.651H15.8Zm0,3.122a.834.834,0,1,0,.232,1.651h6.374a.826.826,0,1,0,0-1.651H16.033a.615.615,0,0,0-.155,0Zm-9.522.181a.834.834,0,0,0,.232,1.651h5.6a.826.826,0,1,0,0-1.651H6.279ZM15.8,29.2a.834.834,0,1,0,.232,1.651h6.374a.826.826,0,1,0,0-1.651H16.033a.615.615,0,0,0-.155,0Zm-9.522.181a.834.834,0,0,0,.232,1.651h5.6a.826.826,0,1,0,0-1.651H6.279ZM15.8,32.3a.834.834,0,1,0,.232,1.651h6.374a.826.826,0,1,0,0-1.651H15.8Zm-9.522.387a.834.834,0,0,0,.232,1.651h5.6a.826.826,0,1,0,0-1.651H6.279Z" transform="translate(584.48 2499.786)"/></g></svg>