<svg xmlns="http://www.w3.org/2000/svg" width="6.517" height="11.176" viewBox="0 0 6.517 11.176">
  <path id="Path_780" data-name="Path 780" d="M-5.028-12.666a.354.354,0,0,0-.112.258.354.354,0,0,0,.112.258L.191-6.933a.354.354,0,0,0,.258.112.354.354,0,0,0,.258-.112l.56-.56a.354.354,0,0,0,.112-.258.354.354,0,0,0-.112-.258l-4.4-4.4,4.4-4.4a.354.354,0,0,0,.112-.258.354.354,0,0,0-.112-.258l-.56-.56A.354.354,0,0,0,.448-18a.354.354,0,0,0-.258.112Z" transform="translate(5.14 17.997)" fill="#3225a7"/>
</svg>
