<svg xmlns="http://www.w3.org/2000/svg" width="6.517" height="11.176" viewBox="0 0 6.517 11.176">
  <path id="Path_780" data-name="Path 780" d="M1.266-12.666a.354.354,0,0,1,.112.258.354.354,0,0,1-.112.258L-3.953-6.933a.354.354,0,0,1-.258.112.354.354,0,0,1-.258-.112l-.56-.56a.354.354,0,0,1-.112-.258.354.354,0,0,1,.112-.258l4.4-4.4-4.4-4.4a.354.354,0,0,1-.112-.258.354.354,0,0,1,.112-.258l.56-.56A.354.354,0,0,1-4.21-18a.354.354,0,0,1,.258.112Z" transform="translate(5.14 17.997)" fill="#3225a7"/>
</svg>
