<svg xmlns="http://www.w3.org/2000/svg" width="24.877" height="24.877" viewBox="0 0 24.877 24.877"><defs><style>.a{fill:#ff8c00;stroke:#ff8c00;stroke-width:0.3px;}</style></defs><g transform="translate(0.15 0.15)"><path class="a" d="M20.379,34.877a12.289,12.289,0,1,1,12.3-12.262A12.278,12.278,0,0,1,20.379,34.877ZM31.4,22.6A11.007,11.007,0,1,0,20.379,33.613,11.013,11.013,0,0,0,31.4,22.6Z" transform="translate(-8.1 -10.3)"/><path class="a" d="M41.078,40.374a5.245,5.245,0,0,1-1.548-7.51,4.949,4.949,0,0,1,5.108-2.136,5,5,0,0,1,4.147,3.613,4.94,4.94,0,0,1-.3,3.826,5.163,5.163,0,0,1-1.744,2.011c-.053.036-.16.053-.142.142.018.071.107.071.16.089a7.111,7.111,0,0,1,4.307,6.336c.018.214-.053.267-.249.249a6.285,6.285,0,0,0-.819,0c-.16,0-.214-.036-.214-.2A5.835,5.835,0,0,0,44.94,41.21a5.921,5.921,0,0,0-6.905,5c-.018.214-.053.409-.053.623,0,.178-.071.2-.214.2-.285,0-.569-.018-.836,0-.178.018-.231-.053-.231-.231a7.141,7.141,0,0,1,1.157-3.684,8.044,8.044,0,0,1,1.708-1.851,8.522,8.522,0,0,1,1.406-.819A.111.111,0,0,0,41.078,40.374Zm-1.246-4.5a3.951,3.951,0,1,0,3.951-3.933A3.963,3.963,0,0,0,39.832,35.871Z" transform="translate(-31.61 -27.026)"/></g></svg>