<?xml version="1.0" encoding="utf-8"?>
<!-- Generator: Adobe Illustrator 27.3.1, SVG Export Plug-In . SVG Version: 6.00 Build 0)  -->
<svg version="1.1" id="Capa_1" xmlns="http://www.w3.org/2000/svg" xmlns:xlink="http://www.w3.org/1999/xlink" x="0px" y="0px"
	 viewBox="0 0 53 53" style="enable-background:new 0 0 53 53;" xml:space="preserve">
<style type="text/css">
	.st0{fill:#E7ECED;}
	.st1{fill:#556080;}
	.st2{fill:#E24C4B;}
	.st3{fill:#D1403F;}
	.st4{fill:#FFFFFF;}
</style>
<g>
	<path class="st0" d="M18.4,41.2l-7.7,4.2c-0.5,0.2-0.9,0.6-1.2,0.9c4.5,3.8,10.3,6.1,16.7,6.1c6.3,0,12.1-2.3,16.6-6
		c-0.4-0.4-0.9-0.7-1.4-0.9l-8.3-4.1c-1.1-0.5-1.7-1.6-1.7-2.8v-3.3c0.2-0.3,0.5-0.6,0.8-1c1.1-1.6,2-3.4,2.6-5.2
		c1.1-0.3,1.8-1.3,1.8-2.5v-3.5c0-0.8-0.3-1.4-0.9-1.9v-5c0,0,1-7.8-9.6-7.8s-9.6,7.8-9.6,7.8v5c-0.5,0.5-0.9,1.2-0.9,1.9v3.5
		c0,0.9,0.5,1.7,1.2,2.2c0.9,3.8,3.1,6.5,3.1,6.5v3.2C20.1,39.6,19.4,40.7,18.4,41.2z"/>
	<g>
		<path class="st1" d="M26.6,0.5C12.3,0.3,0.4,11.7,0.2,26.1c-0.1,8.1,3.5,15.4,9.3,20.3c0.4-0.3,0.8-0.6,1.2-0.9l7.7-4.2
			c1-0.6,1.6-1.6,1.6-2.8v-3.2c0,0-2.3-2.7-3.1-6.5c-0.7-0.5-1.2-1.3-1.2-2.2v-3.5c0-0.8,0.3-1.4,0.9-1.9v-5c0,0-1-7.8,9.6-7.8
			s9.6,7.8,9.6,7.8v5c0.5,0.5,0.9,1.2,0.9,1.9v3.5c0,1.2-0.8,2.2-1.8,2.5c-0.6,1.8-1.4,3.6-2.6,5.2c-0.3,0.4-0.6,0.7-0.8,1v3.3
			c0,1.2,0.7,2.3,1.7,2.8l8.3,4.1c0.5,0.2,0.9,0.6,1.4,0.9c5.6-4.7,9.2-11.6,9.3-19.5C52.3,12.6,40.9,0.8,26.6,0.5z"/>
	</g>
</g>
<g>
	<circle class="st2" cx="42.8" cy="42.6" r="9.9"/>
	<path class="st3" d="M52.7,42.6c0,5.4-4.5,9.9-9.9,9.9c-3.2,0-5.9-1.4-7.7-3.7c1.7,1.4,3.8,2.2,6.2,2.2c5.4,0,9.9-4.5,9.9-9.9
		c0-2.4-0.8-4.5-2.2-6.2C51.2,36.6,52.7,39.4,52.7,42.6z"/>
	<path class="st4" d="M47.3,47.1c-0.4,0.4-1,0.4-1.4,0l-3.2-3.2l-3.2,3.2c-0.4,0.4-1,0.4-1.4,0c-0.4-0.4-0.4-1,0-1.4l3.2-3.2
		l-3.2-3.2c-0.4-0.4-0.4-1,0-1.4c0.4-0.4,1-0.4,1.4,0l3.2,3.2l3.2-3.2c0.4-0.4,1-0.4,1.4,0s0.4,1,0,1.4l-3.2,3.2l3.2,3.2
		C47.7,46.1,47.7,46.7,47.3,47.1z"/>
</g>
</svg>
