<svg xmlns="http://www.w3.org/2000/svg" width="18.864" height="18.864" viewBox="0 0 18.864 18.864"><defs><style>.a{fill:#3225a7;stroke:#3225a7;stroke-width:0.3px;}</style></defs><g transform="translate(0.15 0.15)"><path class="a" d="M17.375,28.864A9.282,9.282,0,1,1,26.664,19.6,9.274,9.274,0,0,1,17.375,28.864ZM25.7,19.589a8.314,8.314,0,1,0-8.321,8.321A8.319,8.319,0,0,0,25.7,19.589Z" transform="translate(-8.1 -10.3)"/><path class="a" d="M40.007,37.994a3.962,3.962,0,0,1-1.17-5.673A3.738,3.738,0,0,1,42.7,30.708a3.778,3.778,0,0,1,3.132,2.729,3.732,3.732,0,0,1-.229,2.89,3.9,3.9,0,0,1-1.317,1.519c-.04.027-.121.04-.108.108s.081.054.121.067a5.371,5.371,0,0,1,3.253,4.786c.013.161-.04.2-.188.188a4.747,4.747,0,0,0-.618,0c-.121,0-.161-.027-.161-.148a4.407,4.407,0,0,0-3.656-4.221A4.473,4.473,0,0,0,37.708,42.4c-.013.161-.04.309-.04.47,0,.134-.054.148-.161.148-.215,0-.43-.013-.632,0-.134.013-.175-.04-.175-.175a5.394,5.394,0,0,1,.874-2.783,6.076,6.076,0,0,1,1.29-1.4,6.437,6.437,0,0,1,1.062-.618A.084.084,0,0,0,40.007,37.994Zm-.941-3.4a2.984,2.984,0,1,0,2.984-2.971A2.993,2.993,0,0,0,39.066,34.593Z" transform="translate(-32.855 -27.912)"/></g></svg>