<svg xmlns="http://www.w3.org/2000/svg" width="19.195" height="19.202" viewBox="0 0 19.195 19.202"><defs><style>.a{fill:#707070;stroke:#707070;stroke-width:0.2px;}</style></defs><g transform="translate(-433.77 -400.027)"><path class="a" d="M451.27,419.126l-1.529-.53c-.768-.265-1.538-.529-2.305-.8a.376.376,0,0,0-.314.02,9.262,9.262,0,0,1-10.52-1.834,8.848,8.848,0,0,1-2.523-4.628,9.082,9.082,0,0,1,2.256-8.225,8.82,8.82,0,0,1,5.1-2.835,9.307,9.307,0,0,1,10.849,7.421,9.116,9.116,0,0,1-.694,5.586.594.594,0,0,0-.025.486c.4,1.151.8,2.306,1.2,3.458a.748.748,0,0,0,.1.285v.52c-.055.015-.047.069-.057.106a1.376,1.376,0,0,1-.517.719,2.3,2.3,0,0,1-.575.252C451.566,419.126,451.418,419.126,451.27,419.126Zm-16.283-9.718a10.416,10.416,0,0,0,.132,1.406A8.157,8.157,0,0,0,446.84,416.7a.869.869,0,0,1,.727-.046c1.251.435,2.5.862,3.756,1.293.119.041.235.092.343-.018s.057-.225.017-.344c-.431-1.252-.857-2.506-1.294-3.756a.863.863,0,0,1,.047-.726,8.178,8.178,0,0,0-6.123-11.755,7.735,7.735,0,0,0-5.029.9A8.087,8.087,0,0,0,434.986,409.408Z" transform="translate(0)"/><path class="a" d="M614.77,582.9a2.278,2.278,0,0,0,.575-.252,1.366,1.366,0,0,0,.517-.719c.011-.036,0-.091.057-.106,0,.327,0,.656,0,.983,0,.08-.016.1-.1.1C615.475,582.893,615.123,582.9,614.77,582.9Z" transform="translate(-163.056 -163.77)"/><path class="a" d="M500.95,454.4v-1.02c0-.46.181-.663.634-.69a1.626,1.626,0,0,0,1.263-.673,1.583,1.583,0,0,0,.205-1.629,1.607,1.607,0,0,0-1.293-1.013,1.673,1.673,0,0,0-1.918,1.588.579.579,0,0,1-.442.609.567.567,0,0,1-.689-.578,2.8,2.8,0,0,1,5.557-.439,2.779,2.779,0,0,1-2.06,3.176c-.112.03-.137.082-.136.189,0,.55.006,1.1,0,1.65a.56.56,0,0,1-1.1.146,1.213,1.213,0,0,1-.023-.294C500.948,455.082,500.95,454.742,500.95,454.4Z" transform="translate(-58.443 -43.354)"/><path class="a" d="M521.44,537.182a.56.56,0,0,1,1.12.032.56.56,0,1,1-1.12-.032Z" transform="translate(-78.931 -123.046)"/></g></svg>