<svg xmlns="http://www.w3.org/2000/svg" width="14.857" height="14.857" viewBox="0 0 14.857 14.857"><defs><style>.a{fill:#2b2c33;}</style></defs><path class="a" d="M-5.75-3.455a3.86,3.86,0,0,0,1.179-2.83A3.852,3.852,0,0,0-5.746-9.112a3.852,3.852,0,0,0-2.826-1.174A3.852,3.852,0,0,0-11.4-9.112a3.852,3.852,0,0,0-1.174,2.826A3.852,3.852,0,0,0-11.4-3.46,3.852,3.852,0,0,0-8.571-2.286,3.845,3.845,0,0,0-5.75-3.455ZM0,1.143a1.1,1.1,0,0,1-.339.8,1.1,1.1,0,0,1-.8.339,1.061,1.061,0,0,1-.8-.339L-5.009-1.107A6.114,6.114,0,0,1-8.571,0a6.176,6.176,0,0,1-2.442-.5,6.285,6.285,0,0,1-2.009-1.339,6.285,6.285,0,0,1-1.339-2.009,6.176,6.176,0,0,1-.5-2.442,6.176,6.176,0,0,1,.5-2.442,6.285,6.285,0,0,1,1.339-2.009,6.285,6.285,0,0,1,2.009-1.339,6.176,6.176,0,0,1,2.442-.5,6.176,6.176,0,0,1,2.442.5,6.285,6.285,0,0,1,2.009,1.339A6.285,6.285,0,0,1-2.781-8.728a6.176,6.176,0,0,1,.5,2.442A6.114,6.114,0,0,1-3.393-2.723L-.33.339A1.094,1.094,0,0,1,0,1.143Z" transform="translate(14.857 12.571)"/></svg>