<svg xmlns="http://www.w3.org/2000/svg" width="76.153" height="66" viewBox="0 0 76.153 66"><defs><style>.a{fill:#525252;}</style></defs><g transform="translate(-1.999 -18.247)"><path class="a" d="M78.105,19.812a1.269,1.269,0,0,0-.838-.868L49.345,10.06a1.269,1.269,0,0,0-1.34.373l-7.929,9.062-7.929-9.062a1.269,1.269,0,0,0-1.34-.373L2.885,18.944a1.269,1.269,0,0,0-.571,2.046l8.153,9.317L2.314,39.624a1.269,1.269,0,0,0,.571,2.046l8,2.546V64.576a1.269,1.269,0,0,0,.835,1.193L39.642,75.922h.028a1.2,1.2,0,0,0,.812,0h.028L53.786,71.1l.039.17a1.269,1.269,0,0,0,2.135.614l1.795-1.795,5.539,5.539a1.269,1.269,0,0,0,1.795,0l3.589-3.591a1.269,1.269,0,0,0,0-1.795l-3.344-3.349,3.1-1.125a1.269,1.269,0,0,0,.833-1.193V44.216l8-2.546a1.269,1.269,0,0,0,.571-2.046l-8.15-9.317,8.153-9.317A1.269,1.269,0,0,0,78.105,19.812ZM40.076,37.86,16.342,30.307l22.465-7.148v5.879a1.269,1.269,0,1,0,2.538,0V23.159L63.81,30.307ZM30.784,12.73,37.845,20.8,12.561,28.846,5.5,20.776ZM12.561,31.768l25.284,8.045-7.061,8.071L5.5,39.839Zm51.63,41.166L58.652,67.4a1.269,1.269,0,0,0-1.795,0l-1.07,1.069L54.078,61l7.448,1.732-1.075,1.078a1.269,1.269,0,0,0,0,1.795l5.538,5.538Zm2.538-9.247-3.382,1.225L63.14,64.7l1.795-1.8a1.269,1.269,0,0,0-.61-2.134L52.675,58.065a1.269,1.269,0,0,0-1.523,1.523l2.064,9.02-11.871,4.31V63.306a1.269,1.269,0,1,0-2.538,0v9.61l-25.384-9.23V45.03l17.388,5.531a1.253,1.253,0,0,0,.381.053,1.269,1.269,0,0,0,.956-.433l6.659-7.615V53.153a1.269,1.269,0,0,0,2.538,0V42.57L48,50.185a1.269,1.269,0,0,0,.956.429,1.253,1.253,0,0,0,.381-.06L66.729,45.03Zm-17.361-15.8-7.061-8.071,25.284-8.045,7.061,8.071ZM67.591,28.846,42.307,20.8l7.061-8.071,25.284,8.045Z" transform="translate(0 8.248)"/><ellipse class="a" cx="1.056" cy="1.585" rx="1.056" ry="1.585" transform="translate(38.973 64.467)"/><circle class="a" cx="1.056" cy="1.056" r="1.056" transform="translate(38.973 41.226)"/></g></svg>