<svg xmlns="http://www.w3.org/2000/svg" width="13.445" height="13.445" viewBox="0 0 13.445 13.445"><defs><style>.a{fill:#707070;}</style></defs><g transform="translate(3.159 3.598)"><path class="a" d="M120.777,137h-.169l-.315,1.576h.8Z" transform="translate(-120.293 -137)"/></g><g transform="translate(10.015 6.749)"><path class="a" d="M381.374,257a4.115,4.115,0,0,0,.647,1.141,4.156,4.156,0,0,0,.673-1.141Z" transform="translate(-381.374 -257)"/></g><g transform="translate(6.372 2.39)"><path class="a" d="M248.554,91h-4.892l1.02,8.184a1.223,1.223,0,0,1-.292.9l-1.727,1.974h5.891a1.183,1.183,0,0,0,1.182-1.182V92.208A1.206,1.206,0,0,0,248.554,91Zm0,4.359h-.105a5,5,0,0,1-.949,1.725c.289.265.6.482.906.725a.394.394,0,1,1-.492.615c-.334-.264-.648-.485-.962-.773-.314.288-.6.509-.936.773a.394.394,0,0,1-.492-.615c.308-.243.591-.46.88-.725a4.973,4.973,0,0,1-.923-1.725h-.105a.394.394,0,1,1,0-.788h1.182v-.394a.394.394,0,1,1,.788,0v.394h1.208a.394.394,0,0,1,0,.788Z" transform="translate(-242.663 -91)"/></g><g transform="translate(0)"><path class="a" d="M6.412,1.035A1.183,1.183,0,0,0,5.239,0H1.182A1.183,1.183,0,0,0,0,1.182V9.9a1.183,1.183,0,0,0,1.182,1.182H7.393c.115-.131.211-.214.215-.385C7.61,10.653,6.417,1.078,6.412,1.035ZM4.83,7.529a.394.394,0,0,1-.464-.309L4.115,5.961H3L2.75,7.22a.394.394,0,1,1-.772-.155l.788-3.939a.394.394,0,0,1,.386-.317h.814a.394.394,0,0,1,.386.317l.788,3.939A.394.394,0,0,1,4.83,7.529Z"/></g><g transform="translate(4.602 11.869)"><path class="a" d="M175.261,452l.068.54a1.191,1.191,0,0,0,.681.915L177.332,452Z" transform="translate(-175.261 -452)"/></g></svg>