<svg xmlns="http://www.w3.org/2000/svg" width="12.973" height="12.973" viewBox="0 0 12.973 12.973"><defs><style>.a{fill:#707070;}</style></defs><g transform="translate(0 0)"><g transform="translate(0 0)"><g transform="translate(0 0)"><path class="a" d="M12.721,10.315l-1.438-.959L10,8.5a.566.566,0,0,0-.76.123L8.453,9.645a.563.563,0,0,1-.719.149A9.211,9.211,0,0,1,5.161,7.812,9.277,9.277,0,0,1,3.179,5.24a.563.563,0,0,1,.149-.719l1.017-.791a.566.566,0,0,0,.123-.76L3.643,1.73,2.658.252A.566.566,0,0,0,1.9.081L.759.762a1.388,1.388,0,0,0-.63.816C-.182,2.711-.244,5.209,3.76,9.213s6.5,3.941,7.635,3.631a1.388,1.388,0,0,0,.816-.63l.682-1.136A.566.566,0,0,0,12.721,10.315Z" transform="translate(0 0)"/></g></g></g></svg>