<svg xmlns="http://www.w3.org/2000/svg" width="64.999" height="64.999" viewBox="0 0 64.999 64.999"><defs><style>.a{fill:#525252;}</style></defs><g transform="translate(-8.1 -10.3)"><g transform="translate(8.1 10.3)"><path class="a" d="M40.576,75.3A32.5,32.5,0,1,1,73.1,42.87,32.471,32.471,0,0,1,40.576,75.3ZM69.71,42.823A29.111,29.111,0,1,0,40.576,71.957,29.126,29.126,0,0,0,69.71,42.823Z" transform="translate(-8.1 -10.3)"/><path class="a" d="M48.278,56.371a13.4,13.4,0,0,1-4.942-5.177c-2.589-5.036-2.447-10.025.847-14.685a13.088,13.088,0,0,1,13.508-5.648c5.507.894,9.225,4.236,10.966,9.555a13.066,13.066,0,0,1-.8,10.119,13.654,13.654,0,0,1-4.613,5.319c-.141.094-.424.141-.377.377.047.188.282.188.424.235,7.06,3.389,10.872,8.943,11.39,16.756.047.565-.141.706-.659.659a16.617,16.617,0,0,0-2.165,0c-.424,0-.565-.094-.565-.518a15.432,15.432,0,0,0-12.8-14.779A15.66,15.66,0,0,0,40.23,71.808c-.047.565-.141,1.083-.141,1.647,0,.471-.188.518-.565.518-.753,0-1.506-.047-2.212,0-.471.047-.612-.141-.612-.612a18.885,18.885,0,0,1,3.059-9.743,21.272,21.272,0,0,1,4.518-4.895A22.538,22.538,0,0,1,48,56.559.293.293,0,0,0,48.278,56.371ZM44.984,44.463a10.449,10.449,0,1,0,10.449-10.4A10.48,10.48,0,0,0,44.984,44.463Z" transform="translate(-23.239 -21.071)"/></g></g></svg>