<svg xmlns="http://www.w3.org/2000/svg" width="18.181" height="17.004" viewBox="0 0 18.181 17.004"><defs><style>.a{fill:#adb7ba;}</style></defs><g transform="translate(0 -16.004)"><g transform="translate(5.669 29.61)"><g transform="translate(0 0)"><circle class="a" cx="1.5" cy="1.5" r="1.5" transform="translate(0.404 0.398)"/></g></g><g transform="translate(12.472 29.61)"><g transform="translate(0 0)"><ellipse class="a" cx="2" cy="1.5" rx="2" ry="1.5" transform="translate(-0.399 0.398)"/></g></g><g transform="translate(0 16.004)"><path class="a" d="M18.049,18.481a.569.569,0,0,0-.436-.2H4.259l-.494-1.851A.567.567,0,0,0,3.216,16H.568a.568.568,0,1,0,0,1.136H2.779L5.7,28.082a.567.567,0,0,0,.549.422h9.09a.568.568,0,0,0,0-1.136H6.686l-.319-1.2,10.138-.51a.57.57,0,0,0,.531-.465l1.136-6.25A.565.565,0,0,0,18.049,18.481Zm-4.981,4.341H11.931v1.136a.568.568,0,1,1-1.136,0V22.822H9.658a.568.568,0,0,1,0-1.136h1.136V20.549a.568.568,0,1,1,1.136,0v1.136h1.136a.568.568,0,1,1,0,1.136Z" transform="translate(0 -16.004)"/></g></g></svg>