<svg xmlns="http://www.w3.org/2000/svg" width="17.95" height="11.221" viewBox="0 0 17.95 11.221"><defs><style>.a{opacity:0.4;}.b{fill:#050505;}.c{fill:#f7f9fa;}</style></defs><g class="a" transform="translate(0)"><path class="b" d="M122.162,277.7a10.053,10.053,0,0,1,7.5,3.626,11.21,11.21,0,0,1,1.2,1.616.579.579,0,0,1,.037.66,10.6,10.6,0,0,1-6.313,4.948,9.619,9.619,0,0,1-9.681-2.7,11.2,11.2,0,0,1-1.6-1.955c-.376-.576-.355-.615.012-1.242a10.674,10.674,0,0,1,3.514-3.422A9.366,9.366,0,0,1,122.162,277.7Zm-.141,10.09a8.057,8.057,0,0,0,1.685-.176,9.8,9.8,0,0,0,5.933-4.11.3.3,0,0,0-.018-.419,11.18,11.18,0,0,0-2.272-2.374,8.351,8.351,0,0,0-6.631-1.779,9.573,9.573,0,0,0-6.311,4.174.286.286,0,0,0,0,.394,12.014,12.014,0,0,0,.993,1.214A9.019,9.019,0,0,0,122.021,287.79Z" transform="translate(-113.044 -277.7)"/><path class="b" d="M394.522,390.871a3.366,3.366,0,1,1-3.305-3.381A3.377,3.377,0,0,1,394.522,390.871Zm-5.606-.041a2.241,2.241,0,1,0,2.268-2.217A2.25,2.25,0,0,0,388.916,390.83Z" transform="translate(-382.178 -385.247)"/><path class="c" d="M442.9,444.714a2.24,2.24,0,1,1,2.215,2.264A2.257,2.257,0,0,1,442.9,444.714Z" transform="translate(-436.159 -439.131)"/></g></svg>