<svg xmlns="http://www.w3.org/2000/svg" xmlns:xlink="http://www.w3.org/1999/xlink" width="202.929" height="150.306" viewBox="0 0 202.929 150.306"><defs><style>.a,.ae,.af,.ag{fill:#77c6ea;}.a,.ai,.k{opacity:0.1;}.b{fill:url(#a);}.c{fill:url(#b);}.d{fill:#f6bac2;}.e{fill:#b77983;}.f,.m{opacity:0.05;}.g{fill:#d39999;}.au,.h{fill:none;}.i{fill:#4b4442;}.j{fill:#8499f0;}.ad,.k{fill:#fff;}.l{fill:#7e646b;}.n{fill:#b7b6cc;}.aa,.af,.o,.s,.w{opacity:0.5;}.p{fill:url(#c);}.q{fill:#f9fafb;}.r,.s,.t{fill:#f7b643;}.ab,.ag,.t,.x{opacity:0.3;}.u{fill:url(#d);}.v,.w,.x{fill:#f97878;}.y{fill:url(#e);}.aa,.ab,.z{fill:#73b53b;}.ac{fill:url(#f);}.ah{fill:#e6ecf8;}.aj{fill:#a8a8a8;}.ak,.an{opacity:0.2;}.al{fill:url(#g);}.am{fill:#f6f7f9;}.ao{fill:url(#h);}.ap{fill:#ae6e79;}.aq{fill:#bebed0;}.ar{fill:#5c5c8e;}.as{fill:#42383c;}.at{fill:#e6e8ee;}.au{stroke:#565987;stroke-miterlimit:10;}.av{fill:#ffd037;}</style><linearGradient id="a" x1="0.5" y1="1" x2="0.5" gradientUnits="objectBoundingBox"><stop offset="0" stop-color="gray" stop-opacity="0.251"/><stop offset="0.54" stop-color="gray" stop-opacity="0.122"/><stop offset="1" stop-color="gray" stop-opacity="0.102"/></linearGradient><linearGradient id="b" x1="0.5" y1="1" x2="0.5" y2="0" xlink:href="#a"/><linearGradient id="c" x1="-0.211" y1="3.614" x2="-0.211" y2="0.343" xlink:href="#a"/><linearGradient id="d" x1="-0.036" y1="4.542" x2="-0.036" y2="1.284" xlink:href="#a"/><linearGradient id="e" x1="-0.017" y1="4.446" x2="-0.017" y2="1.187" xlink:href="#a"/><linearGradient id="f" x1="-1.04" y1="1.715" x2="-1.04" y2="0.715" xlink:href="#a"/><linearGradient id="g" x1="0.551" y1="0.784" x2="0.551" y2="0.225" xlink:href="#a"/><linearGradient id="h" x1="0.5" y1="1" x2="0.5" y2="0" xlink:href="#a"/></defs><g transform="translate(0 -0.002)"><path class="a" d="M195.535,65.18c-6.658-2.706-13.694-4.972-20.876-4.684A31.04,31.04,0,0,0,149,76.59c-4.213,7.9-4.732,17.163-6.547,25.931-2.235,10.8-6.516,21.072-11.091,31.113-2.458,5.386-5.049,10.9-5.452,16.816-.561,8.207,3.364,16.388,9.517,21.853s14.33,8.34,22.528,8.968c4.365.335,8.925.025,12.8-2.006,4.1-2.149,7.091-6.035,11.209-8.152,3.817-1.97,8.281-2.239,12.565-1.983a56.267,56.267,0,0,1,16.406,3.486c5.988,2.25,11.557,5.506,17.532,7.786s12.651,3.554,18.759,1.65c5.732-1.791,10.271-6.126,14.36-10.523a184.163,184.163,0,0,0,18.306-23.16c3.688-5.524,7.12-11.353,8.752-17.792a35.548,35.548,0,0,0-10.692-34.606c-7.881-6.964-18.465-9.988-28.824-11.822-9.445-1.673-20.366-1.777-29.06-6.137C211.774,73.848,204.23,68.716,195.535,65.18Z" transform="translate(-109.318 -55.089)"/><path class="b" d="M760.353,135.613c-2.558.1-2.687,6.706-2.527,6.995a17.7,17.7,0,0,1-.58,3.269s-1.161,4.519-1.026,5.359a1.565,1.565,0,0,1-.625,1.39,10.787,10.787,0,0,0-2.938,2.287l-.1.1a8.262,8.262,0,0,0-1.293,1c-.193.283-.716.057-.716.057a13.965,13.965,0,0,0-1.68-.086c-.133.039-.34-.2-.458-.358-.055-.073-.091-.129-.091-.129l-.045-1.333a1.094,1.094,0,0,0-.179-.111c.03-.15.068-.306.115-.466a3.99,3.99,0,0,0,1.628-1.462c.043-.068.082-.138.12-.208a.537.537,0,0,0,.339.095.674.674,0,0,0,.158-.014,1.273,1.273,0,0,0,.458-.231,2.453,2.453,0,0,0,.853-1,1.638,1.638,0,0,0,.081-.238c-.027.045-.056.09-.084.133a1.377,1.377,0,0,0-.095-1.162,3.817,3.817,0,0,1-.448-.659c-.15-.432.134-.878.31-1.3a2.187,2.187,0,0,0,.159-1.225,1.565,1.565,0,0,0-.663-1.034c-.7-.457-1.659-.206-2.474-.426a6.7,6.7,0,0,1-.851-.342,6.446,6.446,0,0,0-1.3-.4,1.274,1.274,0,0,0-1.254.249,2.575,2.575,0,0,0-.2.346,1.281,1.281,0,0,1-.8.575,3,3,0,0,1-.493.052.478.478,0,0,0,0-.2c-.208-.681.387-1.186,1.161-1.49a19.333,19.333,0,0,0,4.059-3.172,20.371,20.371,0,0,1,2.737-2.275,7.519,7.519,0,0,0,4.757-4.707c1.175-3.693-5.621,2.579-6.3,2.767a6.971,6.971,0,0,0-1.664.9l-4.358,2.52a15.783,15.783,0,0,0-2.35,1.623,7.892,7.892,0,0,0-1.723,2.461s-.417.681-1.026,1.666a4.535,4.535,0,0,1-1.329,1.413l.02-.036a10.582,10.582,0,0,0-1.68,2.78c-.133.828-.743,4.2-.743,4.2a16.854,16.854,0,0,1-.906,3.17,9.081,9.081,0,0,1-.476,1.725,8.359,8.359,0,0,0-.774,2.578,5.585,5.585,0,0,0-.564,2.056l-1.234,2.955a6.8,6.8,0,0,0-.625,2.316c.021.414.039.9.052,1.29v.179h0v.179c-.066.111-.237.394-.414.736a3.835,3.835,0,0,0-.509,1.5,8.417,8.417,0,0,1-.279,2.921l-.091-.036a1.251,1.251,0,0,0-.179.595l.021.011c0,.052-.016.106-.021.163a8.426,8.426,0,0,1-.138,1.85c-.238.29-.12,6.721-.12,6.721a21.343,21.343,0,0,0,.387,6.575l-.059,2a18.594,18.594,0,0,0,.059,2.149,20.96,20.96,0,0,1,.12,2.173l.446,3.187s-.6,4.924-.09,6.14a6.688,6.688,0,0,1,.537,2.115,3.29,3.29,0,0,0,.82.317v.179l-.116,2.995v.165s-.014.079-.025.21h0v.073a.085.085,0,0,0,0,.022v.063a.426.426,0,0,0,0,.048.361.361,0,0,1,0,.043v.27h0v.262a.507.507,0,0,0,.014.09.079.079,0,0,0,0,.021.455.455,0,0,0,.02.1h0a.38.38,0,0,0,.023.1.025.025,0,0,1,0,.011h0a.177.177,0,0,0,.014.05.087.087,0,0,0,0,.023.3.3,0,0,0,.018.061v.014c.018.05.036.1.057.15a.06.06,0,0,0,0,.016c0,.018.016.038.025.055l.011.025.023.048.014.027.025.045.016.027c0,.014.016.029.025.043a.305.305,0,0,1,.018.029l.027.041.02.027.029.041.022.027.032.039.021.025.038.043.02.021.061.059a.094.094,0,0,0,.02.018.5.5,0,0,0,.045.041l.029.023.039.032.034.025.039.029.038.025.039.025.041.023.041.025.043.021.045.021.045.022.045.02.048.02.048.018.05.018.054.016.084.025.07.018.056.011.057.013h.061l.059.009h.756l.1-.009h.059l.163-.018s2.029.3,2.1-.5a.646.646,0,0,1,.009-.129v-.1a.3.3,0,0,1,0-.038v-1.019c-.013-.4-.032-.767-.045-.973a1.3,1.3,0,0,0-.011-.179s-.691-1.042-.579-1.433a10.31,10.31,0,0,0,.088-1.716s-.269-.636-.45-1.2c-.014-.043-.027-.086-.039-.127a6.62,6.62,0,0,0,.423-.537,6.807,6.807,0,0,0-.505-4.084.254.254,0,0,1-.109-.21.1.1,0,0,1,0-.021l.346-4.229-.21-2.461a6.774,6.774,0,0,1,.179-2.406l.654-6.371.928-3.706s.3-.145.537.552.831,3.851.831,3.851l1.433,5.214a10.349,10.349,0,0,0,.446,2.115,4.035,4.035,0,0,1,.21,1.419,3.666,3.666,0,0,1,.387,1.333,5.762,5.762,0,0,0,.147,1.883,25.537,25.537,0,0,1,.21,3.045,6.149,6.149,0,0,0,.059,2.637,9.285,9.285,0,0,1,.149,3.013,2.068,2.068,0,0,0,.122.168c-.014.039-.03.079-.045.115-.093.242-.167.412-.167.412a10.566,10.566,0,0,0,.09,1.716c.111.39-.58,1.433-.58,1.433s0,.064-.011.179c-.012.206-.032.573-.045.973v1.021a.244.244,0,0,0,0,.034v.1a.651.651,0,0,0,.009.129c.068.8,2.1.5,2.1.5l.163.02h.906l.061-.011.059-.009.057-.013.057-.011.07-.018.084-.025.052-.016.05-.018a.38.38,0,0,0,.048-.018l.048-.02.047-.02.045-.02.045-.023.041-.021.043-.023.039-.025.041-.025.036-.025.039-.029a.237.237,0,0,0,.034-.025.335.335,0,0,0,.039-.03l.03-.025.045-.039.02-.02.061-.059.018-.021.039-.041.02-.027a.352.352,0,0,0,.034-.039l.02-.027.03-.041.018-.027.029-.041a.239.239,0,0,1,.018-.029c0-.014.016-.029.025-.043l.016-.027c0-.016.016-.03.023-.045a.207.207,0,0,0,.014-.027c0-.016.016-.032.023-.048l.013-.025c0-.018.016-.036.025-.055v-.016c.02-.05.039-.1.056-.15v-.014a.191.191,0,0,1,.02-.059.143.143,0,0,1,0-.025.068.068,0,0,1,.014-.05v-.009a.023.023,0,0,0,0-.011.442.442,0,0,1,.025-.095h0a.618.618,0,0,1,.02-.1v-.023a.686.686,0,0,1,.014-.088.07.07,0,0,0,0-.03v-.233h0v-.313a.456.456,0,0,1,0-.048v-.063a.09.09,0,0,1,0-.021v-.072h0c-.011-.131-.023-.21-.023-.21V212.9L745.1,210v-.179c.167-.093.337-.2.514-.322a5.189,5.189,0,0,1,.446-2.316c.476-.665-.238-2.406-.238-2.406l-.3-6.228.118-2.866a2.851,2.851,0,0,1-.358-1.39,5.058,5.058,0,0,0-.476-1.791s-.3-.985.061-1.275-.387-6.627-.387-6.627a59.794,59.794,0,0,0-.161-7.38v-.045l.095-.043c-.029-.22-.059-.426-.093-.618l-.1.03a5.024,5.024,0,0,0-.179-.716l-.477-2.187s-.011-.115-.023-.281c-.016-.2-.034-.464-.038-.7a1.184,1.184,0,0,1,.032-.294l-.025-.021a.657.657,0,0,1,.025-.152l-.1-.088s-.014-.1-.025-.249a2.8,2.8,0,0,1,.129-1.241,19.648,19.648,0,0,1,2.687-2.289l1.372-2.746s1.368-1.927,2.409-2.3a39.019,39.019,0,0,0,4.283-2.533,10.688,10.688,0,0,0,1.22-1.433l.038-.057h.021v-.038l3.045-4.562a4.612,4.612,0,0,0,1.263-3.084l.317-4.8-.1-2.837.147-1.612S762.909,135.513,760.353,135.613Zm-17.443,12.413a3.839,3.839,0,0,0-.505,1.9v.174a3.826,3.826,0,0,0,.406,1.716,1.4,1.4,0,0,0-.3.525,2.848,2.848,0,0,1-.616-1.155,1.2,1.2,0,0,0-.476-.781,3.278,3.278,0,0,1,.029-1.028l.016-.014s.013-.021.038-.057h0c.127-.192.555-.838,1-1.574a1.411,1.411,0,0,0,.228.075l.272.068Z" transform="translate(-604.307 -114.068)"/><path class="c" d="M855.289,216.43c.027-.061.048-.125.07-.19a3.972,3.972,0,0,0-.179.439C855.218,216.595,855.255,216.512,855.289,216.43Z" transform="translate(-708.009 -182.956)"/><path class="d" d="M803.255,238.593s-.561,2.672-1.594,3.018,1.254,3.4,1.254,3.4l4.741-.26.086-.991a4.9,4.9,0,0,1,.6-4.4C809.845,236.956,803.255,238.593,803.255,238.593Z" transform="translate(-663.856 -200.86)"/><path class="e" d="M748.4,558.762c-.064.8-2.026.5-2.026.5-3.253.451-2.715-2.737-2.715-2.737v-.163l.113-2.973.032-.829s3.582-1.637,3.491-1.293a2.038,2.038,0,0,0,.145.774c.179.557.435,1.187.435,1.187a10.712,10.712,0,0,1-.086,1.7c-.108.387.561,1.422.561,1.422s0,.065.011.179A20.93,20.93,0,0,1,748.4,558.762Z" transform="translate(-616.435 -457.931)"/><path class="e" d="M795.932,561.271s-1.961.3-2.026-.5a20.361,20.361,0,0,1,.034-2.241,1.594,1.594,0,0,1,.009-.179s.668-1.035.561-1.422a10.736,10.736,0,0,1-.086-1.7s.07-.167.161-.407a4.959,4.959,0,0,0,.421-1.553c-.086-.346,3.491,1.291,3.491,1.291l.036.928.109,2.875v.163S799.186,561.725,795.932,561.271Z" transform="translate(-657.697 -459.578)"/><path class="d" d="M793.125,137.055a7.343,7.343,0,0,1-4.6,4.67,20.305,20.305,0,0,0-2.644,2.253,19,19,0,0,1-3.923,3.147c-.749.3-1.32.8-1.12,1.478.179.625-1.78,3.684-2.076,4.139h0l-.036.057-.618.647-2.1,1.062-1.709-.546-.217-2.053L775,150.3h0a4.448,4.448,0,0,0,1.284-1.4c.589-.978.992-1.651.992-1.651a7.881,7.881,0,0,1,1.666-2.443,15.066,15.066,0,0,1,2.269-1.612l4.211-2.508a6.788,6.788,0,0,1,1.612-.9C787.7,139.593,794.26,133.392,793.125,137.055Z" transform="translate(-641.443 -117.007)"/><path class="f" d="M776.016,219.179l2.8-.561a.18.18,0,0,0-.05.116h0l-.036.057-.618.647-2.1,1.062-1.709-.546-.217-2.053L775,216.29h0a3.213,3.213,0,0,0-.021,3.063Z" transform="translate(-641.443 -182.997)"/><path class="f" d="M858.544,265.183a.528.528,0,0,0-.02.057.781.781,0,0,1-.1.179l-1.13.552-1.725.179-.9-2.169.6-2.377.33-.444.091-.1c.034.43.208,2.672.2,3.346-.014.747.537.806.537.806Z" transform="translate(-707.59 -219.748)"/><path class="g" d="M765.575,228.384a.526.526,0,0,0-.02.057,10.479,10.479,0,0,1-1.177,1.422,36.776,36.776,0,0,1-4.138,2.508c-1,.367-2.329,2.284-2.329,2.284l-1.322,2.728a18.689,18.689,0,0,0-2.6,2.271,2.831,2.831,0,0,0-.123,1.232,1.278,1.278,0,0,0,.021.247l-.7.729-.557.58-.785.817-1.277-.179-3.98-.632-.763-.43-4.236-2.386s0-.149-.011-.376c0-.1,0-.215-.011-.342-.013-.387-.03-.869-.05-1.279a6.909,6.909,0,0,1,.6-2.3l1.191-2.932a5.683,5.683,0,0,1,.546-2.04,8.518,8.518,0,0,1,.747-2.556,9.111,9.111,0,0,0,.46-1.711,16.913,16.913,0,0,0,.876-3.145s.589-3.333.716-4.166a10.3,10.3,0,0,1,1.623-2.757,3.265,3.265,0,0,0-.129,3.274l1.035-.179,2.8-.546c-.129.086-.043,1.034-.043,1.034a1.2,1.2,0,0,1,.459.776,2.977,2.977,0,0,0,.632,1.191l.014.016a1.4,1.4,0,0,1,.675-.964l.647.863.217,1.034s-.059.145-.432.432.158,1.034.158,1.034a5.265,5.265,0,0,1,.231,1.422h0a2.1,2.1,0,0,1,1.22-.416,3.7,3.7,0,0,0,.733-1.05.433.433,0,0,1,.618-.287,3.977,3.977,0,0,1,.7-.489c.346-.179.747.179.747.179l.043,1.324s.034.054.089.127c.113.158.315.4.442.358a13.12,13.12,0,0,1,1.623.086s.5.215.69-.057a8.5,8.5,0,0,1,1.254-.991s.206,2.667.206,3.412.537.806.537.806Z" transform="translate(-614.706 -182.784)"/><path class="h" d="M875.828,284.635h-.038C875.858,284.456,875.828,284.635,875.828,284.635Z" transform="translate(-724.927 -239.035)"/><circle class="i" cx="0.258" cy="0.258" r="0.258" transform="translate(138.855 43.596)"/><circle class="i" cx="0.258" cy="0.258" r="0.258" transform="translate(136.972 47.347)"/><circle class="i" cx="0.258" cy="0.258" r="0.258" transform="translate(133.266 55.376)"/><circle class="i" cx="0.258" cy="0.258" r="0.258" transform="translate(135.018 51.325)"/><path class="f" d="M748.188,552.036a3.46,3.46,0,0,1-3.668,1.349l.032-.829s3.582-1.637,3.491-1.293A1.9,1.9,0,0,0,748.188,552.036Z" transform="translate(-617.17 -457.931)"/><path class="f" d="M801.751,555.53a2.786,2.786,0,0,1-3.941-.666,4.957,4.957,0,0,0,.421-1.553c-.086-.346,3.491,1.291,3.491,1.291Z" transform="translate(-660.915 -459.611)"/><path class="j" d="M748.64,382.178a5.307,5.307,0,0,0-.432,2.3c-2.959,2.126-4.51-.46-4.51-.46a9.514,9.514,0,0,0-.143-2.988,6.238,6.238,0,0,1-.057-2.615,25.219,25.219,0,0,0-.2-3.016,5.77,5.77,0,0,1-.143-1.868,3.686,3.686,0,0,0-.373-1.32,4.062,4.062,0,0,0-.2-1.408,10.359,10.359,0,0,1-.43-2.1l-1.378-5.171s-.575-3.131-.8-3.821-.518-.546-.518-.546l-.828,3.706-.632,6.321a6.931,6.931,0,0,0-.179,2.386l.2,2.441-.333,4.2a.1.1,0,0,0,0,.021.256.256,0,0,0,.1.208,6.9,6.9,0,0,1,.482,4.052c-2.184,3.161-4.827,1.523-4.827,1.523a6.7,6.7,0,0,0-.516-2.1c-.489-1.207.086-6.09.086-6.09l-.432-3.161a21.167,21.167,0,0,0-.115-2.149,18.91,18.91,0,0,1-.057-2.126l.057-1.983a21.751,21.751,0,0,1-.374-6.522s-.115-6.378.116-6.667a8.468,8.468,0,0,0,.133-1.836,1.283,1.283,0,0,1,.168-.589l.029-.029c.374-.46.374-2.3.344-3.018a3.877,3.877,0,0,1,.493-1.49c.179-.348.342-.634.4-.738l.025-.041a38.047,38.047,0,0,1,5.975,2.472,8.154,8.154,0,0,0,2.468.765,5.489,5.489,0,0,0,1.288.02,4.5,4.5,0,0,0,1.852-.6,3.256,3.256,0,0,0,.8-.643,5.353,5.353,0,0,0,0,1.157c.011.167.023.279.023.279l.478,2.132a5.594,5.594,0,0,1,.179.772c.034.19.063.4.09.614a59.553,59.553,0,0,1,.156,7.321s.716,6.292.374,6.579-.059,1.265-.059,1.265a5.1,5.1,0,0,1,.46,1.78,2.868,2.868,0,0,0,.346,1.379l-.116,2.844.3,6.171S749.1,381.517,748.64,382.178Z" transform="translate(-606.885 -289.047)"/><path class="f" d="M806.13,488.461s2.176-1.254,2.651-.69S806.13,488.461,806.13,488.461Z" transform="translate(-667.744 -405.731)"/><path class="f" d="M813.1,496.14s-.358.179.432.408S813.1,496.14,813.1,496.14Z" transform="translate(-673.398 -412.721)"/><path class="f" d="M739.99,476.764A3.34,3.34,0,0,0,743.5,477,26.2,26.2,0,0,0,739.99,476.764Z" transform="translate(-613.45 -396.792)"/><path class="f" d="M750.735,490.24a2.31,2.31,0,0,1-1.573,1.164C748.105,491.555,750.735,490.24,750.735,490.24Z" transform="translate(-620.775 -407.877)"/><path class="f" d="M797.71,502.52s2.479,3.941,2,4.87S797.71,502.52,797.71,502.52Z" transform="translate(-660.833 -417.958)"/><path class="f" d="M773.188,369.09l-.258,7.715s1.53-.064,1.791-2.606.453-4.612.453-4.612Z" transform="translate(-640.491 -308.428)"/><path class="j" d="M772.708,368.13l-.258,7.715s1.53-.065,1.791-2.608.457-4.61.457-4.61Z" transform="translate(-640.097 -307.64)"/><path class="f" d="M738.379,368.968s-1.207,3.237-3.969,1.669a1.273,1.273,0,0,1,.168-.589,2.179,2.179,0,0,0,3.224-1.318Z" transform="translate(-608.871 -308.132)"/><path class="f" d="M737.9,367.046s-1.207,3.237-3.969,1.669a1.283,1.283,0,0,1,.168-.589,2.179,2.179,0,0,0,3.224-1.317Z" transform="translate(-608.477 -306.556)"/><path class="j" d="M737.9,368.006s-1.207,3.237-3.969,1.669a1.283,1.283,0,0,1,.168-.589,2.178,2.178,0,0,0,3.224-1.316Z" transform="translate(-608.477 -307.344)"/><path class="f" d="M796.087,376.35c-3.034,1.444-4.147-1.96-4.147-1.96l.717.021c.125,2.176,2.524,1.591,3.346,1.324C796.031,375.932,796.06,376.131,796.087,376.35Z" transform="translate(-656.096 -312.778)"/><path class="f" d="M797.047,374.9c-3.032,1.442-4.147-1.961-4.147-1.961l.717.021c.125,2.176,2.524,1.592,3.346,1.326C796.991,374.477,797.02,374.683,797.047,374.9Z" transform="translate(-656.884 -311.588)"/><path class="j" d="M796.567,375.381c-3.032,1.442-4.147-1.961-4.147-1.961l.716.021c.125,2.178,2.524,1.592,3.346,1.326C796.511,374.957,796.54,375.163,796.567,375.381Z" transform="translate(-656.49 -311.982)"/><path class="k" d="M737.9,368.006s-1.207,3.237-3.969,1.669a1.283,1.283,0,0,1,.168-.589,2.178,2.178,0,0,0,3.224-1.316Z" transform="translate(-608.477 -307.344)"/><path class="k" d="M796.567,375.381c-3.032,1.442-4.147-1.961-4.147-1.961l.716.021c.125,2.178,2.524,1.592,3.346,1.326C796.511,374.957,796.54,375.163,796.567,375.381Z" transform="translate(-656.49 -311.982)"/><path class="f" d="M748.425,581.467a5.086,5.086,0,0,1-.021.6c-.064.8-2.026.5-2.026.5-1.791.249-2.436-.611-2.649-1.433a3.278,3.278,0,0,1-.1-.817,3.377,3.377,0,0,1,.032-.491v-.163a1.2,1.2,0,0,1,1.114.227,1.892,1.892,0,0,0,1.854.151,2.487,2.487,0,0,1,1.075.322c.168.145.446-.2.657-.537.013.215.032.6.045,1.019C748.421,581.051,748.425,581.266,748.425,581.467Z" transform="translate(-616.439 -481.235)"/><path class="f" d="M745.28,584.683s-.537.527-1.551-.287a3.287,3.287,0,0,1-.1-.817A9.376,9.376,0,0,0,745.28,584.683Z" transform="translate(-616.439 -484.498)"/><path class="f" d="M767.732,587.11a.4.4,0,0,1-.582-.093,3.816,3.816,0,0,0,.573-.537C767.729,586.695,767.732,586.91,767.732,587.11Z" transform="translate(-635.746 -486.879)"/><path class="f" d="M793.868,583.532a5.491,5.491,0,0,0,.02.6c.064.8,2.026.5,2.026.5,1.791.251,2.436-.609,2.649-1.433a3.44,3.44,0,0,0,.066-1.308v-.163a1.213,1.213,0,0,0-1.116.227,1.888,1.888,0,0,1-1.852.15,2.5,2.5,0,0,0-1.075.324c-.168.145-.446-.2-.656-.537-.012.215-.034.6-.046,1.019C793.87,583.115,793.866,583.33,793.868,583.532Z" transform="translate(-657.679 -482.932)"/><path class="f" d="M811.43,586.732s.537.527,1.549-.286a3.268,3.268,0,0,0,.1-.815A9.58,9.58,0,0,1,811.43,586.732Z" transform="translate(-672.095 -486.181)"/><path class="f" d="M793.868,589.171a.4.4,0,0,0,.58-.093,3.789,3.789,0,0,1-.573-.537C793.87,588.753,793.866,588.968,793.868,589.171Z" transform="translate(-657.678 -488.57)"/><path class="f" d="M771.781,285s-2.758,7.614-1.7,8.275S771.781,285,771.781,285Z" transform="translate(-637.956 -239.4)"/><path class="f" d="M790.377,271.88s-.52,2.529-.26,2.758S790.377,271.88,790.377,271.88Z" transform="translate(-654.54 -228.63)"/><path class="f" d="M808.461,304.77s-3.391,3.16-3.162,3.419S808.461,304.77,808.461,304.77Z" transform="translate(-667.053 -255.629)"/><path class="f" d="M817.67,258.273c-1.284.392-4.286,1.309-4.32,1.3l.167-.684a2.094,2.094,0,0,1,1.22-.416,3.693,3.693,0,0,0,.733-1.05.433.433,0,0,1,.618-.287,4.079,4.079,0,0,1,.7-.489c.346-.179.747.179.747.179l.043,1.322S817.615,258.2,817.67,258.273Z" transform="translate(-673.671 -216.087)"/><path class="g" d="M817.67,257.333c-1.284.392-4.286,1.309-4.32,1.3l.167-.682a2.094,2.094,0,0,1,1.22-.416,3.692,3.692,0,0,0,.733-1.05.433.433,0,0,1,.618-.287,3.977,3.977,0,0,1,.7-.489c.346-.179.747.179.747.179l.043,1.324S817.615,257.256,817.67,257.333Z" transform="translate(-673.671 -215.315)"/><path class="f" d="M806.641,245.576A5.246,5.246,0,0,1,806.87,247l-.5.4-.949-2.737-.043-1.422-.018-.081.014.016a1.4,1.4,0,0,1,.675-.962l.647.862.217,1.034s-.059.145-.432.432S806.641,245.576,806.641,245.576Z" transform="translate(-667.112 -204.274)"/><path class="g" d="M807.131,245.082a5.264,5.264,0,0,1,.231,1.422l-.5.4-.949-2.737-.043-1.422-.02-.081.014.016a1.4,1.4,0,0,1,.675-.964l.647.863.217,1.034s-.059.145-.432.432S807.131,245.082,807.131,245.082Z" transform="translate(-667.515 -203.872)"/><path class="f" d="M812.816,216.569a3.846,3.846,0,1,1-1.126-2.753,3.878,3.878,0,0,1,1.126,2.753Z" transform="translate(-666.866 -180.041)"/><path class="d" d="M812.8,215.608a3.857,3.857,0,1,1-1.13-2.749A3.88,3.88,0,0,1,812.8,215.608Z" transform="translate(-666.85 -179.254)"/><path class="f" d="M815.049,215.585a3.858,3.858,0,0,1-.564,2.015c-.057-.1-.091-.22-.149-.324-.081-.145-.267-.267-.4-.179a.414.414,0,0,0-.127.179c-.113.238-.313.476-.577.471a.571.571,0,0,1-.491-.419,1.723,1.723,0,0,1-.029-.684,1.559,1.559,0,0,0-.3-1.316,1.958,1.958,0,0,0-.749-.335.982.982,0,0,1-.645-.476c-.072-.179-.054-.369-.118-.537a.94.94,0,0,0-.7-.512,1.827,1.827,0,0,1-1.22.417,4.573,4.573,0,0,1-1.2-.19,3.88,3.88,0,0,1,7.269,1.886Z" transform="translate(-669.099 -179.231)"/><path class="l" d="M808.019,204.989c.065.179.047.373.118.537a.978.978,0,0,0,.645.476,1.971,1.971,0,0,1,.749.333,1.564,1.564,0,0,1,.3,1.318,1.722,1.722,0,0,0,.029.684.575.575,0,0,0,.491.419.713.713,0,0,0,.577-.471.416.416,0,0,1,.127-.179c.138-.091.324.03.4.179a1.778,1.778,0,0,0,.231.435.516.516,0,0,0,.471.107,1.189,1.189,0,0,0,.443-.229,2.426,2.426,0,0,0,.824-.991,1.422,1.422,0,0,0-.052-1.254,3.768,3.768,0,0,1-.432-.656c-.147-.428.129-.869.3-1.288a2.234,2.234,0,0,0,.152-1.216,1.562,1.562,0,0,0-.639-1.026c-.681-.453-1.6-.2-2.389-.423a6.067,6.067,0,0,1-.822-.339,6.09,6.09,0,0,0-1.254-.4,1.221,1.221,0,0,0-1.216.245,2.71,2.71,0,0,0-.2.344,1.238,1.238,0,0,1-.774.57c-.231.056-.473.041-.717.075a.788.788,0,0,0-.6.342,1.187,1.187,0,0,0-.039.716.727.727,0,0,1-.179.675c-.091.07-.217.1-.272.2a.285.285,0,0,0,.084.339.808.808,0,0,0,.342.15,5.235,5.235,0,0,0,1.374.235,1.813,1.813,0,0,0,1.279-.471c-.03.03-.228.018-.263.016A1.046,1.046,0,0,1,808.019,204.989Z" transform="translate(-666.221 -170.41)"/><g class="m" transform="translate(138.105 32.041)"><path d="M813.061,222.164a1.219,1.219,0,0,1-.442.231.52.52,0,0,1-.469-.109,1.752,1.752,0,0,1-.233-.435c-.081-.145-.267-.267-.4-.179a.439.439,0,0,0-.127.179.7.7,0,0,1-.577.471.568.568,0,0,1-.489-.419,1.723,1.723,0,0,1-.03-.684,1.56,1.56,0,0,0-.3-1.316,1.97,1.97,0,0,0-.75-.335.986.986,0,0,1-.645-.476c-.072-.179-.054-.369-.118-.537a.936.936,0,0,0-.7-.512,1.859,1.859,0,0,1-1.22.419,5.313,5.313,0,0,1-1.374-.236.828.828,0,0,1-.342-.149.369.369,0,0,1-.056-.064.5.5,0,0,0-.2.156.285.285,0,0,0,.084.339.807.807,0,0,0,.342.15,5.237,5.237,0,0,0,1.374.235,1.843,1.843,0,0,0,1.218-.417.937.937,0,0,1,.7.51c.064.179.047.373.118.537a.982.982,0,0,0,.645.476,1.97,1.97,0,0,1,.749.333,1.565,1.565,0,0,1,.3,1.318,1.721,1.721,0,0,0,.029.684.575.575,0,0,0,.491.419.713.713,0,0,0,.577-.471.418.418,0,0,1,.127-.179c.138-.091.324.03.4.179a1.724,1.724,0,0,0,.233.435.512.512,0,0,0,.469.107,1.188,1.188,0,0,0,.442-.229,2.425,2.425,0,0,0,.824-.991,1.577,1.577,0,0,0,.077-.236A2.555,2.555,0,0,1,813.061,222.164Z" transform="translate(-804.565 -216.45)"/><path d="M854,219.585c.038-.082.073-.165.108-.245a1.64,1.64,0,0,0,.066-.19A4.192,4.192,0,0,0,854,219.585Z" transform="translate(-845.145 -217.386)"/><path d="M807.036,210.373a.735.735,0,0,0,.163-.659,2.945,2.945,0,0,1-.034-.414.6.6,0,0,0-.1.125,1.187,1.187,0,0,0-.039.717A1.385,1.385,0,0,1,807.036,210.373Z" transform="translate(-806.557 -209.3)"/></g><path class="f" d="M752.4,348.268c-.333.023-.8.048-1.363.068-.391.013-.828.021-1.295.021-.408,0-.84,0-1.288-.02a27.621,27.621,0,0,1-4.222-.435,9.239,9.239,0,0,1-4.657-2.022c.179-.347.342-.636.4-.738,0-.1,0-.217-.011-.342,1.89.9,7.781,3.384,12.3,1.97a1.277,1.277,0,0,0,.021.247l.1.086A5.434,5.434,0,0,0,752.4,348.268Z" transform="translate(-613.115 -288.488)"/><path class="i" d="M752.4,347.3c-.333.023-.8.048-1.363.066-.391.014-.828.022-1.295.022-.408,0-.84,0-1.288-.02a27.6,27.6,0,0,1-4.222-.433,9.241,9.241,0,0,1-4.657-2.024c.179-.347.342-.634.4-.738,0-.1,0-.215-.011-.342,1.89.9,7.781,3.385,12.3,1.979a1.279,1.279,0,0,0,.021.247l.1.086A5.367,5.367,0,0,0,752.4,347.3Z" transform="translate(-613.115 -287.692)"/><path class="n" d="M309.465,435.947a2.463,2.463,0,0,1-.55-1.875l7.906-64.692.656-5.374a2.481,2.481,0,0,1,2.443-2.178l23.158-.154a2.477,2.477,0,0,0,2.461-2.545l-.009-.245a2.479,2.479,0,0,1,2.477-2.563h24.335a2.477,2.477,0,0,1,2.477,2.472,2.644,2.644,0,0,1-.021.333,2.477,2.477,0,0,0,2.393,2.8l23.371.6a2.475,2.475,0,0,1,2.379,2.895l-11.684,68.244-.22,1.29a2.423,2.423,0,0,1-.358.924Z" transform="translate(-259.575 -297.945)"/><g class="o" transform="translate(93.46 44.145)"><rect class="p" width="47.078" height="14.394" transform="matrix(0.568, -0.823, 0.823, 0.568, 0, 38.733)"/></g><rect class="q" width="13.685" height="46.447" transform="matrix(0.823, 0.568, -0.568, 0.823, 120.419, 44.669)"/><rect class="r" width="9.661" height="9.661" transform="matrix(0.821, 0.571, -0.571, 0.821, 121.231, 46.48)"/><rect class="s" width="9.674" height="9.674" transform="matrix(0.823, 0.568, -0.568, 0.823, 115.016, 56.04)"/><rect class="t" width="9.674" height="9.674" transform="matrix(0.823, 0.568, -0.568, 0.823, 108.375, 65.649)"/><g class="o" transform="translate(90.99 41.84)"><rect class="u" width="46.902" height="14.394" transform="matrix(0.28, -0.96, 0.96, 0.28, 0, 45.019)"/></g><rect class="q" width="13.685" height="46.272" transform="matrix(0.96, 0.28, -0.28, 0.96, 104.512, 42.276)"/><rect class="v" width="9.674" height="9.674" transform="matrix(0.96, 0.28, -0.28, 0.96, 106.236, 43.558)"/><rect class="w" width="9.674" height="9.674" transform="matrix(0.96, 0.28, -0.28, 0.96, 102.96, 54.768)"/><rect class="x" width="9.674" height="9.674" transform="matrix(0.96, 0.28, -0.28, 0.96, 99.684, 65.977)"/><g class="o" transform="translate(91.015 42.622)"><rect class="y" width="46.902" height="14.394" transform="matrix(0.08, -0.997, 0.997, 0.08, 0, 46.751)"/></g><rect class="q" width="13.685" height="46.272" transform="matrix(0.997, 0.08, -0.08, 0.997, 95.208, 42.976)"/><rect class="z" width="9.674" height="9.674" transform="matrix(0.997, 0.08, -0.08, 0.997, 97.149, 43.883)"/><rect class="aa" width="9.674" height="9.674" transform="matrix(0.997, 0.08, -0.08, 0.997, 96.211, 55.523)"/><rect class="ab" width="9.674" height="9.674" transform="matrix(0.997, 0.08, -0.08, 0.997, 95.275, 67.166)"/><g class="o" transform="translate(88.584 43.881)"><rect class="ac" width="14.394" height="46.902" transform="translate(0 0.656) rotate(-2.61)"/></g><rect class="ad" width="13.685" height="46.272" transform="translate(89.071 44.83) rotate(-2.61)"/><rect class="ae" width="9.674" height="9.674" transform="translate(91.109 45.484) rotate(-2.61)"/><rect class="af" width="9.686" height="9.686" transform="translate(92.019 56.781) rotate(-2.862)"/><rect class="ag" width="9.674" height="9.674" transform="translate(92.172 68.818) rotate(-2.61)"/><path class="ah" d="M273.646,382.149l-12.159,4.7-17.77,6.869c-.672-1.254-1.66-2.948-2.884-4.971-4.209-6.975-11.173-17.824-17.375-27.359-6.986-10.747-13-19.816-13-19.816l4.353-1.254L250.368,330Z" transform="translate(-178.77 -276.34)"/><path class="ai" d="M293.6,382.149l-12.159,4.7a91.385,91.385,0,0,1-20.66,1.9c-4.209-6.975-11.173-17.824-17.375-27.359l-8.639-21.077L270.323,330Z" transform="translate(-198.726 -276.34)"/><path class="ae" d="M294.89,355.433S276,366.606,247.8,364.079l-22.481-54.81,10.774-1.852,37.246-6.4,21.136,53.347Z" transform="translate(-190.968 -252.55)"/><path class="ai" d="M343.845,354.407a89.283,89.283,0,0,1-14.77-.421,47.465,47.465,0,0,1-16.069-4.507,48.7,48.7,0,0,1-10.5-7.056c-7.833-7.045-12.68-17.122-17.032-34.968l37.246-6.4Z" transform="translate(-240.345 -252.583)"/><path class="q" d="M346.119,278.194a103.113,103.113,0,0,1-28.095,1.048,47.465,47.465,0,0,1-16.069-4.507,48.744,48.744,0,0,1-10.5-7.056c-9.694-8.721-14.813-22.087-20.092-49.079,0,0,23.146,5.587,46.034-6.651C317.386,211.959,325.1,260.1,346.119,278.194Z" transform="translate(-228.762 -179.434)"/><path class="ai" d="M410.1,510.894a47.465,47.465,0,0,1-16.069-4.507,48.742,48.742,0,0,1-10.5-7.056c8.254-.67,9.44-5.182,9.44-5.182C399.088,503.86,410.1,510.894,410.1,510.894Z" transform="translate(-320.84 -411.087)"/><path class="ag" d="M338.2,280.931s18.822-1.064,24.077-5.121l.8,2.561s-12.436,5.486-24.874,5.553Z" transform="translate(-283.63 -231.856)"/><path class="ag" d="M338.2,339.948s18.224-1,31.992-7.648l.466,1.064s-10.926,6.378-32.458,8.048Z" transform="translate(-283.63 -278.228)"/><path class="ag" d="M346.39,367.458s18.224-1,31.991-7.648l.466,1.064s-10.926,6.377-32.456,8.048Z" transform="translate(-290.353 -300.81)"/><path class="ag" d="M354.57,395.008s18.224-1,31.992-7.648l.464,1.064S376.1,394.8,354.57,396.472Z" transform="translate(-297.067 -323.425)"/><path class="ag" d="M362.76,422.558s18.224-1,31.991-7.648l.466,1.064s-10.926,6.378-32.456,8.048Z" transform="translate(-303.79 -346.04)"/><path class="ag" d="M370.94,450.118s18.224-1,31.992-7.648l.464,1.064s-10.926,6.377-32.456,8.048Z" transform="translate(-310.505 -368.664)"/><path class="ae" d="M1055.357,827.195s-7.573-.457-6.681,4.851a1.291,1.291,0,0,0,.673,1.363s.013-.394.776-.26a3.481,3.481,0,0,0,.824.039,1.7,1.7,0,0,0,1-.416h0s2.13-.879,2.958-4.358c0,0,.612-.76.587-.955l-1.277.537a2.288,2.288,0,0,1,.093,1.687s-.041-1.653-.287-1.612c-.05,0-.664.319-.664.319a3.768,3.768,0,0,1,.179,2.773s.215-1.979-.419-2.656l-.9.525a3.975,3.975,0,0,1,.283,3.013s.152-2.076-.473-2.886l-.815.636a3.886,3.886,0,0,1,.322,2.758s-.066-2.418-.5-2.6a4.632,4.632,0,0,0-.82.9s.564,1.186.213,1.813c0,0-.215-1.612-.39-1.612a5.319,5.319,0,0,0-.785,1.791,3.872,3.872,0,0,1,.613-1.9,2.151,2.151,0,0,0-1.089.564s.111-.756,1.265-.82a5.023,5.023,0,0,1,.743-.86,4.676,4.676,0,0,0-1.841.213,2.057,2.057,0,0,1,2.053-.389l.8-.656a6.61,6.61,0,0,0-2.15.021,2.622,2.622,0,0,1,2.366-.179l.876-.523a7.979,7.979,0,0,0-2.053-.179,3.146,3.146,0,0,1,2.311.036l.625-.281s-.942-.179-1.218-.215-.292-.1-.292-.1a3.248,3.248,0,0,1,1.771.2A7.951,7.951,0,0,0,1055.357,827.195Z" transform="translate(-866.785 -684.469)"/><ellipse class="a" cx="5.359" cy="0.906" rx="5.359" ry="0.906" transform="translate(177.996 148.495)"/><ellipse class="a" cx="18.27" cy="1.655" rx="18.27" ry="1.655" transform="translate(127.488 144.363)"/><path class="ae" d="M1088.57,729.4s-4.269-.258-3.762,2.735a.729.729,0,0,0,.378.768s.009-.222.439-.147a1.987,1.987,0,0,0,.464.021.959.959,0,0,0,.566-.233h0a3.391,3.391,0,0,0,1.667-2.458s.346-.428.331-.537l-.716.306a1.3,1.3,0,0,1,.052.953s-.023-.933-.161-.912c-.029,0-.374.179-.374.179a2.125,2.125,0,0,1,.1,1.564s.122-1.116-.236-1.5l-.507.3a2.242,2.242,0,0,1,.159,1.7,3.182,3.182,0,0,0-.267-1.626l-.459.358a2.19,2.19,0,0,1,.179,1.555s-.038-1.363-.281-1.465a2.888,2.888,0,0,0-.464.5s.319.67.122,1.023c0,0-.122-.908-.22-.912a3,3,0,0,0-.443,1.012,2.191,2.191,0,0,1,.346-1.075,1.2,1.2,0,0,0-.615.319s.063-.426.717-.462a2.851,2.851,0,0,1,.419-.485,2.641,2.641,0,0,0-1.039.12,1.167,1.167,0,0,1,1.157-.218l.455-.371a3.743,3.743,0,0,0-1.213.012,1.462,1.462,0,0,1,1.334-.1l.494-.3a4.464,4.464,0,0,0-1.159-.1,1.77,1.77,0,0,1,1.3.02l.358-.158s-.537-.106-.688-.122-.165-.059-.165-.059a1.848,1.848,0,0,1,1,.111A4.337,4.337,0,0,0,1088.57,729.4Z" transform="translate(-896.472 -604.198)"/><ellipse class="a" cx="3.022" cy="0.51" rx="3.022" ry="0.51" transform="translate(186.139 128.459)"/><path class="ae" d="M944.257,743.9s-5.155-.312-4.546,3.3a.88.88,0,0,0,.457.928s0-.269.537-.179a2.348,2.348,0,0,0,.561.027,1.156,1.156,0,0,0,.684-.283h0a4.09,4.09,0,0,0,2.013-2.966s.417-.516.4-.65l-.879.373a1.555,1.555,0,0,1,.063,1.148s-.029-1.125-.2-1.1c-.034,0-.451.219-.451.219a2.576,2.576,0,0,1,.125,1.888s.147-1.347-.285-1.809l-.613.358a2.71,2.71,0,0,1,.192,2.051,3.882,3.882,0,0,0-.321-1.97l-.555.433a2.636,2.636,0,0,1,.219,1.877s-.043-1.646-.339-1.77a3.372,3.372,0,0,0-.559.6s.383.808.145,1.234c0,0-.147-1.1-.267-1.1a3.75,3.75,0,0,0-.537,1.223,2.646,2.646,0,0,1,.417-1.293,1.45,1.45,0,0,0-.74.385s.075-.514.86-.559a3.3,3.3,0,0,1,.507-.584,3.175,3.175,0,0,0-1.254.143,1.406,1.406,0,0,1,1.4-.263l.548-.448a4.556,4.556,0,0,0-1.463.014,1.78,1.78,0,0,1,1.612-.115l.6-.358a5.426,5.426,0,0,0-1.4-.12,2.141,2.141,0,0,1,1.573.025l.426-.192s-.641-.125-.829-.145-.2-.072-.2-.072a2.214,2.214,0,0,1,1.205.133A5.517,5.517,0,0,0,944.257,743.9Z" transform="translate(-777.357 -616.096)"/><ellipse class="a" cx="3.649" cy="0.616" rx="3.649" ry="0.616" transform="translate(159.701 131.731)"/><ellipse class="a" cx="5.359" cy="0.906" rx="5.359" ry="0.906" transform="translate(4.43 145.794)"/><path class="aj" d="M68.1,818.368s3.056-.093,3.978-.749,4.7-1.433,4.931-.389,4.594,5.234,1.143,5.262-8.019-.537-8.94-1.1S68.1,818.368,68.1,818.368Z" transform="translate(-61.91 -675.879)"/><path class="ak" d="M78.2,829.661c-3.452.029-8.019-.537-8.94-1.1-.7-.426-.978-1.958-1.075-2.664h-.1s.193,2.466,1.112,3.027,5.5,1.128,8.943,1.11c1-.009,1.34-.358,1.322-.9C79.318,829.457,78.938,829.656,78.2,829.661Z" transform="translate(-61.893 -683.414)"/><rect class="al" width="30.57" height="54.707" transform="matrix(0.309, -0.951, 0.951, 0.309, 141.452, 29.075)"/><rect class="am" width="30.149" height="53.951" transform="matrix(0.309, -0.951, 0.951, 0.309, 141.876, 28.992)"/><g class="an" transform="translate(151.101 10.572)"><circle class="ae" cx="5.617" cy="5.617" r="5.617"/></g><g class="an" transform="translate(170.157 13.715)"><rect class="ae" width="1.539" height="24.473" transform="matrix(0.309, -0.951, 0.951, 0.309, 0, 1.463)"/></g><g class="an" transform="translate(168.944 17.445)"><rect class="ae" width="1.539" height="12.467" transform="matrix(0.309, -0.951, 0.951, 0.309, 0, 1.463)"/></g><g class="an" transform="translate(167.729 21.178)"><rect class="ae" width="1.539" height="20.163" transform="matrix(0.309, -0.951, 0.951, 0.309, 0, 1.463)"/></g><g class="an" transform="translate(166.517 24.91)"><rect class="ae" width="1.539" height="24.473" transform="matrix(0.309, -0.951, 0.951, 0.309, 0, 1.463)"/></g><g class="o" transform="translate(181.155 35.771)"><rect class="ae" width="2.975" height="6.772" transform="matrix(0.309, -0.951, 0.951, 0.309, 0, 2.829)"/></g><path class="ao" d="M798.269,442.778a1.645,1.645,0,0,0-.018-.179.916.916,0,0,0-.03-.179c-.023-.122-.048-.242-.077-.358-.014-.056-.029-.113-.045-.167a4.543,4.543,0,0,0-.9-1.732c-.023-.029-.048-.056-.072-.082s-.1-.1-.145-.152-.093-.091-.14-.133-.09-.079-.133-.115c-.086-.07-.167-.129-.236-.179a1.441,1.441,0,0,0-.145-.093A.8.8,0,0,0,796,439.3l-.743-.073h0l-1.016-.1-3.631-1.41-.143.05a8.192,8.192,0,0,1-.269-.9.8.8,0,0,0,.286-.21.654.654,0,0,0,.2-.253c.091-.211-.084-.661-.048-.919a4.332,4.332,0,0,1,.448-1.188,5.508,5.508,0,0,0,.6-2.56,2.887,2.887,0,0,0-1.193-2.271c-.385-.256-.838-.392-1.239-.625-.312-.179-.586-.419-.883-.623a5.076,5.076,0,0,0-5-.358,24.386,24.386,0,0,0-2.108,1.372,3.558,3.558,0,0,1-2.382.656.579.579,0,0,0-.025.1l-.07-.009c-.143.391.208.777.537,1.044a3.628,3.628,0,0,0,2.112,1.03,2.219,2.219,0,0,1,.919.068.836.836,0,0,1,.179.107,3.991,3.991,0,0,0,1.254,3.978l-1.854-.666s-.077.039-.2.115l-2.572-1.712s-5.157-1.87-6.59,1.042,6.21,1.41,6.21,1.41l1.635.9a1.488,1.488,0,0,0,.179.982l4.458,2.755a23.552,23.552,0,0,1-2.644.716c-.382,0-1.433.376-2.1,1.879s-3.058,8.834-5.159,10.056-7.641,9.4-7.641,9.4l.025.064c-.1.027-.2.054-.29.086a5.871,5.871,0,0,0-2.878,2.171.921.921,0,0,0,.645,1.453,4.021,4.021,0,0,0,3.957-1.492c.038-.048.072-.1.1-.145a.764.764,0,0,0,.537.025l2.674-2.162s-2.092,2.06-.865,3.941l-.093.131a29.9,29.9,0,0,0-4.478,9.748s-1.146.845-1.241,4.229a64.757,64.757,0,0,1-1.243,8.834s-.763,6.486-.287,8.458c0,0,.055.079.158.2-.036.043-.075.09-.118.136a2.319,2.319,0,0,1-2.046.9c-1.336-.283-1.336,2.067.573,2.255a50.919,50.919,0,0,1,5.216,1.046,1.1,1.1,0,0,0,1.361-1.171,9.921,9.921,0,0,0-.573-2.586c-.02-.045-.039-.09-.059-.131.055-.054.113-.108.168-.165,0,0,0-4.136.67-5.262,0,0,1.815-8.553,1.718-10.715-.073-1.691,4.709-8.277,6.79-11.059l-.018-.106c.537-.717.87-1.146.87-1.146l1.61,10.246a14.654,14.654,0,0,0,1.72,3.477s4.107,7.8,4.585,10.244a7.7,7.7,0,0,0,1.447,3.371l-.124.118a2.091,2.091,0,0,1-1.8.647c-1.336-.283-1.336,2.067.573,2.255A51.306,51.306,0,0,1,792,502.02a1.1,1.1,0,0,0,1.363-1.173,8.471,8.471,0,0,0-.734-2.912,2.041,2.041,0,0,0-.109-.179,1.007,1.007,0,0,0,.38-.267s-2.484-5.922-2.484-7.523c0,0-1.05-6.108-4.584-8.363a84.473,84.473,0,0,1,1.34-11.894c.025-.1.05-.208.075-.308a28.333,28.333,0,0,0,2.787-.58l.095-2.819.478,2.255,5.349-3.289s-.047-.593-.136-1.5c-.047-.455-.1-.989-.168-1.567-.054-.462-.115-.953-.179-1.454-.018-.125-.034-.253-.052-.378-.07-.507-.147-1.019-.229-1.521q-.048-.283-.1-.559c-.045-.245-.09-.485-.136-.716-.023-.116-.048-.233-.072-.346s-.05-.226-.075-.335-.05-.215-.075-.321c-.014-.052-.027-.1-.039-.154-.027-.1-.054-.2-.081-.3a5.369,5.369,0,0,1-.193-1.232v-.5a3.558,3.558,0,0,1,.048-.494c.011-.081.025-.163.041-.244a5.482,5.482,0,0,1,.271-.96c.059-.156.127-.31.2-.462.179-.358.358-.74.548-1.146.1-.2.193-.41.29-.622s.2-.426.294-.645a28.279,28.279,0,0,0,2.092-5.9c.025-.159.045-.31.054-.451a2.872,2.872,0,0,0,.005-.387Z" transform="translate(-630.798 -356.269)"/><path class="ap" d="M834.908,469.543l-3.151-2.13s-5-1.854-6.393,1.019,6.022,1.39,6.022,1.39l3.151,1.759Z" transform="translate(-683.391 -388.656)"/><rect class="q" width="30.136" height="46.914" transform="matrix(0.541, -0.841, 0.841, 0.541, 117.334, 98.557)"/><rect class="n" width="8.526" height="2.006" transform="matrix(0.536, -0.844, 0.844, 0.536, 123.182, 96.789)"/><rect class="n" width="18.725" height="1.84" transform="matrix(0.536, -0.844, 0.844, 0.536, 128.594, 98.247)"/><rect class="n" width="18.725" height="1.84" transform="matrix(0.536, -0.844, 0.844, 0.536, 131.911, 100.352)"/><rect class="n" width="18.725" height="1.84" transform="matrix(0.536, -0.844, 0.844, 0.536, 135.227, 102.461)"/><rect class="n" width="18.699" height="1.837" transform="matrix(0.541, -0.841, 0.841, 0.541, 138.658, 105.517)"/><rect class="ad" width="18.725" height="1.84" transform="matrix(0.536, -0.844, 0.844, 0.536, 141.86, 106.674)"/><rect class="ad" width="18.725" height="1.84" transform="matrix(0.536, -0.844, 0.844, 0.536, 145.177, 108.78)"/><rect class="n" width="4.849" height="4.849" transform="matrix(0.536, -0.844, 0.844, 0.536, 159.101, 99.802)"/><path class="aq" d="M901.556,822.456a49.183,49.183,0,0,0-5.058-1.032c-1.854-.179-1.854-2.508-.555-2.225a2.007,2.007,0,0,0,1.746-.636,4.1,4.1,0,0,0,.358-.392,1.075,1.075,0,0,1,.6-.367,5.023,5.023,0,0,1,3.029.1,1.309,1.309,0,0,1,.48.527,8.6,8.6,0,0,1,.716,2.866,1.075,1.075,0,0,1-1.317,1.161Z" transform="translate(-740.72 -676.613)"/><path class="aq" d="M770.693,827.661a49.07,49.07,0,0,0-5.057-1.032c-1.854-.179-1.854-2.508-.557-2.223a2.222,2.222,0,0,0,1.983-.876c.05-.054.095-.106.133-.154a1.075,1.075,0,0,1,.6-.358,5,5,0,0,1,3.031.1,1.64,1.64,0,0,1,.636.847,10.024,10.024,0,0,1,.555,2.549,1.075,1.075,0,0,1-1.322,1.148Z" transform="translate(-633.298 -680.892)"/><path class="ai" d="M784.727,823.957c-2.212,2.28-4.109-.043-4.4-.426.05-.054.095-.106.133-.154a1.075,1.075,0,0,1,.6-.358,5,5,0,0,1,3.031.1A1.547,1.547,0,0,1,784.727,823.957Z" transform="translate(-646.566 -680.892)"/><path class="ai" d="M914.356,818.429c-.958.654-4.184.493-4.184.493a3.034,3.034,0,0,1-.292-.358,4.114,4.114,0,0,0,.358-.392,1.073,1.073,0,0,1,.6-.367,5.023,5.023,0,0,1,3.029.1A1.312,1.312,0,0,1,914.356,818.429Z" transform="translate(-752.911 -676.613)"/><path class="ar" d="M807.318,677.136c-.65.835-4.354.648-4.354.648a7.1,7.1,0,0,1-1.576-3.52c-.464-2.407-4.448-10.1-4.448-10.1a14.57,14.57,0,0,1-1.668-3.428l-1.574-10.1s-7.6,10.006-7.5,12.137-1.669,10.568-1.669,10.568c-.648,1.112-.648,5.195-.648,5.195-2.407,2.508-4.446-.464-4.446-.464-.464-1.945.278-8.338.278-8.338a64.8,64.8,0,0,0,1.2-8.709c.091-3.335,1.205-4.168,1.205-4.168a29.712,29.712,0,0,1,4.351-9.612c.559-.8.93-1.229.93-1.229l15.008,1.761a9.452,9.452,0,0,0-.645,1.988,84.626,84.626,0,0,0-1.3,11.723c3.428,2.223,4.448,8.24,4.448,8.24C804.908,671.3,807.318,677.136,807.318,677.136Z" transform="translate(-645.702 -535.754)"/><g class="m" transform="translate(135.706 110.262)"><path d="M802.633,673.044l-.193-1.234s-7.6,10.006-7.5,12.137-1.668,10.568-1.668,10.568c-.65,1.112-.65,5.195-.65,5.195a3.165,3.165,0,0,1-1.449.93,2.548,2.548,0,0,0,2.561-.93s0-4.077.648-5.195c0,0,1.761-8.431,1.668-10.568C795.976,682.279,800.613,675.785,802.633,673.044Z" transform="translate(-791.17 -667.187)"/><path d="M842.179,669.708s-1.019-6.022-4.446-8.24a84.794,84.794,0,0,1,1.3-11.723,9.436,9.436,0,0,1,.647-1.988L824.67,646s-.036.039-.1.118l14,1.642a9.456,9.456,0,0,0-.645,1.988,84.649,84.649,0,0,0-1.3,11.723c3.428,2.223,4.448,8.24,4.448,8.24,0,1.574,2.409,7.412,2.409,7.412-.383.491-1.827.629-2.95.659.9.023,3.523.032,4.061-.659C844.588,677.12,842.179,671.283,842.179,669.708Z" transform="translate(-818.587 -646)"/></g><path class="ap" d="M785.848,631.445a3.381,3.381,0,0,1-.439.767,3.873,3.873,0,0,1-3.837,1.471.912.912,0,0,1-.627-1.433,5.709,5.709,0,0,1,2.792-2.149,5.1,5.1,0,0,1,1.184-.24Z" transform="translate(-646.933 -522.489)"/><path class="as" d="M877.448,481.6l-7.43-2.717s-2.132,1.112-1.3,2.687l7.235,4.541Z" transform="translate(-718.966 -398.552)"/><path class="ai" d="M877.6,481.767l-7.432-2.717s-2.131,1.111-1.3,2.687l7.226,4.539Z" transform="translate(-719.089 -398.692)"/><path class="ap" d="M901.51,468.212s-.093,4.354,1.854,5.837-5.653,2.316-5.653,2.316,1.205-4.448,0-6.764S901.51,468.212,901.51,468.212Z" transform="translate(-742.768 -389.645)"/><path class="ai" d="M835.358,647.711a9.452,9.452,0,0,0-.645,1.988,24.518,24.518,0,0,1-15.2-2.359c-.034-.054-.066-.107-.095-.161.559-.8.93-1.229.93-1.229Z" transform="translate(-678.654 -535.697)"/><path class="ai" d="M799.42,631.486a3.382,3.382,0,0,1-.439.767c-.858-.143-1.544-1.791-1.671-2.1a5.091,5.091,0,0,1,1.184-.24Z" transform="translate(-660.504 -522.53)"/><path class="as" d="M821.17,490.78l-3.335,1.2-1.39,1.854s-2.866.926-3.242.926-1.39.371-2.038,1.852-2.964,8.712-5,9.914-7.412,9.264-7.412,9.264.926,2.508,2.038,2.132l2.594-2.132s-2.038,2.038-.835,3.892a24.941,24.941,0,0,0,18.068,1.759l.091-2.778.464,2.223,5.194-3.242a65.765,65.765,0,0,0-1.3-9.024,5.5,5.5,0,0,1,.358-3.835c1.345-2.8,3.421-7.485,3.169-9.192a4.264,4.264,0,0,0-1.87-3.149.775.775,0,0,0-.326-.109l-1.7-.168Z" transform="translate(-661.686 -408.321)"/><path class="f" d="M839.032,542.76s-1.854,8.616-3.892,10.006-7.5,5.838-7.69,6.579" transform="translate(-685.246 -450.99)"/><path class="as" d="M834.38,541.21s-1.852,8.616-3.89,10.006-7.505,5.838-7.69,6.577" transform="translate(-681.429 -449.718)"/><path class="ai" d="M897.28,499.943s6.393-2.131,8.24-1.576" transform="translate(-742.568 -414.473)"/><g class="m" transform="translate(159.171 82.459)"><path d="M927.671,511.612c1.345-2.8,3.421-7.485,3.169-9.192a4.265,4.265,0,0,0-1.87-3.149.775.775,0,0,0-.326-.109l-.717-.072a.718.718,0,0,1,.215.088,4.274,4.274,0,0,1,1.868,3.151c.253,1.705-1.823,6.389-3.167,9.192a5.5,5.5,0,0,0-.358,3.833,65.62,65.62,0,0,1,1.3,9.024l-4.467,2.793.113.537,5.194-3.242a65.742,65.742,0,0,0-1.3-9.024,5.5,5.5,0,0,1,.344-3.83Z" transform="translate(-923.114 -497.602)"/><path d="M891.63,461.647l.8.081-3.489-1.377-.313.113Z" transform="translate(-888.63 -460.35)"/></g><path class="f" d="M887.45,585.437s2.866-1.574,3.8-1.2,4.354-.093,4.354-.093" transform="translate(-734.498 -484.958)"/><path class="f" d="M901.218,471.07c-.106-.93.324-.788.324-.788s-5-.926-3.8,1.39a5.3,5.3,0,0,1,.509,2.037h.048C899.69,473.71,900.5,472.156,901.218,471.07Z" transform="translate(-742.795 -391.344)"/><circle class="ap" cx="3.984" cy="3.984" r="3.984" transform="translate(151.517 74.028)"/><path class="ai" d="M871.592,441.2a5.554,5.554,0,0,0,.582-2.524,2.862,2.862,0,0,0-1.157-2.241c-.373-.251-.813-.385-1.2-.614-.3-.179-.57-.414-.858-.614a4.856,4.856,0,0,0-4.85-.358,22.26,22.26,0,0,0-2.044,1.354,3.424,3.424,0,0,1-2.311.647c-.14.385.2.765.516,1.03a3.487,3.487,0,0,0,2.049,1.014,2.145,2.145,0,0,1,.9.068,1.286,1.286,0,0,1,.455.423,8.346,8.346,0,0,1,.946,1.6,1.329,1.329,0,0,0,.423.623c.358.229.822.038,1.254.021a2.58,2.58,0,0,1,1.741.833,5.313,5.313,0,0,0,1.569,1.188c.46.179,1.381.168,1.612-.382.088-.208-.082-.652-.047-.906A4.385,4.385,0,0,1,871.592,441.2Z" transform="translate(-711.736 -362.008)"/><path class="as" d="M872.06,440.668a5.529,5.529,0,0,0,.582-2.522,2.865,2.865,0,0,0-1.155-2.241c-.374-.253-.815-.387-1.2-.616-.3-.179-.569-.412-.858-.614a4.856,4.856,0,0,0-4.851-.358,22.3,22.3,0,0,0-2.044,1.352,3.415,3.415,0,0,1-2.311.647c-.14.387.2.767.516,1.03a3.5,3.5,0,0,0,2.049,1.016,2.115,2.115,0,0,1,.9.068,1.253,1.253,0,0,1,.455.423,8.243,8.243,0,0,1,.944,1.6,1.332,1.332,0,0,0,.424.623c.358.229.822.038,1.254.022a2.582,2.582,0,0,1,1.739.835,5.272,5.272,0,0,0,1.571,1.186c.46.179,1.381.168,1.612-.382.09-.208-.081-.652-.045-.906A4.384,4.384,0,0,1,872.06,440.668Z" transform="translate(-712.121 -361.573)"/><path class="ai" d="M390.676,492.731a1.847,1.847,0,0,1-1.186.419l-80.025-.34a2.463,2.463,0,0,1-.55-1.875l7.906-64.692,4.958-.054a1.874,1.874,0,0,1,1.827,1.383l.926,3.418a1.874,1.874,0,0,0,1.852,1.383l19.787-.475A1.874,1.874,0,0,0,348,430.023v-2.264a1.874,1.874,0,0,1,1.852-1.874l27.419-.3a1.874,1.874,0,0,1,1.858,1.521l12.126,63.408.079.408A1.863,1.863,0,0,1,390.676,492.731Z" transform="translate(-259.575 -354.807)"/><path class="at" d="M301.673,430.6l-27.42.3a1.874,1.874,0,0,0-1.854,1.872v2.266a1.874,1.874,0,0,1-1.827,1.872l-19.785.475A1.872,1.872,0,0,1,248.933,436l-.93-3.416a1.872,1.872,0,0,0-1.829-1.383l-26.429.285a1.872,1.872,0,0,0-1.827,2.185l10.633,62.577a1.874,1.874,0,0,0,1.84,1.56l83.495.358a1.874,1.874,0,0,0,1.847-2.225l-12.2-63.818A1.872,1.872,0,0,0,301.673,430.6Z" transform="translate(-184.871 -358.92)"/><path class="d" d="M863.024,160.794l-.143,1.594.1,2.819-.3,4.756a4.645,4.645,0,0,1-1.22,3.059l-3,4.612-.018.009-1.13.552-1.725.179-.9-2.169.593-2.382.33-.444.091-.1a10.368,10.368,0,0,1,2.839-2.271,1.554,1.554,0,0,0,.6-1.379c-.129-.842.989-5.316.989-5.316a17.844,17.844,0,0,0,.561-3.247c-.156-.288-.029-6.839,2.443-6.939S863.024,160.794,863.024,160.794Z" transform="translate(-707.606 -131.966)"/><ellipse class="a" cx="2.904" cy="0.399" rx="2.904" ry="0.399" transform="translate(24.22 125.143)"/><ellipse class="a" cx="2.904" cy="0.399" rx="2.904" ry="0.399" transform="translate(13.099 126.27)"/><ellipse class="a" cx="2.904" cy="0.399" rx="2.904" ry="0.399" transform="translate(0 124.744)"/><ellipse class="a" cx="2.063" cy="0.283" rx="2.063" ry="0.283" transform="translate(18.39 129.598)"/><ellipse class="a" cx="2.063" cy="0.283" rx="2.063" ry="0.283" transform="translate(6.848 129.315)"/><path class="ae" d="M65.871,636.078s4.071-13.348-.638-18.695a8.864,8.864,0,0,0-9.314-3.027,3.312,3.312,0,0,0-2.135,1.775c-.627,1.351-.514,3.543,3.907,6.1,7.4,4.284,7.86,10.161,7.86,10.161Z" transform="translate(-49.931 -509.496)"/><path class="au" d="M70.54,626.41s12,3.761,9.314,19.828" transform="translate(-63.913 -519.657)"/><path class="au" d="M104.042,633.92a2.653,2.653,0,0,0-1.127,2.789" transform="translate(-90.404 -525.822)"/><path class="au" d="M77.26,636.567a2.084,2.084,0,0,1,2.241-.46" transform="translate(-69.429 -527.476)"/><path class="au" d="M103.75,666.769s1.775-.9,2.234.228" transform="translate(-91.174 -552.509)"/><path class="au" d="M122.046,678.76s-1.333-.106-1.356.537" transform="translate(-105.08 -562.625)"/><path class="ae" d="M90.473,694.178s-4.77-9.7-6.079-9.493c-.622.1-.908.717-1.039,1.329a3.9,3.9,0,0,0,.26,2.361A10.453,10.453,0,0,0,90.473,694.178Z" transform="translate(-74.368 -567.491)"/><path class="au" d="M89.71,695s5,7.258,5.972,7.577" transform="translate(-79.649 -575.961)"/><line class="au" x2="1.168" transform="translate(9.601 120.173)"/><line class="au" x2="1.832" y2="0.079" transform="translate(11 122.827)"/><line class="au" x1="0.199" y2="0.955" transform="translate(11.917 120.703)"/><line class="au" x1="0.036" y2="0.867" transform="translate(14.027 123.606)"/><path class="ae" d="M122.66,694.178s4.768-9.7,6.078-9.493c.623.1.91.717,1.039,1.329a3.9,3.9,0,0,1-.26,2.361A10.458,10.458,0,0,1,122.66,694.178Z" transform="translate(-106.697 -567.491)"/><path class="au" d="M129.024,695s-5.015,7.258-5.974,7.577" transform="translate(-107.017 -575.961)"/><line class="au" x1="1.168" transform="translate(21.299 120.173)"/><line class="au" x1="1.832" y2="0.079" transform="translate(19.236 122.827)"/><line class="au" x2="0.199" y2="0.955" transform="translate(19.952 120.703)"/><line class="au" x2="0.036" y2="0.867" transform="translate(18.005 123.606)"/><path class="ae" d="M75.642,744.31a.824.824,0,0,1-.27-.41.358.358,0,0,1,.19-.417.526.526,0,0,1,.5.179.641.641,0,0,0,.485.228.742.742,0,0,1-.229-.7.283.283,0,0,1,.063-.141c.1-.1.272-.059.389.023a1.47,1.47,0,0,1,.473,1.209,2.311,2.311,0,0,0,0-.5.511.511,0,0,1,.2-.435.558.558,0,0,1,.285-.068.591.591,0,0,1,.464.133.46.46,0,0,1-.018.568,1.828,1.828,0,0,1-.48.383,1.074,1.074,0,0,0-.342.328.238.238,0,0,0-.025.057H76.285A2.9,2.9,0,0,1,75.642,744.31Z" transform="translate(-67.868 -615.357)"/><path class="ae" d="M177.091,722.539a.811.811,0,0,1-.27-.408.358.358,0,0,1,.188-.417.526.526,0,0,1,.5.179.66.66,0,0,0,.489.235.741.741,0,0,1-.231-.693.284.284,0,0,1,.064-.141c.1-.1.272-.059.389.021a1.45,1.45,0,0,1,.473,1.211,2.33,2.33,0,0,0,0-.5.512.512,0,0,1,.179-.441.57.57,0,0,1,.285-.066.6.6,0,0,1,.464.131.46.46,0,0,1-.02.57,1.786,1.786,0,0,1-.478.383,1.064,1.064,0,0,0-.342.326.292.292,0,0,0-.025.059h-1.019A2.868,2.868,0,0,1,177.091,722.539Z" transform="translate(-151.145 -597.494)"/><path class="ae" d="M143.274,744.351a.84.84,0,0,1-.272-.41.358.358,0,0,1,.19-.417.526.526,0,0,1,.5.179.666.666,0,0,0,.489.237.747.747,0,0,1-.231-.7.286.286,0,0,1,.064-.142c.1-.1.272-.059.389.023a1.449,1.449,0,0,1,.473,1.209,2.312,2.312,0,0,0,0-.5.512.512,0,0,1,.188-.441.554.554,0,0,1,.285-.068.593.593,0,0,1,.464.133.458.458,0,0,1-.02.568,1.816,1.816,0,0,1-.478.383,1.076,1.076,0,0,0-.342.328.243.243,0,0,0-.025.057h-1.039A2.922,2.922,0,0,1,143.274,744.351Z" transform="translate(-123.384 -615.398)"/><path class="ae" d="M44.683,706.25s-.389.509.179,1.277,1.037,1.417.847,1.9c0,0-.858-1.433-1.557-1.446S43.915,707.1,44.683,706.25Z" transform="translate(-41.969 -585.196)"/><path class="ai" d="M44.689,706.25a.639.639,0,0,0-.079.159c-.681.8-1.044,1.547-.389,1.567.609.018,1.342,1.107,1.515,1.383a.645.645,0,0,1-.02.063s-.858-1.433-1.557-1.446S43.921,707.1,44.689,706.25Z" transform="translate(-41.975 -585.196)"/><path class="av" d="M44.66,709.344c0,.179.02.324.045.324s.045-.145.045-.324-.025-.095-.05-.095S44.66,709.165,44.66,709.344Z" transform="translate(-42.668 -587.642)"/><path class="av" d="M42.829,710.507c.158.086.294.136.306.115s-.106-.107-.263-.193-.095-.023-.107,0S42.672,710.421,42.829,710.507Z" transform="translate(-41.086 -588.59)"/><path class="ae" d="M55.259,706.25s.39.509-.179,1.277-1.037,1.417-.847,1.9c0,0,.858-1.433,1.557-1.446S56.028,707.1,55.259,706.25Z" transform="translate(-50.491 -585.196)"/><path class="ai" d="M55.358,706.25a.677.677,0,0,1,.081.159c.681.8,1.044,1.547.389,1.567-.609.018-1.342,1.107-1.517,1.383a.366.366,0,0,0,.022.063s.858-1.433,1.557-1.446S56.126,707.1,55.358,706.25Z" transform="translate(-50.59 -585.196)"/><path class="av" d="M63.79,709.344c0,.179-.02.324-.045.324s-.045-.145-.045-.324.025-.095.05-.095S63.79,709.165,63.79,709.344Z" transform="translate(-58.298 -587.642)"/><path class="av" d="M64.183,710.507c-.158.086-.3.136-.306.115s.106-.107.263-.193.095-.023.106,0S64.339,710.421,64.183,710.507Z" transform="translate(-58.442 -588.59)"/><path class="aj" d="M44.961,720.9a4,4,0,0,1-1.415-.267c-.328-.233-1.673-.512-1.755-.138s-1.634,1.863-.407,1.872a10.464,10.464,0,0,0,3.181-.39C44.893,721.775,44.961,720.9,44.961,720.9Z" transform="translate(-39.593 -596.737)"/><path class="ak" d="M41.366,724.918a10.337,10.337,0,0,0,3.181-.391c.249-.15.347-.695.382-.947h.036s-.068.878-.4,1.075a10.458,10.458,0,0,1-3.181.391c-.358,0-.476-.129-.469-.315C40.967,724.846,41.112,724.909,41.366,724.918Z" transform="translate(-39.597 -599.422)"/><circle class="a" cx="3.874" cy="3.874" r="3.874" transform="translate(2.205 18.824)"/><circle class="a" cx="3.874" cy="3.874" r="3.874" transform="translate(188.505 49.784)"/><circle class="a" cx="3.874" cy="3.874" r="3.874" transform="translate(118.86 6.52)"/><circle class="a" cx="6.493" cy="6.493" r="6.493" transform="translate(7.335 37.579)"/><path class="am" d="M462.333,606.795l-.229-.229a.245.245,0,0,1,0-.358l2.012-2.013a.245.245,0,0,1,.358,0l2.012,2.011a.249.249,0,0,1,0,.358l-.229.229a.249.249,0,0,1-.358,0l-1.189-1.254v2.975a.247.247,0,0,1-.247.249h-.331a.249.249,0,0,1-.249-.249v-2.972l-1.189,1.254a.249.249,0,0,1-.358,0Z" transform="translate(-385.276 -501.356)"/><path class="am" d="M453.5,591.877a4.082,4.082,0,1,1-4.082,4.082,4.082,4.082,0,0,1,4.082-4.082m0-.537a4.62,4.62,0,1,0,4.619,4.62A4.62,4.62,0,0,0,453.5,591.34Z" transform="translate(-374.485 -490.868)"/></g></svg>