<svg xmlns="http://www.w3.org/2000/svg" xmlns:xlink="http://www.w3.org/1999/xlink" width="178.887" height="165.482" viewBox="0 0 178.887 165.482"><defs><style>.a{fill:#fff;}.b,.w{opacity:0.5;}.c{fill:url(#a);}.d{fill:#f2f2f2;}.e{fill:#e0e0e0;}.f,.i,.n{fill:#77c6ea;}.f,.l{opacity:0.7;}.g{fill:#f5f5f5;}.h{clip-path:url(#d);}.i,.j{opacity:0.4;}.j{fill:#bdbdbd;}.k{fill:url(#h);}.l,.o{fill:#3ad29f;}.m{fill:url(#i);}.p{fill:#f55f44;}.q{fill:#fdd835;}.r{fill:url(#j);}.s{fill:url(#k);}.t{fill:url(#l);}.u,.w{fill:#47e6b1;}.v{fill:#4d8af0;}</style><linearGradient id="a" x1="0.5" y1="1" x2="0.5" gradientUnits="objectBoundingBox"><stop offset="0" stop-color="gray" stop-opacity="0.251"/><stop offset="0.54" stop-color="gray" stop-opacity="0.122"/><stop offset="1" stop-color="gray" stop-opacity="0.102"/></linearGradient><clipPath id="d"><rect class="a" width="30.549" height="20.593"/></clipPath><linearGradient id="h" x1="0.518" y1="1.092" x2="0.518" y2="-0.251" xlink:href="#a"/><linearGradient id="i" x1="0.6" y1="0.66" x2="0.6" y2="0.086" xlink:href="#a"/><linearGradient id="j" x1="0.5" y1="1" x2="0.5" gradientUnits="objectBoundingBox"><stop offset="0" stop-color="#b3b3b3" stop-opacity="0.251"/><stop offset="0.54" stop-color="#b3b3b3" stop-opacity="0.102"/><stop offset="1" stop-color="#b3b3b3" stop-opacity="0.051"/></linearGradient><linearGradient id="k" x1="0.5" y1="0.999" x2="0.5" gradientUnits="objectBoundingBox"><stop offset="0" stop-opacity="0.122"/><stop offset="0.55" stop-opacity="0.09"/><stop offset="1" stop-opacity="0.02"/></linearGradient><linearGradient id="l" x1="0.5" y1="1" x2="0.5" y2="0" xlink:href="#k"/></defs><g transform="translate(0 0.017)"><g class="b" transform="translate(32.75 27.65)"><rect class="c" width="95.273" height="128.025"/></g><rect class="d" width="92.297" height="123.559" transform="translate(33.991 29.388)"/><rect class="e" width="31.758" height="0.992" transform="translate(41.186 34.598)"/><rect class="f" width="31.758" height="0.992" transform="translate(41.186 39.064)"/><rect class="e" width="31.758" height="0.992" transform="translate(77.659 34.598)"/><rect class="e" width="31.758" height="0.992" transform="translate(82.619 62.884)"/><rect class="e" width="31.758" height="0.992" transform="translate(83.365 65.612)"/><rect class="e" width="31.758" height="0.992" transform="translate(84.854 68.342)"/><rect class="e" width="31.758" height="0.992" transform="translate(82.619 106.798)"/><rect class="e" width="31.758" height="0.992" transform="translate(83.365 109.528)"/><rect class="e" width="31.758" height="0.992" transform="translate(84.854 112.256)"/><g class="b" transform="translate(41.435 52.71)"><rect class="c" width="33.742" height="34.239"/></g><rect class="g" width="33.211" height="32.75" transform="translate(41.648 53.455)"/><g class="b" transform="translate(42.818 55.44)"><rect class="c" width="30.976" height="21.337"/></g><rect class="a" width="30.549" height="20.593" transform="translate(43.031 55.688)"/><g class="h" transform="translate(43.031 55.688)"><path class="i" d="M186.672,291.228l7.693-11.91,3.225,5.209,6.947-7.194,5.955,7.194L215.7,273.86,229.1,295.2l-43.419-1.489Z" transform="translate(-189.262 -271.379)"/><circle class="i" cx="2.233" cy="2.233" r="2.233" transform="translate(1.132 0.744)"/></g><g class="b" transform="translate(41.435 96.626)"><rect class="c" width="33.742" height="34.239"/></g><rect class="g" width="33.211" height="32.75" transform="translate(41.648 97.37)"/><g class="b" transform="translate(42.818 99.356)"><rect class="c" width="30.976" height="21.337"/></g><rect class="a" width="30.549" height="20.593" transform="translate(43.031 99.603)"/><g class="h" transform="translate(43.031 99.603)"><path class="j" d="M186.672,497.928l7.693-11.91,3.225,5.212,6.947-7.2,5.955,7.2L215.7,480.56,229.1,501.9,185.68,500.41Z" transform="translate(-189.262 -478.079)"/><circle class="j" cx="2.233" cy="2.233" r="2.233" transform="translate(1.132 0.746)"/></g><g class="b" transform="translate(46.737 21.325)"><rect class="k" width="128.025" height="95.273" transform="translate(0 125.57) rotate(-78.76)"/></g><rect class="a" width="123.559" height="92.297" transform="translate(48.485 144.46) rotate(-78.76)"/><rect class="e" width="65.502" height="0.992" transform="translate(78.039 30.172) rotate(11.24)"/><rect class="e" width="65.502" height="0.992" transform="translate(59.758 122.161) rotate(11.24)"/><rect class="e" width="50.615" height="0.992" transform="translate(58.644 127.756) rotate(11.24)"/><rect class="f" width="18.855" height="0.992" transform="translate(57.532 133.355) rotate(11.24)"/><rect class="f" width="32.75" height="0.992" transform="translate(76.925 35.77) rotate(11.24)"/><rect class="e" width="59.05" height="0.992" transform="translate(75.815 41.367) rotate(11.24)"/><rect class="l" width="14.39" height="0.992" transform="translate(74.701 46.965) rotate(11.24)"/><rect class="e" width="65.502" height="0.992" transform="translate(73.59 52.562) rotate(11.24)"/><g class="b" transform="translate(72.674 76.204)"><rect class="m" width="33.742" height="58.801" transform="translate(0 33.095) rotate(-78.76)"/></g><rect class="a" width="58.058" height="32.998" transform="translate(79.577 76.52) rotate(11.24)"/><rect class="e" width="65.502" height="0.992" transform="translate(72.478 58.161) rotate(11.24)"/><rect class="n" width="7.196" height="24.067" transform="translate(84.67 82.085) rotate(11.24)"/><rect class="o" width="7.196" height="16.127" transform="translate(95.777 92.387) rotate(11.24)"/><rect class="p" width="7.196" height="8.683" transform="translate(106.982 102.203) rotate(11.24)"/><rect class="q" width="7.196" height="17.617" transform="translate(121.377 95.957) rotate(11.24)"/><path class="r" d="M669.364,372.869a33.118,33.118,0,1,0-5.418,50.447l23.942,24.9a1.612,1.612,0,0,0,2.28.045l5.966-5.736a1.613,1.613,0,0,0,.045-2.28l-23.935-24.9A33.122,33.122,0,0,0,669.364,372.869Zm-7.457,40.037a23.689,23.689,0,1,1,.659-33.5,23.689,23.689,0,0,1-.659,33.5Z" transform="translate(-520.338 -298.521)"/><path class="s" d="M678.077,487.6c-2.664,0-2.668,4.141,0,4.141S680.746,487.6,678.077,487.6Z" transform="translate(-570.471 -396.882)"/><path class="t" d="M708.392,425.151a19.9,19.9,0,0,0-17.164,8.866c-1.132,1.772,2.082,3.338,3.208,1.574a16.411,16.411,0,0,1,14.234-7.2,18.135,18.135,0,0,1,14.8,8.607c1.13,1.863,4.094.17,2.974-1.683A22.058,22.058,0,0,0,708.392,425.151Z" transform="translate(-582.215 -347.697)"/><path class="n" d="M681.594,366.949a33.118,33.118,0,1,0-5.418,50.445l23.939,24.9a1.613,1.613,0,0,0,2.28.045l5.966-5.736a1.613,1.613,0,0,0,.045-2.28l-23.942-24.9A33.122,33.122,0,0,0,681.594,366.949Zm-7.457,40.02a23.689,23.689,0,1,1,.659-33.5A23.689,23.689,0,0,1,674.137,406.969Z" transform="translate(-529.97 -293.859)"/><path class="n" d="M690.307,481.67c-2.664,0-2.668,4.141,0,4.141S692.976,481.67,690.307,481.67Z" transform="translate(-580.103 -392.212)"/><path class="n" d="M720.622,419.231a19.9,19.9,0,0,0-17.164,8.866c-1.132,1.772,2.082,3.338,3.208,1.574a16.411,16.411,0,0,1,14.234-7.2,18.134,18.134,0,0,1,14.8,8.607c1.13,1.863,4.094.17,2.974-1.683A21.981,21.981,0,0,0,720.622,419.231Z" transform="translate(-591.847 -343.034)"/><rect class="u" width="0.744" height="4.217" transform="translate(25.803 141.038)"/><rect class="u" width="0.744" height="4.217" transform="translate(28.284 142.773) rotate(90)"/><path class="v" d="M739.541,62.216a.912.912,0,0,1-.508-1.1.436.436,0,0,0,.019-.1h0a.457.457,0,0,0-.822-.3h0a.44.44,0,0,0-.051.089.911.911,0,0,1-1.1.508.438.438,0,0,0-.1-.019h0a.457.457,0,0,0-.3.826h0a.439.439,0,0,0,.089.051.911.911,0,0,1,.508,1.1.439.439,0,0,0-.019.1h0a.457.457,0,0,0,.829.3h0a.437.437,0,0,0,.051-.089.911.911,0,0,1,1.1-.508.438.438,0,0,0,.1.019h0a.457.457,0,0,0,.3-.822h0a.436.436,0,0,0-.1-.051Z" transform="translate(-618.045 -60.54)"/><path class="q" d="M305.118,209.366a.911.911,0,0,1-.508-1.1.437.437,0,0,0,.019-.1h0a.457.457,0,0,0-.822-.3h0a.437.437,0,0,0-.051.089.911.911,0,0,1-1.1.508.437.437,0,0,0-.1-.019h0a.457.457,0,0,0-.3.822h0a.436.436,0,0,0,.089.051.911.911,0,0,1,.508,1.1.438.438,0,0,0-.019.1h0a.457.457,0,0,0,.822.3h0a.436.436,0,0,0,.051-.089.911.911,0,0,1,1.1-.508.438.438,0,0,0,.1.019h0a.457.457,0,0,0,.3-.822h0A.438.438,0,0,0,305.118,209.366Z" transform="translate(-275.918 -176.427)"/><path class="q" d="M922.9,816.626a.912.912,0,0,1-.508-1.1.437.437,0,0,0,.019-.1h0a.457.457,0,0,0-.822-.3h0a.437.437,0,0,0-.051.089.911.911,0,0,1-1.1.508.439.439,0,0,0-.1-.019h0a.457.457,0,0,0-.3.822h0a.441.441,0,0,0,.089.051.911.911,0,0,1,.508,1.1.44.44,0,0,0-.019.1h0a.457.457,0,0,0,.822.3h0a.44.44,0,0,0,.051-.089.911.911,0,0,1,1.1-.508.439.439,0,0,0,.1.019h0a.457.457,0,0,0,.3-.822h0A.439.439,0,0,0,922.9,816.626Z" transform="translate(-762.448 -654.672)"/><circle class="p" cx="1.489" cy="1.489" r="1.489" transform="translate(66.741 14.502)"/><circle class="p" cx="1.489" cy="1.489" r="1.489" transform="translate(173.427 33.108)"/><circle class="v" cx="1.489" cy="1.489" r="1.489" transform="translate(164.992 77.52)"/><circle class="w" cx="1.489" cy="1.489" r="1.489" transform="translate(0 4.576)"/></g></svg>