<svg xmlns="http://www.w3.org/2000/svg" xmlns:xlink="http://www.w3.org/1999/xlink" width="206.104" height="156.541" viewBox="0 0 206.104 156.541"><defs><style>.a,.w{fill:#77c6ea;}.a,.f{opacity:0.1;}.b{fill:#3a3768;}.c{fill:#d48a9b;}.d{opacity:0.05;}.e{fill:#efc6cd;}.g{fill:#fff;}.h{fill:#d3dae1;}.i{fill:url(#a);}.j{fill:#585b8a;}.k{opacity:0.2;}.l{fill:#636992;}.m{fill:#ffd6d6;}.n{fill:#dce6f2;}.o{fill:#565988;}.p{fill:#505484;}.q{fill:#575988;}.r{fill:#d28690;}.s{fill:#575989;}.t{fill:#353045;}.u{fill:#f0f3f7;}.v{fill:#663d5c;}.x{opacity:0.3;}.y{opacity:0.15;}.z{fill:#ffd037;}.aa{fill:#65617d;}.ab{fill:#9d9cb5;}.ac{fill:#4b4770;}.ad{fill:#d4dfec;}</style><linearGradient id="a" x1="0.5" y1="1" x2="0.5" gradientUnits="objectBoundingBox"><stop offset="0" stop-color="gray" stop-opacity="0.251"/><stop offset="0.54" stop-color="gray" stop-opacity="0.122"/><stop offset="1" stop-color="gray" stop-opacity="0.102"/></linearGradient></defs><g transform="translate(-0.324 0.039)"><path class="a" d="M313.757,86.422c-.036.168-.07.336-.11.5a54.062,54.062,0,0,1-6.278,16.285c-.1.168-.2.336-.3.5a46.8,46.8,0,0,1-7.078,8.934,21.457,21.457,0,0,1-5.084,3.9,28.783,28.783,0,0,1-9.049,2.476c-3.254.493-6.554.905-9.845,1.349q-1.754.232-3.487.493c-3.179.471-6.335,1.015-9.416,1.737a55.2,55.2,0,0,0-10.986,3.7q-.418.189-.826.4c-.272.136-.546.274-.815.414s-.533.28-.8.423c-.136.074-.272.147-.406.225s-.266.146-.4.221c-.393.219-.779.444-1.164.671l-.015.009c-.255.149-.506.3-.756.455-1.425.866-2.82,1.769-4.214,2.678l-.877.567-1.359.879c-.265.172-.535.344-.8.514-.189.125-.378.249-.584.378-.99.624-1.994,1.236-3.024,1.82-.244.14-.489.28-.737.416a41.89,41.89,0,0,1-6.505,2.933l-.03.011a29.674,29.674,0,0,1-3.455.975c-.675.147-1.351.268-2.035.361a21.822,21.822,0,0,1-5.519.077c-3.6-.418-6.981-1.8-10.583-2.268-7.416-.945-14.618,2.1-21.592,4.485q-2.572.879-5.182,1.646c-1.157.342-2.317.665-3.487.977a131.206,131.206,0,0,1-21.866,3.835,61.586,61.586,0,0,1-9.289.206,34.1,34.1,0,0,1-3.485-.378,22.182,22.182,0,0,1-10.5-4.2,20.513,20.513,0,0,1-5.45-6.993,30.515,30.515,0,0,1-2.818-8.418c-.072-.4-.136-.8-.189-1.2q-.142-1.028-.212-2.068a29.594,29.594,0,0,1,1.3-10.933c1.247-3.954,3.326-7.749,4.241-11.733q.057-.253.108-.5a17.468,17.468,0,0,0,.278-1.831c.467-4.895-1.323-9.667-2.727-14.454-.049-.166-.1-.335-.146-.5q-.227-.8-.435-1.593a33.218,33.218,0,0,1-.5-15.531c.036-.168.079-.336.121-.5a22.739,22.739,0,0,1,4.275-8.756,33.9,33.9,0,0,1,8.06-6.978q2.224-1.455,4.6-2.72,1.7-.907,3.485-1.718a68.633,68.633,0,0,1,31.166-6c.567.025,1.134.055,1.7.1s1.187.091,1.78.146a127.834,127.834,0,0,1,20.364,4.071c2.243.6,4.483,1.206,6.721,1.8,1,.265,1.99.529,2.986.786,4.878,1.261,9.828,2.4,14.84,3.254q1.741.3,3.485.548a99.827,99.827,0,0,0,12.188,1.034q2.379.047,4.761-.042,1.2-.043,2.406-.13c8.287-.584,16.3-2.538,24.319-4.364q1.741-.4,3.487-.782c1.527-.336,3.054-.661,4.589-.962a43.428,43.428,0,0,1,26.941,3.075,12.775,12.775,0,0,1,5.271,3.591,11.258,11.258,0,0,1,1.777,5.632c.327,2.786.54,5.607.622,8.444,0,.166,0,.335.011.5A75.8,75.8,0,0,1,313.757,86.422Z" transform="translate(-109.953 -41.343)"/><path class="a" d="M259.794,103.557h-.624v.5h.707Zm-7.074,0a.032.032,0,0,0,0,.013c-.017.138-.036.276-.055.416v.076h5.405v-.03l.378-.474Zm-14.486,0V87.271h6.218c-.066-.043-.134-.089-.2-.13l-.091-.059-.117-.072c-.068-.04-.136-.079-.208-.117s-.115-.064-.176-.1l-.042-.023h-5.381v-.9l-.146.057-.153.072h-.011l-.032.017-.1.051-.1.051c-.094.051-.189.108-.283.166l-.091.06-.189.121c-.244.163-.484.333-.731.491-.062.04-.125.079-.189.115-.134.079-.272.155-.414.223a1.577,1.577,0,0,1-.189.081l-.1.04-.094.032h0a4.426,4.426,0,0,1-.68.178v15.921h-9.323c0,.019.013.034.019.053.051.151.1.3.151.452h9.166v17.455h.142l.164.009.3.017.474.057.217.021.236.025h.036l.418.051.089.011.2.028.289.042h0l.694-.03h0l.094.017a.656.656,0,0,1,.117.019V104.061h14.428v-.076c.019-.14.038-.278.055-.416a.032.032,0,0,1,0-.013Zm21.56,0h-.624v.5h.707Zm-7.463,0c-.023.168-.043.336-.066.5h6.027l.41-.5Zm-14.1,0V87.271h6.218c-.066-.043-.134-.089-.2-.13l-.091-.059-.117-.072c-.068-.04-.136-.079-.208-.117s-.115-.064-.176-.1l-.042-.023h-5.381v-.9l-.146.057-.153.072h-.011l-.032.017-.1.051-.1.051c-.094.051-.189.108-.283.166l-.091.06-.189.121c-.244.163-.484.333-.731.491-.062.04-.125.079-.189.115-.134.079-.272.155-.414.223a1.578,1.578,0,0,1-.189.081l-.1.04-.094.032h0a4.427,4.427,0,0,1-.68.178v15.921h-9.323c0,.019.013.034.019.053.051.149.1.3.153.452h9.164v17.453h.142l.164.009.3.017.474.059.217.021.236.025h.036l.418.051.089.011.2.028.289.042h0l.694-.03h0l.094.017a.656.656,0,0,1,.117.019V104.061h14.05c.023-.168.043-.336.066-.5Zm47.161-33.912H324.6c0-.168,0-.336-.011-.5h-39.2V49.369q-1.746.378-3.487.782v18.99H239.264l-.108-.1.163-.144h0l15.862-14.254q-2.381.091-4.761.042l-12.188,10.95V53.659q-1.746-.248-3.485-.548V65.088l-17.82-16.017c-2.238-.6-4.477-1.21-6.72-1.8l24.234,21.779-.108.1H189.845V43.212q-.89-.083-1.78-.146c-.567-.042-1.134-.072-1.7-.1V69.141H155.191V48.97q-1.765.809-3.485,1.718V69.141H134.771c-.042.166-.085.335-.121.5h17.056V86.769H135.587c.047.168.1.336.146.5h15.973v16.285H138.182q-.051.251-.108.5h13.632v45.534c1.134.176,2.308.3,3.485.378V104.061h31.166v41.867c1.17-.312,2.33-.635,3.487-.977v-40.89h44.9V140.64a29.67,29.67,0,0,0,3.455-.975l.03-.011V104.061h43.674v17.157q1.739-.255,3.487-.489V104.061h31.055c.1-.168.2-.336.3-.5H285.395V87.271H323.03c.04-.166.074-.335.11-.5H285.395Zm-130.2,0h31.166V86.769H155.191Zm0,33.912V87.271h31.166v16.285Zm34.653-33.912h44.9V86.769h-44.9Zm0,33.912V87.271h44.9v16.285Zm92.063,0H238.234V87.271h43.674Zm0-16.788H238.234V70.1l.612-.459h43.062ZM252.72,103.557a.032.032,0,0,0,0,.013c-.017.138-.036.276-.055.416v.076h5.405v-.03l.378-.474Zm7.074,0h-.624v.5h.707Zm-21.56,0V87.271h6.218c-.066-.043-.134-.089-.2-.13l-.091-.059-.117-.072c-.068-.04-.136-.079-.208-.117s-.115-.064-.176-.1l-.042-.023h-5.381v-.9l-.146.057-.153.072h-.011l-.032.017-.1.051-.1.051c-.094.051-.189.108-.283.166l-.091.06-.189.121c-.244.163-.484.333-.731.491-.062.04-.125.079-.189.115-.134.079-.272.155-.414.223a1.577,1.577,0,0,1-.189.081l-.1.04-.094.032h0a4.426,4.426,0,0,1-.68.178v15.921h-9.323c0,.019.013.034.019.053.051.151.1.3.151.452h9.166v17.455h.142l.164.009.3.017.474.057.217.021.236.025h.036l.418.051.089.011.2.028.289.042h0l.694-.03h0l.094.017a.656.656,0,0,1,.117.019V104.061h14.428v-.076c.019-.14.038-.278.055-.416a.032.032,0,0,1,0-.013Z" transform="translate(-119.337 -41.69)"/><path class="a" d="M317.683,117.132h.27a.548.548,0,0,1-.331-.44h0c0-.348.52-.631,1.155-.631h8.081c.635,0,1.153.283,1.153.631h0c0,.346-.518.631-1.153.631h-.27a.542.542,0,0,1,.331.438c0,.3-.378.546-.883.612h2.326c.633,0,1.153.283,1.153.631s-.52.631-1.153.631H320.28c-.633,0-1.153-.285-1.153-.631,0-.3.378-.544.883-.612h-2.326c-.635,0-1.153-.283-1.153-.631S317.048,117.132,317.683,117.132Z" transform="translate(-266.843 -100.967)"/><path class="a" d="M781.123,148.9h.27a.548.548,0,0,1-.329-.44h0c0-.348.518-.631,1.153-.631H790.3c.635,0,1.155.283,1.155.631h0c0,.346-.52.629-1.155.629h-.268a.548.548,0,0,1,.329.44c0,.3-.378.546-.883.612H791.8c.635,0,1.153.283,1.153.631s-.518.631-1.153.631h-8.081c-.635,0-1.155-.285-1.155-.631,0-.3.378-.546.883-.612h-2.326c-.633,0-1.153-.283-1.153-.631S780.49,148.9,781.123,148.9Z" transform="translate(-642.697 -126.732)"/><path class="a" d="M252.045,284.862h.268a.546.546,0,0,1-.329-.44h0c0-.346.52-.631,1.153-.631h8.083c.633,0,1.153.285,1.153.631h0c0,.348-.52.631-1.153.631h-.27a.54.54,0,0,1,.329.438c0,.3-.378.546-.883.612h2.326c.635,0,1.155.285,1.155.631s-.52.631-1.155.631h-8.074c-.635,0-1.153-.284-1.153-.631,0-.295.378-.544.883-.612h-2.334c-.635,0-1.155-.284-1.155-.631S251.417,284.862,252.045,284.862Z" transform="translate(-213.608 -236.997)"/><ellipse class="a" cx="12.277" cy="40.401" rx="12.277" ry="40.401" transform="translate(108.979 111.062) rotate(-78.45)"/><path class="b" d="M828.56,379.246s2.149-10.548,10.353-9.57c0,0,5.67.389,6.836,4.1v8.2Z" transform="translate(-682.104 -306.599)"/><path class="c" d="M658.434,379.567l-73.058-6.057L576,375.464l.586,13.088.639.077.728,19.653,71.69,12.891,7.62-6.447v-21.3l.975-.573Z" transform="translate(-467.049 -303.012)"/><path class="d" d="M977.486,405.56l-.2,13.282-7.911,3.712-.1-13.87Z" transform="translate(-786.003 -329.005)"/><path class="d" d="M973.7,478.94l.1,20.9-7.618,6.447.489-24.223Z" transform="translate(-783.489 -388.517)"/><path class="d" d="M582.765,454.8l72.966,8.9.038-1.69L582.71,454.13Z" transform="translate(-472.491 -368.396)"/><path class="d" d="M974.959,479.707v-.767l-7.229,3.19v1.693Z" transform="translate(-784.746 -388.517)"/><path class="e" d="M575.48,375.464l9.376-1.954,73.058,6.057-8.2,3.124Z" transform="translate(-466.628 -303.012)"/><path class="f" d="M947.383,407.55l3.585.234-5.942,1.778L942,409.345Z" transform="translate(-763.879 -330.619)"/><path class="g" d="M947.383,406.72l3.585.234-5.942,1.78L942,408.515Z" transform="translate(-763.879 -329.946)"/><path class="h" d="M1022.32,444.486c.142-.06.291.055.442.083.087.017.176,0,.263.017.176.023.35.14.518.081" transform="translate(-839.245 -367.309)"/><path class="h" d="M1021.34,445.055c.14-.06.291.053.442.083.087.015.176,0,.263.015.176.025.35.142.518.083" transform="translate(-838.45 -367.77)"/><path class="h" d="M1019.08,446.195c.142-.06.293.053.444.081.085.017.176,0,.261.017.178.025.352.142.518.081" transform="translate(-836.618 -368.695)"/><path class="f" d="M865.382,398.21l3.585.236-5.942,1.778L860,400.005Z" transform="translate(-697.376 -323.044)"/><path class="g" d="M865.382,397.39l3.585.234-5.942,1.778L860,399.185Z" transform="translate(-697.376 -322.379)"/><path class="h" d="M940.32,435.155c.142-.06.291.053.442.083.087.015.176,0,.263.015.176.025.35.142.518.083" transform="translate(-772.742 -359.741)"/><path class="h" d="M939.34,435.725c.14-.06.291.053.442.081.087.017.176,0,.263.017.176.025.35.142.518.081" transform="translate(-771.948 -360.204)"/><path class="h" d="M937.08,436.856c.142-.06.293.055.444.083.085.017.176,0,.261.017.178.023.352.142.518.081" transform="translate(-770.115 -361.121)"/><path class="f" d="M904.712,402.88l3.587.234-5.942,1.78-3.028-.219Z" transform="translate(-729.273 -326.831)"/><path class="g" d="M904.712,402.06l3.587.234-5.942,1.778-3.028-.219Z" transform="translate(-729.273 -326.166)"/><path class="h" d="M979.65,439.825c.142-.06.293.053.444.081.085.017.174,0,.261.017.176.023.351.142.518.081" transform="translate(-804.64 -363.529)"/><path class="h" d="M978.67,440.386c.142-.06.293.055.444.083.085.017.174,0,.261.017.176.023.351.142.518.081" transform="translate(-803.845 -363.984)"/><path class="h" d="M976.42,441.525c.14-.06.291.053.442.083.087.015.176,0,.263.015.176.025.35.142.518.083" transform="translate(-802.02 -364.907)"/><ellipse class="a" cx="38.267" cy="7.877" rx="38.267" ry="7.877" transform="translate(56.003 133.717)"/><path class="i" d="M460.713,267.281a25.637,25.637,0,0,0-2.024-7.01l.123-1.21s.026-.6-.013-1.512a6.879,6.879,0,0,1,.221-1.678,3.456,3.456,0,0,0-.5-2.457c-.083-.119.042-2.419-.7-3.547s-5.7-3.226-5.7-3.226-.266-.558-.643-1.21l.034-.066a7.1,7.1,0,0,0-1.134-1.529c-.3-.325-.6-.51-.833-.42a6.8,6.8,0,0,1-.219-.958c.049.013.1.026.149.036a1.542,1.542,0,0,0,.624.015,1.853,1.853,0,0,0,1.024-.907,14.461,14.461,0,0,0,2.61-6.386,4.059,4.059,0,0,0-.066-1.41,4.756,4.756,0,0,0-.442-1.03,8.279,8.279,0,0,0-1.247-1.839,7.106,7.106,0,0,0-3.351-1.835,11.6,11.6,0,0,0-4.328-.323c-.378.043-.756.106-1.134.13a11.78,11.78,0,0,1-1.438-.025l-2.474-.144-.011-.038-.412-.025a1.043,1.043,0,0,0,.2,1.009,1.723,1.723,0,0,1,.418.975,1.994,1.994,0,0,1-.478.945.909.909,0,0,0-.153.988.564.564,0,0,0,.1.11,1.246,1.246,0,0,0,.909.242h.057a6.156,6.156,0,0,0-1.253,3.727,6.267,6.267,0,0,0,3.419,5.553c.036.123.072.249.106.378a11.577,11.577,0,0,1,.4,4.086l-.043.094-.026-.1s-2.914,1.977-3.78,2.5a5.461,5.461,0,0,0-1.777,2.782c-.042.484-1.406,7.781-1.406,7.781a17.878,17.878,0,0,0-.684,2.253l-1.741,1.529a26.762,26.762,0,0,1-4.63.081l.03.2a15.705,15.705,0,0,0-2.789-.378,2.958,2.958,0,0,0-1.512.2l-.036.017-.028.013a5.991,5.991,0,0,0-1.588.446c-.06.025-.115.049-.168.074l.011-.248-3.886-.2-1.984-.4s-.7-.567-1.117-.484-1.281-.484-1.281-.484a3.466,3.466,0,0,0-.639-.4c-.066-.457-.108-.735-.108-.735s-1.544-6.127-2.7-9.729a8.292,8.292,0,0,0-2.548-4.107c-.293-.51-.486-.839-.486-.839a3.754,3.754,0,0,0-1-1.463c-.028-.045-.049-.068-.06-.068a.221.221,0,0,0-.112.017,12.022,12.022,0,0,1-.017-5.413,5.974,5.974,0,0,0,2.181-4.6q0-.04,0-.079v-.081a5.947,5.947,0,0,0-1.4-3.836l-.064-.072a.5.5,0,0,0,.049-.04,1.013,1.013,0,0,0,.357-.975,6.681,6.681,0,0,0-.514-.992,6.426,6.426,0,0,1-.21-.809,2.494,2.494,0,0,0-.6-1.038l.028.076a3.591,3.591,0,0,0-3.162-1.062c-.852.136-1.646.533-2.5.656-.614.087-1.24.03-1.858.093a4.821,4.821,0,0,0-1.648.476.945.945,0,0,0-.35.257,1.383,1.383,0,0,0-.174.486,6.417,6.417,0,0,1-1.357,1.95,4.564,4.564,0,0,0-.915,2.521,1.974,1.974,0,0,0,.066.69c.042.134.106.261.136.4a2.723,2.723,0,0,1-.229,1.242,2.417,2.417,0,0,0,.134,1.576c.747,1.671,3.2,2.228,3.708,3.982a4.877,4.877,0,0,0,1.227.378c.034.174.064.35.089.527a.142.142,0,0,0-.032.019,3.759,3.759,0,0,0-.826,1.89l-.079.064c-.27.223-1.194.971-2.03,1.548-.992.686-2.646,2.984-3.8,3.67s-2.109,4.914-1.86,6.45,1.281,5.845.867,7.418.62,8.748.62,8.748a10.566,10.566,0,0,1,2.026.6l-.021.314-.062.945s-1.873,6.773-1.157,11.988-.331,5.751-.331,5.751.219,2.311-.331,3.118a6.709,6.709,0,0,0-.661,2.58s-.055,3.978.055,5.1.164,3.173-.221,3.657a14,14,0,0,0-1.047,4.621c.055.968-1.378,3.173-.607,6.021s-2.268,2.9-2.268,2.9.387,4.347,1.213,5.59l.121.178c-.021.072-.042.147-.064.229-.312,1.134-.739,2.924-.442,3.356.44.646.661.537.661.537l.164,2.9s3.307,2.8,5.844,2.689,2.039-2.689,2.039-2.689l-2.16-5.6-.074-.189,2.4-4.536s.661-1.988.826-2.687,1.062-3.177,1.062-3.177,2.268-5.375,2.315-6.021.221-4.137.661-4.838a44.769,44.769,0,0,0,1.654-4.725l.03.026a1.593,1.593,0,0,1,.412,1.586,12.67,12.67,0,0,0-.112,3.116,21.2,21.2,0,0,1-.331,2.689A57.481,57.481,0,0,0,404,317.356a28.761,28.761,0,0,1,.283,5.082c-.259,1.068-.486,2.395-.064,2.551a26.665,26.665,0,0,0,4.356.215s1.542-.539,3.638,1.344,8.542-.537,8.542-.537,1.984-.539-1.93-2.1a33.286,33.286,0,0,1-5.647-2.585c.026-.051.055-.1.079-.157,0,0-1.6-1.512-.276-4.192a11.673,11.673,0,0,0,1.268-4.946l.221-9.032-.661-11.99-.512-12.583.091-.03c.087,2.313.539,7.82,2.9,6.753,2.977-1.344.44-4.838.44-4.838l-1.336-2.6.4-.136-1.495-4.831a10.9,10.9,0,0,1-.057-2.848,11.291,11.291,0,0,0-.034-1.663,29.815,29.815,0,0,1,4.169-.622c.4.1,2.618.115,3.491.119-.285.223-.514.444-.514.444l3.555,2.393s1.206-.66,1.457-1.359a1.569,1.569,0,0,0,.665-.355c.038.826.257,1.72,1.021,1.741a1.323,1.323,0,0,0,.556-.11l5.813-1.151-.5,3.116.348.618c-.176,2.629-.378,5.42-.556,7.875l-.081.537.042.009c-.276,3.78-.5,6.643-.5,6.643a3.483,3.483,0,0,1,1.45-1.457l.038,5.609s.291,8.869.291,10.079.04,3.91.04,3.91.622,3.305.992,4.394a48.479,48.479,0,0,1,.661,6.048s.869,1.37.5,1.89,1.448,1.652,1.448,1.652a7.1,7.1,0,0,0-1.242,2.621c-.009.121.11.249.325.378-.068.055-.138.11-.215.163a3.776,3.776,0,0,1-2.506.507c-3.226-.283-5.5,2.7-3.515,3.305s7.938.726,7.938.726,1.8-1.125,3.213-.618c-.021,1.183.038,2.268.047,2.411l-.017.013a13.109,13.109,0,0,1-4.033,2.587c-2.268.765-2.771,3.871.164,4.273a26.821,26.821,0,0,0,7.235-.484,13.336,13.336,0,0,1,3.927-2.015c1.7-.363,3.143-1.17,2.854-2.137-.189-.618-.675-2.238-1-3.326q-.028-.1-.057-.189c.051-.113.1-.231.149-.352,0,0-.867-4.515-.164-5.643s.331-12.419.331-12.419-1.2-2.861-.578-4.594-.992-4.194-.992-4.194a76.622,76.622,0,0,1,.648-7.679l.062-.34a15.487,15.487,0,0,0,2.306-.89s.414-6.21.661-7.62c.025-.132.059-.346.1-.624l.189-1h0l.223-1.134h0l.756-3.865,1.365-1.765,3.515-3.591A11.364,11.364,0,0,0,460.713,267.281ZM406.5,245.107l-.026.019a.324.324,0,0,1-.009-.042A.17.17,0,0,0,406.5,245.107Zm34.731,4.4-.136.3.5-.5-.675.756.227-.476Zm-3.356,6.936c-.13.346-.27.72-.416,1.109l.266-.8Z" transform="translate(-324.538 -190.193)"/><path class="j" d="M595.622,441.479s-.463,3.082.926,3.122,2.317-2.378,2.317-2.378l-.567-1.933Z" transform="translate(-493.129 -363.92)"/><path class="k" d="M595.622,441.479s-.463,3.082.926,3.122,2.317-2.378,2.317-2.378l-.567-1.933Z" transform="translate(-493.129 -363.92)"/><path class="l" d="M402.992,754.893c-2.472.108-5.7-2.686-5.7-2.686l-.161-2.9s-.214.108-.644-.537c-.289-.433.127-2.226.431-3.355.147-.552.268-.945.268-.945l5.424,1.451.259.686,2.105,5.6S405.462,754.785,402.992,754.893Z" transform="translate(-331.613 -610.613)"/><path class="l" d="M493.087,729.671s-6.284,2.417-8.316.537-3.545-1.344-3.545-1.344a25.327,25.327,0,0,1-4.245-.215c-.412-.157-.189-1.5.068-2.57.174-.739.363-1.349.363-1.349s6.176-2.1,7.144-.807a4.633,4.633,0,0,0,1.03.983,29.978,29.978,0,0,0,5.632,2.67C495.021,729.132,493.087,729.671,493.087,729.671Z" transform="translate(-396.786 -593.608)"/><path class="m" d="M526.657,496.35l1.718,3.438s2.472,3.493-.429,4.834-2.846-7.733-2.846-7.733Z" transform="translate(-435.995 -409.385)"/><path class="n" d="M495.25,338.61s1.88.86,3.009,4.458,2.633,9.724,2.633,9.724,1.021,6.928.858,8.648a11.15,11.15,0,0,0,.055,2.846l1.45,4.834-2.9,1.021-4.458-17.081Z" transform="translate(-411.787 -281.457)"/><path class="d" d="M495.25,338.61s1.88.86,3.009,4.458,2.633,9.724,2.633,9.724,1.021,6.928.858,8.648a11.15,11.15,0,0,0,.055,2.846l1.45,4.834-2.9,1.021-4.458-17.081Z" transform="translate(-411.787 -281.457)"/><path class="f" d="M404.858,745.94l.259.686-.318.607c-1.236.537-4.3.108-4.3.108s-.567-.72-1.342-1.905c.147-.552.268-.945.268-.945Z" transform="translate(-333.857 -610.629)"/><path class="f" d="M486.98,725.158c-1.567,3.549-6.892,2.232-8.372,1.788-.244-.074-.378-.123-.378-.123s.009-.289.013-.745c.174-.739.363-1.349.363-1.349s6.176-2.1,7.144-.807a4.632,4.632,0,0,0,1.03.983A1.825,1.825,0,0,0,486.98,725.158Z" transform="translate(-397.983 -593.608)"/><path class="o" d="M417.279,507.6c-1.289,2.684.27,4.19.27,4.19-1.567,3.547-6.892,2.232-8.372,1.786-.244-.072-.378-.121-.378-.121a32.723,32.723,0,0,0-.268-5.481,58.848,58.848,0,0,1-.108-10.151,21.616,21.616,0,0,0,.321-2.687,13.1,13.1,0,0,1,.108-3.115,1.608,1.608,0,0,0-.4-1.584l-.028-.028a44.724,44.724,0,0,1-1.612,4.725c-.431.7-.59,4.19-.644,4.834s-2.257,6.017-2.257,6.017-.858,2.47-1.019,3.168-.807,2.687-.807,2.687l-2.589,5c-1.236.537-4.3.108-4.3.108s-.59-.756-1.4-1.988-1.181-5.585-1.181-5.585,2.954-.055,2.2-2.9.644-5.05.592-6.017a14.3,14.3,0,0,1,1.021-4.619c.376-.484.321-2.525.214-3.653s-.053-5.1-.053-5.1a6.823,6.823,0,0,1,.644-2.578c.537-.805.323-3.116.323-3.116s1.019-.537.321-5.747,1.134-11.978,1.134-11.978l.062-.945.1-1.531s15.363-.968,16.6.214a4.075,4.075,0,0,1,.784,1.124,11.189,11.189,0,0,1,.888,2.859l.644,16.276.644,11.978-.215,9.024A12,12,0,0,1,417.279,507.6Z" transform="translate(-328.553 -380.567)"/><path class="f" d="M479.819,538.42l-1.612,34.914-1.935,3.183c-.244-.072-.378-.121-.378-.121a32.72,32.72,0,0,0-.268-5.481,58.848,58.848,0,0,1-.108-10.151,21.61,21.61,0,0,0,.321-2.687,13.1,13.1,0,0,1,.108-3.115,1.608,1.608,0,0,0-.4-1.584l.026-.189Z" transform="translate(-395.646 -443.504)"/><path class="f" d="M406.686,731.5s4.19-1.665,4.834-1.134-4.94,1.342-4.94,1.342Z" transform="translate(-339.874 -599.086)"/><path class="f" d="M499.872,713.5c-.161.055-4.243,1.512-3.867,3.062S499.872,713.5,499.872,713.5Z" transform="translate(-412.379 -585.496)"/><path class="m" d="M449.07,284.507s1.368,3.3.644,5,7.815,4.592,7.815,4.592-2.5-6.446-.079-10.073S449.07,284.507,449.07,284.507Z" transform="translate(-374.334 -235.973)"/><path class="p" d="M658.406,771.005a12.894,12.894,0,0,0-3.827,2.015,25.5,25.5,0,0,1-7.051.484c-2.861-.4-2.376-3.506-.161-4.271a12.861,12.861,0,0,0,3.933-2.583c.363-.334.578-.567.578-.567l8.019-1.612s.13.448.312,1.066c.321,1.09.8,2.708.977,3.324C661.468,769.837,660.058,770.642,658.406,771.005Z" transform="translate(-533.675 -626.833)"/><path class="p" d="M631.17,740.089s-3.385.363-4.795-.442-3.424.484-3.424.484-5.8-.121-7.735-.726.282-3.591,3.424-3.3a3.61,3.61,0,0,0,2.444-.506,2.574,2.574,0,0,0,1.064-1.6l6.8.4.945,2.411Z" transform="translate(-508.493 -602.122)"/><path class="f" d="M658.287,737.914s-7.907-1.293-8.917-2.319a2.574,2.574,0,0,0,1.064-1.6l6.8.4.945,2.411Z" transform="translate(-536.779 -602.122)"/><path class="q" d="M634.52,513.083l.081,11.8s.282,8.864.282,10.073.04,3.906.04,3.906.6,3.3.968,4.392a49.321,49.321,0,0,1,.644,6.048s.847,1.37.484,1.89,1.41,1.652,1.41,1.652a7.059,7.059,0,0,0-1.208,2.619c-.074,1.047,9.022,2.534,9.022,2.534L642.7,521.664l-2.822-9.1Z" transform="translate(-524.736 -422.532)"/><path class="f" d="M634.52,513.083l.081,11.8s.282,8.864.282,10.073.04,3.906.04,3.906.6,3.3.968,4.392a49.321,49.321,0,0,1,.644,6.048s.847,1.37.484,1.89,1.41,1.652,1.41,1.652a7.059,7.059,0,0,0-1.208,2.619c-.074,1.047,9.022,2.534,9.022,2.534L642.7,521.664l-2.822-9.1Z" transform="translate(-524.736 -422.532)"/><path class="f" d="M684.919,765.545c-2.633,6.276-8.894,1.433-8.894,1.433s0-.121-.015-.329c.363-.334.578-.567.578-.567l8.019-1.612S684.738,764.927,684.919,765.545Z" transform="translate(-558.385 -626.833)"/><path class="q" d="M658.433,555.024c-2.58,6.615-8.985,1.652-8.985,1.652a23.145,23.145,0,0,1,.2-4.995c.4-1.57-.444-6.286-.444-6.286a33.874,33.874,0,0,0-.926-5.156,9.188,9.188,0,0,1-.4-3.062,5.845,5.845,0,0,0-.2-2.338,15.738,15.738,0,0,1-.567-3.062,32.306,32.306,0,0,0-.363-4.874l-1.249-6.237L643.24,507.9l.7-.121,12.63-2.215s2.377,12.1,1.57,13.335a5.2,5.2,0,0,0-.454,1.635c-.461,2.744-.633,7.671-.633,7.671s1.571,2.457.968,4.19.567,4.592.567,4.592.363,11.281-.323,12.409S658.433,555.024,658.433,555.024Z" transform="translate(-531.808 -416.855)"/><path class="r" d="M676.858,296.429s-11.442,8.057-8.864,4.027c1.389-2.17,1.134-4.933.59-7.019a16.561,16.561,0,0,0-1.134-3.079s9.722-4.135,8.433-.429a6.944,6.944,0,0,0-.378,2.691A7.182,7.182,0,0,0,676.858,296.429Z" transform="translate(-551.442 -240.725)"/><path class="r" d="M582.83,425.872s-4.834-1.4-5.639-.026.242,4.377,1.7,4.861,4.808-1.639,4.808-1.639Z" transform="translate(-478.014 -351.717)"/><path class="j" d="M607.77,416l-2.015,1.854a25.488,25.488,0,0,1-4.513.079s.928,6.2-.4,6.97l8.138-1.652Z" transform="translate(-497.421 -344.221)"/><path class="f" d="M607.77,416l-2.015,1.854a25.488,25.488,0,0,1-4.513.079s.928,6.2-.4,6.97l8.138-1.652Z" transform="translate(-497.421 -344.221)"/><path class="f" d="M448.725,248.112a6.048,6.048,0,0,1-6.048,6.048c-3.1-1.491-6.048-2.7-6.048-6.048a6.048,6.048,0,1,1,12.086,0Z" transform="translate(-364.241 -202.963)"/><path class="m" d="M448.839,248.341a6.036,6.036,0,1,1-1.368-3.823A6.036,6.036,0,0,1,448.839,248.341Z" transform="translate(-364.355 -203.355)"/><path class="f" d="M444.3,462.557a13.665,13.665,0,0,1-1.873.971s-3.062-.444-3.5.079-4.347.726-4.347.726-5.963-.282-6.849-1.047a3.629,3.629,0,0,0-.905-.537l.1-1.531s15.363-.968,16.6.214A4.074,4.074,0,0,1,444.3,462.557Z" transform="translate(-356.289 -380.591)"/><path class="n" d="M430.264,337.7c-.121.684-2.619,1.731-2.619,1.731s-3.062-.442-3.5.081-4.347.726-4.347.726-5.963-.284-6.849-1.049a7.689,7.689,0,0,0-2.861-1.134s-1.007-7.17-.6-8.741-.6-5.883-.847-7.414.684-5.76,1.812-6.445,2.74-2.982,3.706-3.666c.815-.576,1.714-1.323,1.977-1.548l.078-.064a3.814,3.814,0,0,1,.807-1.89c.644-.641,6.566,4.069,6.566,4.069s.042.363.444-.321c.091-.153.871.973,1.007,1.45,0,0,3.222,5.641,3.424,6.8s1.047,4.955,1.208,5.881c.042.238.11,1.073.189,2.192.015.219.028.452.045.694.119,1.856.248,4.226.325,6.017,0,.2.017.4.023.59A20.065,20.065,0,0,1,430.264,337.7Z" transform="translate(-341.509 -256.813)"/><path class="f" d="M415,387.21s2.215,2.7,2.941,2.7S415,387.21,415,387.21Z" transform="translate(-346.703 -320.872)"/><path class="f" d="M426.012,417.91s-3.627,3.948-3.143,4.674S426.012,417.91,426.012,417.91Z" transform="translate(-353.049 -345.77)"/><path class="f" d="M425.62,433.2s4.158-4.553,4.347-6.123Z" transform="translate(-355.316 -353.207)"/><path class="f" d="M453.33,439.995s4.795-2.538,5.2-4.553S453.33,439.995,453.33,439.995Z" transform="translate(-377.789 -359.677)"/><path class="f" d="M482.665,329.325l-.665,1.61,1.107.523L484.2,334.5s3,6,2.88,9.124a55.308,55.308,0,0,0,.544,7.815l1.731-.321-.816-9.183a13.246,13.246,0,0,0-1.055-4.122c-1.383-3.168-3.957-9.015-4.12-9.015-.221,0-.066.081-.066.081Z" transform="translate(-401.041 -273.501)"/><path class="s" d="M483.515,328.474l-.665,1.612,1.109.524,1.087,3.043s3,6,2.88,9.124a55.306,55.306,0,0,0,.544,7.815l1.733-.321-.818-9.183a13.194,13.194,0,0,0-1.053-4.122c-1.383-3.169-3.957-9.015-4.118-9.015-.223,0-.068.081-.068.081Z" transform="translate(-401.73 -272.811)"/><path class="m" d="M572.979,431.931a15.1,15.1,0,0,1-3.668-1.512l-.34-.189.042-3.12a5.474,5.474,0,0,1,.616-.312c1.073-.469,3.275-1.106,4.379.945C575.5,430.493,574.046,432,572.979,431.931Z" transform="translate(-471.574 -352.592)"/><path class="f" d="M447.331,244.431a.9.9,0,0,1-.282.115c-.7.153-1.5-.45-2.1-.062a1.522,1.522,0,0,0-.5,1.166q-.128,1.134-.257,2.253a2.781,2.781,0,0,1-.166.777,1.949,1.949,0,0,1-1.854.987,1.106,1.106,0,0,1-.8-.265c-.13-.132-.2-.318-.344-.438-.945-.792-1.232,1.149-.983,1.7.4.9,1.824,1.771,1.227,2.916a1.093,1.093,0,0,1-.438.44,6.048,6.048,0,1,1,6.5-9.589Z" transform="translate(-364.215 -203.268)"/><path class="t" d="M432.521,237.229c.142.119.214.3.344.437a1.108,1.108,0,0,0,.8.265,1.939,1.939,0,0,0,1.852-.988,2.693,2.693,0,0,0,.168-.775l.257-2.253a1.515,1.515,0,0,1,.5-1.166c.6-.378,1.4.215,2.1.062a1.026,1.026,0,0,0,.756-1.183,6.659,6.659,0,0,0-.5-.99,6.469,6.469,0,0,1-.206-.807,3.2,3.2,0,0,0-3.61-2.045c-.832.138-1.6.535-2.438.656-.6.087-1.208.03-1.811.094a4.569,4.569,0,0,0-1.606.474.934.934,0,0,0-.34.257,1.419,1.419,0,0,0-.17.484,6.461,6.461,0,0,1-1.323,1.95,4.647,4.647,0,0,0-.9,2.515,2.017,2.017,0,0,0,.064.69c.04.132.1.261.132.4a2.765,2.765,0,0,1-.223,1.24,2.479,2.479,0,0,0,.132,1.576c.726,1.669,3.116,2.226,3.613,3.978a3.969,3.969,0,0,0,1.406.378,1.356,1.356,0,0,0,1.24-.633c.6-1.134-.826-2.015-1.227-2.914C431.287,238.375,431.568,236.436,432.521,237.229Z" transform="translate(-355.868 -191.542)"/><path class="f" d="M675.925,289.929a6.944,6.944,0,0,0-.378,2.691c-.291.248-.609-.493-.945-.3-.922.533-1.988,1.8-3.13,1.8a6.269,6.269,0,0,1-2.848-.682,16.566,16.566,0,0,0-1.134-3.079S677.214,286.223,675.925,289.929Z" transform="translate(-551.475 -240.725)"/><path class="r" d="M667.832,256.786a6.286,6.286,0,1,1-6.286-6.286A6.286,6.286,0,0,1,667.832,256.786Z" transform="translate(-541.556 -209.999)"/><path class="u" d="M653.736,323.115s-1.183,1.289-1.344,1.395-3.591,14.552-3.651,14.72-4.084,13.212-4.084,13.212l-6.446,3.169.539-15.955,4.725-13.158s1.559-1.773,2.041-2.417,6.5-4.513,6.5-4.513l1.028,2.119Z" transform="translate(-527.728 -266.015)"/><path class="f" d="M683.531,323.4l-7.412,5.307L676,325.791c.484-.644,6.5-4.511,6.5-4.511Z" transform="translate(-558.377 -267.402)"/><path class="u" d="M684.4,321.689,676.985,327l-.115-2.912c.484-.646,6.5-4.513,6.5-4.513Z" transform="translate(-559.082 -266.015)"/><path class="j" d="M636.38,336.59l.248,1.3-1.657,1.684,1.323-2.961s-2.835,1.975-3.685,2.5a5.381,5.381,0,0,0-1.733,2.78c-.032.484-1.37,7.775-1.37,7.775s-1.007,2.7-.724,3.464-1.531,24.9-1.531,24.9a3.591,3.591,0,0,1,2.423-1.858l-.646-14.261s.786-9.487.826-9.608l1.833-5.621Z" transform="translate(-518.84 -279.818)"/><path class="f" d="M640.643,344.3l-.129,2.646a64.7,64.7,0,0,1-2.4,6.586,66.121,66.121,0,0,0-2.438,6.446l-1.034,9.589-1.773.807L632,368.767l1.451-9.261s2.738-7.815,3.143-8.622l2.02-4.256Z" transform="translate(-522.692 -286.071)"/><path class="v" d="M639.758,343.45l-.127,2.646a64.315,64.315,0,0,1-2.4,6.586,65.55,65.55,0,0,0-2.436,6.446l-1.028,9.588-1.773.805-.886-1.61,1.451-9.261s2.738-7.817,3.141-8.622l2.035-4.25Z" transform="translate(-521.97 -285.382)"/><path class="r" d="M566.31,446.539l3.464,2.4s2.444-1.37,1.021-2.257a6.31,6.31,0,0,0-3.143-1.021C567.195,445.66,566.31,446.539,566.31,446.539Z" transform="translate(-469.417 -368.275)"/><path class="r" d="M578.921,425.482a.533.533,0,0,0-.251.456c0,.735.083,2.682.7,1.8.756-1.075.618-2.041,1.773-1.344a6.8,6.8,0,0,1,1.852,1.7l-.321-2.309S580.3,424.617,578.921,425.482Z" transform="translate(-479.441 -351.652)"/><path class="f" d="M660.762,518.855a5.2,5.2,0,0,0-.454,1.635,13.656,13.656,0,0,1-12.233-2.361,61.649,61.649,0,0,1-1.531-6.445,21,21,0,0,1,.019-3.95l12.63-2.215S661.569,517.606,660.762,518.855Z" transform="translate(-534.421 -416.822)"/><path class="j" d="M667.968,331.764a12.521,12.521,0,0,0-.2,3.183l-2.9,13.7s-1.41,10.555-1.652,11.965-.644,7.614-.644,7.614a13.646,13.646,0,0,1-14.552-1.45,61.77,61.77,0,0,1-1.531-6.446c-.4-2.393.786-11.978,1.349-16.236.168-1.261.282-2.054.282-2.054l2.115-7.856s2.6-6.628,3.566-8.561,4.853-6.276,4.853-6.276c.482-.306,1.253.775,1.826,1.76.433.745.756,1.436.756,1.436s4.834,2.094,5.558,3.213.6,3.424.686,3.545A3.55,3.55,0,0,1,667.968,331.764Z" transform="translate(-534.375 -265.788)"/><path class="f" d="M663.433,327.579s.363,2.136-.567,2.78c-.9.624-7.58,13.764-8,14.584.168-1.262.282-2.056.282-2.056l2.115-7.854s2.6-6.628,3.566-8.563,4.855-6.276,4.855-6.276c.482-.306,1.251.775,1.824,1.759C666.648,323.746,664.847,327.137,663.433,327.579Z" transform="translate(-541.24 -266.477)"/><path class="j" d="M662.567,326.729s.361,2.136-.567,2.78-7.579,13.762-8,14.582c.168-1.261.282-2.054.282-2.054l2.115-7.856s2.6-6.628,3.566-8.561,4.853-6.276,4.853-6.276c.482-.306,1.253.775,1.826,1.76C665.782,322.894,663.979,326.287,662.567,326.729Z" transform="translate(-540.534 -265.788)"/><path class="w" d="M598.272,409.316,596,421.145v0l-.217,1.132v0l-.49,2.546-2.088-.442-.973-.206-13.469-2.854-.99-.21-2.26-.478.442-2.937.183-1.221,1.631-10.829Z" transform="translate(-466.652 -329.078)"/><path class="r" d="M664.855,511.92s-5.358,1.933-4.19,4.23,8.661-1.773,8.661-1.773Z" transform="translate(-545.805 -422.013)"/><path class="f" d="M703.8,599.1c0,.161.2,2.217,1.007,2.941S703.8,599.1,703.8,599.1Z" transform="translate(-580.923 -492.716)"/><path class="f" d="M675.24,637.68s.966,2.659,4.793,3.748S675.24,637.68,675.24,637.68Z" transform="translate(-557.76 -524.005)"/><path class="f" d="M673.079,256.856a6.284,6.284,0,0,1-3.15,5.449,3.344,3.344,0,0,1-.945-.788,1.221,1.221,0,0,1-.323-1.183c.132-.319.482-.522.567-.852a1.254,1.254,0,0,0-.03-.609c-.07-.312-.136-.624-.2-.934-.059-.265-.163-.576-.425-.641s-.482.155-.688.317a2.157,2.157,0,0,1-2.079.342c-.607-.327-.437-1.421-.535-2.013a.351.351,0,0,0-.132-.266.552.552,0,0,0-.274-.019.789.789,0,0,1-.684-.607,5.223,5.223,0,0,1-.11-.973,1.086,1.086,0,0,0-.435-.841,1.344,1.344,0,0,0-.716-.117l-1.185.013a6.286,6.286,0,0,1,11.339,3.727Z" transform="translate(-546.803 -210.069)"/><path class="v" d="M663.337,250.343c.206-.163.433-.378.688-.316s.365.378.423.639l.2.932a1.266,1.266,0,0,1,.032.61c-.1.333-.444.533-.578.852a1.221,1.221,0,0,0,.323,1.181,3.4,3.4,0,0,0,1.945,1.162,1.429,1.429,0,0,0,.607.013,1.8,1.8,0,0,0,1-.905,14.661,14.661,0,0,0,2.544-6.382,4.094,4.094,0,0,0-.064-1.408,4.724,4.724,0,0,0-.431-1.03,8.313,8.313,0,0,0-1.215-1.839,6.9,6.9,0,0,0-3.266-1.831,11.059,11.059,0,0,0-4.216-.331c-.378.043-.741.106-1.113.13a11.2,11.2,0,0,1-1.4-.023l-2.782-.166a1.081,1.081,0,0,0,.189,1.009,1.811,1.811,0,0,1,.408.975,2.007,2.007,0,0,1-.467.945.93.93,0,0,0-.149.988,1.057,1.057,0,0,0,.945.31l1.4-.015a1.34,1.34,0,0,1,.713.123,1.089,1.089,0,0,1,.435.841,5.555,5.555,0,0,0,.11.973.786.786,0,0,0,.684.607.51.51,0,0,1,.274.021.348.348,0,0,1,.132.265c.1.592-.083,1.684.535,2.013A2.176,2.176,0,0,0,663.337,250.343Z" transform="translate(-542.093 -202.796)"/><path class="f" d="M686.344,353.4a3.081,3.081,0,0,0-3.241,2.069c-.756,2.153-2.017,6.036-1.7,7.571.444,2.175.968,5.8.968,5.8s2.3,1.323,1.134,2.657a7.526,7.526,0,0,0-1.491,3.224,3.351,3.351,0,0,0-1.812,2.015c-.321,1.37-2.5,3.262-2.5,3.262l-3.262,3.264s5.4,5.481,6.486,5.76l3.343-3.908,3.948-5.237,3.424-3.591a11.79,11.79,0,0,0,.4-5.481,26.232,26.232,0,0,0-1.975-7.01l.121-1.21S690.561,353.919,686.344,353.4Z" transform="translate(-557.111 -293.434)"/><path class="j" d="M688.053,353.4a3.081,3.081,0,0,0-3.237,2.069c-.756,2.153-2.016,6.036-1.7,7.571.442,2.175.966,5.8.966,5.8s2.3,1.323,1.134,2.657a7.511,7.511,0,0,0-1.489,3.224,3.357,3.357,0,0,0-1.814,2.015c-.323,1.37-2.5,3.262-2.5,3.262l-3.264,3.264s5.4,5.481,6.486,5.76l3.343-3.908,3.939-5.237,3.424-3.591a11.759,11.759,0,0,0,.4-5.481,26.344,26.344,0,0,0-1.973-7.01l.121-1.21S692.269,353.921,688.053,353.4Z" transform="translate(-558.498 -293.435)"/><path class="f" d="M721.28,418.34s3.425,4.188,4.876,3.262S721.28,418.34,721.28,418.34Z" transform="translate(-595.099 -346.118)"/><path class="f" d="M728.1,401.28c.363.121,3.345,4.271,4.876,3.78S728.1,401.28,728.1,401.28Z" transform="translate(-600.63 -332.283)"/><path class="f" d="M732.58,439a2.243,2.243,0,0,0,2.659,2.054C737.7,440.731,732.58,439,732.58,439Z" transform="translate(-604.263 -362.874)"/><path class="f" d="M615.319,301.83l-1.329,2.961,1.659-1.684Z" transform="translate(-497.86 -244.879)"/><path class="u" d="M615.319,300.98l-1.329,2.961,1.659-1.684Z" transform="translate(-497.86 -244.19)"/><path class="x" d="M580.658,467.8l-.99-.21-1.818-3.415.183-1.221Z" transform="translate(-468.55 -375.549)"/><path class="x" d="M667.748,487.65l-.217,1.132v0l-2.578,2.1-.973-.206Z" transform="translate(-538.402 -395.581)"/><path class="f" d="M439.67,364.778c-.5.083-.983.159-1.425.215-2.457.323-8.3-2.578-8.3-2.578s-7.131-5.963-9.185-11.6,2.457-6.486,2.457-6.486c1.7-.968,5.4,1.731,5.923,2.175a3.364,3.364,0,0,1,.926,2.3c-.042.726,1.21,1.652,1.21,1.652a35.874,35.874,0,0,0,2.659,4.109,2.1,2.1,0,0,1,.805,1.451c.161.686,1.571,1.249,2.175,1.208s1.323.2,1.323.524c0,.259.592.387,1.077.429C439.458,360.237,439.6,362.943,439.67,364.778Z" transform="translate(-350.939 -285.925)"/><path class="f" d="M441.034,361.423c-.378.06-.741.115-1.081.161-2.457.323-8.3-2.578-8.3-2.578s-7.131-5.963-9.185-11.6,2.457-6.486,2.457-6.486c1.7-.968,5.4,1.731,5.921,2.175a3.374,3.374,0,0,1,.928,2.3c-.04.726,1.208,1.652,1.208,1.652a35.879,35.879,0,0,0,2.659,4.109,2.111,2.111,0,0,1,.807,1.451c.163.686,1.571,1.247,2.175,1.208s1.323.2,1.323.523c0,.189.336.316.711.378.015.219.028.452.045.694C440.828,357.262,440.956,359.632,441.034,361.423Z" transform="translate(-352.326 -283.16)"/><path class="f" d="M569.628,428.84l-.153,3.621h-.164l-.34-.189.042-3.12A5.484,5.484,0,0,1,569.628,428.84Z" transform="translate(-471.574 -354.634)"/><path class="n" d="M423.216,342.62s-4.511.847-2.457,6.486,9.185,11.6,9.185,11.6,5.842,2.9,8.3,2.578,6.2-1.168,6.686-1.047,3.748.121,3.748.121l.161-3.78-3.78-.2-1.933-.4s-.686-.567-1.089-.484-1.247-.484-1.247-.484a2.408,2.408,0,0,0-1.134-.523c-.488,0-1.41-.121-1.41-.442s-.726-.567-1.323-.524-2.024-.523-2.19-1.217a2.1,2.1,0,0,0-.805-1.45,35.876,35.876,0,0,1-2.659-4.111s-1.249-.926-1.21-1.65a3.381,3.381,0,0,0-.926-2.3C428.61,344.351,424.906,341.655,423.216,342.62Z" transform="translate(-350.939 -284.541)"/><path class="f" d="M491.611,412.15s-1.733,1.733-1.291,2.054Z" transform="translate(-407.73 -341.098)"/><path class="f" d="M499.73,419.4s-2.257,1.733-1.652,1.854S499.73,419.4,499.73,419.4Z" transform="translate(-413.997 -346.978)"/><path class="f" d="M487,433c.323.163,5.116,3.024,6.93,2.982Z" transform="translate(-405.096 -358.008)"/><path class="f" d="M456.75,314.088s-.847,2.78-1.17,2.78c-.253,0-4.506-3.443-6.28-4.891l.077-.064a3.8,3.8,0,0,1,.805-1.89C450.827,309.382,456.75,314.088,456.75,314.088Z" transform="translate(-374.521 -258.224)"/><path class="n" d="M455.89,312.378s-.845,2.78-1.168,2.78c-.255,0-4.507-3.443-6.282-4.891l.077-.064a3.814,3.814,0,0,1,.807-1.89C449.969,307.672,455.89,312.378,455.89,312.378Z" transform="translate(-373.823 -256.837)"/><g class="y" transform="translate(70.657 37.23)"><path d="M427.49,282.54h0c.567,1.295,2.128,1.922,3.033,2.954C429.985,284.226,428.41,283.6,427.49,282.54Z" transform="translate(-427.49 -273.213)"/><path d="M447.4,293.632a1.358,1.358,0,0,1-1.24.633,3.618,3.618,0,0,1-1.244-.318,2.416,2.416,0,0,1,.321.684,3.95,3.95,0,0,0,1.406.378,1.345,1.345,0,0,0,1.24-.633c.361-.69-.015-1.279-.455-1.837A1.2,1.2,0,0,1,447.4,293.632Z" transform="translate(-441.626 -281.323)"/><path d="M459.451,236.027a6.479,6.479,0,0,0-.5-.99,6.179,6.179,0,0,1-.206-.809,2.506,2.506,0,0,0-.58-1.038,2.4,2.4,0,0,1,.1.285,6.5,6.5,0,0,0,.212.813,6.478,6.478,0,0,1,.5.99,1.026,1.026,0,0,1-.756,1.183c-.7.153-1.5-.452-2.1-.062a1.51,1.51,0,0,0-.5,1.164q-.127,1.134-.257,2.255a2.7,2.7,0,0,1-.166.775,1.947,1.947,0,0,1-1.854.988,1.113,1.113,0,0,1-.8-.265,5.273,5.273,0,0,0-.346-.438c-.945-.794-1.232,1.147-.983,1.7a3.427,3.427,0,0,0,.461.694c-.208-.624.083-2.419,1.005-1.65a4.876,4.876,0,0,1,.344.438,1.121,1.121,0,0,0,.8.265,1.947,1.947,0,0,0,1.854-.988,2.7,2.7,0,0,0,.166-.777q.129-1.134.257-2.253a1.515,1.515,0,0,1,.5-1.164c.6-.389,1.4.215,2.1.06A1.024,1.024,0,0,0,459.451,236.027Z" transform="translate(-446.66 -233.19)"/></g><path class="f" d="M667.193,254.815a1.461,1.461,0,0,1-.607-.015,3.4,3.4,0,0,1-1.943-1.16,1.217,1.217,0,0,1-.323-1.183c.132-.319.48-.52.567-.852a1.267,1.267,0,0,0-.032-.61l-.2-.932c-.059-.265-.161-.576-.423-.639s-.482.153-.688.316a2.153,2.153,0,0,1-2.079.342c-.6-.329-.437-1.421-.535-2.013a.353.353,0,0,0-.132-.265.539.539,0,0,0-.276-.021.791.791,0,0,1-.684-.607,5.366,5.366,0,0,1-.108-.973,1.09,1.09,0,0,0-.437-.841,1.358,1.358,0,0,0-.712-.123l-1.4.015c-.346,0-.756-.023-.945-.31a.941.941,0,0,1,.149-.988,1.957,1.957,0,0,0,.467-.945,1.778,1.778,0,0,0-.408-.975,1.749,1.749,0,0,1-.238-.541l-.4-.025a1.088,1.088,0,0,0,.189,1.009,1.8,1.8,0,0,1,.408.973,2.007,2.007,0,0,1-.467.945.925.925,0,0,0-.147.988,1.056,1.056,0,0,0,.945.312l1.4-.017a1.357,1.357,0,0,1,.713.125,1.085,1.085,0,0,1,.437.841,5.218,5.218,0,0,0,.11.973.782.782,0,0,0,.684.6.554.554,0,0,1,.274.021.355.355,0,0,1,.132.266c.1.59-.083,1.684.535,2.013a2.144,2.144,0,0,0,2.079-.342c.206-.163.435-.378.69-.317s.365.378.421.639l.206.934a1.265,1.265,0,0,1,.03.61c-.094.331-.444.533-.576.85a1.22,1.22,0,0,0,.323,1.183,3.4,3.4,0,0,0,1.956,1.16,1.461,1.461,0,0,0,.607.015,1.425,1.425,0,0,0,.786-.6A1.05,1.05,0,0,1,667.193,254.815Z" transform="translate(-541.902 -202.675)"/><ellipse class="a" cx="4.568" cy="0.701" rx="4.568" ry="0.701" transform="translate(34.02 134.203)"/><ellipse class="a" cx="4.568" cy="0.701" rx="4.568" ry="0.701" transform="translate(193.513 115.973)"/><ellipse class="a" cx="13.229" cy="2.03" rx="13.229" ry="2.03" transform="translate(138.282 142.898)"/><ellipse class="a" cx="10.319" cy="1.584" rx="10.319" ry="1.584" transform="translate(178.8 134.745)"/><ellipse class="a" cx="17.499" cy="2.686" rx="17.499" ry="2.686" transform="translate(169.921 149.424)"/><ellipse class="a" cx="13.229" cy="2.03" rx="13.229" ry="2.03" transform="translate(5.807 152.442)"/><path class="w" d="M252.779,631.85s.518.677-.238,1.7-1.38,1.89-1.134,2.521c0,0,1.134-1.89,2.079-1.924S253.8,632.991,252.779,631.85Z" transform="translate(-213.983 -519.277)"/><path class="f" d="M252.923,631.85a.756.756,0,0,1,.106.212c.907,1.066,1.389,2.058.518,2.079-.811.023-1.784,1.474-2.017,1.841a.707.707,0,0,0,.026.083s1.134-1.89,2.079-1.924S253.945,632.991,252.923,631.85Z" transform="translate(-214.127 -519.277)"/><path class="z" d="M263.481,635.753c0,.238-.028.431-.06.431s-.06-.189-.06-.431.034-.125.066-.125S263.481,635.515,263.481,635.753Z" transform="translate(-223.722 -522.318)"/><path class="z" d="M263.992,637.214c-.208.113-.391.189-.406.153s.14-.144.35-.259.127-.03.142,0S264.2,637.1,263.992,637.214Z" transform="translate(-223.904 -523.494)"/><path class="w" d="M239.456,631.85s-.518.677.238,1.7,1.382,1.89,1.134,2.521c0,0-1.134-1.89-2.069-1.924S238.428,632.991,239.456,631.85Z" transform="translate(-203.393 -519.277)"/><path class="f" d="M239.438,631.85a.835.835,0,0,0-.106.212c-.907,1.066-1.389,2.058-.518,2.079.811.023,1.784,1.474,2.018,1.841a.73.73,0,0,1-.028.083s-1.134-1.89-2.069-1.924S238.41,632.991,239.438,631.85Z" transform="translate(-203.375 -519.277)"/><path class="z" d="M239.35,635.753c0,.238.026.431.059.431s.06-.189.06-.431-.034-.125-.066-.125S239.35,635.515,239.35,635.753Z" transform="translate(-204.249 -522.318)"/><path class="z" d="M237.055,637.214c.21.113.391.189.408.153s-.142-.144-.352-.259-.127-.03-.142,0S236.845,637.1,237.055,637.214Z" transform="translate(-202.285 -523.494)"/><ellipse class="a" cx="5.411" cy="0.83" rx="5.411" ry="0.83" transform="translate(32.018 120.31)"/><path class="aa" d="M242.5,648l-.026.212-.036.3-.015.125-.036.3-.017.125-.036.3-.414,3.4c-.036.3-.531.539-1.134.539h-2.143c-.6,0-1.092-.236-1.134-.539l-.414-3.4-.036-.3-.015-.125-.038-.3-.015-.125-.036-.3-.026-.212c-.021-.172.248-.316.586-.316h4.4C242.249,647.68,242.517,647.824,242.5,648Z" transform="translate(-202.282 -532.115)"/><path class="ab" d="M188.479,614.76l-.036.3H183l-.036-.3Z" transform="translate(-148.29 -498.668)"/><path class="ab" d="M188.646,617l-.036.3h-5.343l-.038-.3Z" transform="translate(-148.509 -500.485)"/><path class="ab" d="M188.823,619.24l-.038.3h-5.239l-.036-.3Z" transform="translate(-148.736 -502.301)"/><path class="w" d="M1082.4,618s-.646,3.009,2.228,3.364l.178-.334S1082.581,618.934,1082.4,618Z" transform="translate(-887.923 -508.045)"/><path class="w" d="M1089.526,614.493l-.669.142-.066.015a6.038,6.038,0,0,1-1.761-4.679,7.981,7.981,0,0,0,.852,1.348A8.053,8.053,0,0,1,1089.526,614.493Z" transform="translate(-891.725 -501.532)"/><path class="w" d="M1094.615,610.026a.42.42,0,0,1-.359.047c-1.716-.4-1.134-5.993-1.134-5.993.094.043.189.756.593,1.674C1094.405,607.367,1095.167,609.621,1094.615,610.026Z" transform="translate(-896.589 -496.755)"/><path class="w" d="M1108.943,618s.111,3.009-2.763,3.364l-.18-.34S1108.765,618.934,1108.943,618Z" transform="translate(-907.111 -508.045)"/><path class="w" d="M1104.209,610a5.564,5.564,0,0,1-2.294,4.679l-.068-.015-.667-.142a8.151,8.151,0,0,1,1.642-3.175A7.275,7.275,0,0,1,1104.209,610Z" transform="translate(-903.201 -501.556)"/><path class="w" d="M1100.084,609.743a1.044,1.044,0,0,1-.378.293h0a.739.739,0,0,1-.142.047c-.422.1-.567-.206-.544-.724a13.4,13.4,0,0,1,1.134-3.714,4.641,4.641,0,0,1,1.077-1.555S1101.205,608.442,1100.084,609.743Z" transform="translate(-901.448 -496.763)"/><path class="w" d="M1098.1,593.7s-1.916,6.8-.266,7.82S1098.525,594.3,1098.1,593.7Z" transform="translate(-899.945 -488.337)"/><path class="f" d="M1082.4,618s-.646,3.009,2.228,3.364l.178-.334S1082.581,618.934,1082.4,618Z" transform="translate(-887.923 -508.045)"/><path class="f" d="M1089.526,614.493l-.669.142-.066.015a6.038,6.038,0,0,1-1.761-4.679,7.981,7.981,0,0,0,.852,1.348A8.053,8.053,0,0,1,1089.526,614.493Z" transform="translate(-891.725 -501.532)"/><path class="f" d="M1094.615,610.026a.42.42,0,0,1-.359.047c-1.716-.4-1.134-5.993-1.134-5.993.094.043.189.756.593,1.674C1094.405,607.367,1095.167,609.621,1094.615,610.026Z" transform="translate(-896.589 -496.755)"/><path class="f" d="M1108.943,618s.111,3.009-2.763,3.364l-.18-.34S1108.765,618.934,1108.943,618Z" transform="translate(-907.111 -508.045)"/><path class="f" d="M1104.209,610a5.564,5.564,0,0,1-2.294,4.679l-.068-.015-.667-.142a8.151,8.151,0,0,1,1.642-3.175A7.275,7.275,0,0,1,1104.209,610Z" transform="translate(-903.201 -501.556)"/><path class="f" d="M1100.084,609.743a1.044,1.044,0,0,1-.378.293h0a.739.739,0,0,1-.142.047c-.422.1-.567-.206-.544-.724a13.4,13.4,0,0,1,1.134-3.714,4.641,4.641,0,0,1,1.077-1.555S1101.205,608.442,1100.084,609.743Z" transform="translate(-901.448 -496.763)"/><path class="f" d="M1098.1,593.7s-1.916,6.8-.266,7.82S1098.525,594.3,1098.1,593.7Z" transform="translate(-899.945 -488.337)"/><path class="w" d="M1082.6,618s-.378,3.009,2.495,3.364l.178-.334S1082.777,618.934,1082.6,618Z" transform="translate(-888.119 -508.045)"/><path class="w" d="M1089.768,614.517l-.669.142-.066.015A5.746,5.746,0,0,1,1087,610s.525.567,1.119,1.348A7.941,7.941,0,0,1,1089.768,614.517Z" transform="translate(-891.701 -501.556)"/><path class="f" d="M1094.594,620.275l-.669.142c-.633-.556-.885-2.007-.975-3.317A8.058,8.058,0,0,1,1094.594,620.275Z" transform="translate(-896.527 -507.315)"/><path class="w" d="M1095.187,610.026a.423.423,0,0,1-.361.047c-1.716-.4-1.4-5.993-1.4-5.993a7.761,7.761,0,0,1,.86,1.674C1094.977,607.367,1095.737,609.621,1095.187,610.026Z" transform="translate(-896.893 -496.755)"/><path class="w" d="M1110.1,618s.378,3.009-2.495,3.364l-.178-.334S1109.925,618.934,1110.1,618Z" transform="translate(-908.27 -508.045)"/><path class="w" d="M1105.353,610a5.737,5.737,0,0,1-2.028,4.679l-.066-.015-.669-.142a8.132,8.132,0,0,1,1.644-3.175C1104.828,610.567,1105.353,610,1105.353,610Z" transform="translate(-904.345 -501.556)"/><path class="f" d="M1104.234,617.1a6.182,6.182,0,0,1-.852,3.192.96.96,0,0,1-.123.125l-.669-.142A8.032,8.032,0,0,1,1104.234,617.1Z" transform="translate(-904.345 -507.315)"/><path class="w" d="M1101.5,609.743a1.022,1.022,0,0,1-.378.293h0a.756.756,0,0,1-.14.047c-.423.1-.567-.206-.546-.724a13.526,13.526,0,0,1,1.134-3.714,7.264,7.264,0,0,1,.811-1.555S1102.616,608.442,1101.5,609.743Z" transform="translate(-902.593 -496.763)"/><path class="f" d="M1098.537,617.211a.452.452,0,0,1-.272-.087c-.807-.5-.824-2.389-.631-4.184C1098.328,614.552,1099.087,616.807,1098.537,617.211Z" transform="translate(-900.243 -503.941)"/><path class="f" d="M1101.5,616.417c-.093.2-.217.308-.378.293h0a.508.508,0,0,1-.229-.087,1.221,1.221,0,0,1-.457-.59,13.522,13.522,0,0,1,1.134-3.714A10.542,10.542,0,0,1,1101.5,616.417Z" transform="translate(-902.601 -503.438)"/><path class="w" d="M1098.977,593.7s-1.648,6.8,0,7.82S1099.4,594.3,1098.977,593.7Z" transform="translate(-900.821 -488.337)"/><path class="ac" d="M1035.3,597.61h-6.862v1.136h1.047l.026.134.42,2.206h3.99l.42-2.206.025-.134h.936Z" transform="translate(-833.982 -484.759)"/><path class="f" d="M1035.3,597.61h-6.862v1.136h1.047l.026.134.42,2.206h3.99l.42-2.206.025-.134h.936Z" transform="translate(-833.982 -484.759)"/><path class="ac" d="M1039.979,601.14l-.115.6-.42,2.206h-3.99l-.42-2.206-.115-.6Z" transform="translate(-839.238 -487.622)"/><path class="f" d="M1039.979,601.14l-.115.6h-4.829l-.115-.6Z" transform="translate(-839.238 -487.622)"/><rect class="ac" width="6.862" height="1.136" transform="translate(194.724 112.851)"/><path class="w" d="M142.894,730.125a3.3,3.3,0,0,0-.431.813c-.026.07-.053.151-.079.229a.829.829,0,0,0-.149-.053,2.081,2.081,0,0,0-.675-.057c0-.089.011-.189.013-.278.028-1-.089-2.383-1.039-1.8-.911.567-.261,1.512.327,2.117.051.053.1.1.151.149-.537.378-.639,1.272-.728,2.2a5.128,5.128,0,0,1-1.4,2.519c-.053.059-.1.112-.147.161a1.918,1.918,0,0,0-1.521-.391c-.021-.081-.045-.166-.07-.255-.423-1.529-1.3-4.177-2.423-4.757l.147-.189c.476-.622,1.013-1.548.221-1.784s-.864.8-.82,1.58q.011.147.023.278a1.158,1.158,0,0,0-.828.4l-.123-.146c-.643-.756-1.82-1.96-2.177-1.051-.333.847.7,1.947,1.434,2.583l.045.04c-.489,1.986,1.648,3.606,2.8,4.315l.149.091a17.362,17.362,0,0,0-2.568,5.379l4.445.794s2.948-2.544,2.57-4.933h.03c2.946-.59,3.615-3.731,3.156-5.6l.053-.021a3.336,3.336,0,0,0,1.365-1.032A1.1,1.1,0,0,0,142.894,730.125Z" transform="translate(-116.459 -597.839)"/><path class="f" d="M142.894,730.125a3.3,3.3,0,0,0-.431.813c-.026.07-.053.151-.079.229a.829.829,0,0,0-.149-.053,2.081,2.081,0,0,0-.675-.057c0-.089.011-.189.013-.278.028-1-.089-2.383-1.039-1.8-.911.567-.261,1.512.327,2.117.051.053.1.1.151.149-.537.378-.639,1.272-.728,2.2a5.128,5.128,0,0,1-1.4,2.519c-.053.059-.1.112-.147.161a1.918,1.918,0,0,0-1.521-.391c-.021-.081-.045-.166-.07-.255-.423-1.529-1.3-4.177-2.423-4.757l.147-.189c.476-.622,1.013-1.548.221-1.784s-.864.8-.82,1.58q.011.147.023.278a1.158,1.158,0,0,0-.828.4l-.123-.146c-.643-.756-1.82-1.96-2.177-1.051-.333.847.7,1.947,1.434,2.583l.045.04c-.489,1.986,1.648,3.606,2.8,4.315l.149.091a17.362,17.362,0,0,0-2.568,5.379l4.445.794s2.948-2.544,2.57-4.933h.03c2.946-.59,3.615-3.731,3.156-5.6l.053-.021a3.336,3.336,0,0,0,1.365-1.032A1.1,1.1,0,0,0,142.894,730.125Z" transform="translate(-116.459 -597.839)"/><path class="w" d="M135.214,734.747l-.52,1.512s-.289-.2-.654-.525c-.73-.637-1.767-1.737-1.434-2.583.357-.909,1.535.291,2.177,1.051C135.042,734.5,135.214,734.747,135.214,734.747Z" transform="translate(-117.627 -601.168)"/><path class="w" d="M149.869,730.551a7.2,7.2,0,0,1-.506.6,7.979,7.979,0,0,1-.093-.8c-.043-.779.04-1.812.82-1.58S150.346,729.929,149.869,730.551Z" transform="translate(-131.186 -597.851)"/><path class="w" d="M181.6,731.311c-.015.5-.064.9-.064.9a6.6,6.6,0,0,1-.648-.58c-.588-.61-1.238-1.552-.327-2.117C181.5,728.926,181.616,730.315,181.6,731.311Z" transform="translate(-156.201 -598.37)"/><path class="w" d="M193.754,735.617a3.336,3.336,0,0,1-1.365,1.032,4.1,4.1,0,0,1-.457.166l-.612-.86a6.079,6.079,0,0,1,.253-.835,3.294,3.294,0,0,1,.431-.813A1.094,1.094,0,0,1,193.754,735.617Z" transform="translate(-165.296 -602.021)"/><path class="f" d="M141.213,740.11c.259.3.431.537.431.537l-.52,1.512s-.289-.2-.654-.525a2.966,2.966,0,0,1,.586-1.336C141.107,740.235,141.162,740.17,141.213,740.11Z" transform="translate(-124.057 -607.077)"/><path class="f" d="M149.909,737.474a7.191,7.191,0,0,1-.507.6,7.979,7.979,0,0,1-.093-.8A1.045,1.045,0,0,1,149.909,737.474Z" transform="translate(-131.226 -604.774)"/><path class="w" d="M145.164,744.684l-1.293.567s-.282-.136-.688-.389c-1.359-.835-4.09-2.939-2.268-5.418s3.358,1.967,3.969,4.143C145.067,744.247,145.164,744.684,145.164,744.684Z" transform="translate(-123.925 -605.943)"/><path class="f" d="M184.18,739.941a1.062,1.062,0,0,1,.712-.321c-.015.5-.064.9-.064.9A6.6,6.6,0,0,1,184.18,739.941Z" transform="translate(-159.506 -606.68)"/><path class="f" d="M192.41,741.989a4.108,4.108,0,0,1-.457.166l-.612-.86a6.082,6.082,0,0,1,.253-.835A2.23,2.23,0,0,1,192.41,741.989Z" transform="translate(-165.313 -607.361)"/><path class="w" d="M168.847,748.068c-.07.015-.144.028-.217.04-4.334.658-1.429-1.68-1.429-1.68s.189-.189.459-.474a5.118,5.118,0,0,0,1.4-2.519c.136-1.4.293-2.721,1.95-2.336C172.638,741.48,172.95,747.246,168.847,748.068Z" transform="translate(-144.963 -607.823)"/><rect class="ad" width="8.28" height="2.177" transform="translate(15.523 151.034)"/><rect class="ad" width="10.818" height="7.597" transform="translate(14.208 143.959)"/><rect class="f" width="8.28" height="2.177" transform="translate(15.523 151.034)"/><rect class="f" width="10.818" height="7.597" transform="translate(14.208 143.959)"/><rect class="ad" width="8.28" height="2.177" transform="translate(16.068 151.034)"/><path class="f" d="M157.221,764.51c.189.65.28,1.1.28,1.1l-1.293.567s-.282-.136-.688-.389A3.319,3.319,0,0,1,157.221,764.51Z" transform="translate(-136.262 -626.866)"/><path class="f" d="M168.847,769.195c-.07.015-.144.028-.217.04-4.334.658-1.429-1.68-1.429-1.68s.189-.189.459-.474A2.869,2.869,0,0,1,168.847,769.195Z" transform="translate(-144.963 -628.95)"/><path class="w" d="M142.72,772.2s2.427-8.694,5.83-6.012-1.385,6.8-1.385,6.8Z" transform="translate(-125.881 -627.808)"/><circle class="f" cx="0.272" cy="0.272" r="0.272" transform="translate(17.791 134.59)"/><circle class="f" cx="0.272" cy="0.272" r="0.272" transform="translate(17.768 135.86)"/><circle class="f" cx="0.272" cy="0.272" r="0.272" transform="translate(25.663 134.84)"/><circle class="f" cx="0.272" cy="0.272" r="0.272" transform="translate(19.312 141.351)"/><circle class="f" cx="0.272" cy="0.272" r="0.272" transform="translate(25.096 136.949)"/><circle class="f" cx="0.272" cy="0.272" r="0.272" transform="translate(22.283 139.763)"/><circle class="f" cx="0.272" cy="0.272" r="0.272" transform="translate(18.721 135.135)"/><circle class="f" cx="0.272" cy="0.272" r="0.272" transform="translate(24.914 135.656)"/><circle class="f" cx="0.272" cy="0.272" r="0.272" transform="translate(23.984 137.765)"/><circle class="f" cx="0.272" cy="0.272" r="0.272" transform="translate(21.127 141.146)"/><circle class="f" cx="0.272" cy="0.272" r="0.272" transform="translate(20.537 139.808)"/><circle class="f" cx="0.272" cy="0.272" r="0.272" transform="translate(19.129 136.79)"/><rect class="f" width="8.28" height="0.796" transform="translate(16.068 151.034)"/><rect class="ad" width="10.818" height="7.597" transform="translate(14.752 143.959)"/><circle class="f" cx="0.272" cy="0.272" r="0.272" transform="translate(21.49 142.371)"/><circle class="f" cx="0.272" cy="0.272" r="0.272" transform="translate(19.857 142.711)"/><circle class="a" cx="1.977" cy="1.977" r="1.977" transform="translate(7.565 7.759)"/><circle class="a" cx="2.646" cy="2.646" r="2.646" transform="translate(196.75 69.285)"/><circle class="a" cx="1.931" cy="1.931" r="1.931" transform="translate(202.565 64.329)"/><circle class="a" cx="2.5" cy="2.5" r="2.5" transform="translate(10.324 -0.039)"/><circle class="a" cx="2.5" cy="2.5" r="2.5" transform="translate(0.324 11.961)"/></g></svg>