<svg xmlns="http://www.w3.org/2000/svg" xmlns:xlink="http://www.w3.org/1999/xlink" width="142.612" height="156.008" viewBox="0 0 142.612 156.008"><defs><style>.a{fill:url(#a);}.b{fill:#fcfcfc;}.c{fill:#e0e0e0;}.d,.f{fill:#77c6ea;}.d,.e,.i{opacity:0.5;}.e{fill:#69f0ae;}.g{fill:url(#b);}.h{fill:#f5f5f5;}.j{fill:url(#c);}.k{fill:#3ad29f;}.l{fill:#fff;}.m{fill:#3ecc9d;}</style><linearGradient id="a" x1="0.5" y1="1" x2="0.5" gradientUnits="objectBoundingBox"><stop offset="0" stop-color="#b3b3b3" stop-opacity="0.251"/><stop offset="0.54" stop-color="#b3b3b3" stop-opacity="0.102"/><stop offset="1" stop-color="#b3b3b3" stop-opacity="0.051"/></linearGradient><linearGradient id="b" x1="0.5" x2="0.5" y2="0" xlink:href="#a"/><linearGradient id="c" x1="0.5" y1="1" x2="0.5" gradientUnits="objectBoundingBox"><stop offset="0" stop-color="gray" stop-opacity="0.251"/><stop offset="0.54" stop-color="gray" stop-opacity="0.122"/><stop offset="1" stop-color="gray" stop-opacity="0.102"/></linearGradient></defs><path class="a" d="M317.1,177.771c0-10.14,10.012-19.488,20.152-19.488,1.553,0,3.06-.392,4.506-.031.02-.443.031-3.044.031-3.491V51.81H254.022L236,70.322v119.79h82.864C317.081,187.284,317.1,181.364,317.1,177.771Z" transform="translate(-236 -51.81)"/><path class="b" d="M322.353,392.97a22.92,22.92,0,0,1,22.92-22.92c.692,0,1.371.033,2.053.092V317H244.48v84H323.8A22.869,22.869,0,0,1,322.353,392.97Z" transform="translate(-242.819 -265.05)"/><path class="b" d="M109.987,57.156H6.91V22.935L23.579,5.5h86.408Z" transform="translate(-5.556 -4.423)"/><rect class="c" width="27.96" height="2.133" transform="translate(70.05 11.478)"/><rect class="c" width="27.96" height="2.133" transform="translate(70.05 19.313)"/><rect class="c" width="27.96" height="2.133" transform="translate(70.05 27.149)"/><rect class="d" width="27.96" height="2.133" transform="translate(70.05 34.985)"/><rect class="c" width="27.96" height="2.133" transform="translate(70.05 42.821)"/><rect class="c" width="27.96" height="2.133" transform="translate(70.05 50.657)"/><rect class="d" width="27.96" height="2.133" transform="translate(16.596 67.308)"/><rect class="c" width="27.96" height="2.133" transform="translate(16.596 75.837)"/><rect class="e" width="72.983" height="2.133" transform="translate(16.596 71.573)"/><rect class="d" width="27.96" height="2.133" transform="translate(16.596 87.922)"/><rect class="c" width="27.96" height="2.133" transform="translate(16.596 96.453)"/><rect class="c" width="72.983" height="2.133" transform="translate(16.596 92.187)"/><rect class="d" width="27.96" height="2.133" transform="translate(16.596 108.538)"/><rect class="c" width="27.96" height="2.133" transform="translate(16.596 117.067)"/><rect class="c" width="59.829" height="2.133" transform="translate(16.596 112.803)"/><path class="f" d="M100.933,89.623H50V45.155L51.763,43h49.17Z" transform="translate(-40.205 -34.576)"/><path class="g" d="M4.91,21.718H22.362V3.5Z" transform="translate(-3.948 -2.814)"/><path class="h" d="M6.91,22.935H23.579V5.5Z" transform="translate(-5.556 -4.423)"/><g class="i" transform="translate(103.382 116.778)"><circle class="j" cx="19.615" cy="19.615" r="19.615"/></g><circle class="k" cx="18.359" cy="18.359" r="18.359" transform="translate(104.638 118.033)"/><path class="a" d="M422.1,222.771c0-10.14,10.012-19.488,20.152-19.488,1.553,0,3.06-.392,4.506-.031.02-.443.031-3.044.031-3.491V96.81H359.022L341,115.322v119.79h82.864C422.081,232.284,422.1,226.364,422.1,222.771Z" transform="translate(-320.431 -87.995)"/><path class="l" d="M427.353,437.97a22.92,22.92,0,0,1,22.92-22.92c.691,0,1.371.033,2.053.092V362H349.48v84H428.8A22.869,22.869,0,0,1,427.353,437.97Z" transform="translate(-327.25 -301.235)"/><path class="l" d="M214.987,102.156H111.91V67.935L128.579,50.5h86.408Z" transform="translate(-89.987 -40.607)"/><rect class="c" width="27.96" height="2.133" transform="translate(90.62 20.293)"/><rect class="c" width="27.96" height="2.133" transform="translate(90.62 28.129)"/><rect class="c" width="27.96" height="2.133" transform="translate(90.62 35.965)"/><rect class="d" width="27.96" height="2.133" transform="translate(90.62 43.8)"/><rect class="c" width="27.96" height="2.133" transform="translate(90.62 51.636)"/><rect class="c" width="27.96" height="2.133" transform="translate(90.62 59.472)"/><rect class="d" width="27.96" height="2.133" transform="translate(37.165 76.123)"/><rect class="c" width="27.96" height="2.133" transform="translate(37.165 84.653)"/><rect class="e" width="72.983" height="2.133" transform="translate(37.165 80.388)"/><rect class="d" width="27.96" height="2.133" transform="translate(37.165 96.737)"/><rect class="c" width="27.96" height="2.133" transform="translate(37.165 105.269)"/><rect class="c" width="72.983" height="2.133" transform="translate(37.165 101.002)"/><rect class="d" width="27.96" height="2.133" transform="translate(37.165 117.354)"/><rect class="c" width="27.96" height="2.133" transform="translate(37.165 125.883)"/><rect class="c" width="59.829" height="2.133" transform="translate(37.165 121.618)"/><path class="f" d="M205.933,134.623H155V90.155L156.763,88h49.17Z" transform="translate(-124.636 -70.761)"/><path class="g" d="M109.91,66.718h17.452V48.5Z" transform="translate(-88.379 -38.999)"/><path class="b" d="M111.91,67.935h16.669V50.5Z" transform="translate(-89.987 -40.607)"/><path class="m" d="M380.864,482.059l5.336,4.891,7.559-11.116,2.668,2.223L386.2,491.4l-7.559-8.448Z" transform="translate(-265.351 -347.261)"/><path class="l" d="M380.864,482.059l5.336,4.891,7.559-11.116,2.668,2.223L386.2,491.4l-7.559-8.448Z" transform="translate(-265.351 -348.261)"/></svg>