<svg xmlns="http://www.w3.org/2000/svg" width="35" height="35" viewBox="0 0 35 35"><defs><style>.a{fill:#55acee;}.b{fill:#f1f2f2;}</style></defs><g transform="translate(-0.001)"><circle class="a" cx="17.5" cy="17.5" r="17.5" transform="translate(0.001 0)"/><g transform="translate(9.977 12.489)"><path class="b" d="M41.489,35.6a6.707,6.707,0,0,1-1.931.529,3.371,3.371,0,0,0,1.478-1.86,6.73,6.73,0,0,1-2.135.816,3.365,3.365,0,0,0-5.729,3.067,9.543,9.543,0,0,1-6.929-3.513,3.366,3.366,0,0,0,1.04,4.489,3.338,3.338,0,0,1-1.523-.421c0,.014,0,.029,0,.043a3.364,3.364,0,0,0,2.7,3.3,3.375,3.375,0,0,1-1.518.058,3.365,3.365,0,0,0,3.14,2.335A6.786,6.786,0,0,1,25.1,45.834a9.56,9.56,0,0,0,14.718-8.055q0-.219-.01-.435a6.817,6.817,0,0,0,1.678-1.74Z" transform="translate(-25.103 -34.028)"/></g></g></svg>