<svg xmlns="http://www.w3.org/2000/svg" width="17.065" height="17.059" viewBox="0 0 17.065 17.059"><defs><style>.a{fill:#3405b5;}</style></defs><g transform="translate(-345.025 -345.057)"><path class="a" d="M345.866,487.824c0-.655,0-1.309,0-1.964a1.753,1.753,0,0,1,1.824-1.849q1.99-.017,3.979,0a1.748,1.748,0,0,1,1.821,1.872c0,1.292,0,2.584,0,3.877a1.736,1.736,0,0,1-1.308,1.811,2.32,2.32,0,0,1-.587.066q-1.912.008-3.824,0a1.77,1.77,0,0,1-1.9-1.9Q345.865,488.781,345.866,487.824Zm1.337,0c0,.663,0,1.325,0,1.988,0,.337.152.489.49.49q1.988,0,3.975,0a.429.429,0,0,0,.492-.491q0-1.975,0-3.95c0-.366-.157-.518-.521-.518q-1.962,0-3.923,0c-.369,0-.512.146-.513.519C347.2,486.518,347.2,487.172,347.2,487.826Z" transform="translate(-0.832 -129.526)"/><path class="a" d="M349.547,353.363c-.715,0-1.431.03-2.144-.007a1.685,1.685,0,0,1-1.643-1.719q-.03-2.068,0-4.135a1.725,1.725,0,0,1,1.763-1.746c1.369-.012,2.739-.014,4.108,0a1.727,1.727,0,0,1,1.747,1.785q.005,1.977,0,3.954a1.746,1.746,0,0,1-1.329,1.825,2.225,2.225,0,0,1-.589.055c-.638,0-1.275,0-1.912,0A.029.029,0,0,0,349.547,353.363Zm-2.456-3.8c0,.663,0,1.326,0,1.989,0,.34.147.5.48.5q2,.007,4,0a.423.423,0,0,0,.475-.484q.005-1.989,0-3.977c0-.351-.155-.5-.51-.5q-1.976,0-3.952,0c-.356,0-.495.145-.5.506C347.089,348.251,347.091,348.9,347.091,349.56Z" transform="translate(-0.72 -0.689)"/><path class="a" d="M487.794,491.619c-.732,0-1.467.048-2.194-.012a1.685,1.685,0,0,1-1.616-1.773c-.018-1.344-.02-2.688,0-4.031a1.74,1.74,0,0,1,1.824-1.8q1.99-.017,3.979,0a1.751,1.751,0,0,1,1.822,1.825q.015,1.99,0,3.979a1.76,1.76,0,0,1-1.852,1.823c-.655.006-1.309,0-1.963,0A.136.136,0,0,1,487.794,491.619Zm2.481-3.8c0-.655,0-1.309,0-1.964,0-.368-.15-.515-.521-.516q-1.951,0-3.9,0c-.386,0-.535.146-.536.529q0,1.951,0,3.9c0,.383.149.528.536.529q1.937,0,3.876,0c.4,0,.545-.14.546-.542C490.277,489.113,490.276,488.467,490.276,487.821Z" transform="translate(-129.529 -129.522)"/><path class="a" d="M487.8,353.435c-.655,0-1.31.008-1.963,0A1.743,1.743,0,0,1,484,351.625q-.025-2,0-4.005a1.746,1.746,0,0,1,1.862-1.807q1.951,0,3.9,0a1.76,1.76,0,0,1,1.863,1.862q.007,1.951,0,3.9a1.755,1.755,0,0,1-1.84,1.856C489.123,353.443,488.46,353.435,487.8,353.435Zm.012-6.286c-.655,0-1.31,0-1.964,0-.36,0-.512.144-.512.494q-.005,1.976,0,3.953c0,.349.154.506.506.508q1.976.006,3.954,0c.349,0,.5-.16.5-.514q0-1.964,0-3.928c0-.373-.142-.512-.517-.514C489.117,347.147,488.463,347.149,487.808,347.149Z" transform="translate(-129.543 -0.749)"/></g></svg>