<svg xmlns="http://www.w3.org/2000/svg" width="15.281" height="15.255" viewBox="0 0 15.281 15.255"><defs><style>.a{fill:#525252;stroke:#525252;stroke-width:0.5px;}</style></defs><g transform="translate(-225.55 -246.555)"><path class="a" d="M239.337,497.651c-2.058-.023-4.12,0-6.178,0l-6.119.008a1.328,1.328,0,0,1-.461-.037.221.221,0,0,1-.045-.02.114.114,0,0,1-.025-.014.815.815,0,0,0-.087-.042,1.353,1.353,0,0,1-.45-.385c-.006-.011-.011-.022-.02-.036a1.164,1.164,0,0,1-.146-.667c0-1.836-.006-3.675-.006-5.512a1.084,1.084,0,0,1,1.215-1.2c.453,0,.906-.006,1.355,0a.534.534,0,1,1,.011,1.063c-.441.008-.886.008-1.327,0-.152,0-.2.037-.2.2.008,1.8.014,3.594.006,5.391,0,.228.115.2.259.2q4.189-.008,8.38-.011c1.257,0,2.511-.008,3.768,0,.214,0,.264-.053.262-.264q-.017-2.636-.008-5.273c0-.2-.037-.278-.259-.267-.422.02-.844.011-1.265.006a.534.534,0,1,1-.008-1.063c.5-.008,1-.011,1.507,0a1.059,1.059,0,0,1,1.071,1.04c.008.141,0,.281.006.422l-.006,1.094c.008,1.378-.014,2.756.017,4.131A1.144,1.144,0,0,1,239.337,497.651Z" transform="translate(0 -236.101)"/><path class="a" d="M360.115,248.643l-2.025,2.05c-.056.056-.11.118-.172.169a.53.53,0,0,1-.714-.006.514.514,0,0,1-.034-.731c.191-.219.408-.416.613-.621l2.424-2.43c.38-.38.621-.382,1-.011.984.976,1.963,1.957,2.947,2.93a.608.608,0,0,1,.233.613.524.524,0,0,1-.908.205c-.661-.647-1.31-1.3-1.963-1.954a2.478,2.478,0,0,1-.183-.233l-.068.034c-.006.1-.014.208-.014.312q0,4.817.011,9.634c0,.082,0,.16,0,.242a.535.535,0,1,1-1.066.011c-.008-.43-.006-.863-.006-1.294q0-4.307-.011-8.611v-.27Z" transform="translate(-127.544 0)"/></g></svg>