<svg xmlns="http://www.w3.org/2000/svg" width="31.6" height="31.6" viewBox="0 0 31.6 31.6"><defs><style>.a{fill:#fff;}</style></defs><path class="a" d="M23.888,41.9A15.8,15.8,0,1,1,39.7,26.134,15.786,15.786,0,0,1,23.888,41.9ZM38.052,26.111A14.152,14.152,0,1,0,23.888,40.275,14.16,14.16,0,0,0,38.052,26.111Z" transform="translate(-8.1 -10.3)"/><path class="a" d="M42.329,43.153A6.744,6.744,0,0,1,40.338,33.5a6.363,6.363,0,0,1,6.567-2.746A6.431,6.431,0,0,1,52.237,35.4a6.352,6.352,0,0,1-.389,4.92A6.638,6.638,0,0,1,49.605,42.9c-.069.046-.206.069-.183.183.023.092.137.092.206.114a9.143,9.143,0,0,1,5.537,8.146c.023.275-.069.343-.32.32a8.08,8.08,0,0,0-1.053,0c-.206,0-.275-.046-.275-.252a7.5,7.5,0,0,0-6.224-7.185,7.613,7.613,0,0,0-8.878,6.43c-.023.275-.069.526-.069.8,0,.229-.092.252-.275.252-.366,0-.732-.023-1.075,0-.229.023-.3-.069-.3-.3a9.181,9.181,0,0,1,1.487-4.737,10.342,10.342,0,0,1,2.2-2.38,10.957,10.957,0,0,1,1.808-1.053A.142.142,0,0,0,42.329,43.153Zm-1.6-5.789a5.08,5.08,0,1,0,5.08-5.057A5.095,5.095,0,0,0,40.727,37.364Z" transform="translate(-30.156 -25.992)"/></svg>