<svg xmlns="http://www.w3.org/2000/svg" width="35" height="35" viewBox="0 0 35 35"><defs><style>.a{fill:red;}.b{fill:#fff;}</style></defs><g transform="translate(-12636 -5014)"><path class="a" d="M17.5,0A17.5,17.5,0,1,0,35,17.5,17.5,17.5,0,0,0,17.5,0Z" transform="translate(12636 5014)"/><g transform="translate(12636.436 5014.157)"><path class="b" d="M-12656.454-4967.687c-.068,0-6.849-.005-8.559-.467a2.745,2.745,0,0,1-1.927-1.93,28.812,28.812,0,0,1-.451-5.258,28.947,28.947,0,0,1,.451-5.261,2.8,2.8,0,0,1,1.927-1.946c1.692-.446,8.49-.452,8.559-.452s6.864.005,8.555.471a2.74,2.74,0,0,1,1.93,1.927,27.673,27.673,0,0,1,.448,5.274,29.146,29.146,0,0,1-.448,5.264,2.74,2.74,0,0,1-1.93,1.926C-12649.591-4967.692-12656.386-4967.687-12656.454-4967.687Zm-2.207-10.962h0v6.609l5.742-3.3-5.742-3.306Z" transform="translate(12673.955 4992.844)"/></g></g></svg>