<svg xmlns="http://www.w3.org/2000/svg" width="17.677" height="14.068" viewBox="0 0 17.677 14.068"><defs><style>.a{fill:#adb7ba;}</style></defs><g transform="translate(0.001 -46.994)"><g transform="translate(-0.001 46.994)"><path class="a" d="M72.013,120.939l-6.3,5.2a.149.149,0,0,1-.006.033.15.15,0,0,0-.006.033v5.263a.712.712,0,0,0,.7.7h4.21v-4.21h2.807v4.211h4.21a.713.713,0,0,0,.7-.7V126.2a.154.154,0,0,0-.011-.066Z" transform="translate(-63.175 -118.099)"/><path class="a" d="M17.554,53.847l-2.4-2V47.378a.338.338,0,0,0-.351-.351H12.7a.338.338,0,0,0-.351.351v2.138L9.671,47.279a1.36,1.36,0,0,0-1.666,0L.121,53.847A.318.318,0,0,0,0,54.082a.355.355,0,0,0,.077.258l.68.811a.374.374,0,0,0,.23.121.407.407,0,0,0,.263-.077l7.587-6.327L16.425,55.2a.338.338,0,0,0,.23.076h.033a.374.374,0,0,0,.23-.121l.68-.811a.355.355,0,0,0,.076-.258A.319.319,0,0,0,17.554,53.847Z" transform="translate(0.001 -46.994)"/></g></g></svg>